<svg height="219" viewBox="0 0 960 219" width="960" xmlns="http://www.w3.org/2000/svg"><g fill="none" fill-rule="evenodd"><g fill-rule="nonzero" transform=""><path d="m-26.6228345 142.102857c-.0342857 1.097143-.3942857 2.04-1.0114285 2.605714-.5485715.497143-1.2.771429-2.1085715.771429-1.1657143 0-1.8514285-.445714-2.3657143-1.028571-.9085714-1.028572-.8914285-2.794286-.8914285-5.194286s-.0171429-4.2.8914285-5.228572c.5142858-.582857 1.2-1.028571 2.3657143-1.028571.9257143 0 1.5771429.274286 2.1257143.788571.6.565715.9428572 1.491429.9771429 2.571429h-1.92c-.0171429-.445714-.0857143-.874286-.2914286-1.182857-.1714286-.274286-.4285714-.445714-.8914286-.445714-.4628571 0-.7371428.188571-.9085714.462857-.36.582857-.4285714 1.817143-.4285714 4.045714s.0685714 3.462857.4285714 4.045714c.1714286.274286.4457143.462857.9085714.462857.4628572 0 .7371429-.171428.9085715-.445714.2057142-.308571.2742857-.754286.2914285-1.2zm14.6228571-2.862857c0 2.4.0171429 4.182857-.8914286 5.211429-.5142857.582857-1.2 1.028571-2.3657143 1.028571-1.1657142 0-1.8514285-.445714-2.3657142-1.028571-.9085715-1.028572-.8914286-2.811429-.8914286-5.211429s-.0171429-4.182857.8914286-5.211429c.5142857-.582857 1.2-1.028571 2.3657142-1.028571 1.1657143 0 1.8514286.445714 2.3657143 1.028571.9085715 1.028572.8914286 2.811429.8914286 5.211429zm-1.92 0c0-2.228571-.0514286-3.462857-.4114286-4.045714-.1714285-.274286-.4628571-.462857-.9257143-.462857-.4628571 0-.7371428.188571-.9085714.462857-.36.582857-.4285714 1.817143-.4285714 4.045714s.0685714 3.462857.4285714 4.045714c.1714286.274286.4457143.462857.9085714.462857.4628572 0 .7542858-.188571.9257143-.462857.36-.582857.4114286-1.817143.4114286-4.045714zm15.70285708 6.102857h-5.12571429v-12.205714h1.92v10.474286h3.20571429zm14.22857132-6.102857c0 2.4.0171429 4.182857-.8914285 5.211429-.5142857.582857-1.2 1.028571-2.3657143 1.028571s-1.8514286-.445714-2.3657143-1.028571c-.90857143-1.028572-.89142857-2.811429-.89142857-5.211429s-.01714286-4.182857.89142857-5.211429c.5142857-.582857 1.2-1.028571 2.3657143-1.028571s1.8514286.445714 2.3657143 1.028571c.9085714 1.028572.8914285 2.811429.8914285 5.211429zm-1.92 0c0-2.228571-.0514285-3.462857-.4114285-4.045714-.1714286-.274286-.4628572-.462857-.9257143-.462857-.4628572 0-.7371429.188571-.9085714.462857-.36.582857-.4285715 1.817143-.4285715 4.045714s.0685715 3.462857.4285715 4.045714c.1714285.274286.4457142.462857.9085714.462857.4628571 0 .7542857-.188571.9257143-.462857.36-.582857.4114285-1.817143.4114285-4.045714zm17.1771428 6.102857h-2.0057143l-1.5942857-5.005714h-1.08v5.005714h-1.92v-12.205714h3.0857143c2.2285714 0 3.12 1.08 3.12 3.6 0 1.508571-.3085714 2.588571-1.4228571 3.188571zm-2.3142857-8.605714c0-1.011429-.1542857-1.868572-1.1828571-1.868572h-1.1828572v3.737143h1.1828572c1.0285714 0 1.1828571-.857143 1.1828571-1.868571zm16.7314285 5.228571c0 1.251429-.1714285 2.091429-.7885714 2.691429-.4971429.48-1.3028571.805714-2.3828571.805714-1.0628572 0-1.8514286-.291428-2.3657143-.805714-.5828572-.582857-.7885715-1.337143-.7885715-2.622857h1.92c0 .651428.0685715 1.062857.3428572 1.371428.1714286.188572.4628571.325715.8914286.325715.4457142 0 .7371428-.12.9257142-.342858.2571429-.291428.3257143-.702857.3257143-1.354285 0-1.302857-.2057143-1.628572-1.1485714-2.005715l-1.4571429-.6c-1.2342857-.514285-1.6971428-1.182857-1.6971428-3.068571 0-1.097143.3257143-1.988571.9942857-2.588571.5314286-.462858 1.2171429-.737143 2.0914286-.737143.9771428 0 1.6971428.257143 2.1942857.737143.6342857.617142.8571428 1.491428.8571428 2.657142h-1.92c0-.548571-.0342857-.977142-.2914285-1.302857-.1714286-.222857-.4457143-.36-.8571429-.36-.3942857 0-.6342857.137143-.8228571.342857-.2228572.257143-.3257143.668572-.3257143 1.2 0 .994286.1542857 1.302858 1.0114286 1.645715l1.44.582857c1.4571428.6 1.8514285 1.371428 1.8514285 3.428571z" fill="#1a1919" transform="matrix(0 -1 1 0 -132.897132 145.582868)"/><g fill="#00a3da"><path d="m7 214.429688h-1v-20.429688h1z"/><path d="m7 83.9285714h-1v-83.9285714h1z"/></g></g><g transform="translate(88.285714 -.428571)"><path d="m.857143.428571h180v219h-180z" fill="#56cadc"/><path d="m34.8888571 35.4777143h-1.224l-.2622857 1.8505714h1.0345715v1.4571429h-1.2677143l-.4225715 2.9288571h-1.6174285l.4225714-2.9288571h-1.5591429l-.4225714 2.9288571h-1.6028571l.4225714-2.9288571h-.9908571v-1.4571429h1.224l.2622857-1.8505714h-1.0345715l-.0145714-1.4717143h1.2822857l.3788572-2.6665714h1.6174285l-.3934285 2.6665714h1.5591428l.3934286-2.6665714h1.6028571l-.3788571 2.6665714h.9908571zm-2.8268571 0h-1.5591429l-.2768571 1.8505714h1.5591429zm10.3722857 2.7394286c0 1.3697142-.0145714 2.2877142-.6994285 2.9725714-.408.408-1.0054286.6411428-1.6465715.6411428-.6411428 0-1.2531428-.204-1.6611428-.5974285-.408-.3934286-.6557143-.9034286-.6557143-1.734v-.51h1.5445714v.714c0 .6265714.3351429.9034285.7722857.9034285.2477143 0 .4225715-.0728571.5682857-.2768571.2331429-.306.2331429-1.1074286.2331429-1.9671429 0-.8597142 0-1.5154285-.204-1.836-.1311429-.2185714-.3497143-.3205714-.5974286-.3205714-.4371428 0-.7722857.3205714-.7722857.8888572v.2185714h-1.4717143v-5.9742857h4.4734286v1.3842857h-3.06v2.7831428c.1457143-.1894285.3351429-.3788571.5391429-.4954285.2185714-.1165715.4808571-.1894286.7431428-.1894286.6411429 0 1.0637143.204 1.3988572.6265714.4371428.5391429.4954285 1.5008572.4954285 2.7685715zm7.4142858.3497142c0 1.3842858-.1602857 1.9525715-.4954286 2.4334286-.408.5828572-1.0928571.8305714-1.8505714.8305714-.8305715 0-1.4425715-.306-1.8068572-.8305714-.408-.5828571-.5245714-1.1802857-.5245714-2.4334286 0-.9325714.1748571-1.7777142.4225714-2.448l1.8214286-4.7794285h1.6028571l-1.7048571 4.1965714c.1748571-.1311429.4225714-.1748571.6411429-.1748571.5537142 0 1.0345714.204 1.3697142.6411428.3788572.4808572.5245715 1.0345714.5245715 2.5645714zm-1.5445715-.0145714c0-.6265714.0145715-1.3405714-.2331428-1.6611428-.1311429-.1748572-.3351429-.2622858-.5537143-.2622858s-.4371429.0874286-.5682857.2622858c-.2477143.3205714-.2331429 1.0345714-.2331429 1.6611428s-.0145714 1.2968572.2331429 1.632c.1311428.1748572.3497143.2622857.5682857.2622857.2331429 0 .4225714-.0874285.5537143-.2622857.2477143-.3205714.2331428-1.0054286.2331428-1.632zm9.7311429.408c-.0291428.9325714-.3351428 1.734-.8597143 2.2148572-.4662857.4225714-1.02.6557142-1.7922857.6557142-.9908571 0-1.5737143-.3788571-2.0108571-.8742857-.7722857-.8742857-.7577143-2.3751428-.7577143-4.4151428s-.0145714-3.57.7577143-4.4442857c.4371428-.4954286 1.02-.8742858 2.0108571-.8742858.7868572 0 1.3405714.2331429 1.8068572.6702858.51.4808571.8014285 1.2677142.8305714 2.1857142h-1.632c-.0145714-.3788571-.0728572-.7431428-.2477143-1.0054285-.1457143-.2331429-.3642857-.3788572-.7577143-.3788572s-.6265714.1602857-.7722857.3934286c-.306.4954286-.3642857 1.5445714-.3642857 3.4388571 0 1.8942858.0582857 2.9434286.3642857 3.4388572.1457143.2331428.3788571.3934286.7722857.3934286s.6265714-.1457143.7722857-.3788572c.1748572-.2622857.2331429-.6411428.2477143-1.02zm8.7111429 2.754h-1.7048571l-.4225715-2.0545714h-2.4042857l-.408 2.0545714h-1.7194286l2.55-10.3748571h1.5882858zm-2.4334286-3.5262857-.8888571-4.3422857-.8888572 4.3422857zm10.3868572-1.6611429c0 1.9962858.0145714 3.468-.7577143 4.3277143-.4225714.4808572-1.02.8597143-2.0108571.8597143h-2.6374286v-10.3748571h2.6374286c.9908571 0 1.5882857.3788571 2.0108571.8597143.7722857.8597142.7577143 2.3314285.7577143 4.3277142zm-1.632-.0145714c0-1.8068571-.0437143-2.7977143-.3497143-3.2785714-.1602857-.2477143-.4371429-.4225714-.8305714-.4225714h-.9617143v7.4314285h.9617143c.3934285 0 .6702857-.1748571.8305714-.4225714.306-.4808571.3497143-1.5008571.3497143-3.3077143zm9.8331429 2.448c-.0291429.9325714-.3351429 1.734-.8597143 2.2148572-.4662857.4225714-1.02.6557142-1.7922857.6557142-.9908572 0-1.5737143-.3788571-2.0108572-.8742857-.7722857-.8742857-.7577143-2.3751428-.7577143-4.4151428s-.0145714-3.57.7577143-4.4442857c.4371429-.4954286 1.02-.8742858 2.0108572-.8742858.7868571 0 1.3405714.2331429 1.8068571.6702858.51.4808571.8014286 1.2677142.8305714 2.1857142h-1.632c-.0145714-.3788571-.0728571-.7431428-.2477142-1.0054285-.1457143-.2331429-.3642858-.3788572-.7577143-.3788572-.3934286 0-.6265715.1602857-.7722857.3934286-.306.4954286-.3642858 1.5445714-.3642858 3.4388571 0 1.8942858.0582858 2.9434286.3642858 3.4388572.1457142.2331428.3788571.3934286.7722857.3934286.3934285 0 .6265714-.1457143.7722857-.3788572.1748571-.2622857.2331428-.6411428.2477143-1.02z" fill="#fff" fill-rule="nonzero"/></g><g transform="translate(262.571429 -.428571)"><path d="m.571429.428571h181v219h-181z" fill="#00a3da"/><path d="m32.8888571 35.4777143h-1.224l-.2622857 1.8505714h1.0345715v1.4571429h-1.2677143l-.4225715 2.9288571h-1.6174285l.4225714-2.9288571h-1.5591429l-.4225714 2.9288571h-1.6028571l.4225714-2.9288571h-.9908571v-1.4571429h1.224l.2622857-1.8505714h-1.0345715l-.0145714-1.4717143h1.2822857l.3788572-2.6665714h1.6174285l-.3934285 2.6665714h1.5591428l.3934286-2.6665714h1.6028571l-.3788571 2.6665714h.9908571zm-2.8268571 0h-1.5591429l-.2768571 1.8505714h1.5591429zm10.3285714 4.0217143c0 .8305714-.2477142 1.326-.6557142 1.7194285-.408.3934286-1.0054286.612-1.6465715.612-.6411428 0-1.2531428-.2185714-1.6611428-.612-.408-.3934285-.6557143-.8888571-.6557143-1.7194285v-5.9451429c0-.8305714.2477143-1.326.6557143-1.7194286.408-.3934285 1.02-.612 1.6611428-.612.6411429 0 1.2385715.2185715 1.6465715.612.408.3934286.6557142.8888572.6557142 1.7194286zm-1.5445714.0582857v-6.0617143c0-.5974286-.3351428-.8888571-.7577143-.8888571-.4225714 0-.7722857.2914285-.7722857.8888571v6.0617143c0 .5974286.3497143.8888571.7722857.8888571.4225715 0 .7577143-.2914285.7577143-.8888571zm8.9734286-.0582857c0 .8305714-.2477143 1.326-.6557143 1.7194285-.408.3934286-1.0054285.612-1.6465714.612s-1.2531429-.2185714-1.6611429-.612c-.408-.3934285-.6557142-.8888571-.6557142-1.7194285v-5.9451429c0-.8305714.2477142-1.326.6557142-1.7194286.408-.3934285 1.02-.612 1.6611429-.612s1.2385714.2185715 1.6465714.612c.408.3934286.6557143.8888572.6557143 1.7194286zm-1.5445714.0582857v-6.0617143c0-.5974286-.3351429-.8888571-.7577143-.8888571s-.7722857.2914285-.7722857.8888571v6.0617143c0 .5974286.3497143.8888571.7722857.8888571s.7577143-.2914285.7577143-.8888571zm10.4742857 2.1565714h-1.7048571l-.4225715-2.0545714h-2.4042857l-.408 2.0545714h-1.7194285l2.55-10.3748571h1.5882857zm-2.4334286-3.5262857-.8888571-4.3422857-.8888571 4.3422857zm9.3668572.5682857c0 1.1074286-.0291428 1.836-.6848571 2.4771429-.408.3934285-1.02.5974285-1.6611429.5974285-.6411428 0-1.2677143-.2185714-1.6757143-.612-.408-.3934285-.6411428-.8888571-.6411428-1.7194285v-.612h1.5445714v.6702857c0 .5974286.3497143.8888571.7722857.8888571.2477143 0 .4371429-.1165714.5537143-.2622857.2185714-.2768571.2477143-.8888571.2477143-1.53 0-.6994286-.0145714-1.224-.2331429-1.5154286-.1311428-.1748571-.3205714-.2622857-.5828571-.2622857h-.51v-1.2968571h.51c.2185714 0 .3788571-.0728572.4954286-.204.2331428-.2622857.2331428-.7722857.2331428-1.3114286 0-.5245714-.0145714-.9762857-.204-1.224-.1165714-.1457143-.2768571-.2331428-.51-.2331428-.3934286 0-.6994286.2768571-.6994286.8305714v.7285714h-1.5445714v-.6265714c0-.8014286.2331429-1.326.6411429-1.7194286s.9617143-.5974286 1.6028571-.5974286c.6848572 0 1.224.2185715 1.5882857.5828572.4662857.4662857.6702857 1.1365714.6702857 2.1565714 0 .6994286-.0291428 1.1948572-.2622857 1.6465714-.1311428.2477143-.3205714.4517143-.5682857.612.2477143.1748572.4662857.3788572.5974286.6265715.2768571.4954285.3205714 1.02.3205714 1.9088571zm8.4488572-2.2294286c0 1.9962858.0145714 3.468-.7577143 4.3277143-.4225714.4808572-1.02.8597143-2.0108572.8597143h-2.6374285v-10.3748571h2.6374285c.9908572 0 1.5882858.3788571 2.0108572.8597143.7722857.8597142.7577143 2.3314285.7577143 4.3277142zm-1.632-.0145714c0-1.8068571-.0437143-2.7977143-.3497143-3.2785714-.1602857-.2477143-.4371429-.4225714-.8305714-.4225714h-.9617143v7.4314285h.9617143c.3934285 0 .6702857-.1748571.8305714-.4225714.306-.4808571.3497143-1.5008571.3497143-3.3077143zm10.4451429 5.202h-1.7048572l-.4225714-2.0545714h-2.4042857l-.408 2.0545714h-1.7194286l2.55-10.3748571h1.5882857zm-2.4334286-3.5262857-.8888572-4.3422857-.8888571 4.3422857z" fill="#fff" fill-rule="nonzero"/></g><g transform="translate(436.428571 -.428571)"><path d="m.714286.428571h179v219h-179z" fill="#7e89a3"/><path d="m33.8888571 34.6205714h-1.224l-.2622857 1.8505715h1.0345715v1.4571428h-1.2677143l-.4225715 2.9288572h-1.6174285l.4225714-2.9288572h-1.5591429l-.4225714 2.9288572h-1.6028571l.4225714-2.9288572h-.9908571v-1.4571428h1.224l.2622857-1.8505715h-1.0345715l-.0145714-1.4717143h1.2822857l.3788572-2.6665714h1.6174285l-.3934285 2.6665714h1.5591428l.3934286-2.6665714h1.6028571l-.3788571 2.6665714h.9908571zm-2.8268571 0h-1.5591429l-.2768571 1.8505715h1.5591429zm10.416-2.856-2.7248571 9.0925715h-1.5445715l2.7248572-8.9905715h-1.8068572v1.3842857h-1.4862857v-2.7685714h4.8377143zm7.3414286 9.0925715h-4.3568571v-10.3748572h4.3568571v1.4717143h-2.7248571v2.9434286h2.346v1.4717143h-2.346v3.0162857h2.7248571zm7.3851429-2.9288572c0 1.1365714-.0728572 1.8214286-.6848572 2.4334286-.408.408-1.02.612-1.6465714.612s-1.2531428-.204-1.6611428-.612c-.612-.612-.6848572-1.2968572-.6848572-2.4334286 0-.8742857.0582857-1.3842857.306-1.836.1311429-.2622857.3497143-.4662857.612-.6557143-.2477143-.1748571-.4371428-.3934285-.5682857-.6411428-.2331429-.4517143-.2768571-.9034286-.2768571-1.6174286 0-1.0054286.1457142-1.6902857.6702857-2.2148571.408-.408.9617143-.5974286 1.5882857-.5974286s1.1948571.1894286 1.6028571.5974286c.5245715.5245714.6702857 1.2094285.6702857 2.2148571 0 .714-.0437142 1.1657143-.2768571 1.6174286-.1311429.2477143-.3205714.4662857-.5682857.6411428.2622857.1894286.4662857.3934286.612.6557143.2477143.4517143.306.9617143.306 1.836zm-1.5445714-.0728571c0-.6557143.0145714-1.224-.2331429-1.53-.1311429-.1602857-.3351429-.2477143-.5537143-.2477143s-.4371428.0874286-.5682857.2477143c-.2477143.306-.2331429.8742857-.2331429 1.53 0 .5974285 0 1.1802857.2331429 1.4862857.1311429.1602857.3497143.2477143.5682857.2477143s.4225714-.0874286.5537143-.2477143c.2331429-.2914286.2331429-.8888572.2331429-1.4862857zm-.0728572-4.6045715c0-.4954285 0-1.0345714-.2185714-1.2968571-.1165714-.1457143-.2914286-.204-.4954286-.204s-.3934286.0582857-.51.204c-.2185714.2622857-.2185714.8014286-.2185714 1.2968571 0 .51-.0145714 1.0928572.2622857 1.3551429.1165714.1165714.2768571.1748571.4662857.1748571s.3497143-.0582857.4662857-.1748571c.2768572-.2622857.2477143-.8451429.2477143-1.3551429zm9.0462858.3788572c0 .9325714-.1748572 1.7777143-.4225715 2.448l-1.8214285 4.7794286h-1.6028572l1.7048572-4.1965715c-.1748572.1311429-.408.1748572-.6265715.1748572-.5537143 0-1.0491428-.204-1.3842857-.6411429-.3788571-.4808571-.5245714-1.0345714-.5245714-2.5645714 0-1.3842857.1748571-1.9525714.51-2.4334286.408-.5828571 1.0782857-.8305714 1.836-.8305714.8305714 0 1.4571428.306 1.8214286.8305714.408.5828572.51 1.1802857.51 2.4334286zm-1.5445715.0145714c0-.6265714.0145715-1.2968571-.2331428-1.632-.1311429-.1748571-.3351429-.2622857-.5537143-.2622857-.2331429 0-.4371429.0874286-.5682857.2622857-.2477143.3205714-.2331429 1.0054286-.2331429 1.632s-.0145714 1.3405714.2331429 1.6611429c.1311428.1748571.3497143.2622857.5682857.2622857s.4225714-.0874286.5537143-.2622857c.2477143-.3205715.2331428-1.0345715.2331428-1.6611429zm10.4451429 7.2128572h-1.7048571l-.4225715-2.0545715h-2.4042857l-.408 2.0545715h-1.7194286l2.55-10.3748572h1.5882858zm-2.4334286-3.5262858-.8888571-4.3422857-.8888572 4.3422857zm9.3668572.5682858c0 1.1074285-.0291429 1.836-.6848571 2.4771428-.408.3934286-1.02.5974286-1.6611429.5974286s-1.2677143-.2185714-1.6757143-.612-.6411428-.8888572-.6411428-1.7194286v-.612h1.5445714v.6702857c0 .5974286.3497143.8888572.7722857.8888572.2477143 0 .4371429-.1165715.5537143-.2622857.2185714-.2768572.2477143-.8888572.2477143-1.53 0-.6994286-.0145715-1.224-.2331429-1.5154286-.1311428-.1748572-.3205714-.2622857-.5828571-.2622857h-.51v-1.2968572h.51c.2185714 0 .3788571-.0728571.4954285-.204.2331429-.2622857.2331429-.7722857.2331429-1.3114285 0-.5245715-.0145714-.9762858-.204-1.224-.1165714-.1457143-.2768571-.2331429-.51-.2331429-.3934286 0-.6994286.2768571-.6994286.8305714v.7285715h-1.5445714v-.6265715c0-.8014285.2331429-1.326.6411429-1.7194285.408-.3934286.9617142-.5974286 1.6028571-.5974286.6848571 0 1.224.2185714 1.5882857.5828571.4662857.4662857.6702857 1.1365715.6702857 2.1565715 0 .6994285-.0291428 1.1948571-.2622857 1.6465714-.1311428.2477143-.3205714.4517143-.5682857.612.2477143.1748571.4662857.3788571.5974286.6265714.2768571.4954286.3205714 1.02.3205714 1.9088572z" fill="#fff" fill-rule="nonzero"/></g><g transform="translate(610.285714 -.428571)"><path d="m.857143.428571h179v219h-179z" fill="#272e3a"/><path d="m34.8888571 35.4777143h-1.224l-.2622857 1.8505714h1.0345715v1.4571429h-1.2677143l-.4225715 2.9288571h-1.6174285l.4225714-2.9288571h-1.5591429l-.4225714 2.9288571h-1.6028571l.4225714-2.9288571h-.9908571v-1.4571429h1.224l.2622857-1.8505714h-1.0345715l-.0145714-1.4717143h1.2822857l.3788572-2.6665714h1.6174285l-.3934285 2.6665714h1.5591428l.3934286-2.6665714h1.6028571l-.3788571 2.6665714h.9908571zm-2.8268571 0h-1.5591429l-.2768571 1.8505714h1.5591429zm10.3431429 6.2365714h-4.5608572v-1.3114286l2.5937143-5.0417142c.2331429-.4371429.4225714-1.0928572.4225714-1.8505715 0-.5974285-.3205714-.9034285-.7431428-.9034285s-.7722857.2914285-.7722857.8888571v.6702857h-1.5445715v-.612c0-.8305714.2331429-1.326.6411429-1.7194286.408-.3934285 1.0491429-.612 1.6757143-.612s1.1802857.1602858 1.6028571.5537143c.408.3788572.6848572.9617143.6848572 1.7922857 0 .7577143-.2331429 1.632-.5682857 2.2731429l-2.346 4.488h2.9142857zm7.5017143-9.0925714-2.7248572 9.0925714h-1.5445714l2.7248572-8.9905714h-1.8068572v1.3842857h-1.4862857v-2.7685714h4.8377143zm7.356 9.0925714h-4.5608571v-1.3114286l2.5937142-5.0417142c.2331429-.4371429.4225715-1.0928572.4225715-1.8505715 0-.5974285-.3205715-.9034285-.7431429-.9034285s-.7722857.2914285-.7722857.8888571v.6702857h-1.5445714v-.612c0-.8305714.2331428-1.326.6411428-1.7194286.408-.3934285 1.0491429-.612 1.6757143-.612s1.1802857.1602858 1.6028572.5537143c.408.3788572.6848571.9617143.6848571 1.7922857 0 .7577143-.2331429 1.632-.5682857 2.2731429l-2.346 4.488h2.9142857zm7.4142857 0h-4.3568571v-10.3748571h4.3568571v1.4717143h-2.7248571v2.9434285h2.346v1.4717143h-2.346v3.0162857h2.7248571zm7.3851429-2.958c0 1.1074286-.0291428 1.836-.6848571 2.4771429-.408.3934285-1.02.5974285-1.6611429.5974285-.6411428 0-1.2677143-.2185714-1.6757143-.612-.408-.3934285-.6411428-.8888571-.6411428-1.7194285v-.612h1.5445714v.6702857c0 .5974286.3497143.8888571.7722857.8888571.2477143 0 .4371429-.1165714.5537143-.2622857.2185714-.2768571.2477143-.8888571.2477143-1.53 0-.6994286-.0145714-1.224-.2331429-1.5154286-.1311428-.1748571-.3205714-.2622857-.5828571-.2622857h-.51v-1.2968571h.51c.2185714 0 .3788571-.0728572.4954286-.204.2331428-.2622857.2331428-.7722857.2331428-1.3114286 0-.5245714-.0145714-.9762857-.204-1.224-.1165714-.1457143-.2768571-.2331428-.51-.2331428-.3934286 0-.6994286.2768571-.6994286.8305714v.7285714h-1.5445714v-.6265714c0-.8014286.2331429-1.326.6411429-1.7194286s.9617143-.5974286 1.6028571-.5974286c.6848572 0 1.224.2185715 1.5882857.5828572.4662857.4662857.6702857 1.1365714.6702857 2.1565714 0 .6994286-.0291428 1.1948572-.2622857 1.6465714-.1311428.2477143-.3205714.4517143-.5682857.612.2477143.1748572.4662857.3788572.5974286.6265715.2768571.4954285.3205714 1.02.3205714 1.9088571zm8.9005715 2.958h-1.7048572l-.4225714-2.0545714h-2.4042857l-.408 2.0545714h-1.7194286l2.55-10.3748571h1.5882857zm-2.4334286-3.5262857-.8888571-4.3422857-.8888572 4.3422857z" fill="#fff" fill-rule="nonzero"/></g><g transform="translate(784.285714 -.428571)"><path d="m.857143.428571h174v219h-174z" fill="#1a1919"/><path d="m34.8888571 35.4777143h-1.224l-.2622857 1.8505714h1.0345715v1.4571429h-1.2677143l-.4225715 2.9288571h-1.6174285l.4225714-2.9288571h-1.5591429l-.4225714 2.9288571h-1.6028571l.4225714-2.9288571h-.9908571v-1.4571429h1.224l.2622857-1.8505714h-1.0345715l-.0145714-1.4717143h1.2822857l.3788572-2.6665714h1.6174285l-.3934285 2.6665714h1.5591428l.3934286-2.6665714h1.6028571l-.3788571 2.6665714h.9908571zm-2.8268571 0h-1.5591429l-.2768571 1.8505714h1.5591429zm9.2211429 6.2365714h-1.5445715v-8.568l-1.5591428 1.1948572v-1.7485715l1.5591428-1.2531428h1.5445715zm10.0371429 0h-1.7048572l-.4225714-2.0545714h-2.4042857l-.408 2.0545714h-1.7194286l2.55-10.3748571h1.5882857zm-2.4334286-3.5262857-.8888572-4.3422857-.8888571 4.3422857zm8.2302857 3.5262857h-1.5445714v-8.568l-1.5591429 1.1948572v-1.7485715l1.5591429-1.2531428h1.5445714zm8.5654286-7.2274286c0 .9325715-.1748571 1.7777143-.4225714 2.448l-1.8214286 4.7794286h-1.6028571l1.7048571-4.1965714c-.1748571.1311428-.408.1748571-.6265714.1748571-.5537143 0-1.0491429-.204-1.3842857-.6411428-.3788572-.4808572-.5245715-1.0345715-.5245715-2.5645715 0-1.3842857.1748572-1.9525714.51-2.4334285.408-.5828572 1.0782858-.8305715 1.836-.8305715.8305715 0 1.4571429.306 1.8214286.8305715.408.5828571.51 1.1802857.51 2.4334285zm-1.5445714.0145715c0-.6265715.0145714-1.2968572-.2331429-1.632-.1311428-.1748572-.3351428-.2622857-.5537143-.2622857-.2331428 0-.4371428.0874285-.5682857.2622857-.2477143.3205714-.2331428 1.0054285-.2331428 1.632 0 .6265714-.0145715 1.3405714.2331428 1.6611428.1311429.1748572.3497143.2622857.5682857.2622857.2185715 0 .4225715-.0874285.5537143-.2622857.2477143-.3205714.2331429-1.0345714.2331429-1.6611428zm7.8368571 7.2128571h-1.5445714v-8.568l-1.5591428 1.1948572v-1.7485715l1.5591428-1.2531428h1.5445714zm8.5654286-7.2274286c0 .9325715-.1748571 1.7777143-.4225714 2.448l-1.8214286 4.7794286h-1.6028571l1.7048571-4.1965714c-.1748571.1311428-.408.1748571-.6265714.1748571-.5537143 0-1.0491428-.204-1.3842857-.6411428-.3788571-.4808572-.5245714-1.0345715-.5245714-2.5645715 0-1.3842857.1748571-1.9525714.51-2.4334285.408-.5828572 1.0782857-.8305715 1.836-.8305715.8305714 0 1.4571428.306 1.8214285.8305715.408.5828571.51 1.1802857.51 2.4334285zm-1.5445714.0145715c0-.6265715.0145714-1.2968572-.2331428-1.632-.1311429-.1748572-.3351429-.2622857-.5537143-.2622857-.2331429 0-.4371429.0874285-.5682857.2622857-.2477143.3205714-.2331429 1.0054285-.2331429 1.632 0 .6265714-.0145714 1.3405714.2331429 1.6611428.1311428.1748572.3497142.2622857.5682857.2622857.2185714 0 .4225714-.0874285.5537143-.2622857.2477142-.3205714.2331428-1.0345714.2331428-1.6611428z" fill="#fff" fill-rule="nonzero"/></g></g></svg>