<svg height="217" viewBox="0 0 960 217" width="960" xmlns="http://www.w3.org/2000/svg"><g fill="none" fill-rule="evenodd"><g fill-rule="nonzero"><g fill="#00a3da" transform="translate(883 156.571429)"><path d="m58.181875 42.7251458v-39.13253903c0-.26741066-.2303697-.49546391-.5120536-.49546391h-54.06062497c-.28168383 0-.51205357.22805325-.51205357.49546391v39.13253903c0 .2683831.22956392.4954639.51205357.4954639h54.06062497c.2824897 0 .5120536-.2270808.5120536-.4954639zm2.1942857 0c0 1.4856278-1.217289 2.6897496-2.7063393 2.6897496h-54.06062497c-1.48905029 0-2.70633929-1.2041218-2.70633929-2.6897496v-39.13253903c0-1.4842731 1.21772134-2.68974963 2.70633929-2.68974963h54.06062497c1.488618 0 2.7063393 1.20547653 2.7063393 2.68974963z"/><path d="m37.1925969 51.0888924c-.219313-.5648534.0608029-1.2005459.6256563-1.4198588.5648534-.219313 1.2005459.0608029 1.4198588.6256563l3.8374399 9.8835519h-24.691199l3.8367105-9.8834885c.2192779-.564867.854953-.8450223 1.41982-.6257443.564867.2192779.8450223.854953.6257443 1.41982l-2.6766466 6.8951271h18.2797295z"/><path d="m16.199856 35.0865426c-.4306901.4262202-1.1253531.4225966-1.5515732-.0080934-.4262202-.4306901-.4225967-1.1253531.0080934-1.5515732l9.3351194-9.2382357 5.4371641 5.3799267 10.7972924-10.685388 6.8717372 6.8015615c.4306542.4262563.4342195 1.1209196.0079631 1.5515738-.4262563.4306543-1.1209196.4342195-1.5515738.0079632l-5.328245-5.2738317-10.7970468 10.6851451-5.4371753-5.3799378z"/><path d="m23.017942 15.9639052c0-1.2227764-1.0066596-2.2183211-2.2546518-2.2183211-1.2471086 0-2.2528572.9952573-2.2528572 2.2183211 0 1.2235863 1.0062706 2.2200972 2.2528572 2.2200972 1.2474702 0 2.2546518-.9967983 2.2546518-2.2200972zm2.1942857 0c0 2.4402887-1.9946577 4.4143829-4.4489375 4.4143829-2.4536957 0-4.4471429-1.974113-4.4471429-4.4143829 0-2.4401149 1.9932846-4.4126068 4.4471429-4.4126068 2.4544427 0 4.4489375 1.9724729 4.4489375 4.4126068z"/></g><g fill="#00a3da" transform="translate(286.714286 29.714286)"><path d="m25.7616582 12.6824777c0-5.28732861-4.4208065-9.58533487-9.8905485-9.58533487-5.4697421 0-9.8905485 4.29800626-9.8905485 9.58533487 0 5.2873286 4.4208064 9.5853348 9.8905485 9.5853348 5.469742 0 9.8905485-4.2980062 9.8905485-9.5853348zm2.1942857 0c0 6.5132484-5.4168399 11.7796205-12.0848342 11.7796205s-12.08483417-5.2663721-12.08483417-11.7796205c0-6.51324844 5.41683987-11.77962053 12.08483417-11.77962053s12.0848342 5.26637209 12.0848342 11.77962053z"/><path d="m55.0621684 12.6824777c0-5.28732861-4.4208064-9.58533487-9.8905485-9.58533487s-9.8905485 4.29800626-9.8905485 9.58533487c0 5.2873286 4.4208064 9.5853348 9.8905485 9.5853348s9.8905485-4.2980062 9.8905485-9.5853348zm2.1942857 0c0 6.5132484-5.4168399 11.7796205-12.0848342 11.7796205s-12.0848342-5.2663721-12.0848342-11.7796205c0-6.51324844 5.4168399-11.77962053 12.0848342-11.77962053s12.0848342 5.26637209 12.0848342 11.77962053z"/><path d="m36.3804589 7.43293373-1.9513515 1.00355219c-.0845018-.16430913-.3317524-.48481915-.7661525-.82268594-.7639628-.59419324-1.7868817-.95583125-3.1415901-.95583125s-2.3776273.36163801-3.1415901.95583125c-.4344001.33786679-.6816507.65837681-.7661525.82268594l-1.9513515-1.00355219c.2207118-.42916186.6601919-.99885831 1.370343-1.551198 1.1436225-.88948421 2.6387162-1.41805267 4.4887511-1.41805267s3.3451286.52856846 4.4887511 1.41805267c.7101511.55233969 1.1496312 1.12203614 1.370343 1.551198z"/><path d="m56.1593112 13.7796205v-2.1942857h4.8834184v2.1942857z"/><path d="m0 13.7796205v-2.1942857h4.88341837v2.1942857z"/></g><g fill="#00a3da" transform="translate(691 4)"><path d="m3.23631572 17.4077018 1.79903456 30.4046822c.26427986 4.4610319 3.98391454 7.947616 8.48485502 7.947616h22.6894049c4.5017023 0 8.2205494-3.4861492 8.4848503-7.9475371l1.7990393-30.4047611zm32.97329448 40.5465839h-22.6894049c-5.65977985 0-10.3421767-4.3890252-10.67530492-10.0122144l-1.93654325-32.7286551h47.91310117l-1.9365479 32.7287339c-.3331468 5.6235033-5.014717 10.0121356-10.6753002 10.0121356z"/><path d="m16.3654184 28.2360248h-2.1942857v-16.6956521c0-5.87606102 4.7896525-10.63751553 10.694015-10.63751553 5.9043624 0 10.6940149 4.76145451 10.6940149 10.63751553v16.6956521h-2.1942856v-16.6956521c0-4.66128065-3.8043465-8.44322987-8.4997293-8.44322987-4.6953829 0-8.4997293 3.78194922-8.4997293 8.44322987z"/></g><g fill="#00a3da" transform="translate(90.142857 2.285714)"><path d="m23.3467917 3.6246737c-.0802842.0581341-.1665704.12096312-.2586497.18841881-.7176681.52575129-1.5186379 1.137735-2.3819608 1.82905747-2.4680087 1.97630537-4.9362072 4.18837963-7.2366537 6.57951402-6.49574178 6.7518162-10.37207411 13.5562518-10.37207411 19.8956421 0 11.0171604 9.06752681 19.9555103 20.26000001 19.9555103 11.1930031 0 20.2606212-8.9382602 20.2606212-19.9555103 0-.2955131-.009229-.5930233-.0276039-.8925123-.3607221-5.8793403-4.1815574-12.3189098-10.3493127-18.8069757-2.302502-2.42207801-4.7728493-4.67938816-7.243065-6.70903678-.8641691-.71004313-1.6659789-1.34044195-2.3844827-1.883525-.0951869-.07194723-.1842029-.13883597-.2668186-.20058262zm22.4655685 28.4926324c0 12.2362341-10.0570346 22.1497959-22.4549068 22.1497959-12.397352 0-22.45428567-9.9136615-22.45428567-22.1497959 0-7.040074 4.13259624-14.2943501 10.98506867-21.4169599 2.3714285-2.46491472 4.9088104-4.7389932 7.4463821-6.77100256.8886302-.71158769 1.714474-1.34257651 2.4567668-1.88636743.2608743-.19111201.4930261-.35790727.6938572-.49955511.1222009-.08618929.2078614-.14555124.2543822-.17725252l.6291237-.42871186.6217818.43929252c.0461938.03263619.1315269.09387545.2533997.18278584.2004791.14625641.4322784.31830708.6927995.51522263.7414996.56046446 1.5665507 1.20913611 2.4543857 1.93862424 2.5355102 2.08329781 5.0708888 4.40003102 7.4403977 6.89259585 6.4915158 6.8286403 10.5492858 13.6675354 10.9491252 20.1844401.0211033.34396.0317222.6862761.0317222 1.0268882z"/><path d="m23.9762637 61.5971429c0 .6059352-.4912076 1.0971428-1.0971428 1.0971428-.6059353 0-1.0971429-.4912076-1.0971429-1.0971428v-41.8659184c0-.6059353.4912076-1.0971428 1.0971429-1.0971428.6059352 0 1.0971428.4912075 1.0971428 1.0971428z"/><path d="m24.1277992 37.332912c.4315183.4253816.436493 1.1200362.0111113 1.5515545-.4253816.4315182-1.1200362.4364929-1.5515544.0111113l-9.4590063-9.3244898c-.4315182-.4253816-.4364929-1.1200362-.0111113-1.5515545.4253817-.4315182 1.1200363-.4364929 1.5515545-.0111113z"/><path d="m24.1278022 46.4978198c-.4315166.4253832-1.1261713.4204112-1.5515545-.0111054-.4253833-.4315167-.4204112-1.1261713.0111054-1.5515546l8.4751553-8.3546939c.4315166-.4253832 1.1261712-.4204112 1.5515545.0111055.4253833.4315166.4204112 1.1261712-.0111054 1.5515545z"/></g><g fill="#00a3da" transform="translate(484.571429 11.714286)"><path d="m60.9152687.90285717c.8979547 0 1.4156508 1.01982678.8856624 1.7446956l-25.5574939 34.95515963c-.4043366.5530139-1.2109884.6043249-1.6821369.1070006l-17.7267415-18.7119137-16.00118148-16.22746825c-.68368693-.69335555-.1925151-1.86747388.78122497-1.86747388zm-2.1612979 2.19428566h-54.51674639l14.17503389 14.37577207 16.8367371 17.7721438z"/><path d="m18.7129266 27.6348916 5.2138189-2.6596408c.5397638-.275341 1.2005367-.0609839 1.4758776.4787798.2753409.5397638.0609839 1.2005367-.4787799 1.4758776l-6.8095105 3.4736252c-.7299737.3723696-1.5956917-.157865-1.5956917-.9773287v-11.1987364c0-.457418.2837891-.8668387.7121149-1.0273636l43.2994849-16.22746827c.5673973-.21264504 1.1997465.07493844 1.4123915.64233567.2126451.56739723-.0749384 1.19974643-.6423357 1.41239147l-42.58737 15.96058703z"/></g><g fill="#00a3da" transform="translate(883.857143 6.571429)"><path d="m49.824325 15.8921c0-.6059353.4912075-1.0971428 1.0971428-1.0971428s1.0971428.4912075 1.0971428 1.0971428v22.9463486l-11.881237 11.9592942h-28.7228259v-34.9056428c0-.6059353.4912076-1.0971428 1.0971429-1.0971428.6059352 0 1.0971428.4912075 1.0971428 1.0971428v32.7113572h25.6154259l10.6000657-10.6697058z"/><path d="m40.7778591 49.70085h-2.1942857v-12.4121428h12.3377942v2.1942856h-10.1435085z"/><path d="m4.87805182 14.6528572c.60593525 0 1.09714283.4912075 1.09714283 1.0971428s-.49120758 1.0971428-1.09714283 1.0971428c-2.18816534 0-3.97509441-1.7826128-3.97509441-3.9681428v-8.008c0-2.18553001 1.78692907-3.96814283 3.97509441-3.96814283h53.31778688c2.1881654 0 3.9750944 1.78261282 3.9750944 3.96814283v8.008c0 2.18553-1.786929 3.9681428-3.9750944 3.9681428-.6059352 0-1.0971428-.4912075-1.0971428-1.0971428s.4912076-1.0971428 1.0971428-1.0971428c.9774812 0 1.7808088-.8013872 1.7808088-1.7738572v-8.008c0-.97246999-.8033276-1.77385717-1.7808088-1.77385717h-53.31778688c-.97748116 0-1.78080875.80138718-1.78080875 1.77385717v8.008c0 .97247.80332759 1.7738572 1.78080875 1.7738572z"/><path d="m50.9015697 30.6050428c-.6059352 0-1.0971428-.4912075-1.0971428-1.0971428s.4912076-1.0971428 1.0971428-1.0971428h7.2941187c.9774811 0 1.7808087-.8013872 1.7808087-1.7738572v-8.008c0-.97247-.8033276-1.7738572-1.7808087-1.7738572h-53.31778695c-.97748115 0-1.78080874.8013872-1.78080874 1.7738572v8.008c0 .97247.80332759 1.7738572 1.78080874 1.7738572h7.38684265c.6059352 0 1.0971428.4912075 1.0971428 1.0971428s-.4912076 1.0971428-1.0971428 1.0971428h-7.38684265c-2.18816533 0-3.9750944-1.7826128-3.9750944-3.9681428v-8.008c0-2.18553 1.78692907-3.9681428 3.9750944-3.9681428h53.31778695c2.1881653 0 3.9750944 1.7826128 3.9750944 3.9681428v8.008c0 2.18553-1.7869291 3.9681428-3.9750944 3.9681428z"/></g><g fill="#00a3da" transform="translate(91.285714 150.857143)"><path d="m48.655749 7.83316832h-43.52458789v47.40224048c0 3.859164 3.121046 6.9860877 6.97089369 6.9860877h29.5828005c3.8498477 0 6.9708937-3.1269237 6.9708937-6.9860877zm2.1942857 47.40224048c0 5.0701113-4.102536 9.1803734-9.1651794 9.1803734h-29.5828005c-5.06264338 0-9.1651794-4.1102621-9.1651794-9.1803734v-49.5965262h47.9131593z"/><path d="m23.1069667 26.6940396v-12.9719264h7.5729767v12.9719264zm5.378691-2.1942857v-8.583355h-3.1844053v8.583355z"/><path d="m23.1069667 45.5549109v-12.9719264h7.5729767v12.9719264zm5.378691-2.1942857v-8.583355h-3.1844053v8.583355z"/><path d="m11.0049119 26.6940396v-12.9719264h7.5729767v12.9719264zm5.378691-2.1942857v-8.583355h-3.1844053v8.583355z"/><path d="m35.2090214 26.6940396v-12.9719264h7.5729768v12.9719264zm5.3786911-2.1942857v-8.583355h-3.1844053v8.583355z"/><path d="m11.0049119 45.5549109v-12.9719264h7.5729767v12.9719264zm5.378691-2.1942857v-8.583355h-3.1844053v8.583355z"/><path d="m35.2090214 45.5549109v-12.9719264h7.5729768v12.9719264zm5.3786911-2.1942857v-8.583355h-3.1844053v8.583355z"/><path d="m22.6119069 63.3186393c0 .6059353-.4912076 1.0971429-1.0971429 1.0971429-.6059352 0-1.0971428-.4912076-1.0971428-1.0971429v-11.8747836h12.9516677v11.8747836c0 .6059353-.4912076 1.0971429-1.0971429 1.0971429-.6059352 0-1.0971428-.4912076-1.0971428-1.0971429v-9.6804978h-8.5630963z"/><path d="m.2475299 7.83316832v-7.58310608h53.2918503v7.58310608zm2.19428571-2.19428572h48.90327889v-3.19453465h-48.90327889z"/></g><g fill="#00a3da" transform="translate(285.565546 148.930145)"><path d="m47.5144066 26.9713295h2.1942858v38.216821h-2.1942858z"/><path d="m49.390033 62.5217381-1.556967-1.5462029 11.006257-11.0828781 1.556967 1.5462029z"/><path d="m18.2494613 7.72368625-15.207376 48.72395725h30.4147521zm-18.1909209 50.91824295 18.1909209-58.28314176 18.190921 58.28314176z"/><path d="m17.1523185 48.3727493h2.1942857v16.8154012h-2.1942857z"/><path d="m53.2979617 46.7438968c10.5058461-10.4629731 10.5058461-27.5534887.0000606-38.01640139l-4.6864728-4.66662004-4.6864122 4.66655966c-10.5058461 10.46297307-10.5058461 27.55348867-.0000606 38.01640137l4.6864728 4.66662zm-5.4605609 6.9923131-5.4606822-5.4375497c-11.3670022-11.3206149-11.3670022-29.8053737.0000606-41.126049l6.2347703-6.20835856.7741487.77086926 5.4606822 5.43754967c11.3670022 11.32061493 11.3670022 29.80537373-.0000606 41.12604903l-6.2347703 6.2083586z"/></g><g fill="#00a3da" transform="translate(693.571429 148.857143)"><path d="m.90310375 21.9065478c0-11.5980144 9.34286785-21.00350446 20.87096715-21.00350446 11.5286151 0 20.8715837 9.40538876 20.8715837 21.00350446 0 7.5105267-3.9532851 14.3220269-10.2355574 18.0719829v11.3935718h-21.2726692v-11.3936044c-6.28157667-3.7499335-10.23432425-10.5613944-10.23432425-18.0719503zm29.31270775 27.2712689v-10.4787789l.5642616-.3135261c5.9182651-3.2884227 9.6712957-9.5497918 9.6712957-16.4789639 0-10.3895039-8.3638362-18.80921875-18.6772979-18.80921875-10.3129352 0-18.67668143 8.41980555-18.67668143 18.80921875 0 6.9292746 3.75253135 13.1906166 9.67010393 16.4789868l.5642204.3135349v10.4787472z"/><path d="m24.4903852 62.7893474c0-.6059353.4912076-1.0971428 1.0971429-1.0971428s1.0971429.4912075 1.0971429 1.0971428c0 2.7246553-2.1969055 4.9365328-4.91097 4.9365328-2.7130775 0-4.9097369-2.2121239-4.9097369-4.9365328 0-.6059353.4912075-1.0971428 1.0971428-1.0971428s1.0971429.4912075 1.0971429 1.0971428c0 1.5159709 1.2177035 2.7422471 2.7154512 2.7422471 1.4988453 0 2.7166842-1.2261387 2.7166842-2.7422471z"/><path d="m19.0874991 26.0614861v-2.1942857h5.3736368v2.1942857z"/><path d="m14.8846444 15.8895117c2.9290415 0 5.2999976 2.3873315 5.2999976 5.3294092v5.3281679h-5.2999976c-2.9304096 0-5.30123068-2.3862282-5.30123068-5.3281679 0-2.9425087 2.37076818-5.3294092 5.30123068-5.3294092zm3.1057119 5.3294092c0-1.7335752-1.3919347-3.1351235-3.1057119-3.1351235-1.7152483 0-3.106945 1.4011667-3.106945 3.1351235 0 1.7332396 1.3915992 3.1338822 3.106945 3.1338822h3.1057119z"/><path d="m28.6644839 26.5473371h-5.3006142v-5.3287886c0-2.9421294 2.371009-5.3287886 5.3006142-5.3287886 2.9301013 0 5.3012306 2.3865386 5.3012306 5.3287886s-2.3711293 5.3287886-5.3012306 5.3287886zm0-2.1942857c1.7150375 0 3.1069449-1.400953 3.1069449-3.1345029s-1.3919074-3.1345029-3.1069449-3.1345029c-1.7144913 0-3.1063285 1.4010242-3.1063285 3.1345029v3.1345029z"/><path d="m25.292063 49.4797727h-2.1942857v-24.8883828h2.1942857z"/><path d="m19.743333 49.4797727h-2.1942857v-24.8883828h2.1942857z"/><path d="m30.2239496 50.2750217c0-.6059353.4912076-1.0971429 1.0971429-1.0971429s1.0971429.4912076 1.0971429 1.0971429v6.8135827c0 3.0553497-2.4816244 5.5540874-5.5237964 5.5540874h-10.239873c-3.0422415 0-5.524413-2.4988086-5.524413-5.5540874v-6.8135827c0-.6059353.4912076-1.0971429 1.0971429-1.0971429s1.0971429.4912076 1.0971429 1.0971429v6.8135827c0 1.8466775 1.5030497 3.3598017 3.3301272 3.3598017h10.239873c1.826913 0 3.3295106-1.5129597 3.3295106-3.3598017z"/></g><g fill="#00a3da" transform="translate(485.285714 154)"><path d="m54.4974075 33.8808259c7.0432746-7.0421132 7.0432746-18.4593557.0000639-25.5025664-7.0420285-7.04144779-18.4612179-7.04144779-25.5031824-.00006397-7.0426693 7.04324997-7.0426693 18.46054187 0 25.50263037 7.0420139 7.0425946 18.4611046 7.0425946 25.5031185 0zm-27.0547128 1.5515943c-7.8995912-7.8989397-7.8995912-20.7055764 0-28.60581899 7.8989357-7.89828435 20.7073713-7.89828435 28.6063391.00003199 7.9001699 7.9001699 7.9001858 20.7068201-.000016 28.605771-7.8989543 7.8995538-20.7074527 7.8995378-28.6063231.000016z"/><path d="m26.7787272 34.5449143c.4282933-.4286284 1.1229657-.4289001 1.5515942-.0006068.4286284.4282934.4289001 1.1229658.0006068 1.5515942l-2.3620179 2.3638661c-.4282933.4286285-1.1229657.4289001-1.5515942.0006068-.4286284-.4282933-.4289001-1.1229657-.0006068-1.5515942z"/><path d="m11.735202 58.2973488 11.7489792-11.7471314c1.9761983-1.9767047 1.9761983-5.1806855.0000993-7.1572908-1.9772249-1.9772249-5.1822844-1.9767552-7.1590599.0000204l-11.74589819 11.745282c-1.97619833 1.9767047-1.97619833 5.1819177-.00019872 7.1584236 1.97720467 1.9766984 5.18311304 1.9766984 7.15607831.0006962zm-8.70767263 1.5508981c-2.83285523-2.8335811-2.83285523-7.4278324.00011971-10.2615331l11.74599752-11.7453815c2.8335752-2.8335752 7.4279796-2.8342486 10.2623276.0000994 2.8328552 2.833581 2.8328552 7.4266002-.0001604 10.2603417l-11.7481665 11.7463183c-2.8299558 2.8339413-7.42572012 2.8338272-10.26011793.0001552z"/><path d="m50.0590565 29.4438055c4.59204-4.5926035 4.59204-12.0355819-.0000952-16.6265902-4.5900343-4.59285156-12.0352933-4.59285156-16.6277719.0001905-4.5901442 4.5907077-4.5901442 12.0339063-.0000952 16.6262093 4.5925004 4.5919368 12.0379063 4.5919368 16.6279623.0001904zm-18.1796994 1.551261c-5.4467487-5.4494233-5.4467487-14.2815996.0001428-19.7291598 5.4494857-5.45015436 14.2845302-5.45015436 19.7311985-.0001428 5.4489143 5.447577 5.4489301 14.279938.0001904 19.7293979-5.4469836 5.4489381-14.2818457 5.4489222-19.7315317-.0000953z"/></g><g transform=""><path d="m-22.08 155.342857h-1.92v-12.205714h1.92zm15.03428565-3.24c-.03428572 1.097143-.39428572 2.04-1.01142857 2.605714-.54857143.497143-1.2.771429-2.10857148.771429-1.1657142 0-1.8514285-.445714-2.3657142-1.028571-.9085715-1.028572-.8914286-2.794286-.8914286-5.194286s-.0171429-4.2.8914286-5.228572c.5142857-.582857 1.2-1.028571 2.3657142-1.028571.92571433 0 1.57714291.274286 2.12571433.788571.6.565715.94285715 1.491429.97714286 2.571429h-1.92c-.01714286-.445714-.08571428-.874286-.29142857-1.182857-.17142857-.274286-.42857143-.445714-.89142862-.445714-.4628571 0-.7371428.188571-.9085714.462857-.36.582857-.4285714 1.817143-.4285714 4.045714s.0685714 3.462857.4285714 4.045714c.1714286.274286.4457143.462857.9085714.462857.46285719 0 .73714291-.171428.90857148-.445714.20571428-.308571.27428571-.754286.29142857-1.2zm14.62285708-2.862857c0 2.4.01714285 4.182857-.89142858 5.211429-.51428571.582857-1.2 1.028571-2.36571428 1.028571-1.16571429 0-1.85142857-.445714-2.36571429-1.028571-.90857143-1.028572-.89142857-2.811429-.89142857-5.211429s-.01714286-4.182857.89142857-5.211429c.51428572-.582857 1.2-1.028571 2.36571429-1.028571 1.16571428 0 1.85142857.445714 2.36571428 1.028571.90857143 1.028572.89142858 2.811429.89142858 5.211429zm-1.92 0c0-2.228571-.05142858-3.462857-.41142858-4.045714-.17142857-.274286-.46285714-.462857-.92571428-.462857s-.73714286.188571-.90857143.462857c-.36.582857-.42857143 1.817143-.42857143 4.045714s.06857143 3.462857.42857143 4.045714c.17142857.274286.44571429.462857.90857143.462857s.75428571-.188571.92571428-.462857c.36-.582857.41142858-1.817143.41142858-4.045714zm17.07428567 6.102857h-1.6971429l-2.88-7.251428v7.251428h-1.92v-12.205714h1.7142857l2.8628572 7.251428v-7.251428h1.92zm14.8799999-3.377143c0 1.251429-.1714286 2.091429-.7885714 2.691429-.4971429.48-1.3028572.805714-2.3828572.805714-1.0628571 0-1.8514285-.291428-2.3657142-.805714-.5828572-.582857-.7885715-1.337143-.7885715-2.622857h1.92c0 .651428.0685715 1.062857.3428572 1.371428.1714285.188572.4628571.325715.8914285.325715.4457143 0 .7371429-.12.9257143-.342858.2571429-.291428.3257143-.702857.3257143-1.354285 0-1.302857-.2057143-1.628572-1.1485714-2.005715l-1.4571429-.6c-1.2342857-.514285-1.6971428-1.182857-1.6971428-3.068571 0-1.097143.3257143-1.988571.9942857-2.588571.5314286-.462858 1.2171428-.737143 2.0914286-.737143.9771428 0 1.6971428.257143 2.1942857.737143.6342857.617142.8571428 1.491428.8571428 2.657142h-1.92c0-.548571-.0342857-.977142-.2914285-1.302857-.1714286-.222857-.4457143-.36-.8571429-.36-.3942857 0-.6342857.137143-.8228571.342857-.2228572.257143-.3257143.668572-.3257143 1.2 0 .994286.1542857 1.302858 1.0114285 1.645715l1.44.582857c1.4571429.6 1.8514286 1.371428 1.8514286 3.428571z" fill="#1a1919" transform="matrix(0 -1 1 0 -142.434286 156.045714)"/><g fill="#00a3da"><path d="m8 216.429688h-1v-20.429688h1z"/><path d="m8 102.169643h-1v-102.169643h1z"/></g></g></g><path d="m958.142857 7h1v1h-1z" fill="#fff" opacity=".093703"/></g></svg>