<svg height="338" viewBox="0 0 560 338" width="560" xmlns="http://www.w3.org/2000/svg" xmlns:xlink="http://www.w3.org/1999/xlink"><defs><path id="a" d="m162.621808 95.783911v23.84952l-24.758346-23.84952h-84.5994277c-6.6274173 0-12.0000005-5.3725833-12.0000005-12.0000005v-59.7156463h113.7209492c4.307821 0 7.8 3.4921791 7.8 7.8000004v63.9156464z"/><filter id="b" height="175.3%" width="159.2%" x="-19.7%" y="-18.8%"><feOffset dx="12" dy="18" in="SourceAlpha" result="shadowOffsetOuter1"/><feGaussianBlur in="shadowOffsetOuter1" result="shadowBlurOuter1" stdDeviation="9"/><feColorMatrix in="shadowBlurOuter1" type="matrix" values="0 0 0 0 0   0 0 0 0 0   0 0 0 0 0  0 0 0 0.173601676 0"/></filter><path id="c" d="m16.8414328 49.4041122-16.8414328 16.4296694v-16.4296694-42.80411194c0-3.64507949 2.95492077-6.60000026 6.60000026-6.60000026h76.06250584v42.2041119c0 3.9764504-3.2235499 7.2000003-7.2000003 7.2000003z"/><filter id="d" height="209.4%" width="187.1%" x="-29%" y="-27.3%"><feOffset dx="12" dy="18" in="SourceAlpha" result="shadowOffsetOuter1"/><feGaussianBlur in="shadowOffsetOuter1" result="shadowBlurOuter1" stdDeviation="9"/><feColorMatrix in="shadowBlurOuter1" type="matrix" values="0 0 0 0 0   0 0 0 0 0   0 0 0 0 0  0 0 0 0.173601676 0"/></filter><path id="e" d="m6.00000024 0h179.63747776c3.313709 0 6 2.68629161 6 6.00000024v120.17711976h-191.637478v-120.17711976c0-3.31370863 2.68629161-6.00000024 6.00000024-6.00000024z"/><filter id="f" height="157.1%" width="137.6%" x="-12.5%" y="-14.3%"><feOffset dx="12" dy="18" in="SourceAlpha" result="shadowOffsetOuter1"/><feGaussianBlur in="shadowOffsetOuter1" result="shadowBlurOuter1" stdDeviation="9"/><feColorMatrix in="shadowBlurOuter1" type="matrix" values="0 0 0 0 0   0 0 0 0 0   0 0 0 0 0  0 0 0 0.173601676 0"/></filter></defs><g fill="none" fill-rule="evenodd"><path d="m269.398928 0v129.687742h-134.778269v-129.687742h-79.620659v338h79.620659v-138.27269h134.778269v138.27269h78.732759v-338zm143.4735 338h79.127572v-335.60283688h-79.127572z" fill="#f9f9f9"/><g transform="translate(351.215017 77)"><use fill="#000" filter="url(#b)" xlink:href="#a"/><use fill="#c3002f" fill-rule="evenodd" xlink:href="#a"/><use fill="#000" filter="url(#d)" xlink:href="#c"/><use fill="#c3002f" fill-rule="evenodd" xlink:href="#c"/><g stroke="#fff" stroke-width="1.2" transform="translate(104.687521 41.773296)"><path d="m33.5519911 13.0338879 3.5183517-6.14793845-1.5789832-1.59310251-4.2551039 4.29241408-3.4048822-3.43409276 4.255903-4.29160663-1.8442779-1.85956163-5.9379676 3.7336574c-1.4551257.91484295-2.3173336 2.54024354-2.2645943 4.26819052l.0839035 2.76148538-20.67620925 20.8532517c-1.25375738 1.2636622-1.25375738 3.3137824 0 4.5774446 1.2529583 1.2644696 3.28502014 1.2644696 4.53877753 0l20.67860642-20.8548666 2.4939304.1170805c1.7987304.083975 3.4927811-.8502468 4.3925458-2.4223556z"/><path d="m30.4889568 36.5230378-7.9860348-7.7912442 5.1637746-5.0844344 7.9860348 7.7920412c1.4252697 1.4036195 1.4252697 3.6800178 0 5.0836374-1.4260776 1.4036195-3.737697 1.4036195-5.1637746 0z"/><path d="m17.2656391 15.273185-2.7845275 2.8293054-8.07591403-8.20450659-4.45602834-1.13124316-1.94916923-6.50644439 1.67071649-1.6972639 6.68365032 1.6972639.83535824 4.80918049z"/><path d="m23.6413763 27.4441289-4.5138926-4.5855391 3.1033012-3.1524571 4.5138925 4.5855391z"/></g><path d="m40.7599181 30.3039296h1.7011331v-1.8468035c0-1.5005279.4324915-2.1065103 2.2201229-3.2607625 2.7102798-1.6736657 3.8635904-3.0587683 3.8635904-5.3672727 0-2.9721994-2.5084505-4.9921408-5.5935563-4.9921408-3.921256 0-6.4297065 2.5970675-6.5162048 6.2906745l1.7587986.0865689c.1729966-2.8856305 1.7587987-4.7035777 4.7574062-4.7035777 2.1912901 0 3.8059249 1.3273901 3.8059249 3.3184751 0 1.6448094-.7784846 2.6836364-3.056273 4.1264516-2.2201229 1.3851027-2.940942 2.4527859-2.940942 4.3573021zm-.4001282 5.6510264h2.674386v-2.5970674h-2.674386z" fill="#fff"/></g><g transform="translate(162 155.152493)"><g transform="translate(21.543491)"><use fill="#000" filter="url(#f)" xlink:href="#e"/><use fill="#c3002f" fill-rule="evenodd" xlink:href="#e"/></g><g fill="#a6032a"><path d="m35.5034951 12.5072488h165.3984139v43.0805236h-165.3984139z"/><path d="m92.4895032 67.400174h51.4263978v43.080524h-51.4263978z"/><path d="m35.5034951 67.400174h51.4263976v43.080524h-51.4263976z"/><path d="m149.475511 67.400174h51.426398v43.080524h-51.426398z"/><path d="m6.94847154 119.513711h218.21679746c3.837535 0 6.948471 3.110936 6.948471 6.948471h-232.11374c0-3.837535 3.11093668-6.948471 6.94847154-6.948471z" transform="matrix(1 0 0 -1 0 245.975892)"/></g></g><g fill="#fff"><path d="m0 0h1v1h-1z" opacity=".01"/><path d="m559 0h1v1h-1z" opacity=".01"/></g></g></svg>