<svg height="226" viewBox="0 0 1198 226" width="1198" xmlns="http://www.w3.org/2000/svg"><g fill="none" fill-rule="evenodd"><g fill-rule="nonzero"><path d="m40.3623778 112.443642h-1.6568237c0-.561885.0045294-1.141235.0133382-1.761372l1.6566565.023532c-.0087023.612645-.013171 1.184231-.013171 1.73784z" fill="#fff"/><path d="m40.4827657 107.251143-1.6550405-.076849c.0543836-1.171227.1269025-2.339788.2174756-3.505402l1.6518443.128356c-.0892406 1.148464-.1606939 2.299855-.2142794 3.453895zm.5356792-6.893863-1.6470279-.179899c.1270956-1.1635942.2722744-2.3237503.4354378-3.480169l1.6405743.2314747c-.1607433 1.1392662-.3037705 2.2822285-.4289842 3.4285933zm.9678524-6.8557004-1.6324425-.2831891c.2001965-1.1540317.4184155-2.3037942.6545381-3.4489703l1.6226892.3345804c-.2326025 1.1281042-.4475698 2.2607341-.6447848 3.397579zm1.3943507-6.7636971-1.611332-.3855824c.2725114-1.1388129.5628589-2.2724987.870902-3.4007256l1.5983194.4363938c-.3034396 1.1113666-.5894489 2.2281132-.8578894 3.3499142zm1.8224154-6.6742279-1.5836817-.4868437c.343466-1.1172803.7044364-2.2285651 1.0827483-3.3335118l1.5674948.5366792c-.3726565 1.0884287-.7282303 2.1830997-1.0665614 3.2836763zm2.2454065-6.5557755-1.5496104-.5863208c.4140615-1.0943395.8453038-2.1817613 1.2935399-3.2619121l1.5302929.635034c-.4415436 1.0640234-.8663457 2.1352056-1.2742224 3.2131989zm2.6518851-6.3900552-1.5094279-.6831486c.4827008-1.0665351.982158-2.1252234 1.4981598-3.1757047l1.4871027.7304725c-.5083148 1.0348322-1.0003292 2.077744-1.4758346 3.1283808zm3.0392327-6.1889939-1.4634844-.7767097c.5484788-1.0334496 1.1131749-2.0581407 1.6938524-3.0737111l1.4383112.8223901c-.5720507 1.0004827-1.1283545 2.0099452-1.6686792 3.0280307zm3.4397039-6.0149808-1.4116323-.8673861c.6118445-.9957498 1.2392781-1.9818406 1.8820422-2.9579124l1.3837405.9112227c-.6332415.9616112-1.2513765 1.9330881-1.8541504 2.9140758zm3.8113586-5.7865835-1.3543372-.954377c.6740298-.9565021 1.3630265-1.9024116 2.0667083-2.8373722l1.3237843.9963231c-.6932818.9211425-1.3720929 1.8530683-2.0361554 2.7954261zm4.1643767-5.5326793-1.2918826-1.0373543c.7326197-.9123775 1.4794871-1.8132732 2.2403-2.7023393l1.2588241 1.077231c-.749588.875949-1.4854346 1.7635509-2.2072415 2.6624626zm4.5101002-5.2694539-1.2243544-1.1162531c.7885475-.8649128 1.5905784-1.7174732 2.4057717-2.5573455l1.1888883 1.1539537c-.8031764.8274915-1.5933837 1.6674836-2.3703056 2.5196449zm4.7997826-4.9462387-1.1525412-1.1902577c.8399736-.8133567 1.6925936-1.6135629 2.5575252-2.4002992l1.1148375 1.2256434c-.8521796.7751373-1.6922303 1.5635468-2.5198215 2.3649135zm5.0915569-4.6323724-1.0763426-1.2595836c.8894072-.7600186 1.7906293-1.5060895 2.7033187-2.2379108l1.0364509 1.2926075c-.8992188.7210202-1.7871421 1.4560817-2.663427 2.2048869zm5.3988021-4.328664-.9954473-1.324443c.9344634-.7023399 1.8798442-1.3900177 2.835787-2.0627527l.9535238 1.3549379c-.9418065.6627868-1.8732111 1.3402983-2.7938635 2.0322578zm5.6605011-3.9829842-.9104569-1.3842445c.9775811-.6429829 1.9651971-1.2705936 2.9624868-1.8825728l.8665518 1.4121447c-.9825045.6029064-1.9554838 1.2212157-2.9185817 1.8546726zm5.9055835-3.6233631-.8215543-1.4387888c1.0155762-.5798981 2.040259-1.1438202 3.0736866-1.691531l.7758735 1.463928c-1.0180636.5395679-2.0275177 1.095109-3.0280058 1.6663918zm6.1160107-3.2410339-.729221-1.4877165c1.049873-.5146077 2.107925-1.0126973 3.173798-1.4940578l.681925 1.5099809c-1.049984.474185-2.092269.964852-3.126502 1.4717934zm6.317668-2.8523427-.633593-1.53088995c1.080567-.4472171 2.168392-.8774348 3.263122-1.29046622l.584862 1.55016171c-1.078378.40686194-2.149957.83065466-3.214391 1.27119446zm6.483068-2.44541275-.535272-1.56797576c1.106544-.37774991 2.219429-.73811443 3.33831-1.08093057l.485366 1.58413516c-1.102154.33769104-2.198401.69266819-3.288404 1.06477117zm6.630308-2.03073703-.434651-1.59879418c1.128047-.30667314 2.261534-.59566312 3.400129-.86682989l.383851 1.61174513c-1.121587.26711627-2.238138.55178851-3.349329.85387894zm6.739574-1.60461435-.332488-1.62311915c1.145106-.23457005 2.29478-.45124563 3.448703-.64990822l.281108 1.63280222c-1.136741.19570431-2.269285.40915162-3.397323.64022515zm6.840922-1.1769407-.229153-1.64090023c1.156982-.16157326 2.317686-.30515089 3.481812-.43063438l.177564 1.64728131c-1.146893.12362589-2.290399.26507609-3.430223.4242533zm6.893531-.74253176-.125683-1.6520497c1.164596-.08859942 2.332115-.15918213 3.502275-.21166764l.07424 1.65515955c-1.152995.05171557-2.303364.12126145-3.450832.20855779zm6.842123-.30906923-.023967-1.65665028c.54897-.00794208 1.098428-.01191657 1.648344-.01191657.606997 0 1.213432.00484238 1.819271.01451782l-.026457 1.6566124c-.59702-.00953462-1.194637-.01430658-1.792814-.01430658-.541927 0-1.083395.00391671-1.624377.01174321zm6.873806.11124212.077715-1.65499998c1.169089.05489794 2.335514.12786526 3.498995.21882114l-.129129 1.65178395c-1.146364-.08961769-2.295649-.1615128-3.447581-.21560511zm6.892136.53913744.180743-1.64693551c1.162766.12760776 2.322091.27327386 3.477676.43689953l-.232282 1.64046022c-1.138445-.16119869-2.280588-.30470596-3.426137-.43042424zm6.85993.97218819.284097-1.63228468c1.153973.20084775 2.303669.41971774 3.448769.6564907l-.335486 1.62250237c-1.128029-.23324321-2.260593-.44885183-3.39738-.64670839zm6.768052 1.39934452.386556-1.61109862c1.139126.27331441 2.273112.56447713 3.401625.87334713l-.437381 1.59804968c-1.111648-.30425427-2.22869-.59106657-3.3508-.86029819zm6.678826 1.82820289.487886-1.58336095c1.117578.34436283 2.229145.70624253 3.334357 1.08547588l-.537733 1.56713361c-1.088691-.37356428-2.18364-.73003396-3.28451-1.06924854zm6.560425 2.25203943.587431-1.54918988c1.094129.41487821 2.181328.84693498 3.261243 1.29598279l-.636133 1.52983652c-1.063792-.4423435-2.134755-.86794808-3.212541-1.27662943zm6.347712 2.63812803.683615-1.5092168c1.066145.4829208 2.124441.9825878 3.174529 1.4987891l-.730921 1.4868826c-1.034445-.5085115-2.07697-1.0007326-3.127223-1.4764549zm6.212416 3.0540826.777528-1.4630499c1.033667.5493349 2.058557 1.1148983 3.074309 1.6964538l-.823216 1.4378387c-1.000662-.5729159-2.010321-1.1300743-3.028621-1.6712426zm6.010929 3.4417507.868141-1.4111683c.996247.6128844 1.982811 1.2413782 2.959332 1.885222l-.911998 1.38323c-.962053-.6343054-1.933997-1.2534851-2.915475-1.8572837zm5.790997 3.8189993.955196-1.3537595c.956345.6747852 1.902083 1.3645384 2.836857 2.0689773l-.997134 1.3231736c-.920959-.6940279-1.852716-1.3735844-2.794919-2.0383914zm5.536395 4.172733 1.038228-1.2911808c.910939.7324783 1.81041 1.4791668 2.698067 2.2397639l-1.078041 1.2581304c-.874561-.7493755-1.760759-1.4850459-2.658254-2.2067135zm5.250052 4.4987353 1.116835-1.2238231c.863406.787926 1.714485 1.589294 2.552903 2.4037843l-1.154471 1.1883863c-.826059-.8024837-1.664591-1.592038-2.515267-2.3683475zm4.921278 4.7787025 1.190467-1.1523252c.81347.8403957 1.613778 1.6934436 2.400606 2.5588086l-1.225857 1.1146025c-.775227-.8526067-1.563738-1.6930789-2.365216-2.5210859zm4.656224 5.1214129 1.26015-1.0756793c.759007.8891711 1.50408 1.7901328 2.234918 2.7025385l-1.29313 1.0357985c-.720051-.898939-1.454129-1.7866056-2.201938-2.6626577zm4.324622 5.3994886 1.32495-.9947725c.702118.9351602 1.389558 1.8812383 2.062039 2.8378787l-1.355435.9528175c-.662536-.9424936-1.339813-1.8745851-2.031554-2.7959237zm3.984541 5.6692961 1.384776-.9096485c.64202.9773593 1.26868 1.9647329 1.879722 2.96176l-1.412634.8657532c-.601983-.9822455-1.219356-1.9549856-1.851864-2.9178647zm3.618866 5.9058693 1.439253-.8207395c.579221 1.0157245 1.142466 2.0405442 1.689501 3.0740974l-1.464364.7750518c-.538901-1.018187-1.093775-2.0277757-1.66439-3.0284097zm3.241018 6.1248996 1.488183-.7282709c.514209 1.0507586 1.011877 2.1096954 1.492794 3.1764506l-1.510429.6809341c-.473747-1.0508531-.963999-2.0940091-1.470548-3.1291138zm2.847349 6.3171839 1.531281-.6326483c.446477 1.0806661.875956 2.1685786 1.28825 3.2633846l-1.550519.5839124c-.406136-1.0784526-.829201-2.1501179-1.269012-3.2146487zm2.440486 6.4818653 1.568292-.5343453c.377186 1.1070335.736975 2.2204016 1.079205 3.3397607l-1.584425.4844177c-.337114-1.1026248-.691524-2.1993484-1.063072-3.2898331zm2.028696 6.6384303 1.599079-.4336021c.305994 1.1284725.594294 2.2623773.864763 3.4013829l-1.611999.3827852c-.266428-1.1219925-.550422-2.2389562-.851843-3.350566zm1.601548 6.7472402 1.623357-.3313269c.233727 1.1451619.449562 2.2948795.647385 3.4488368l-1.633002.2799465c-.194878-1.1367748-.407497-2.2693635-.63774-3.3974564zm1.171484 6.8376409 1.641054-.2280468c.160815 1.1572427.303628 2.3181991.428342 3.48257l-1.647401.176451c-.122868-1.1471358-.263565-2.2908915-.421995-3.4309742zm.73266 6.8247772 1.652055-.125615c.088543 1.164495.159072 2.331911.211508 3.501968l-1.655162.074176c-.051667-1.152893-.12116-2.303161-.208401-3.450529z" fill="#ffc1c1"/><path d="m260.441163 110.706499 1.656655-.023599c.008797.617504.013339 1.198914.013339 1.761405h-1.656824c0-.554209-.004481-1.127828-.01317-1.737806z" fill="#fff"/><path d="m486.954054 112.443642h-1.656823c0-.561885.004529-1.141235.013338-1.761372l1.656656.023532c-.008702.612645-.013171 1.184231-.013171 1.73784z" fill="#fff"/><path d="m487.074276 107.251143-1.65504-.076849c.054384-1.171227.126902-2.339788.217476-3.505402l1.651844.128356c-.089241 1.148464-.160694 2.299855-.21428 3.453895zm.53568-6.893863-1.647028-.179899c.127095-1.1635942.272274-2.3237503.435438-3.480169l1.640574.2314747c-.160743 1.1392662-.303771 2.2822285-.428984 3.4285933zm.967852-6.8557004-1.632442-.2831891c.200196-1.1540317.418415-2.3037942.654538-3.4489703l1.622689.3345804c-.232603 1.1281042-.44757 2.2607341-.644785 3.397579zm1.394351-6.7636971-1.611332-.3855824c.272511-1.1388129.562859-2.2724987.870902-3.4007256l1.598319.4363938c-.303439 1.1113666-.589449 2.2281132-.857889 3.3499142zm1.822415-6.6742279-1.583682-.4868437c.343466-1.1172803.704437-2.2285651 1.082749-3.3335118l1.567495.5366792c-.372657 1.0884287-.728231 2.1830997-1.066562 3.2836763zm2.245407-6.5557755-1.549611-.5863208c.414062-1.0943395.845304-2.1817613 1.29354-3.2619121l1.530293.635034c-.441544 1.0640234-.866346 2.1352056-1.274222 3.2131989zm2.651885-6.3900552-1.509428-.6831486c.482701-1.0665351.982158-2.1252234 1.49816-3.1757047l1.487102.7304725c-.508314 1.0348322-1.000329 2.077744-1.475834 3.1283808zm3.039232-6.1889939-1.463484-.7767097c.548479-1.0334496 1.113175-2.0581407 1.693852-3.0737111l1.438312.8223901c-.572051 1.0004827-1.128355 2.0099452-1.66868 3.0280307zm3.439704-6.0149808-1.411632-.8673861c.611845-.9957498 1.239278-1.9818406 1.882042-2.9579124l1.383741.9112227c-.633242.9616112-1.251377 1.9330881-1.854151 2.9140758zm3.811359-5.7865835-1.354337-.954377c.67403-.9565021 1.363026-1.9024116 2.066708-2.8373722l1.323784.9963231c-.693281.9211425-1.372093 1.8530683-2.036155 2.7954261zm4.164377-5.5326793-1.291883-1.0373543c.73262-.9123775 1.479487-1.8132732 2.2403-2.7023393l1.258824 1.077231c-.749588.875949-1.485434 1.7635509-2.207241 2.6624626zm4.5101-5.2694539-1.224355-1.1162531c.788548-.8649128 1.590579-1.7174732 2.405772-2.5573455l1.188888 1.1539537c-.803176.8274915-1.593383 1.6674836-2.370305 2.5196449zm4.799782-4.9462387-1.152541-1.1902577c.839974-.8133567 1.692594-1.6135629 2.557525-2.4002992l1.114838 1.2256434c-.85218.7751373-1.69223 1.5635468-2.519822 2.3649135zm5.091557-4.6323724-1.076342-1.2595836c.889407-.7600186 1.790629-1.5060895 2.703318-2.2379108l1.036451 1.2926075c-.899218.7210202-1.787142 1.4560817-2.663427 2.2048869zm5.398802-4.328664-.995447-1.324443c.934464-.7023399 1.879844-1.3900177 2.835787-2.0627527l.953524 1.3549379c-.941807.6627868-1.873211 1.3402983-2.793864 2.0322578zm5.660502-3.9829842-.910457-1.3842445c.977581-.6429829 1.965197-1.2705936 2.962486-1.8825728l.866552 1.4121447c-.982504.6029064-1.955484 1.2212157-2.918581 1.8546726zm5.905583-3.6233631-.821554-1.4387888c1.015576-.5798981 2.040259-1.1438202 3.073686-1.691531l.775874 1.463928c-1.018064.5395679-2.027518 1.095109-3.028006 1.6663918zm6.116011-3.2410339-.729222-1.4877165c1.049874-.5146077 2.107926-1.0126973 3.173798-1.4940578l.681926 1.5099809c-1.049984.474185-2.092269.964852-3.126502 1.4717934zm6.317668-2.8523427-.633593-1.53088995c1.080567-.4472171 2.168392-.8774348 3.263122-1.29046622l.584861 1.55016171c-1.078377.40686194-2.149957.83065466-3.21439 1.27119446zm6.483068-2.44541275-.535273-1.56797576c1.106545-.37774991 2.219429-.73811443 3.338311-1.08093057l.485366 1.58413516c-1.102154.33769104-2.198401.69266819-3.288404 1.06477117zm6.630308-2.03073703-.434651-1.59879418c1.128047-.30667314 2.261534-.59566312 3.400128-.86682989l.383852 1.61174513c-1.121587.26711627-2.238139.55178851-3.349329.85387894zm6.739574-1.60461435-.332489-1.62311915c1.145107-.23457005 2.29478-.45124563 3.448704-.64990822l.281107 1.63280222c-1.13674.19570431-2.269284.40915162-3.397322.64022515zm6.840922-1.1769407-.229153-1.64090023c1.156982-.16157326 2.317685-.30515089 3.481812-.43063438l.177564 1.64728131c-1.146894.12362589-2.290399.26507609-3.430223.4242533zm6.893531-.74253176-.125684-1.6520497c1.164596-.08859942 2.332115-.15918213 3.502276-.21166764l.074239 1.65515955c-1.152995.05171557-2.303363.12126145-3.450831.20855779zm6.842123-.30906923-.023967-1.65665028c.54897-.00794208 1.098427-.01191657 1.648344-.01191657.60698 0 1.213399.00484238 1.819222.01451783l-.026457 1.65661238c-.597005-.00953461-1.194605-.01430657-1.792765-.01430657-.541927 0-1.083395.00391671-1.624377.01174321zm6.873666.11124207.077717-1.65499988c1.169061.05489795 2.335459.1278653 3.498914.2188212l-.129133 1.65178372c-1.146337-.08961766-2.295594-.16151275-3.447498-.21560504zm6.891977.53913728.180747-1.6469351c1.162742.1276078 2.322044.27327394 3.477607.43689964l-.232286 1.64045961c-1.138423-.16119866-2.280543-.30470589-3.426068-.43042415zm6.859797.97218798.284102-1.63228384c1.153954.20084779 2.30363.41971782 3.448713.6564908l-.335491 1.62250133c-1.128012-.23324317-2.260557-.44885176-3.397324-.64670829zm6.767945 1.39934433.386561-1.6110974c1.139111.27331445 2.273082.5644772 3.401581.8733472l-.437386 1.59804832c-1.111634-.30425423-2.228662-.59106651-3.350756-.86029812zm6.678744 1.82820277.48789-1.58335949c1.117567.34436286 2.229123.70624257 3.334325 1.08547589l-.537737 1.56713213c-1.088681-.37356425-2.18362-.73003393-3.284478-1.06924853zm6.560366 2.25203943.587435-1.54918843c1.09412.41487823 2.181312.84693499 3.261221 1.29598274l-.636136 1.52983515c-1.063786-.4423434-2.134742-.86794805-3.21252-1.27662946zm6.347675 2.63812816.683617-1.5092157c1.06614.4829209 2.124432.9825878 3.174517 1.498789l-.730922 1.4868818c-1.034442-.5085115-2.076964-1.0007327-3.127212-1.4764551zm6.212398 3.054083.777529-1.4630495c1.033665.549335 2.058555 1.1148983 3.074306 1.6964536l-.823216 1.4378387c-1.000662-.5729159-2.01032-1.1300744-3.028619-1.6712428zm6.01093 3.4417512.86814-1.4111689c.996249.6128844 1.982815 1.2413781 2.959337 1.8852217l-.911995 1.3832311c-.962056-.6343054-1.934002-1.2534852-2.915482-1.8572839zm5.791014 3.8189999.955193-1.3537613c.956349.6747852 1.902091 1.3645382 2.83687 2.0689769l-.997131 1.3231762c-.920964-.6940279-1.852725-1.3735846-2.794932-2.0383918zm5.536426 4.1727338 1.038224-1.2911842c.910944.7324783 1.810422 1.4791666 2.698085 2.2397635l-1.078036 1.2581347c-.874567-.7493756-1.760772-1.4850461-2.658273-2.206714zm5.250094 4.4987362 1.11683-1.2238282c.863413.7879259 1.714501 1.5892938 2.552927 2.4037838l-1.154464 1.1883923c-.826068-.8024837-1.664609-1.5920381-2.515293-2.3683479zm4.92133 4.7787033 1.190461-1.152332c.813479.8403957 1.613797 1.6934435 2.400634 2.5588082l-1.22585 1.1146101c-.775237-.8526066-1.563757-1.693079-2.365245-2.5210863zm4.656284 5.1214138 1.260143-1.0756878c.759017.889171 1.504101 1.7901327 2.234949 2.702538l-1.293123 1.0358079c-.720061-.8989389-1.45415-1.7866057-2.201969-2.6626581zm4.324687 5.3994894 1.324942-.9947827c.70213.9351603 1.389581 1.8812384 2.062072 2.8378784l-1.355427.9528283c-.662547-.9424935-1.339835-1.8745851-2.031587-2.795924zm3.984609 5.6692967 1.384768-.9096599c.642032.9773595 1.268703 1.964733 1.879757 2.9617598l-1.412627.865765c-.601995-.9822453-1.219379-1.9549855-1.851898-2.9178649zm3.618934 5.9058698 1.439247-.8207519c.579232 1.0157248 1.142488 2.0405444 1.689534 3.0740974l-1.464357.7750643c-.538912-1.0181868-1.093798-2.0277755-1.664424-3.0284098zm3.241086 6.1248997 1.488176-.7282835c.51422 1.0507589 1.011899 2.1096956 1.492826 3.1764506l-1.510422.6809467c-.473758-1.0508529-.964021-2.0940088-1.47058-3.1291138zm2.847412 6.3171838 1.531275-.6326608c.446488 1.0806665.875977 2.1685791 1.288281 3.2633848l-1.550515.5839246c-.406145-1.0784523-.82922-2.1501175-1.269041-3.2146486zm2.440544 6.481865 1.568288-.534357c.377195 1.1070338.736993 2.220402 1.079232 3.3397609l-1.584423.4844288c-.337121-1.1026244-.691541-2.1993479-1.063097-3.2898327zm2.028746 6.6384295 1.599076-.4336123c.306002 1.1284729.59431 2.2623778.864785 3.4013834l-1.611996.3827945c-.266435-1.1219921-.550436-2.2389557-.851865-3.3505656zm1.601589 6.7472392 1.623355-.3313351c.233733 1.1451623.449574 2.2948802.647402 3.4488374l-1.633.2799535c-.194883-1.1367743-.407508-2.2693629-.637757-3.3974558zm1.171514 6.8376396 1.641053-.2280524c.160819 1.1572432.303636 2.3181999.428353 3.4825708l-1.647401.176455c-.12287-1.1471352-.263571-2.2908907-.422005-3.4309734zm.732677 6.8247754 1.652055-.125617c.088544 1.164495.159075 2.331912.211511 3.501969l-1.655162.074176c-.051667-1.152892-.121162-2.30316-.208404-3.450528z" fill="#ffc1c1"/><path d="m707.033005 110.706499 1.656655-.023599c.008797.617504.013339 1.198914.013339 1.761405h-1.656824c0-.554209-.004481-1.127828-.01317-1.737806z" fill="#fff"/><path d="m970.164774 27.8042933-1.059559-1.273734c19.914158-16.56565366 44.945175-25.78781323 71.393785-25.78781323 61.68901 0 111.70139 50.01290063 111.70139 111.70304993h-1.65682c0-60.7751147-49.27061-110.04622629-110.04457-110.04622629-26.0579 0-50.714971 9.08438639-70.334226 25.40472359z" fill="#ffc1c1"/><path d="m930.450453 112.443642h-1.656824c0-.561885.004529-1.141235.013338-1.761372l1.656657.023532c-.008703.612645-.013171 1.184231-.013171 1.73784z" fill="#fff"/><path d="m930.570347 107.260341-1.655048-.076688c.054055-1.166591.126104-2.330537.216065-3.49156l1.651872.127994c-.088637 1.143942-.159627 2.290784-.212889 3.440254zm.533065-6.875926-1.647074-.179477c.12647-1.1606289.270932-2.317841.433288-3.471339l1.640652.2309234c-.159948 1.1363881-.302269 2.2764492-.426866 3.4198926zm.962456-6.8348802-1.632569-.282457c.199224-1.1514932.416391-2.2987429.651383-3.4414343l1.622863.3337382c-.231489 1.1256558-.44542 2.2558096-.641677 3.3901531zm1.389594-6.7570622-1.61153-.3847544c.271207-1.1359413.560159-2.2667903.866717-3.3922182l1.59858.4354408c-.301977 1.1086087-.586611 2.2225602-.853767 3.3415318zm1.814744-6.6613048-1.583995-.4858241c.342343-1.1161834.702153-2.2263957 1.079268-3.3302957l1.56786.5356137c-.371478 1.0873969-.725909 2.1810107-1.063133 3.2805061zm2.235344-6.5417198-1.550075-.5850922c.412238-1.0921348.841584-2.1773968 1.287851-3.2554355l1.530841.6337106c-.439604 1.0619422-.862537 2.1309962-1.268617 3.2068171zm2.638504-6.3737213-1.510093-.6816762c.48004-1.063416.976732-2.1190542 1.489868-3.1665581l1.487891.7288653c-.505491 1.0318987-.994782 2.0718053-1.467666 3.119369zm3.026513-6.1793195-1.464341-.7750935c.546062-1.0316431 1.108275-2.0545869 1.686406-3.068472l1.439278.8206967c-.569542.9988222-1.1234 2.0065633-1.661343 3.0228688zm3.421701-6.0002324-1.41276-.8655482c.609636-.9950564 1.234828-1.9805042 1.875319-2.955985l1.384968.9093557c-.631002.9610292-1.246929 1.9318728-1.847527 2.9121775zm3.791927-5.7746116-1.355758-.9523573c.67064-.9547113 1.356177-1.8989161 2.056331-2.8322611l1.32536.9942259c-.689807.9195514-1.365209 1.8497985-2.025933 2.7903925zm4.150083-5.5313496-1.293522-1.0353094c.728998-.9108151 1.472178-1.810242 2.22924-2.6979359l1.26063 1.0751174c-.745894.8745983-1.478108 1.7607544-2.196348 2.6581279zm4.492337-5.2662457-1.226268-1.1141515c.784693-.8636546 1.582808-1.715058 2.394029-2.5538768l1.190979 1.1517953c-.799264.8264556-1.585615 1.6653094-2.35874 2.516233zm4.779658-4.9432059-1.154767-1.1880985c.836717-.8132425 1.686051-1.6134167 2.54767-2.4002045l1.117217 1.2234755c-.84892.7751905-1.685735 1.5635709-2.51012 2.3648275z" fill="#ffc1c1"/><path d="m968.839243 28.9228773-1.078634-1.2576218c.474171-.4066861.915993-.7802191 1.345538-1.1368524l1.058358 1.2747328c-.422314.3506294-.857471.7185273-1.325262 1.1197414z" fill="#fff"/><path d="m261.98209 113.00166h1.656824c0 .553609.004469 1.125195.013171 1.73784l-1.656656.023532c-.008809-.620137-.013339-1.199487-.013339-1.761372z" fill="#fff"/><path d="m262.104261 118.271008 1.655041-.076848c.053585 1.154039.125039 2.30543.214279 3.453895l-1.651844.128355c-.090573-1.165614-.163092-2.334175-.217476-3.505402zm.543692 6.996913 1.647028-.179899c.125214 1.146365.268241 2.289327.428984 3.428594l-1.640574.231474c-.163164-1.156418-.308342-2.316574-.435438-3.480169zm.982437 6.958991 1.632443-.283189c.197214 1.136845.412182 2.269475.644784 3.397579l-1.62269.33458c-.236122-1.145176-.454341-2.294939-.654537-3.44897zm1.415459 6.86609 1.611332-.385582c.26844 1.121801.554449 2.238548.857888 3.349915l-1.59832.436392c-.308042-1.128226-.598389-2.261912-.8709-3.400725zm1.850062 6.775489 1.583682-.486843c.33833 1.100577.693903 2.195248 1.066558 3.283677l-1.567495.536678c-.378311-1.104947-.73928-2.216232-1.082745-3.333512zm2.279471 6.655252 1.549611-.586319c.407875 1.077993.832676 2.149176 1.274217 3.213199l-1.530293.635032c-.448235-1.080151-.879475-2.167572-1.293535-3.261912zm2.692057 6.486883 1.509429-.683146c.475503 1.050637.967515 2.093548 1.475828 3.128381l-1.487104.730469c-.516-1.050481-1.015455-2.109169-1.498153-3.175704zm3.085161 6.282555 1.463486-.776707c.540322 1.018085 1.096623 2.027548 1.66867 3.028031l-1.438313.822386c-.580674-1.01557-1.145367-2.040261-1.693843-3.07371zm3.491536 6.105656 1.411635-.867382c.60277.980988 1.220901 1.952465 1.854138 2.914076l-1.383743.911219c-.64276-.976072-1.270189-1.962163-1.88203-2.957913zm3.868628 5.873574 1.35434-.954372c.664058.942358 1.342864 1.874284 2.036141 2.795426l-1.323788.996319c-.703677-.934961-1.392668-1.880871-2.066693-2.837373zm4.226799 5.615657 1.291886-1.037349c.721801.898911 1.457642 1.786513 2.207223 2.662462l-1.258828 1.077226c-.760807-.889066-1.507668-1.789962-2.240281-2.702339zm4.577588 5.348352 1.22436-1.116247c.776914.852161 1.567114 1.692153 2.370283 2.519645l-1.188894 1.153948c-.815185-.839873-1.617209-1.692433-2.405749-2.557346zm4.871548 5.020243 1.152548-1.190251c.827582.801366 1.667624 1.589776 2.519795 2.364913l-1.114845 1.225638c-.864922-.786737-1.717533-1.586943-2.557498-2.4003zm5.1677 4.701699 1.076349-1.259578c.876275.748805 1.764188 1.483867 2.663396 2.204887l-1.036458 1.292601c-.912679-.731821-1.81389-1.477892-2.703287-2.23791zm5.479631 4.393523.995455-1.324437c.920641.691959 1.852034 1.369471 2.793828 2.032258l-.953533 1.354932c-.95593-.672735-1.901298-1.360413-2.83575-2.062753zm5.745416 4.042786.910465-1.384239c.963085.633457 1.93605 1.251766 2.91854 1.854673l-.866561 1.412139c-.997275-.61198-1.984877-1.23959-2.962444-1.882573zm5.994399 3.677907.821564-1.438783c1.000472.571283 2.009911 1.126824 3.027958 1.666392l-.775883 1.463923c-1.033411-.547711-2.058078-1.111633-3.073639-1.691532zm6.208246 3.289962.729231-1.487711c1.034216.506941 2.076483.997608 3.126449 1.471793l-.681935 1.509976c-1.065854-.48136-2.123889-.97945-3.173745-1.494058zm6.413187 2.895517.633603-1.530886c1.064414.44054 2.135974.864332 3.214331 1.271194l-.584871 1.550158c-1.09471-.413031-2.182515-.843249-3.263063-1.290466zm6.581267 2.482499.535282-1.567973c1.089981.372103 2.186207.72708 3.288338 1.064771l-.485375 1.584133c-1.118859-.342817-2.231722-.703181-3.338245-1.080931zm6.730795 2.061556.43466-1.598792c1.111167.30209 2.227695.586762 3.349257.853879l-.383859 1.611743c-1.138571-.271167-2.272034-.560157-3.400058-.86683zm6.841591 1.628939.332496-1.623117c1.128012.231073 2.26053.44452 3.397243.640225l-.281114 1.632801c-1.153896-.198663-2.303544-.415338-3.448625-.649909zm6.944098 1.194723.229158-1.6409c1.139797.159177 2.283274.300627 3.430138.424253l-.177568 1.647281c-1.164098-.125483-2.324774-.269061-3.481728-.430634zm7.007591.754499.125528-1.652061c1.147382.087181 2.297663.156614 3.450568.208219l-.074086 1.655166c-1.17007-.052373-2.337501-.122841-3.50201-.211324zm6.932895.312852.023968-1.65665c.540967.007826 1.08242.011743 1.624332.011743.59816 0 1.19576-.004772 1.792765-.014307l.026457 1.656613c-.605823.009675-1.212243.014518-1.819222.014518-.549902 0-1.099344-.003975-1.6483-.011917zm6.97531-.112892-.077717-1.655c1.151906-.054093 2.301166-.125988 3.447506-.215605l.129131 1.651783c-1.163457.090956-2.329858.163924-3.49892.218822zm6.995024-.547202-.180746-1.646936c1.145529-.125718 2.287654-.269225 3.426082-.430424l.232285 1.64046c-1.155568.163626-2.314875.309292-3.477621.4369zm6.973739-.988677-.284258-1.632257c1.136659-.19795 2.269096-.413648 3.396999-.646978l.335641 1.622471c-1.144972.23686-2.294539.455821-3.448382.656764zm6.859888-1.418693-.386558-1.611098c1.122102-.269232 2.239137-.556044 3.350781-.860298l.437382 1.598049c-1.128507.30887-2.262486.600032-3.401605.873347zm6.780124-1.855941-.487887-1.58336c1.100868-.339215 2.195816-.695685 3.284506-1.069249l.537734 1.567134c-1.105213.379233-2.216778.741113-3.334353 1.085475zm6.659968-2.28621-.58743-1.54919c1.077788-.408682 2.148755-.834286 3.212551-1.27663l.636131 1.529838c-1.07992.449047-2.167121.881104-3.261252 1.295982zm6.44392-2.6781-.683611-1.509219c1.050259-.475722 2.092792-.967943 3.127246-1.476455l.730915 1.486885c-1.050096.516201-2.108399 1.015868-3.17455 1.498789zm6.315525-3.105111-.777658-1.462981c1.018164-.541212 2.027688-1.098411 3.028216-1.671363l.823338 1.437769c-1.015615.581592-2.040368 1.147196-3.073896 1.696575zm6.101255-3.49418-.868263-1.411093c.981339-.60383 1.953144-1.223037 2.91506-1.857366l.912112 1.383155c-.97638.643867-1.962804 1.272388-2.958909 1.885304zm5.869342-3.870996-.955186-1.353767c.942218-.664807 1.87399-1.344364 2.794965-2.038392l.997123 1.323182c-.934789.704438-1.880542 1.394191-2.836902 2.068977zm5.619521-4.235311-1.038216-1.29119c.897511-.721668 1.783726-1.457339 2.658303-2.206714l1.078029 1.25814c-.887673.760597-1.787161 1.507286-2.698116 2.239764zm5.32876-4.566092-1.116824-1.223834c.850694-.77631 1.689244-1.565865 2.51532-2.368348l1.154458 1.188398c-.838435.81449-1.689531 1.615858-2.552954 2.403784zm4.995012-4.8502-1.190454-1.152338c.801495-.828007 1.590023-1.668479 2.365266-2.521086l1.225845 1.114616c-.786844.865364-1.587169 1.718412-2.400657 2.558808zm4.726009-5.198058-1.260138-1.075693c.747825-.876052 1.481919-1.763719 2.201985-2.662658l1.29312 1.035813c-.730854.912405-1.475943 1.813367-2.234967 2.702538zm4.395695-5.488624-1.325031-.994665c.691567-.921263 1.368672-1.853273 2.031039-2.795682l1.355509.952713c-.672309.956554-1.359575 1.90255-2.061517 2.837634zm4.038275-5.746192-1.384768-.909661c.632521-.96288 1.249906-1.93562 1.8519-2.917865l1.412627.865766c-.611054.997026-1.237726 1.9844-1.879759 2.96176zm3.673413-5.994779-1.439248-.820751c.570625-1.000634 1.125508-2.010222 1.664418-3.028408l1.464358.77506c-.547043 1.033553-1.110297 2.058373-1.689528 3.074099zm3.289998-6.21737-1.488179-.728278c.506555-1.035105.996812-2.078261 1.470564-3.129113l1.510425.680939c-.480921 1.066755-.978595 2.125692-1.49281 3.176452zm2.890474-6.412809-1.53128-.632651c.439813-1.064531.862879-2.136196 1.269014-3.214647l1.55052.583912c-.412294 1.094806-.841775 2.182719-1.288254 3.263386zm2.477497-6.580171-1.568293-.534342c.371545-1.090485.725951-2.187208 1.063059-3.289832l1.584427.484411c-.342224 1.119359-.702009 2.232728-1.079193 3.339763zm2.059451-6.739178-1.599082-.433591c.301413-1.111609.585397-2.228573.851814-3.350564l1.612003.38277c-.270458 1.139006-.558749 2.272912-.864735 3.401385zm1.62576-6.849519-1.623361-.331308c.23023-1.128092.442833-2.26068.637694-3.397454l1.633006.279923c-.197807 1.153957-.413626 2.303676-.647339 3.448839zm1.189077-6.940926-1.641058-.228018c.15841-1.140082.299085-2.283837.42193-3.430972l1.647404.176417c-.12469 1.164372-.267481 2.325329-.428276 3.482573zm.743519-6.927214-1.652058-.125576c.087214-1.147368.156679-2.297635.208315-3.450526l1.655164.074131c-.052405 1.170058-.122905 2.337475-.211421 3.501971z" fill="#ffc1c1"/><path d="m485.374189 114.762569-1.656656-.0236c.008689-.609978.013171-1.183597.013171-1.737806h1.656823c0 .562491-.004542 1.143901-.013338 1.761406z" fill="#fff"/><path d="m707.046175 113.00166h1.656824c0 .553609.004469 1.125195.013171 1.73784l-1.656656.023532c-.008809-.620137-.013339-1.199487-.013339-1.761372z" fill="#fff"/><path d="m707.168512 118.271008 1.655041-.076848c.053585 1.15404.125038 2.305431.214277 3.453896l-1.651844.128353c-.090572-1.165613-.16309-2.334174-.217474-3.505401zm.543684 6.996912 1.647028-.179896c.125212 1.146365.268236 2.289328.428975 3.428594l-1.640575.23147c-.163159-1.156418-.308335-2.316574-.435428-3.480168zm.982415 6.958989 1.632444-.283183c.19721 1.136846.412172 2.269476.644768 3.39758l-1.622691.334572c-.236116-1.145176-.454329-2.294938-.654521-3.448969zm1.415424 6.866089 1.611335-.385573c.268433 1.121801.554435 2.238548.857866 3.349915l-1.598322.436382c-.308035-1.128226-.598374-2.261912-.870879-3.400724zm1.850016 6.775488 1.583686-.486832c.338322 1.100577.693886 2.195248 1.066532 3.283677l-1.567499.536666c-.378301-1.104947-.739262-2.216231-1.082719-3.333511zm2.279416 6.655251 1.549616-.586307c.407866 1.077994.832656 2.149176 1.274188 3.213199l-1.530299.63502c-.448224-1.080151-.879455-2.167572-1.293505-3.261912zm2.691995 6.486883 1.509435-.683134c.475493 1.050637.967494 2.093549 1.475796 3.128381l-1.48711.730457c-.515989-1.050481-1.015433-2.109169-1.498121-3.175704zm3.085095 6.282554 1.463493-.776694c.540311 1.018086 1.0966 2.027548 1.668636 3.028031l-1.43832.822374c-.580662-1.01557-1.145344-2.040261-1.693809-3.073711zm3.491467 6.105657 1.411642-.86737c.602759.980988 1.220879 1.952465 1.854104 2.914076l-1.383751.911207c-.642748-.976072-1.270166-1.962163-1.881995-2.957913zm3.868558 5.873575 1.354348-.954362c.664047.942358 1.342842 1.874284 2.036107 2.795426l-1.323796.996308c-.703665-.93496-1.392645-1.88087-2.066659-2.837372zm4.226732 5.615657 1.291894-1.03734c.72179.898912 1.45762 1.786514 2.207191 2.662463l-1.258837 1.077217c-.760795-.889067-1.507646-1.789962-2.240248-2.70234zm4.577525 5.348353 1.224366-1.116239c.776905.852161 1.567095 1.692153 2.370254 2.519644l-1.188901 1.153941c-.815176-.839872-1.617189-1.692433-2.405719-2.557346zm4.871491 5.020244 1.152554-1.190245c.827574.801366 1.667607 1.589776 2.519769 2.364913l-1.11485 1.225632c-.864914-.786736-1.717516-1.586943-2.557473-2.4003zm5.167652 4.701699 1.076355-1.259573c.876268.748805 1.764173 1.483867 2.663375 2.204887l-1.036463 1.292598c-.912672-.731822-1.813877-1.477893-2.703267-2.237912zm5.479595 4.393525.995458-1.324435c.920636.69196 1.852024 1.369471 2.793813 2.032258l-.953535 1.35493c-.955926-.672735-1.90129-1.360413-2.835736-2.062753zm5.745391 4.042786.910468-1.384237c.963082.633457 1.936045 1.251766 2.918533 1.854672l-.866562 1.412138c-.997274-.611979-1.984874-1.23959-2.962439-1.882573zm5.994391 3.677908.821564-1.438783c1.000473.571283 2.009912 1.126824 3.02796 1.666391l-.775882 1.463924c-1.033413-.547711-2.058081-1.111633-3.073642-1.691532zm6.208255 3.289963.72923-1.487713c1.034218.506942 2.076489.997608 3.126459 1.471793l-.681933 1.509978c-1.065858-.481361-2.123897-.97945-3.173756-1.494058zm6.413215 2.895517.6336-1.530888c1.06442.44054 2.135987.864333 3.214352 1.271194l-.584867 1.55016c-1.094718-.413031-2.182531-.843249-3.263085-1.290466zm6.581316 2.482499.535278-1.567974c1.089991.372102 2.186227.72708 3.28837 1.06477l-.48537 1.584134c-1.118871-.342816-2.231745-.70318-3.338278-1.08093zm6.730867 2.061555.434655-1.598793c1.111181.302091 2.227723.586763 3.349302.853879l-.383855 1.611744c-1.138586-.271166-2.272064-.560156-3.400102-.86683zm6.841686 1.62894.332491-1.623119c1.12803.231074 2.260567.444521 3.397301.640225l-.281109 1.632802c-1.153917-.198662-2.303584-.415338-3.448683-.649908zm6.944219 1.194722.229154-1.6409c1.139819.159177 2.283319.300627 3.430208.424253l-.177564 1.647281c-1.164122-.125483-2.324821-.269061-3.481798-.430634zm7.007738.754499.125526-1.652061c1.147408.087181 2.297717.156614 3.450651.208219l-.074084 1.655166c-1.170099-.052373-2.337557-.122841-3.502093-.211324zm6.933066.312852.023968-1.65665c.540981.007826 1.082449.011743 1.624377.011743.598159 0 1.19576-.004772 1.792764-.014307l.026457 1.656613c-.605822.009675-1.212242.014518-1.819221.014518-.549917 0-1.099374-.003975-1.648345-.011917zm6.975351-.112892-.077717-1.655c1.151903-.054093 2.301161-.125988 3.447498-.215605l.129132 1.651783c-1.163455.090956-2.329853.163924-3.498913.218822zm6.995006-.547203-.180747-1.646935c1.145525-.125718 2.287645-.269225 3.426067-.430424l.232286 1.64046c-1.155563.163626-2.314865.309292-3.477606.436899zm6.96315-.986839-.284102-1.632284c1.136767-.197856 2.269312-.413465 3.397323-.646708l.33549 1.622501c-1.145081.236773-2.294757.455643-3.448711.656491zm6.870401-1.420531-.386561-1.611097c1.122093-.269231 2.23912-.556044 3.350754-.860298l.437385 1.598048c-1.128498.30887-2.262468.600033-3.401578.873347zm6.780068-1.85594-.487892-1.58336c1.100858-.339214 2.195795-.695684 3.284475-1.069248l.537738 1.567132c-1.105201.379233-2.216756.741113-3.334321 1.085476zm6.659901-2.286211-.587436-1.549188c1.077777-.408681 2.148731-.834286 3.212514-1.276629l.636137 1.529834c-1.079906.449048-2.167096.881105-3.261215 1.295983zm6.443845-2.678101-.683619-1.509215c1.050246-.475722 2.092765-.967944 3.127204-1.476455l.730924 1.486881c-1.050082.516201-2.108371 1.015868-3.174509 1.498789zm6.315441-3.105111-.777667-1.462977c1.018149-.541212 2.027658-1.09841 3.02817-1.671362l.823348 1.437763c-1.0156.581592-2.040338 1.147196-3.073851 1.696576zm6.101164-3.494181-.868274-1.411087c.981324-.60383 1.953113-1.223037 2.915013-1.857365l.912122 1.383147c-.976364.643868-1.962772 1.272389-2.958861 1.885305zm5.869245-3.870997-.955197-1.353759c.942201-.664807 1.873957-1.344364 2.794915-2.038392l.997134 1.323174c-.934772.704438-1.880509 1.394191-2.836852 2.068977zm5.619421-4.235312-1.038228-1.29118c.897494-.721668 1.783692-1.457339 2.658252-2.206714l1.078041 1.25813c-.887656.760597-1.787127 1.507286-2.698065 2.239764zm5.328657-4.566093-1.116836-1.223823c.850677-.77631 1.689209-1.565864 2.515268-2.368347l1.154471 1.188386c-.838418.81449-1.689497 1.615858-2.552903 2.403784zm4.99491-4.8502-1.190467-1.152325c.801478-.828007 1.589988-1.66848 2.365215-2.521086l1.225857 1.114602c-.786827.865365-1.587135 1.718413-2.400605 2.558809zm4.725906-5.198059-1.260151-1.075679c.747808-.876052 1.481885-1.763719 2.201935-2.662657l1.293131 1.035797c-.730836.912406-1.475909 1.813368-2.234915 2.702539zm4.395593-5.488625-1.325042-.994649c.69155-.921263 1.36864-1.853274 2.030991-2.795682l1.355519.952697c-.672293.956554-1.359543 1.902551-2.061468 2.837634zm4.038177-5.746192-1.384777-.909645c.632504-.96288 1.249874-1.93562 1.851853-2.917865l1.412637.86575c-.611039.997027-1.237696 1.9844-1.879713 2.96176zm3.673321-5.994779-1.439257-.820735c.570611-1.000634 1.125479-2.010222 1.664375-3.028409l1.464366.775046c-.547028 1.033553-1.110268 2.058373-1.689484 3.074098zm3.289912-6.21737-1.488186-.728263c.506541-1.035104.996785-2.07826 1.470524-3.129113l1.510433.680924c-.480908 1.066756-.978569 2.125693-1.492771 3.176452zm2.890396-6.412808-1.531285-.632637c.439801-1.06453.862855-2.136195 1.268979-3.214647l1.550525.583898c-.412283 1.094806-.841751 2.182719-1.288219 3.263386zm2.480814-6.590108-1.568348-.53418c.371315-1.090178.725502-2.18659 1.062402-3.288898l1.584472.484264c-.342012 1.119038-.701575 2.232091-1.078526 3.338814zm2.056009-6.729239-1.599085-.43358c.301405-1.11161.585381-2.228573.85179-3.350565l1.612005.38276c-.270449 1.139006-.558733 2.272911-.86471 3.401385zm1.625714-6.849519-1.623362-.331298c.230223-1.128093.442821-2.260681.637676-3.397455l1.633007.279915c-.197801 1.153957-.413614 2.303676-.647321 3.448838zm1.189045-6.940924-1.641059-.228012c.158406-1.140083.299078-2.283838.421919-3.430973l1.647405.176413c-.124687 1.164372-.267475 2.325329-.428265 3.482572zm.744327-6.938082-1.65207-.125413c.0871-1.147367.156452-2.297633.207976-3.450522l1.655171.073972c-.052291 1.170054-.122677 2.337468-.211077 3.501963z" fill="#ffc1c1"/><path d="m930.436783 114.762569-1.656656-.0236c.008689-.609978.013171-1.183597.013171-1.737806h1.656823c0 .562491-.004542 1.143901-.013338 1.761406z" fill="#fff"/><path d="m955.293138 186.32597 1.258642-1.077444c20.781211 24.276071 51.04873 38.518091 83.63342 38.518091 60.77505 0 110.04457-49.270538 110.04457-110.046227h1.65682c0 61.69072-50.0113 111.70305-111.70139 111.70305-33.0739 0-63.799322-14.457479-84.892062-39.09747z" fill="#ffc1c1"/></g><path d="m0 108.285714h1198v7h-1198z"/><path d="m1198 108.285714h-1198l3.53729069 3.511348-3.53729069 3.488652h1198l-3.85374-3.637795z" fill="#ffc1c1"/><path d="m239.349548 113.234941c0 49.517488-40.14318 89.657355-89.659011 89.657355-49.519145 0-89.6590117-40.139867-89.6590117-89.657355 0-49.5224586 40.1398667-89.6590113 89.6590117-89.6590113 49.515831 0 89.659011 40.1365527 89.659011 89.6590113" fill="#fd4469"/><path d="m235.207489 113.234941c0-47.2325263-38.286381-85.5169522-85.516952-85.5169522-47.232717 0-85.5169526 38.2832578-85.5169526 85.5169522 0 47.230137 38.2856476 85.515296 85.5169526 85.515296 47.229159 0 85.516952-38.286328 85.516952-85.515296zm8.284118 0c0 51.804232-41.99679 93.799414-93.80107 93.799414-51.8064734 0-93.8010708-41.994062-93.8010708-93.799414 0-51.8089339 41.9932086-93.8010704 93.8010708-93.8010704 51.805669 0 93.80107 41.9932573 93.80107 93.8010704z" fill="#fff" fill-rule="nonzero"/><path d="m81.6729557 118.39446v-12.06499c0-.182251.1458005-.346276.3462762-.346276h7.4175994c.2004757 0 .3462762.164025.3462762.346276v1.494455c0 .18225-.1458005.346276-.3462762.346276h-5.3946178v3.426311h4.5015899c.1822506 0 .3462761.164026.3462761.346276v1.494455c0 .182251-.1640255.346276-.3462761.346276h-4.5015899v4.610941c0 .18225-.1640255.346276-.3462761.346276h-1.6767055c-.2004757 0-.3462762-.164026-.3462762-.346276zm10.0966833-4.483365v-7.581625c0-.182251.1640255-.346276.3462761-.346276h1.7313807c.2004757 0 .3462762.164025.3462762.346276v7.454049c0 1.549131 1.0570535 2.77021 2.6426337 2.77021s2.6608588-1.221079 2.6608588-2.751984v-7.472275c0-.182251.1458004-.346276.3462761-.346276h1.7313804c.182251 0 .346276.164025.346276.346276v7.581625c0 2.770209-2.2052318 5.011891-5.0847913 5.011891-2.8613344 0-5.0665667-2.241682-5.0665667-5.011891zm13.286069 4.483365v-12.265466c0-.18225.164025-.328051.346276-.328051h.455626l7.581625 8.055477h.018225v-7.52695c0-.182251.145801-.346276.346277-.346276h1.676705c.182251 0 .346276.164025.346276.346276v12.265465c0 .182251-.164025.328051-.346276.328051h-.437401l-7.618075-8.365302h-.018225v7.836776c0 .18225-.145801.346276-.346277.346276h-1.65848c-.182251 0-.346276-.164026-.346276-.346276zm13.158493-6.01427c0-3.645012 2.934235-6.579247 6.579247-6.579247 1.840731 0 3.17116.583202 4.410464 1.694931.164026.1458.164026.364501.018225.510301l-1.111728 1.148179c-.127576.145801-.309826.145801-.455627 0-.765452-.674327-1.786056-1.075278-2.806659-1.075278-2.332808 0-4.064188 1.950081-4.064188 4.246439 0 2.278132 1.749605 4.209989 4.082413 4.209989 1.093504 0 2.022982-.419177 2.788434-1.038829.145801-.127575.346276-.10935.455627 0l1.129953 1.166404c.145801.127575.109351.364501-.018225.492077-1.239304 1.202854-2.806659 1.76783-4.428689 1.76783-3.645012 0-6.579247-2.897784-6.579247-6.542796zm15.108575 6.01427v-10.224259h-2.788434c-.200476 0-.346276-.164026-.346276-.346276v-1.494455c0-.182251.1458-.346276.346276-.346276h7.964351c.200476 0 .346276.164025.346276.346276v1.494455c0 .18225-.1458.346276-.346276.346276h-2.788434v10.224259c0 .18225-.164026.346276-.346276.346276h-1.694931c-.182251 0-.346276-.164026-.346276-.346276zm7.417599 0v-12.06499c0-.182251.164026-.346276.346277-.346276h1.69493c.182251 0 .346276.164025.346276.346276v12.06499c0 .18225-.164025.346276-.346276.346276h-1.69493c-.182251 0-.346277-.164026-.346277-.346276zm4.793191-6.01427c0-3.645012 2.897785-6.579247 6.542797-6.579247s6.561021 2.934235 6.561021 6.579247-2.916009 6.542796-6.561021 6.542796-6.542797-2.897784-6.542797-6.542796zm2.369258 0c0 2.296357 1.877181 4.173539 4.173539 4.173539 2.296357 0 4.191764-1.877182 4.191764-4.173539 0-2.296358-1.895407-4.209989-4.191764-4.209989-2.296358 0-4.173539 1.913631-4.173539 4.209989zm13.122043 6.01427v-12.265466c0-.18225.164026-.328051.346276-.328051h.455627l7.581625 8.055477h.018225v-7.52695c0-.182251.1458-.346276.346276-.346276h1.676706c.18225 0 .346276.164025.346276.346276v12.265465c0 .182251-.164026.328051-.346276.328051h-.437402l-7.618075-8.365302h-.018225v7.836776c0 .18225-.145801.346276-.346276.346276h-1.658481c-.18225 0-.346276-.164026-.346276-.346276zm12.739317.346276c-.273376 0-.419176-.236926-.309826-.473852l5.667994-12.265465c.054675-.109351.1458-.200476.309826-.200476h.18225c.182251 0 .255151.091125.309826.200476l5.613319 12.265465c.10935.236926-.03645.473852-.309826.473852h-1.58558c-.273376 0-.400952-.109351-.528527-.364501l-.893028-1.968307h-5.449293l-.893028 1.968307c-.0729.18225-.236926.364501-.528527.364501zm3.900163-4.35579h3.663237l-1.822506-4.009513h-.054675zm9.531706 4.009514v-12.06499c0-.182251.145801-.346276.346277-.346276h1.676705c.182251 0 .346276.164025.346276.346276v10.224259h4.647391c.200475 0 .346276.164025.346276.346276v1.494455c0 .18225-.145801.346276-.346276.346276h-6.670372c-.200476 0-.346277-.164026-.346277-.346276zm9.203656 0v-12.06499c0-.182251.164025-.346276.346276-.346276h1.694931c.18225 0 .346276.164025.346276.346276v12.06499c0 .18225-.164026.346276-.346276.346276h-1.694931c-.182251 0-.346276-.164026-.346276-.346276zm7.417599 0v-10.224259h-2.788434c-.200476 0-.346276-.164026-.346276-.346276v-1.494455c0-.182251.1458-.346276.346276-.346276h7.964351c.200476 0 .346276.164025.346276.346276v1.494455c0 .18225-.1458.346276-.346276.346276h-2.788434v10.224259c0 .18225-.164025.346276-.346276.346276h-1.694931c-.18225 0-.346276-.164026-.346276-.346276zm11.062612 0v-5.795569l-4.155314-6.087171c-.1458-.236925 0-.528526.291601-.528526h1.858956c.145801 0 .236926.091125.291601.164025l2.91601 4.191764 2.916009-4.191764c.054675-.0729.145801-.164025.291601-.164025h1.877181c.291601 0 .437402.291601.291601.528526l-4.209989 6.068945v5.813795c0 .18225-.164025.346276-.346276.346276h-1.676705c-.200476 0-.346276-.164026-.346276-.346276z" fill="#fff"/><path d="m462.625919 113.234941c0 49.517488-40.14318 89.657355-89.660669 89.657355-49.519145 0-89.657354-40.139867-89.657354-89.657355 0-49.5224586 40.138209-89.6590113 89.657354-89.6590113 49.517489 0 89.660669 40.1365527 89.660669 89.6590113" fill="#fd4469"/><path d="m458.483859 113.234941c0-47.2327706-38.286625-85.5169522-85.518609-85.5169522-47.232377 0-85.515295 38.2829181-85.515295 85.5169522 0 47.230476 38.284331 85.515296 85.515295 85.515296 47.230572 0 85.518609-38.286083 85.518609-85.515296zm8.284119 0c0 51.8045-41.997059 93.799414-93.802728 93.799414-51.80618 0-93.799413-41.993769-93.799413-93.799414 0-51.8092262 41.991844-93.8010704 93.799413-93.8010704 51.807058 0 93.802728 41.9929893 93.802728 93.8010704z" fill="#fff" fill-rule="nonzero"/><path d="m686.196872 113.234941c0 49.517488-40.141523 89.657355-89.659011 89.657355-49.519145 0-89.659011-40.139867-89.659011-89.657355 0-49.5224586 40.139866-89.6590113 89.659011-89.6590113 49.517488 0 89.659011 40.1365527 89.659011 89.6590113" fill="#fd4469"/><path d="m682.054813 113.234941c0-47.2331103-38.285308-85.5169522-85.516952-85.5169522-47.232717 0-85.516952 38.2832578-85.516952 85.5169522 0 47.230137 38.285647 85.515296 85.516952 85.515296 47.230232 0 85.516952-38.285744 85.516952-85.515296zm8.284118 0c0 51.804792-41.995693 93.799414-93.80107 93.799414-51.806473 0-93.80107-41.994062-93.80107-93.799414 0-51.8089339 41.993208-93.8010704 93.80107-93.8010704 51.806765 0 93.80107 41.9926969 93.80107 93.8010704z" fill="#fff" fill-rule="nonzero"/><path d="m908.406911 113.234941c0 49.517488-40.141523 89.657355-89.660668 89.657355-49.517488 0-89.657355-40.139867-89.657355-89.657355 0-49.5224586 40.139867-89.6590113 89.657355-89.6590113 49.519145 0 89.660668 40.1365527 89.660668 89.6590113" fill="#fd4469"/><path d="m904.264852 113.234941c0-47.2333547-38.285552-85.5169522-85.518609-85.5169522-47.231305 0-85.515295 38.2835022-85.515295 85.5169522 0 47.229892 38.285403 85.515296 85.515295 85.515296 47.231644 0 85.518609-38.285499 85.518609-85.515296zm8.284118 0c0 51.80506-41.995962 93.799414-93.802727 93.799414-51.805084 0-93.799414-41.99433-93.799414-93.799414 0-51.8086658 41.992941-93.8010704 93.799414-93.8010704 51.808154 0 93.802727 41.9924289 93.802727 93.8010704z" fill="#fff" fill-rule="nonzero"/><path d="m1129.20616 113.234941c0 49.517488-40.14152 89.657355-89.65901 89.657355-49.517485 0-89.659008-40.139867-89.659008-89.657355 0-49.5224586 40.141523-89.6590113 89.659008-89.6590113 49.51749 0 89.65901 40.1365527 89.65901 89.6590113" fill="#fd4469"/><path d="m1125.06411 113.234941c0-47.2331103-38.28531-85.5169522-85.51696-85.5169522-47.231641 0-85.516949 38.2838419-85.516949 85.5169522 0 47.229552 38.286721 85.515296 85.516949 85.515296 47.23024 0 85.51696-38.285744 85.51696-85.515296zm8.28411 0c0 51.804792-41.99569 93.799414-93.80107 93.799414-51.805373 0-93.801067-41.994622-93.801067-93.799414 0-51.8083735 41.994305-93.8010704 93.801067-93.8010704 51.80677 0 93.80107 41.9926969 93.80107 93.8010704z" fill="#fff" fill-rule="nonzero"/><path d="m310.816636 117.695338v-12.06499c0-.182251.164025-.346276.346276-.346276h1.694931c.18225 0 .346276.164025.346276.346276v12.06499c0 .18225-.164026.346276-.346276.346276h-1.694931c-.182251 0-.346276-.164026-.346276-.346276zm5.704444 0v-12.265466c0-.182251.164025-.328051.346276-.328051h.455626l7.581625 8.055477h.018225v-7.52695c0-.182251.145801-.346276.346276-.346276h1.676706c.182251 0 .346276.164025.346276.346276v12.265465c0 .182251-.164025.328051-.346276.328051h-.437401l-7.618076-8.365302h-.018225v7.836776c0 .18225-.1458.346276-.346276.346276h-1.65848c-.182251 0-.346276-.164026-.346276-.346276zm14.087971 0v-12.06499c0-.182251.145801-.346276.346276-.346276h7.4176c.200475 0 .346276.164025.346276.346276v1.494455c0 .18225-.145801.346276-.346276.346276h-5.394618v3.426311h4.50159c.18225 0 .346276.164026.346276.346276v1.494455c0 .182251-.164026.346276-.346276.346276h-4.50159v4.610941c0 .18225-.164026.346276-.346276.346276h-1.676706c-.200475 0-.346276-.164026-.346276-.346276zm9.367681-6.01427c0-3.645012 2.897784-6.579247 6.542796-6.579247s6.561022 2.934235 6.561022 6.579247-2.91601 6.542796-6.561022 6.542796-6.542796-2.897784-6.542796-6.542796zm2.369258 0c0 2.296357 1.877181 4.173538 4.173538 4.173538 2.296358 0 4.191764-1.877181 4.191764-4.173538 0-2.296358-1.895406-4.209989-4.191764-4.209989-2.296357 0-4.173538 1.913631-4.173538 4.209989zm13.122043 6.01427v-12.06499c0-.182251.1458-.346276.346276-.346276h5.212367c2.187007 0 3.973063 1.749605 3.973063 3.918388 0 1.676705-1.111728 3.043585-2.697309 3.681462l2.496834 4.629165c.127575.236926 0 .528527-.309826.528527h-1.913632c-.164025 0-.25515-.091126-.291601-.164026l-2.423933-4.829641h-2.022981v4.647391c0 .18225-.164026.346276-.346276.346276h-1.676706c-.200476 0-.346276-.164026-.346276-.346276zm2.387483-6.597472h2.970685c.965928 0 1.804281-.838353 1.804281-1.858956 0-.965929-.838353-1.767831-1.804281-1.767831h-2.970685zm8.912054 6.524571 2.168782-12.24724c.018225-.145801.127576-.273376.328051-.273376h.291601c.145801 0 .255151.0729.309826.182251l4.009514 8.602228h.054675l4.009513-8.602228c.054675-.109351.145801-.182251.309826-.182251h.291601c.200476 0 .309826.127575.328051.273376l2.150557 12.24724c.054675.255151-.091125.419177-.328051.419177h-1.65848c-.164026 0-.309826-.145801-.346277-.273376l-1.075278-6.907298h-.054675l-3.189386 7.162449c-.03645.10935-.1458.200475-.309826.200475h-.328051c-.164025 0-.255151-.091125-.309826-.200475l-3.225836-7.162449h-.054675l-1.057053 6.907298c-.018225.127575-.164026.273376-.328051.273376h-1.640256c-.236925 0-.382726-.164026-.346276-.419177zm15.400176.419177c-.273376 0-.419176-.236926-.309826-.473852l5.667994-12.265465c.054675-.109351.1458-.200476.309826-.200476h.18225c.182251 0 .255151.091125.309826.200476l5.613319 12.265465c.10935.236926-.03645.473852-.309826.473852h-1.58558c-.273376 0-.400952-.109351-.528527-.364502l-.893028-1.968306h-5.449293l-.893028 1.968306c-.0729.182251-.236926.364502-.528527.364502zm3.900163-4.35579h3.663237l-1.822506-4.009513h-.054675zm9.896207 4.009514v-10.224259h-2.788434c-.200475 0-.346276-.164026-.346276-.346276v-1.494455c0-.182251.145801-.346276.346276-.346276h7.964351c.200476 0 .346277.164025.346277.346276v1.494455c0 .18225-.145801.346276-.346277.346276h-2.788434v10.224259c0 .18225-.164025.346276-.346276.346276h-1.69493c-.182251 0-.346277-.164026-.346277-.346276zm7.4176 0v-12.06499c0-.182251.164025-.346276.346276-.346276h1.694931c.18225 0 .346276.164025.346276.346276v12.06499c0 .18225-.164026.346276-.346276.346276h-1.694931c-.182251 0-.346276-.164026-.346276-.346276zm4.793191-6.01427c0-3.645012 2.897784-6.579247 6.542796-6.579247s6.561022 2.934235 6.561022 6.579247-2.91601 6.542796-6.561022 6.542796-6.542796-2.897784-6.542796-6.542796zm2.369257 0c0 2.296357 1.877182 4.173538 4.173539 4.173538 2.296358 0 4.191764-1.877181 4.191764-4.173538 0-2.296358-1.895406-4.209989-4.191764-4.209989-2.296357 0-4.173539 1.913631-4.173539 4.209989zm13.122044 6.01427v-12.265466c0-.182251.164025-.328051.346276-.328051h.455626l7.581625 8.055477h.018225v-7.52695c0-.182251.145801-.346276.346277-.346276h1.676705c.182251 0 .346276.164025.346276.346276v12.265465c0 .182251-.164025.328051-.346276.328051h-.437401l-7.618075-8.365302h-.018226v7.836776c0 .18225-.1458.346276-.346276.346276h-1.65848c-.182251 0-.346276-.164026-.346276-.346276z" fill="#fff"/><path d="m556.36287 117.695338v-12.06499c0-.182251.1458-.346276.346276-.346276h7.4176c.200475 0 .346276.164025.346276.346276v1.494455c0 .18225-.145801.346276-.346276.346276h-5.394618v2.98891h4.50159c.18225 0 .346276.164025.346276.346276v1.51268c0 .200475-.164026.346276-.346276.346276h-4.50159v3.189385h5.394618c.200475 0 .346276.164026.346276.346277v1.494455c0 .18225-.145801.346276-.346276.346276h-7.4176c-.200476 0-.346276-.164026-.346276-.346276zm9.877983-.072901 2.168782-12.24724c.018225-.145801.127575-.273376.328051-.273376h.291601c.1458 0 .255151.0729.309826.182251l4.009513 8.602228h.054675l4.009513-8.602228c.054676-.109351.145801-.182251.309826-.182251h.291601c.200476 0 .309826.127575.328051.273376l2.150557 12.24724c.054676.255151-.091125.419177-.328051.419177h-1.65848c-.164026 0-.309826-.145801-.346276-.273376l-1.075279-6.907298h-.054675l-3.189385 7.162449c-.036451.10935-.145801.200475-.309826.200475h-.328052c-.164025 0-.25515-.091125-.309826-.200475l-3.225835-7.162449h-.054675l-1.057054 6.907298c-.018225.127575-.164025.273376-.328051.273376h-1.640255c-.236926 0-.382727-.164026-.346276-.419177zm15.837577-5.941369c0-3.645012 2.897784-6.579247 6.542796-6.579247s6.561022 2.934235 6.561022 6.579247-2.91601 6.542796-6.561022 6.542796-6.542796-2.897784-6.542796-6.542796zm2.369258 0c0 2.296357 1.877181 4.173538 4.173538 4.173538 2.296358 0 4.191764-1.877181 4.191764-4.173538 0-2.296358-1.895406-4.209989-4.191764-4.209989-2.296357 0-4.173538 1.913631-4.173538 4.209989zm14.580048 6.01427v-10.224259h-2.788435c-.200475 0-.346276-.164026-.346276-.346276v-1.494455c0-.182251.145801-.346276.346276-.346276h7.964352c.200475 0 .346276.164025.346276.346276v1.494455c0 .18225-.145801.346276-.346276.346276h-2.788435v10.224259c0 .18225-.164025.346276-.346276.346276h-1.69493c-.182251 0-.346276-.164026-.346276-.346276zm7.417599 0v-12.06499c0-.182251.164026-.346276.346276-.346276h1.694931c.18225 0 .346276.164025.346276.346276v12.06499c0 .18225-.164026.346276-.346276.346276h-1.694931c-.18225 0-.346276-.164026-.346276-.346276zm4.793191-6.01427c0-3.645012 2.897784-6.579247 6.542796-6.579247s6.561022 2.934235 6.561022 6.579247-2.91601 6.542796-6.561022 6.542796-6.542796-2.897784-6.542796-6.542796zm2.369258 0c0 2.296357 1.877181 4.173538 4.173538 4.173538 2.296358 0 4.191764-1.877181 4.191764-4.173538 0-2.296358-1.895406-4.209989-4.191764-4.209989-2.296357 0-4.173538 1.913631-4.173538 4.209989zm13.122043 6.01427v-12.265466c0-.182251.164025-.328051.346276-.328051h.455626l7.581625 8.055477h.018226v-7.52695c0-.182251.1458-.346276.346276-.346276h1.676705c.182251 0 .346276.164025.346276.346276v12.265465c0 .182251-.164025.328051-.346276.328051h-.437401l-7.618075-8.365302h-.018225v7.836776c0 .18225-.145801.346276-.346277.346276h-1.65848c-.182251 0-.346276-.164026-.346276-.346276z" fill="#fff"/><path d="m755.799702 117.695338v-12.06499c0-.182251.164026-.346276.346276-.346276h1.694931c.182251 0 .346276.164025.346276.346276v12.06499c0 .18225-.164025.346276-.346276.346276h-1.694931c-.18225 0-.346276-.164026-.346276-.346276zm5.704444 0v-12.265466c0-.182251.164026-.328051.346276-.328051h.455627l7.581625 8.055477h.018225v-7.52695c0-.182251.1458-.346276.346276-.346276h1.676705c.182251 0 .346276.164025.346276.346276v12.265465c0 .182251-.164025.328051-.346276.328051h-.437401l-7.618075-8.365302h-.018225v7.836776c0 .18225-.145801.346276-.346276.346276h-1.658481c-.18225 0-.346276-.164026-.346276-.346276zm15.801127 0v-10.224259h-2.788434c-.200476 0-.346276-.164026-.346276-.346276v-1.494455c0-.182251.1458-.346276.346276-.346276h7.964351c.200476 0 .346276.164025.346276.346276v1.494455c0 .18225-.1458.346276-.346276.346276h-2.788434v10.224259c0 .18225-.164026.346276-.346276.346276h-1.694931c-.18225 0-.346276-.164026-.346276-.346276zm7.417599 0v-12.06499c0-.182251.145801-.346276.346277-.346276h7.417599c.200476 0 .346276.164025.346276.346276v1.494455c0 .18225-.1458.346276-.346276.346276h-5.394618v2.98891h4.50159c.182251 0 .346276.164025.346276.346276v1.51268c0 .200475-.164025.346276-.346276.346276h-4.50159v3.189385h5.394618c.200476 0 .346276.164026.346276.346277v1.494455c0 .18225-.1458.346276-.346276.346276h-7.417599c-.200476 0-.346277-.164026-.346277-.346276zm10.716336 0v-12.06499c0-.182251.1458-.346276.346276-.346276h5.212367c2.187007 0 3.973063 1.749605 3.973063 3.918388 0 1.676705-1.111728 3.043585-2.697309 3.681462l2.496834 4.629165c.127575.236926 0 .528527-.309826.528527h-1.913632c-.164025 0-.255151-.091126-.291601-.164026l-2.423933-4.829641h-2.022981v4.647391c0 .18225-.164026.346276-.346277.346276h-1.676705c-.200476 0-.346276-.164026-.346276-.346276zm2.387483-6.597472h2.970684c.965929 0 1.804281-.838353 1.804281-1.858956 0-.965929-.838352-1.767831-1.804281-1.767831h-2.970684zm8.401752 6.943748c-.273376 0-.419176-.236926-.309826-.473852l5.667994-12.265465c.054675-.109351.145801-.200476.309826-.200476h.182251c.18225 0 .25515.091125.309826.200476l5.613318 12.265465c.109351.236926-.03645.473852-.309826.473852h-1.58558c-.273376 0-.400951-.109351-.528527-.364502l-.893028-1.968306h-5.449293l-.893028 1.968306c-.0729.182251-.236925.364502-.528526.364502zm3.900163-4.35579h3.663237l-1.822506-4.009513h-.054675zm8.419978-2.004756c0-3.645012 2.934235-6.579247 6.579247-6.579247 1.840731 0 3.17116.583202 4.410464 1.694931.164026.1458.164026.364501.018225.510301l-1.111728 1.148179c-.127576.145801-.309826.145801-.455627 0-.765452-.674327-1.786056-1.075278-2.806659-1.075278-2.332808 0-4.064189 1.950081-4.064189 4.246439 0 2.278132 1.749606 4.209988 4.082414 4.209988 1.093503 0 2.022982-.419176 2.788434-1.038828.145801-.127575.346276-.10935.455627 0l1.129953 1.166404c.145801.127575.109351.364501-.018225.492076-1.239304 1.202854-2.806659 1.767831-4.428689 1.767831-3.645012 0-6.579247-2.897784-6.579247-6.542796zm15.108575 6.01427v-10.224259h-2.788434c-.200476 0-.346277-.164026-.346277-.346276v-1.494455c0-.182251.145801-.346276.346277-.346276h7.964351c.200475 0 .346276.164025.346276.346276v1.494455c0 .18225-.145801.346276-.346276.346276h-2.788434v10.224259c0 .18225-.164026.346276-.346277.346276h-1.69493c-.182251 0-.346276-.164026-.346276-.346276zm7.417599 0v-12.06499c0-.182251.164026-.346276.346276-.346276h1.694931c.182251 0 .346276.164025.346276.346276v12.06499c0 .18225-.164025.346276-.346276.346276h-1.694931c-.18225 0-.346276-.164026-.346276-.346276zm9.677507.328051-5.631543-12.265466c-.109351-.236926.03645-.473851.309826-.473851h1.858956c.164025 0 .273376.10935.309826.200475l3.499211 7.836776h.127576l3.499211-7.836776c.03645-.091125.145801-.200475.309826-.200475h1.858956c.273376 0 .419177.236925.309826.473851l-5.649768 12.265466c-.054675.10935-.145801.200475-.309826.200475h-.182251c-.164025 0-.255151-.091125-.309826-.200475zm8.110152-.328051v-12.06499c0-.182251.164025-.346276.346276-.346276h1.694931c.18225 0 .346276.164025.346276.346276v12.06499c0 .18225-.164026.346276-.346276.346276h-1.694931c-.182251 0-.346276-.164026-.346276-.346276zm7.417599 0v-10.224259h-2.788434c-.200476 0-.346276-.164026-.346276-.346276v-1.494455c0-.182251.1458-.346276.346276-.346276h7.964351c.200476 0 .346276.164025.346276.346276v1.494455c0 .18225-.1458.346276-.346276.346276h-2.788434v10.224259c0 .18225-.164025.346276-.346276.346276h-1.694931c-.18225 0-.346276-.164026-.346276-.346276zm11.060789 0v-5.79557l-4.155314-6.08717c-.1458-.236925 0-.528526.291601-.528526h1.858957c.1458 0 .236925.091125.291601.164025l2.916009 4.191764 2.91601-4.191764c.054675-.0729.1458-.164025.291601-.164025h1.877181c.291601 0 .437401.291601.291601.528526l-4.209989 6.068945v5.813795c0 .18225-.164026.346276-.346276.346276h-1.676706c-.200475 0-.346276-.164026-.346276-.346276z" fill="#fff"/><path d="m1009.94121 101.484655c-.19882-.231956-.16569-.596457.03313-.828412l1.68996-1.6236875c.29823-.2650918.59646-.2650918.86155 0 .09941.1325459 2.05446 1.7893695 4.07579 1.7893695 1.78937 0 3.51246-1.2923224 3.51246-3.1148284 0-1.7230966-1.59055-3.2805108-4.57283-3.2805108h-1.85564c-.3645 0-.6296-.2650918-.6296-.6627294v-2.0875978c0-.4307742.23196-.6627295.6296-.6627295h1.85564c2.71719 0 4.10892-1.3585954 4.10892-3.0485555 0-1.822506-1.52428-3.0485555-3.21424-3.0485555-1.72309 0-2.78346.9278212-3.34678 1.5905507-.23195.2650918-.59646.2982283-.89468.0331365l-1.62369-1.5242778c-.26509-.2319553-.23196-.629593 0-.8615483 0 0 2.51837-2.9160096 6.22966-2.9160096 3.84383 0 7.05806 2.3526896 7.05806 6.0639745 0 2.5515085-1.92191 4.4734239-3.41305 5.1692898v.0994094c1.55741.6627295 4.00951 2.452099 4.00951 5.4012451 0 3.7444216-3.04855 6.4616126-7.62139 6.4616126-4.14206 0-6.16338-2.087598-6.89238-2.949146zm17.52919-6.1965209c0-9.6758501 8.18471-13.5196809 11.03445-14.4475022.46391-.1325458.79527.0331365.92782.4639107l.76214 1.9550519c.16568.3976376.03313.7621388-.59646.9609577-1.55742.4970471-6.26279 2.7171907-7.29002 6.3622028.56332-.3313648 2.22014-.9278213 3.77755-.9278213 3.31365 0 6.75984 2.452099 6.75984 7.1906146 0 4.1751957-3.41305 7.5882527-7.48884 7.5882527-5.20243 0-7.88648-4.175196-7.88648-9.1456669zm7.85334 5.3681089c2.0876 0 3.77756-1.7893698 3.77756-3.8769676 0-2.1207343-1.68996-3.8769673-3.81069-3.8769673-2.18701 0-3.47933 1.6899601-3.84383 2.8828731 0 2.2532801 1.19291 4.8710618 3.87696 4.8710618zm18.95407 3.777558c-5.30184 0-8.35039-4.340878-8.35039-11.5977659 0-7.2568875 3.04855-11.5977655 8.35039-11.5977655 5.30183 0 8.35039 4.340878 8.35039 11.5977655 0 7.2568879-3.04856 11.5977659-8.35039 11.5977659zm0-3.910104c2.55151 0 4.00951-2.7503274 4.00951-7.6876619 0-4.904198-1.458-7.6876617-4.00951-7.6876617s-4.00952 2.7834637-4.00952 7.6876617c0 4.9373345 1.45801 7.6876619 4.00952 7.6876619zm15.40846-9.4770314c-2.75033 0-4.20834-1.9881884-4.20834-5.2355627 0-3.2805108 1.45801-5.2355627 4.20834-5.2355627 2.71719 0 4.14206 1.9550519 4.14206 5.2355627 0 3.2473743-1.42487 5.2355627-4.14206 5.2355627zm0-2.3195531c.89468 0 1.458-1.0272307 1.458-2.9160096 0-1.888779-.56332-2.9160096-1.458-2.9160096-.92782 0-1.45801 1.0272306-1.45801 2.9160096 0 1.8887789.53019 2.9160096 1.45801 2.9160096z" fill="#fff"/><path d="m988.576797 134.263574v-12.06499c0-.18225.1458-.346276.346276-.346276h7.417599c.200476 0 .346276.164026.346276.346276v1.494455c0 .182251-.1458.346276-.346276.346276h-5.394618v2.98891h4.50159c.182251 0 .346276.164026.346276.346276v1.51268c0 .200476-.164025.346276-.346276.346276h-4.50159v3.189386h5.394618c.200476 0 .346276.164025.346276.346276v1.494455c0 .182251-.1458.346276-.346276.346276h-7.417599c-.200476 0-.346276-.164025-.346276-.346276zm9.604606-.164026 3.790817-6.032494-3.645016-5.704444c-.145801-.236926 0-.510302.309826-.510302h2.11411c.1458 0 .23692.091125.2916.164026l2.33281 3.863712h.01822l2.36926-3.863712c.03645-.072901.1458-.164026.2916-.164026h2.11411c.30982 0 .45562.273376.30982.510302l-3.66323 5.704444 3.79081 6.032494c.1458.255151 0 .510302-.30983.510302h-1.9683c-.14581 0-.27338-.091125-.30983-.164025l-2.60618-4.173539h-.05468l-2.56973 4.173539c-.05468.0729-.16403.164025-.30983.164025h-1.968306c-.328051 0-.473851-.273376-.328051-.510302zm12.629967.164026v-12.06499c0-.18225.1458-.346276.34628-.346276h4.28289c2.24168 0 4.08241 1.822506 4.08241 4.027738 0 2.259908-1.84073 4.100639-4.06419 4.100639h-2.27813v4.282889c0 .182251-.16403.346276-.34628.346276h-1.6767c-.20048 0-.34628-.164025-.34628-.346276zm2.36926-6.506347h2.1141c1.02061 0 1.87719-.820127 1.87719-1.895406 0-1.002378-.85658-1.767831-1.87719-1.767831h-2.1141zm8.41998 6.506347v-12.06499c0-.18225.1458-.346276.34627-.346276h7.4176c.20048 0 .34628.164026.34628.346276v1.494455c0 .182251-.1458.346276-.34628.346276h-5.39462v2.98891h4.50159c.18225 0 .34628.164026.34628.346276v1.51268c0 .200476-.16403.346276-.34628.346276h-4.50159v3.189386h5.39462c.20048 0 .34628.164025.34628.346276v1.494455c0 .182251-.1458.346276-.34628.346276h-7.4176c-.20047 0-.34627-.164025-.34627-.346276zm10.71633 0v-12.06499c0-.18225.1458-.346276.34628-.346276h5.21236c2.18701 0 3.97307 1.749606 3.97307 3.918388 0 1.676705-1.11173 3.043585-2.69731 3.681462l2.49683 4.629165c.12758.236926 0 .528527-.30982.528527h-1.91364c-.16402 0-.25515-.091125-.2916-.164025l-2.42393-4.829641h-2.02298v4.64739c0 .182251-.16403.346276-.34628.346276h-1.6767c-.20048 0-.34628-.164025-.34628-.346276zm2.38748-6.597472h2.97069c.96593 0 1.80428-.838353 1.80428-1.858956 0-.965928-.83835-1.767831-1.80428-1.767831h-2.97069zm9.75041 6.597472v-12.06499c0-.18225.16403-.346276.34628-.346276h1.69493c.18225 0 .34627.164026.34627.346276v12.06499c0 .182251-.16402.346276-.34627.346276h-1.69493c-.18225 0-.34628-.164025-.34628-.346276zm5.70444 0v-12.06499c0-.18225.1458-.346276.34628-.346276h7.4176c.20048 0 .34628.164026.34628.346276v1.494455c0 .182251-.1458.346276-.34628.346276h-5.39462v2.98891h4.50159c.18225 0 .34628.164026.34628.346276v1.51268c0 .200476-.16403.346276-.34628.346276h-4.50159v3.189386h5.39462c.20048 0 .34628.164025.34628.346276v1.494455c0 .182251-.1458.346276-.34628.346276h-7.4176c-.20048 0-.34628-.164025-.34628-.346276zm10.71634 0v-12.265465c0-.182251.16403-.328052.34628-.328052h.45562l7.58163 8.055477h.01822v-7.52695c0-.18225.1458-.346276.34628-.346276h1.6767c.18225 0 .34628.164026.34628.346276v12.265466c0 .18225-.16403.328051-.34628.328051h-.4374l-7.61807-8.365303h-.01823v7.836776c0 .182251-.1458.346276-.34627.346276h-1.65848c-.18225 0-.34628-.164025-.34628-.346276zm13.15849-6.01427c0-3.645012 2.93424-6.579247 6.57925-6.579247 1.84073 0 3.17116.583202 4.41046 1.694931.16403.1458.16403.364501.01823.510302l-1.11173 1.148178c-.12757.145801-.30983.145801-.45563 0-.76545-.674327-1.78605-1.075278-2.80665-1.075278-2.33281 0-4.06419 1.950081-4.06419 4.246439 0 2.278132 1.7496 4.209989 4.08241 4.209989 1.0935 0 2.02298-.419177 2.78843-1.038829.1458-.127575.34628-.10935.45563 0l1.12995 1.166404c.1458.127576.10935.364501-.01822.492077-1.2393 1.202854-2.80666 1.767831-4.42869 1.767831-3.64501 0-6.57925-2.897785-6.57925-6.542797zm13.39542 6.01427v-12.06499c0-.18225.1458-.346276.34628-.346276h7.4176c.20047 0 .34627.164026.34627.346276v1.494455c0 .182251-.1458.346276-.34627.346276h-5.39462v2.98891h4.50159c.18225 0 .34628.164026.34628.346276v1.51268c0 .200476-.16403.346276-.34628.346276h-4.50159v3.189386h5.39462c.20047 0 .34627.164025.34627.346276v1.494455c0 .182251-.1458.346276-.34627.346276h-7.4176c-.20048 0-.34628-.164025-.34628-.346276z" fill="#fff"/><path d="m953.205931 188.061959-3.563827-11.6425 10.06686 6.849309z" fill="#ffc1c1"/></g></svg>