<svg height="897" viewBox="0 0 1440 897" width="1440" xmlns="http://www.w3.org/2000/svg" xmlns:xlink="http://www.w3.org/1999/xlink"><mask id="a" fill="#fff"><path d="m1440 0c-653.436114 0-1113.281943 0-1440 0v214.590129c151.890485-72.971042 345.53638-146.5072881 489.040914-50.304821 273.280107 183.201323 362.393186 425.620482 670.328376 357.786479 109.38486-24.096021 199.61833-133.20772 280.63071-240.61256z" fill="#fff" fill-rule="evenodd"/></mask><g fill="none" fill-rule="evenodd" transform="translate(0 -10)"><path d="m0 110h1440v797h-1440z" fill="#fff"/><path d="m0 447.333019h34.2764698v9.355433h-24.40678651v17.144373h20.75229441v9.355432h-20.75229441v26.543319h-9.86968329zm0 122.857177h53.8106002v8.48516h-53.8106002zm1440-104.152326v11.607134c-.91415 1.5765-1.47063 3.395236-1.66947 5.456225h1.66947v7.397319h-1.75647c.13356 2.366527.71905 4.419141 1.75647 6.157867v11.749908c-2.02198-1.029546-3.85464-2.400862-5.49798-4.113951-4.03156-4.293368-6.04731-9.964588-6.04731-17.013833 0-6.904199 2.01575-12.54641 6.04731-16.926805 1.62527-1.800978 3.45792-3.238931 5.49798-4.313864zm0 70.816892v11.468745c-.54632.480242-1.07243.995515-1.57833 1.54582-4.00256 4.264358-6.00381 9.732517-6.00381 16.404642 0 6.701134 2.00125 12.22731 6.00381 16.578696.5066.550746 1.03271 1.066637 1.57833 1.547676v11.510402c-3.3541-1.511954-6.37454-3.630943-9.06134-6.356978-6.00384-6.178967-9.00571-13.938822-9.00571-23.279796 0-9.282956 3.00187-16.970289 9.00571-23.062228 2.6868-2.726035 5.70724-4.845025 9.06134-6.356979zm-1404.6089551-49.576223c0-6.904199 2.0157513-12.54641 6.0473143-16.926805 4.031563-4.467423 9.3392247-6.701101 15.9231441-6.701101 6.3228831 0 11.3550103 2.023364 15.0965329 6.070153 3.7415225 4.046789 5.6122557 9.75427 5.6122557 17.122616v3.655146h-32.8904289c.2030284 3.597146 1.4501838 6.469017 3.7415039 8.615701 2.2913199 2.146683 5.2061832 3.220009 8.7446774 3.220009 5.4527615 0 9.034708-2.132147 10.745947-6.396505h9.2667479c-1.4502025 4.728506-3.9082589 8.376362-7.374243 10.94368-3.465984 2.567318-7.7802719 3.850957-12.9429929 3.850957-6.4969073 0-11.8045689-2.146651-15.9231441-6.440018-4.031563-4.293368-6.0473143-9.964588-6.0473143-17.013833zm9.8758298-4.17731h23.2321284c-.0290041-3.39408-1.0658833-6.099151-3.1106689-8.115293-2.0447856-2.016141-4.7493727-3.024197-8.1138426-3.024197-3.3644698 0-6.1270642 1.029812-8.287866 3.089468-2.1608018 2.059655-3.4007063 4.74297-3.7197509 8.050022zm36.702367 4.17731c0-6.904199 2.0157514-12.54641 6.0473143-16.926805 4.0315629-4.467423 9.3392246-6.701101 15.923145-6.701101 6.322883 0 11.35501 2.023364 15.096532 6.070153 3.741523 4.046789 5.612256 9.75427 5.612256 17.122616v3.655146h-32.890429c.203028 3.597146 1.4501837 6.469017 3.741504 8.615701 2.2913194 2.146683 5.206183 3.220009 8.744678 3.220009 5.452761 0 9.034707-2.132147 10.745947-6.396505h9.266748c-1.450203 4.728506-3.90826 8.376362-7.374244 10.94368s-7.780272 3.850957-12.942992 3.850957c-6.4969076 0-11.8045693-2.146651-15.923145-6.440018-4.0315629-4.293368-6.0473143-9.964588-6.0473143-17.013833zm9.8758303-4.17731h23.232128c-.029004-3.39408-1.065883-6.099151-3.110669-8.115293-2.044785-2.016141-4.749372-3.024197-8.113842-3.024197s-6.127065 1.029812-8.2878664 3.089468c-2.1608015 2.059655-3.4007066 4.74297-3.7197506 8.050022zm48.823924-9.834081v-8.615701h7.657031v-5.874341c0-4.815533 1.276159-8.521408 3.828516-11.117735 2.552356-2.596327 6.206812-3.89447 10.963476-3.89447 2.29132 0 4.278067.333601 5.960303 1.000813v8.48516c-1.85626-.667213-3.552971-1.000813-5.090186-1.000813-4.089571 0-6.134325 2.262686-6.134325 6.788127v5.613259h10.789452v8.615701h-10.789452v36.464428h-9.527784v-36.464428zm32.612817 36.464428v-45.080129h8.266112l.826612 7.6584c.899126-2.436776 2.479823-4.402122 4.742138-5.896098 2.262317-1.493975 5.104671-2.240952 8.527149-2.240952v9.573001c-3.741523 0-6.743397 1.000803-9.005713 3.00244-2.523352 2.088666-3.828515 5.26513-3.915527 9.529487v23.453851zm23.172045-22.453037c0-6.904199 2.015751-12.54641 6.047315-16.926805 4.031562-4.467423 9.339224-6.701101 15.923143-6.701101 6.322883 0 11.355011 2.023364 15.096533 6.070153s5.612256 9.75427 5.612256 17.122616v3.655146h-32.890429c.203029 3.597146 1.450183 6.469017 3.741504 8.615701 2.29132 2.146683 5.206183 3.220009 8.744677 3.220009 5.452762 0 9.034709-2.132147 10.745947-6.396505h9.266748c-1.450202 4.728506-3.908259 8.376362-7.374243 10.94368s-7.780271 3.850957-12.942993 3.850957c-6.496907 0-11.804569-2.146651-15.923143-6.440018-4.031564-4.293368-6.047315-9.964588-6.047315-17.013833zm9.87583-4.17731h23.232128c-.029004-3.39408-1.065883-6.099151-3.110669-8.115293-2.044785-2.016141-4.749373-3.024197-8.113843-3.024197-3.364469 0-6.127063 1.029812-8.287866 3.089468-2.160801 2.059655-3.400705 4.74297-3.71975 8.050022zm36.702367 4.17731c0-6.904199 2.015751-12.54641 6.047314-16.926805 4.031564-4.467423 9.339225-6.701101 15.923144-6.701101 6.322884 0 11.355011 2.023364 15.096534 6.070153 3.741522 4.046789 5.612255 9.75427 5.612255 17.122616v3.655146h-32.890429c.203029 3.597146 1.450184 6.469017 3.741504 8.615701 2.29132 2.146683 5.206184 3.220009 8.744678 3.220009 5.452761 0 9.034707-2.132147 10.745946-6.396505h9.266748c-1.450202 4.728506-3.908259 8.376362-7.374243 10.94368s-7.780272 3.850957-12.942993 3.850957c-6.496907 0-11.804568-2.146651-15.923144-6.440018-4.031563-4.293368-6.047314-9.964588-6.047314-17.013833zm9.87583-4.17731h23.232128c-.029004-3.39408-1.065883-6.099151-3.110669-8.115293-2.044785-2.016141-4.749373-3.024197-8.113843-3.024197s-6.127063 1.029812-8.287866 3.089468c-2.160801 2.059655-3.400705 4.74297-3.71975 8.050022zm64.121409 7.745428v-8.485159h58.384862v8.485159zm92.57424 18.884919v-62.398557h22.797071c9.658348 0 17.37331 2.886376 23.145116 8.659214 5.829814 5.743829 8.744678 13.257109 8.744678 22.540065 0 9.340974-2.914864 16.883263-8.744678 22.627092-5.80081 5.714819-13.515772 8.572186-23.145116 8.572186zm9.962843-9.355432h12.834228c6.786948 0 12.094609-1.921833 15.923143-5.765557 3.828535-3.843724 5.742773-9.2031 5.742773-16.078289s-1.906987-12.234566-5.721019-16.07829c-3.814033-3.843724-9.128945-5.765556-15.944897-5.765556h-12.834228zm47.970384-13.097605c0-6.904199 2.015751-12.54641 6.047314-16.926805 4.031563-4.467423 9.339224-6.701101 15.923144-6.701101 6.322884 0 11.355011 2.023364 15.096533 6.070153 3.741523 4.046789 5.612256 9.75427 5.612256 17.122616v3.655146h-32.890429c.203028 3.597146 1.450184 6.469017 3.741504 8.615701 2.291319 2.146683 5.206183 3.220009 8.744678 3.220009 5.452761 0 9.034707-2.132147 10.745946-6.396505h9.266748c-1.450202 4.728506-3.908259 8.376362-7.374243 10.94368s-7.780272 3.850957-12.942993 3.850957c-6.496908 0-11.804568-2.146651-15.923144-6.440018-4.031563-4.293368-6.047314-9.964588-6.047314-17.013833zm9.87583-4.17731h23.232128c-.029004-3.39408-1.065883-6.099151-3.110669-8.115293-2.044785-2.016141-4.749373-3.024197-8.113843-3.024197s-6.127064 1.029812-8.287866 3.089468c-2.160801 2.059655-3.400706 4.74297-3.71975 8.050022zm36.702367 4.17731c0-6.87519 2.073758-12.517401 6.221337-16.926805 4.205588-4.467423 9.527752-6.701101 15.966651-6.701101 5.394753 0 9.912066 1.392423 13.552075 4.177309 3.640008 2.784887 5.924042 6.71558 6.852172 11.792197h-9.266748c-.754105-2.29173-2.095522-4.068519-4.024292-5.330421-1.928769-1.261902-4.241807-1.892843-6.939184-1.892843-3.567498 0-6.569373 1.392422-9.005713 4.177309-2.378332 2.726869-3.56748 6.29495-3.56748 10.704355 0 4.293367 1.189148 7.803432 3.56748 10.5303 2.43634 2.784887 5.496222 4.17731 9.179736 4.17731 2.610365 0 4.8944-.652698 6.852173-1.958114 1.957774-1.305416 3.270187-3.031439 3.93728-5.178123h9.35376c-1.102154 5.047607-3.480451 8.956543-7.134961 11.726926-3.65451 2.770381-8.106566 4.155552-13.356298 4.155552-6.467903 0-11.790067-2.17566-15.966651-6.527046-4.147579-4.322376-6.221337-9.964588-6.221337-16.926805zm45.447044 0c0-6.904199 2.015752-12.54641 6.047315-16.926805 4.031562-4.467423 9.339224-6.701101 15.923144-6.701101 6.322883 0 11.35501 2.023364 15.096532 6.070153 3.741523 4.046789 5.612256 9.75427 5.612256 17.122616v3.655146h-32.890428c.203028 3.597146 1.450183 6.469017 3.741504 8.615701 2.291319 2.146683 5.206182 3.220009 8.744677 3.220009 5.452762 0 9.034708-2.132147 10.745947-6.396505h9.266748c-1.450202 4.728506-3.908259 8.376362-7.374243 10.94368s-7.780272 3.850957-12.942993 3.850957c-6.496908 0-11.804569-2.146651-15.923144-6.440018-4.031563-4.293368-6.047315-9.964588-6.047315-17.013833zm9.875831-4.17731h23.232127c-.029004-3.39408-1.065883-6.099151-3.110668-8.115293-2.044785-2.016141-4.749373-3.024197-8.113843-3.024197s-6.127064 1.029812-8.287866 3.089468c-2.160801 2.059655-3.400706 4.74297-3.71975 8.050022zm39.573753 26.630347v-45.080129h8.179101l.696094 6.048395c1.131158-2.146683 2.777114-3.858202 4.937915-5.134609 2.160802-1.276406 4.647862-1.9146 7.461255-1.9146 4.611644 0 8.200842 1.508458 10.7677 4.525419 2.566858 3.01696 3.850268 7.121706 3.850268 12.314359v29.241165h-9.527783v-27.370078c0-3.04597-.659832-5.381179-1.979516-7.005696-1.319685-1.624518-3.212171-2.436764-5.677515-2.436764-2.784389 0-5.024918 1.138596-6.721655 3.415821s-2.545093 5.417428-2.545093 9.420702v23.976015zm39.182201-36.377402v-8.702727h7.918066l.087012-11.052464h9.527783l-.087011 11.052464h10.963476v8.702727h-11.050488l-.174024 21.408711c0 2.523803.449556 4.315097 1.348682 5.373934.899125 1.058837 2.494324 1.588248 4.785644 1.588248 1.769247 0 3.465959-.246575 5.090186-.739732v8.398133c-1.769247.638203-4.089537.957299-6.960937.957299-4.669653 0-8.128334-1.095082-10.376148-3.285279-2.247814-2.190198-3.357202-5.605984-3.328198-10.247462l.174023-23.453852zm34.570581 36.377402v-45.080129h8.266112l.826612 7.6584c.899125-2.436776 2.479822-4.402122 4.742138-5.896098 2.262317-1.493975 5.104671-2.240952 8.527149-2.240952v9.573001c-3.741523 0-6.743398 1.000803-9.005713 3.00244-2.523352 2.088666-3.828515 5.26513-3.915527 9.529487v23.453851zm23.737621-11.835709c0-7.194291 4.394047-11.632638 13.182275-13.315173l12.834228-2.306224v-2.045141c0-5.395718-2.465308-8.093536-7.395996-8.093536-2.349328 0-4.285319.652698-5.808032 1.958114-1.522713 1.305415-2.284058 3.031439-2.284058 5.178123h-9.179736c.174024-4.467423 1.827231-8.18055 4.959668-11.139492 3.161442-2.987951 7.265453-4.481905 12.312158-4.481905 5.336745 0 9.491514 1.41418 12.464429 4.24258s4.45935 6.882381 4.45935 12.162062v29.676301h-8.353125l-.478564-5.87434c-2.697377 4.583459-7.120428 6.875154-13.269287 6.875154-4.060567 0-7.316223-1.1531-9.767065-3.459334-2.450842-2.306235-3.676245-5.431933-3.676245-9.377189zm9.527783-.47865c0 1.566498.543817 2.806624 1.631469 3.720416 1.087652.913791 2.603092 1.37068 4.546362 1.37068 3.625507 0 6.351847-1.450441 8.179102-4.351365 1.421198-2.030646 2.131787-4.409368 2.131787-7.136236v-1.610005l-10.789453 2.306223c-3.79953.783249-5.699267 2.683326-5.699267 5.700287zm34.701097 12.314359v-65.052889h9.440772v65.052889zm17.907837-58.569357c0-1.711545.587323-3.147481 1.761987-4.30785s2.603092-1.740545 4.285327-1.740545h.391553c1.131158 0 2.160786.3336 3.088916 1.000813 1.044146.75424 1.769236 1.682522 2.175292 2.784873.319045.75424.478565 1.537478.478565 2.349736 0 .40613-.029003.783244-.087011 1.131355-.203029 1.218388-.7686 2.219192-1.696729 3.002441-.870122.899286-1.943255 1.435949-3.219434 1.610004-.377052.058019-.7541.087028-1.131152.087028-.812113 0-1.595211-.145044-2.349316-.435136-1.102155-.40613-2.03027-1.116845-2.784375-2.132169-.638089-.841268-.957129-1.798558-.957129-2.8719 0-.145046.014502-.304594.043506-.47865zm1.348682 58.569357v-45.080129h9.440771v45.080129zm15.776048-13.619768h9.527783c.029004 2.088664.71784 3.705906 2.066529 4.85177 1.348689 1.145865 3.21217 1.718789 5.590503 1.718789 2.1463 0 3.814008-.471393 5.003173-1.414193 1.189167-.9428 1.78374-2.22644 1.78374-3.850957 0-1.769564-.623577-3.111221-1.870752-4.025012-1.247173-.913791-3.567463-1.73329-6.960937-2.45852-4.901684-1.044333-8.47638-2.596304-10.724194-4.65596-2.247813-2.059656-3.371704-4.873509-3.371704-8.441646 0-3.916247 1.377672-7.252259 4.133057-10.008137 2.784388-2.784886 6.64187-4.177309 11.572558-4.177309 4.43762 0 8.121079 1.305396 11.050488 3.916228 2.929409 2.552813 4.437597 6.00486 4.52461 10.356246h-9.440771c-.087013-4.090302-2.189775-6.135424-6.308351-6.135424-1.885262 0-3.357196.471394-4.415844 1.414194-1.058647.9428-1.587964 2.211935-1.587964 3.807443 0 1.624518.572822 2.850139 1.718481 3.676903 1.145661.826763 3.313681 1.602748 6.504126 2.32798 5.307742 1.044332 9.085463 2.61806 11.333276 4.721229 2.247814 2.10317 3.371704 5.040311 3.371704 8.811512 0 4.409404-1.522689 7.875956-4.568114 10.39976-3.045426 2.523803-7.018921 3.785686-11.920606 3.785686-5.249733 0-9.360996-1.298144-12.333911-3.89447-2.972915-2.596328-4.531859-6.171662-4.67688-10.726112zm36.354321-8.833269c0-6.904199 2.015751-12.54641 6.047314-16.926805 4.031563-4.467423 9.339225-6.701101 15.923145-6.701101 6.322883 0 11.355013 2.023364 15.096535 6.070153 3.741523 4.046789 5.612255 9.75427 5.612255 17.122616v3.655146h-32.890431c.203028 3.597146 1.450184 6.469017 3.741504 8.615701 2.29132 2.146683 5.206183 3.220009 8.744678 3.220009 5.452761 0 9.034712-2.132147 10.745946-6.396505h9.266751c-1.450208 4.728506-3.908263 8.376362-7.374248 10.94368-3.465986 2.567318-7.78027 3.850957-12.94299 3.850957-6.496908 0-11.804569-2.146651-15.923145-6.440018-4.031563-4.293368-6.047314-9.964588-6.047314-17.013833zm9.87583-4.17731h23.232124c-.028997-3.39408-1.065882-6.099151-3.110665-8.115293-2.044785-2.016141-4.749372-3.024197-8.113842-3.024197s-6.127065 1.029812-8.287866 3.089468c-2.160802 2.059655-3.400707 4.74297-3.719751 8.050022zm36.702364 4.090283c0-6.730143 1.957749-12.314338 5.873298-16.752751 4.002557-4.525441 9.049182-6.788128 15.140031-6.788128 6.409903 0 11.195494 2.204669 14.356937 6.614073v-25.586019h9.440769v65.052889h-8.309615l-.609085-6.309477c-3.364466 4.873552-8.353089 7.310291-14.966015 7.310291-6.090848 0-11.108477-2.233678-15.053022-6.7011-3.915549-4.525441-5.873298-10.138645-5.873298-16.839778zm9.78882 0c0 4.322376 1.189149 7.839694 3.56748 10.552057 2.378332 2.712364 5.467218 4.068525 9.266752 4.068525 3.538491 0 6.540368-1.276387 9.005708-3.8292 2.552358-2.552813 3.828515-6.03387 3.828515-10.443274v-.435136c0-4.409404-1.276157-7.89046-3.828515-10.443273-2.581362-2.66885-5.554225-4.003255-8.9187-4.003255-3.770528 0-6.866665 1.356162-9.288497 4.068526-2.42184 2.712364-3.632743 6.200672-3.632743 10.46503zm68.95056 3.655145v-8.485159h58.384859v8.485159zm89.267799-12.401387c0-9.282956 3.00187-16.970288 9.00571-23.062228 6.03284-6.120949 13.7478-9.181378 23.14511-9.181378 9.39732 0 17.06878 3.060429 23.01461 9.181378 5.97483 6.062931 8.96221 13.750263 8.96221 23.062228 0 10.356298-3.49494 18.580294-10.48492 24.672233l15.74912 15.882478h-13.87837l-10.52841-10.5303c-4.20559 1.624517-8.48363 2.436764-12.83424 2.436764-9.39731 0-17.11227-3.060429-23.14511-9.181378-6.00384-6.178968-9.00571-13.938822-9.00571-23.279797zm10.48491 0c0 6.701134 2.00125 12.227311 6.00381 16.578697 4.00255 4.351385 9.2232 6.527045 15.6621 6.527045 1.71125 0 3.43696-.188557 5.17721-.565677l-10.61543-10.399759h14.00888l5.78628 5.613259c4.81468-4.351386 7.22197-10.269182 7.22197-17.753565 0-6.701134-1.98675-12.169293-5.9603-16.404642-3.97356-4.322375-9.17971-6.483531-15.61861-6.483531-6.46789 0-11.68854 2.161156-15.6621 6.483531-4.00256 4.264359-6.00381 9.732517-6.00381 16.404642zm59.02087 15.403829v-29.197652h9.44078v27.326565c0 6.382032 2.5233 9.573 7.57002 9.573 2.72637 0 4.9234-1.08783 6.59113-3.263522 1.66773-2.175694 2.50158-5.1636 2.50158-8.96381v-24.672233h9.44078v45.080129h-8.26611l-.60909-6.048396c-2.29131 4.699497-6.36633 7.04921-12.22515 7.04921-4.66965 0-8.24434-1.493954-10.72419-4.481905-2.47984-2.987951-3.71975-7.121706-3.71975-12.401386zm42.31462 4.046768c0-7.194291 4.39405-11.632638 13.18228-13.315173l12.83423-2.306224v-2.045141c0-5.395718-2.46531-8.093536-7.396-8.093536-2.34932 0-4.28532.652698-5.80803 1.958114-1.52272 1.305415-2.28406 3.031439-2.28406 5.178123h-9.17973c.17402-4.467423 1.82722-8.18055 4.95966-11.139492 3.16144-2.987951 7.26546-4.481905 12.31216-4.481905 5.33675 0 9.49151 1.41418 12.46443 4.24258 2.97291 2.8284 4.45935 6.882381 4.45935 12.162062v29.676301h-8.35312l-.47857-5.87434c-2.69738 4.583459-7.12043 6.875154-13.26928 6.875154-4.06057 0-7.31623-1.1531-9.76707-3.459334-2.45084-2.306235-3.67625-5.431933-3.67625-9.377189zm9.52779-.47865c0 1.566498.54381 2.806624 1.63147 3.720416 1.08765.913791 2.60309 1.37068 4.54636 1.37068 3.62551 0 6.35185-1.450441 8.1791-4.351365 1.4212-2.030646 2.13179-4.409368 2.13179-7.136236v-1.610005l-10.78945 2.306223c-3.79954.783249-5.69927 2.683326-5.69927 5.700287zm34.52707 12.314359v-45.080129h8.1791l.6961 6.048395c1.13116-2.146683 2.77711-3.858202 4.93791-5.134609 2.16081-1.276406 4.64787-1.9146 7.46126-1.9146 4.61164 0 8.20084 1.508458 10.7677 4.525419 2.56685 3.01696 3.85027 7.121706 3.85027 12.314359v29.241165h-9.52779v-27.370078c0-3.04597-.65983-5.381179-1.97952-7.005696-1.31968-1.624518-3.21217-2.436764-5.67751-2.436764-2.78439 0-5.02492 1.138596-6.72166 3.415821-1.69673 2.277225-2.54509 5.417428-2.54509 9.420702v23.976015zm39.1822-36.377402v-8.702727h7.91807l.08701-11.052464h9.52778l-.087 11.052464h10.96347v8.702727h-11.05049l-.17403 21.408711c0 2.523803.44957 4.315097 1.34869 5.373934.89913 1.058837 2.49432 1.588248 4.78564 1.588248 1.76925 0 3.46596-.246575 5.09019-.739732v8.398133c-1.76925.638203-4.08954.957299-6.96094.957299-4.66965 0-8.12833-1.095082-10.37615-3.285279-2.24781-2.190198-3.3572-5.605984-3.3282-10.247462l.17403-23.453852zm33.56995 20.494925v-29.197652h9.44077v27.326565c0 6.382032 2.52331 9.573 7.57002 9.573 2.72638 0 4.92341-1.08783 6.59113-3.263522 1.66774-2.175694 2.50159-5.1636 2.50159-8.96381v-24.672233h9.44078v45.080129h-8.26612l-.60908-6.048396c-2.29132 4.699497-6.36633 7.04921-12.22515 7.04921-4.66965 0-8.24435-1.493954-10.72419-4.481905s-3.71975-7.121706-3.71975-12.401386zm45.01198 15.882477v-45.080129h8.17911l.69609 6.048395c1.16016-2.146683 2.79886-3.858202 4.91616-5.134609 2.1173-1.276406 4.5536-1.9146 7.30899-1.9146 6.4679 0 10.80394 2.79935 13.00824 8.398132 2.95842-5.598782 7.41048-8.398132 13.3563-8.398132 4.61165 0 8.17184 1.493954 10.68069 4.481905 2.50886 2.987951 3.76326 7.107202 3.76326 12.357873v29.241165h-9.44077v-27.370078c0-6.295005-2.52332-9.44246-7.57002-9.44246-2.75539 0-4.98866 1.138596-6.6999 3.415821s-2.56685 5.417428-2.56685 9.420702v23.976015h-9.44077v-27.370078c0-6.295005-2.52332-9.44246-7.57002-9.44246-2.75539 0-4.97416 1.131344-6.6564 3.394064-1.68223 2.262721-2.52333 5.410176-2.52333 9.442459v23.976015zm81.75786-13.619768h9.52779c.029 2.088664.71784 3.705906 2.06652 4.85177 1.34869 1.145865 3.21217 1.718789 5.5905 1.718789 2.14631 0 3.81402-.471393 5.00318-1.414193 1.18917-.9428 1.78374-2.22644 1.78374-3.850957 0-1.769564-.62358-3.111221-1.87075-4.025012s-3.56746-1.73329-6.96094-2.45852c-4.90168-1.044333-8.47638-2.596304-10.72419-4.65596-2.24782-2.059656-3.3717-4.873509-3.3717-8.441646 0-3.916247 1.37766-7.252259 4.13305-10.008137 2.78439-2.784886 6.64187-4.177309 11.57256-4.177309 4.43762 0 8.12108 1.305396 11.05049 3.916228 2.92941 2.552813 4.4376 6.00486 4.5246 10.356246h-9.44076c-.08702-4.090302-2.18978-6.135424-6.30835-6.135424-1.88527 0-3.3572.471394-4.41585 1.414194s-1.58797 2.211935-1.58797 3.807443c0 1.624518.57283 2.850139 1.71849 3.676903 1.14566.826763 3.31368 1.602748 6.50413 2.32798 5.30773 1.044332 9.08545 2.61806 11.33327 4.721229 2.24781 2.10317 3.37171 5.040311 3.37171 8.811512 0 4.409404-1.52269 7.875956-4.56812 10.39976-3.04543 2.523803-7.01892 3.785686-11.9206 3.785686-5.24974 0-9.36101-1.298144-12.33392-3.89447-2.97291-2.596328-4.53186-6.171662-4.67688-10.726112zm-1304.1874131 101.448466v-62.398557h9.9628422v53.043126h26.9736319v9.355431zm40.7919181-58.569356c0-1.711546.587324-3.147482 1.761987-4.307851 1.174664-1.160369 2.603093-1.740545 4.285327-1.740545h.391553c1.131158 0 2.160786.3336 3.088916 1.000813 1.044146.75424 1.769236 1.682522 2.175293 2.784873.319044.75424.478564 1.537478.478564 2.349736 0 .40613-.029004.783244-.087012 1.131355-.203028 1.218389-.768598 2.219192-1.696728 3.002442-.870121.899285-1.943255 1.435948-3.219433 1.610004-.377053.058019-.7541.087027-1.131153.087027-.812113 0-1.59521-.145044-2.349316-.435136-1.102154-.40613-2.03027-1.116845-2.784375-2.132168-.638089-.841269-.957129-1.798559-.957129-2.871901 0-.145045.014502-.304594.043506-.478649zm1.348682 58.569356v-45.080129h9.440771v45.080129zm15.776049-11.313546c0-3.887237 1.537191-7.005683 4.611621-9.355431-1.943271-2.726869-2.914892-5.816306-2.914892-9.268406 0-4.728506 1.624202-8.586676 4.872656-11.574627 3.306462-3.04597 7.584495-4.568933 12.834228-4.568933 2.059288 0 4.205555.333602 6.438867 1.000814h16.662744v8.180564h-7.221973c1.015142 2.262721 1.522705 4.583425 1.522705 6.962182 0 4.55445-1.609701 8.354603-4.82915 11.400574-3.21945 2.958942-7.410472 4.438391-12.573193 4.438391-3.21945 0-6.134313-.594681-8.744677-1.784059-.92813.928295-1.392188 2.219186-1.392188 3.872714 0 1.276405.464058 2.291714 1.392188 3.045954.928129.75424 2.189786 1.131355 3.785009 1.131355h11.311523c4.640649 0 8.200842 1.095082 10.680688 3.285279 2.479847 2.190197 3.719751 5.286887 3.719751 9.290162 0 4.815534-1.718464 8.586678-5.155444 11.313546-3.43698 2.726869-8.128314 4.090282-14.074145 4.090282-6.4389 0-11.391266-1.203865-14.857251-3.611632-3.465984-2.407766-5.19895-5.845309-5.19895-10.312732 0-3.510118 1.609701-6.207937 4.82915-8.093537-3.79953-2.204702-5.699267-5.352157-5.699267-9.44246zm10.223877 16.926806c0 2.233711.928116 3.937979 2.784375 5.112852 1.856259 1.174874 4.495588 1.762303 7.918066 1.762303 6.641927 0 9.962842-2.407731 9.962842-7.223264 0-3.626155-2.436305-5.439205-7.308985-5.439205h-7.744042c-1.71124.145046-3.07441.710717-4.089552 1.697032-1.015141.986314-1.522704 2.349727-1.522704 4.090282zm.739599-35.550643c0 2.407767.775847 4.387618 2.327564 5.939612 1.551716 1.551994 3.560217 2.32798 6.025561 2.32798 2.465345 0 4.466594-.775986 6.003809-2.32798 1.537214-1.551994 2.30581-3.531845 2.30581-5.939612 0-2.494794-.761345-4.518158-2.284058-6.070153-1.522712-1.551994-3.531212-2.327979-6.025561-2.327979-2.523352 0-4.546355.768733-6.069067 2.306223-1.522713 1.537489-2.284058 3.568106-2.284058 6.091909zm34.396557 29.937383v-65.052889h9.440772v25.23791c2.291319-4.17733 6.235811-6.265964 11.833593-6.265964 4.611644 0 8.200841 1.508458 10.767699 4.525419 2.56686 3.01696 3.850269 7.121706 3.850269 12.314359v29.241165h-9.527783v-27.370078c0-3.04597-.659832-5.381179-1.979517-7.005696-1.319683-1.624517-3.21217-2.436764-5.677514-2.436764-2.784389 0-5.024918 1.138596-6.721655 3.415822-1.696737 2.277224-2.545092 5.417427-2.545092 9.420702v23.976014zm39.182201-36.377401v-8.702728h7.918066l.087012-11.052464h9.527783l-.087012 11.052464h10.963477v8.702728h-11.050488l-.174024 21.40871c0 2.523803.449556 4.315097 1.348682 5.373934.899125 1.058837 2.494324 1.588248 4.785644 1.588248 1.769247 0 3.465959-.246575 5.090186-.739732v8.398133c-1.769247.638203-4.089537.9573-6.960938.9573-4.669652 0-8.128333-1.095083-10.376147-3.28528-2.247814-2.190198-3.357202-5.605984-3.328198-10.247462l.174023-23.453851zm34.222533 36.377401v-45.080129h8.179102l.696094 6.048396c1.131158-2.146684 2.777113-3.858203 4.937914-5.134609 2.160802-1.276407 4.647862-1.914601 7.461255-1.914601 4.611644 0 8.200842 1.508458 10.7677 4.525419 2.566858 3.01696 3.850269 7.121706 3.850269 12.314359v29.241165h-9.527784v-27.370078c0-3.04597-.659832-5.381179-1.979516-7.005696-1.319685-1.624517-3.21217-2.436764-5.677515-2.436764-2.784388 0-5.024917 1.138596-6.721655 3.415822-1.696736 2.277224-2.545093 5.417427-2.545093 9.420702v23.976014zm43.445776-58.569356c0-1.711546.587322-3.147482 1.761987-4.307851 1.174664-1.160369 2.603092-1.740545 4.285327-1.740545h.391553c1.131158 0 2.160786.3336 3.088916 1.000813 1.044145.75424 1.769236 1.682522 2.175293 2.784873.319044.75424.478564 1.537478.478564 2.349736 0 .40613-.029004.783244-.087012 1.131355-.203028 1.218389-.768599 2.219192-1.696728 3.002442-.870122.899285-1.943256 1.435948-3.219434 1.610004-.377052.058019-.754099.087027-1.131152.087027-.812114 0-1.595211-.145044-2.349316-.435136-1.102154-.40613-2.03027-1.116845-2.784375-2.132168-.63809-.841269-.957129-1.798559-.957129-2.871901 0-.145045.014502-.304594.043506-.478649zm1.348681 58.569356v-45.080129h9.440771v45.080129zm19.082495 0v-45.080129h8.179101l.696093 6.048396c1.131159-2.146684 2.777114-3.858203 4.937916-5.134609 2.160802-1.276407 4.647862-1.914601 7.461254-1.914601 4.611645 0 8.200842 1.508458 10.7677 4.525419 2.566859 3.01696 3.850269 7.121706 3.850269 12.314359v29.241165h-9.527783v-27.370078c0-3.04597-.659832-5.381179-1.979517-7.005696-1.319684-1.624517-3.21217-2.436764-5.677514-2.436764-2.784389 0-5.024918 1.138596-6.721655 3.415822-1.696737 2.277224-2.545093 5.417427-2.545093 9.420702v23.976014zm41.313988-11.313546c0-3.887237 1.537191-7.005683 4.611621-9.355431-1.943271-2.726869-2.914892-5.816306-2.914892-9.268406 0-4.728506 1.624201-8.586676 4.872655-11.574627 3.306462-3.04597 7.584496-4.568933 12.834228-4.568933 2.059289 0 4.205556.333602 6.438868 1.000814h16.662744v8.180564h-7.221973c1.015142 2.262721 1.522705 4.583425 1.522705 6.962182 0 4.55445-1.609701 8.354603-4.82915 11.400574-3.21945 2.958942-7.410472 4.438391-12.573194 4.438391-3.219449 0-6.134312-.594681-8.744676-1.784059-.92813.928295-1.392188 2.219186-1.392188 3.872714 0 1.276405.464058 2.291714 1.392188 3.045954.928128.75424 2.189786 1.131355 3.785009 1.131355h11.311523c4.640648 0 8.200842 1.095082 10.680688 3.285279s3.719752 5.286887 3.719752 9.290162c0 4.815534-1.718465 8.586678-5.155445 11.313546-3.43698 2.726869-8.128315 4.090282-14.074145 4.090282-6.4389 0-11.391266-1.203865-14.85725-3.611632-3.465985-2.407766-5.198951-5.845309-5.198951-10.312732 0-3.510118 1.609701-6.207937 4.82915-8.093537-3.79953-2.204702-5.699267-5.352157-5.699267-9.44246zm10.223876 16.926806c0 2.233711.928116 3.937979 2.784376 5.112852 1.856258 1.174874 4.495588 1.762303 7.918066 1.762303 6.641927 0 9.962842-2.407731 9.962842-7.223264 0-3.626155-2.436305-5.439205-7.308985-5.439205h-7.744043c-1.711239.145046-3.074408.710717-4.089551 1.697032-1.015141.986314-1.522705 2.349727-1.522705 4.090282zm.7396-35.550643c0 2.407767.775847 4.387618 2.327564 5.939612 1.551716 1.551994 3.560217 2.32798 6.025561 2.32798 2.465345 0 4.466594-.775986 6.003809-2.32798 1.537214-1.551994 2.30581-3.531845 2.30581-5.939612 0-2.494794-.761345-4.518158-2.284058-6.070153-1.522712-1.551994-3.531212-2.327979-6.025561-2.327979-2.523352 0-4.546355.768733-6.069067 2.306223-1.522713 1.537489-2.284058 3.568106-2.284058 6.091909zm43.646727-6.527045v-8.615701h7.657031v-5.874341c0-4.815533 1.276159-8.521408 3.828516-11.117735 2.552357-2.596326 6.206812-3.89447 10.963476-3.89447 2.291321 0 4.278068.333601 5.960303 1.000814v8.485159c-1.856259-.667213-3.552971-1.000813-5.090185-1.000813-4.089572 0-6.134326 2.262686-6.134326 6.788127v5.613259h10.789452v8.615701h-10.789452v36.464428h-9.527784v-36.464428zm29.567407 24.628719c0-7.194291 4.394048-11.632638 13.182275-13.315173l12.834228-2.306223v-2.045141c0-5.395719-2.465307-8.093537-7.395996-8.093537-2.349328 0-4.285319.652698-5.808031 1.958114-1.522714 1.305415-2.284058 3.03144-2.284058 5.178123h-9.179736c.174024-4.467423 1.82723-8.18055 4.959668-11.139492 3.161441-2.987951 7.265453-4.481905 12.312157-4.481905 5.336746 0 9.491513 1.41418 12.464429 4.242581 2.972915 2.8284 4.45935 6.88238 4.45935 12.162061v29.676301h-8.353125l-.478564-5.87434c-2.697377 4.583459-7.120428 6.875154-13.269287 6.875154-4.060567 0-7.316223-1.153099-9.767065-3.459334-2.450843-2.306235-3.676245-5.431933-3.676245-9.377189zm9.527782-.47865c0 1.566499.543819 2.806625 1.631471 3.720416 1.087651.913791 2.60309 1.37068 4.546362 1.37068 3.625506 0 6.351846-1.450441 8.179101-4.351364 1.421199-2.030647 2.131787-4.409368 2.131787-7.136237v-1.610005l-10.789453 2.306224c-3.79953.783248-5.699268 2.683325-5.699268 5.700286zm31.22063-1.305409h9.527783c.029004 2.088665.717839 3.705906 2.066528 4.85177 1.348689 1.145865 3.212171 1.718789 5.590503 1.718789 2.1463 0 3.814008-.471393 5.003173-1.414193 1.189167-.9428 1.783741-2.22644 1.783741-3.850957 0-1.769564-.623578-3.11122-1.870752-4.025011-1.247174-.913792-3.567464-1.73329-6.960938-2.458521-4.901684-1.044332-8.47638-2.596303-10.724194-4.65596-2.247813-2.059655-3.371703-4.873509-3.371703-8.441646 0-3.916247 1.377671-7.252259 4.133056-10.008136 2.784389-2.784887 6.64187-4.17731 11.572558-4.17731 4.43762 0 8.121079 1.305397 11.050488 3.916228 2.929409 2.552813 4.437598 6.00486 4.52461 10.356246h-9.440771c-.087012-4.090302-2.189775-6.135423-6.30835-6.135423-1.885263 0-3.357197.471393-4.415845 1.414193-1.058647.9428-1.587963 2.211935-1.587963 3.807444 0 1.624517.572821 2.850138 1.718481 3.676902 1.14566.826763 3.31368 1.602748 6.504125 2.32798 5.307742 1.044332 9.085463 2.61806 11.333277 4.721229 2.247813 2.10317 3.371703 5.040312 3.371703 8.811512 0 4.409404-1.522689 7.875956-4.568114 10.39976-3.045425 2.523803-7.018921 3.785686-11.920606 3.785686-5.249733 0-9.360996-1.298144-12.333911-3.89447-2.972915-2.596327-4.531859-6.171662-4.676879-10.726112zm34.396557-22.757633v-8.702728h7.918066l.087011-11.052464h9.527783l-.087011 11.052464h10.963476v8.702728h-11.050488l-.174023 21.40871c0 2.523803.449556 4.315097 1.348681 5.373934.899126 1.058837 2.494325 1.588248 4.785644 1.588248 1.769248 0 3.46596-.246575 5.090186-.739732v8.398133c-1.769247.638203-4.089536.9573-6.960938.9573-4.669651 0-8.128332-1.095083-10.376147-3.28528-2.247813-2.190198-3.357202-5.605984-3.328198-10.247462l.174024-23.453851zm58.770188 17.492483v-8.48516h58.384862v8.48516zm92.574241 18.884918v-62.398557h9.962842v62.398557zm19.604565 0v-45.080129h8.179101l.696094 6.048396c1.131158-2.146684 2.777113-3.858203 4.937915-5.134609 2.160801-1.276407 4.647861-1.914601 7.461254-1.914601 4.611645 0 8.200842 1.508458 10.767701 4.525419 2.566858 3.01696 3.850268 7.121706 3.850268 12.314359v29.241165h-9.527783v-27.370078c0-3.04597-.659832-5.381179-1.979517-7.005696-1.319684-1.624517-3.21217-2.436764-5.677514-2.436764-2.784389 0-5.024919 1.138596-6.721655 3.415822-1.696737 2.277224-2.545093 5.417427-2.545093 9.420702v23.976014zm39.182201-36.464428v-8.615701h7.918066v-5.874341c0-4.815533 1.239904-8.521408 3.719751-11.117735 2.479846-2.596326 6.025538-3.89447 10.637182-3.89447 2.001279 0 3.843009.333601 5.525244 1.000814v8.485159c-1.856259-.667213-3.55297-1.000813-5.090185-1.000813-3.50949 0-5.264209 2.262686-5.264209 6.788127v5.613259h10.354394v8.615701h-10.354394v36.464428h-9.527783v-36.464428zm34.108592-22.104928c0-1.740555.572822-3.183743 1.718482-4.329607 1.14566-1.145866 2.58859-1.718789 4.328833-1.718789s3.204925.59468 4.394092 1.784059c1.189166 1.189378 1.78374 2.61081 1.78374 4.264337 0 1.653526-.594574 3.053201-1.78374 4.199065-1.189167 1.145866-2.653849 1.718789-4.394092 1.718789s-3.183173-.572923-4.328833-1.718789c-1.14566-1.145864-1.718482-2.545539-1.718482-4.199065zm1.348682 58.569356v-45.080129h9.440771v45.080129zm19.169506 0v-45.080129h8.179102l.696094 6.048396c1.131158-2.146684 2.777113-3.858203 4.937914-5.134609 2.160803-1.276407 4.647863-1.914601 7.461255-1.914601 4.611645 0 8.200842 1.508458 10.7677 4.525419 2.566859 3.01696 3.850269 7.121706 3.850269 12.314359v29.241165h-9.527783v-27.370078c0-3.04597-.659832-5.381179-1.979517-7.005696-1.319684-1.624517-3.21217-2.436764-5.677514-2.436764-2.784389 0-5.024918 1.138596-6.721656 3.415822-1.696736 2.277224-2.545092 5.417427-2.545092 9.420702v23.976014zm43.445776-58.569356c0-1.711546.587323-3.147482 1.761987-4.307851s2.603093-1.740545 4.285327-1.740545h.391553c1.131158 0 2.160786.3336 3.088916 1.000813 1.044146.75424 1.769236 1.682522 2.175293 2.784873.319044.75424.478564 1.537478.478564 2.349736 0 .40613-.029004.783244-.087012 1.131355-.203028 1.218389-.768599 2.219192-1.696728 3.002442-.870121.899285-1.943256 1.435948-3.219433 1.610004-.377053.058019-.7541.087027-1.131153.087027-.812114 0-1.59521-.145044-2.349316-.435136-1.102154-.40613-2.03027-1.116845-2.784375-2.132168-.638089-.841269-.957129-1.798559-.957129-2.871901 0-.145045.014502-.304594.043506-.478649zm1.348682 58.569356v-45.080129h9.440771v45.080129zm13.644259-36.377401v-8.702728h7.918072l.087008-11.052464h9.527786l-.087017 11.052464h10.963483v8.702728h-11.050492l-.174025 21.40871c0 2.523803.449554 4.315097 1.34868 5.373934.899125 1.058837 2.494328 1.588248 4.785651 1.588248 1.769246 0 3.465951-.246575 5.090186-.739732v8.398133c-1.769255.638203-4.08954.9573-6.960943.9573-4.669654 0-8.128329-1.095083-10.376143-3.28528-2.247814-2.190198-3.357206-5.605984-3.3282-10.247462l.174026-23.453851zm30.742063 13.924365c0-6.9042 2.015752-12.546411 6.047314-16.926806 4.031572-4.467422 9.339232-6.701101 15.923152-6.701101 6.322877 0 11.355008 2.023364 15.096531 6.070153s5.612255 9.75427 5.612255 17.122617v3.655145h-32.890432c.203032 3.597146 1.450183 6.469017 3.741506 8.615701 2.291323 2.146683 5.206183 3.220009 8.744674 3.220009 5.452766 0 9.034714-2.132147 10.745949-6.396504h9.266751c-1.4502 4.728505-3.908263 8.376361-7.374248 10.94368-3.465978 2.567317-7.780269 3.850956-12.942986 3.850956-6.496912 0-11.804572-2.146651-15.923152-6.440018-4.031562-4.293367-6.047314-9.964588-6.047314-17.013832zm9.875837-4.17731h23.232129c-.029006-3.394081-1.065883-6.099151-3.110674-8.115293-2.044783-2.016142-4.749369-3.024198-8.113843-3.024198-3.364466 0-6.127063 1.029812-8.28786 3.089468-2.160806 2.059656-3.400706 4.74297-3.719752 8.050023zm39.747772 26.630346v-65.052889h9.440777v65.052889zm13.731274-45.080129h10.136871l10.441406 30.198465.870112 3.655146.913628-3.655146 10.484906-30.198465h10.180371l-23.884714 64.226131h-9.875829l7.221969-19.755192zm58.52573 31.460361h9.52779c.029 2.088665.71784 3.705906 2.06653 4.85177 1.34868 1.145865 3.21216 1.718789 5.5905 1.718789 2.1463 0 3.81401-.471393 5.00317-1.414193 1.18917-.9428 1.78374-2.22644 1.78374-3.850957 0-1.769564-.62358-3.11122-1.87075-4.025011-1.24717-.913792-3.56747-1.73329-6.96094-2.458521-4.90168-1.044332-8.47638-2.596303-10.72419-4.65596-2.24782-2.059655-3.3717-4.873509-3.3717-8.441646 0-3.916247 1.37767-7.252259 4.13305-10.008136 2.78439-2.784887 6.64187-4.17731 11.57256-4.17731 4.43762 0 8.12108 1.305397 11.05049 3.916228 2.9294 2.552813 4.4376 6.00486 4.52461 10.356246h-9.44077c-.08702-4.090302-2.18978-6.135423-6.30835-6.135423-1.88527 0-3.3572.471393-4.41585 1.414193s-1.58797 2.211935-1.58797 3.807444c0 1.624517.57282 2.850138 1.71849 3.676902 1.14566.826763 3.31368 1.602748 6.50412 2.32798 5.30775 1.044332 9.08547 2.61806 11.33328 4.721229 2.24781 2.10317 3.3717 5.040312 3.3717 8.811512 0 4.409404-1.52269 7.875956-4.56811 10.39976-3.04543 2.523803-7.01892 3.785686-11.92061 3.785686-5.24973 0-9.36099-1.298144-12.33391-3.89447-2.97291-2.596327-4.53186-6.171662-4.67688-10.726112zm36.35433-8.833268c0-6.87519 2.07375-12.517402 6.22133-16.926806 4.20559-4.467422 9.52775-6.701101 15.96665-6.701101 5.39475 0 9.91207 1.392423 13.55208 4.17731 3.64 2.784887 5.92404 6.715579 6.85217 11.792196h-9.26675c-.75411-2.29173-2.09553-4.068519-4.02429-5.330421-1.92877-1.261901-4.24181-1.892843-6.93918-1.892843-3.5675 0-6.56938 1.392423-9.00572 4.177309-2.37833 2.726869-3.56748 6.294952-3.56748 10.704356 0 4.293366 1.18915 7.803431 3.56748 10.5303 2.43634 2.784886 5.49622 4.177309 9.17974 4.177309 2.61036 0 4.8944-.652698 6.85217-1.958114 1.95778-1.305416 3.27019-3.031439 3.93728-5.178123h9.35376c-1.10216 5.047608-3.48045 8.956544-7.13496 11.726926s-8.10657 4.155552-13.3563 4.155552c-6.46791 0-11.79007-2.17566-15.96665-6.527046-4.14758-4.322376-6.22133-9.964588-6.22133-16.926804zm46.23014 10.617327c0-7.194291 4.39405-11.632638 13.18228-13.315173l12.83423-2.306223v-2.045141c0-5.395719-2.46531-8.093537-7.396-8.093537-2.34933 0-4.28532.652698-5.80803 1.958114-1.52271 1.305415-2.28406 3.03144-2.28406 5.178123h-9.17974c.17403-4.467423 1.82723-8.18055 4.95967-11.139492 3.16144-2.987951 7.26545-4.481905 12.31216-4.481905 5.33675 0 9.49152 1.41418 12.46443 4.242581 2.97291 2.8284 4.45935 6.88238 4.45935 12.162061v29.676301h-8.35313l-.47856-5.87434c-2.69737 4.583459-7.12043 6.875154-13.26929 6.875154-4.06057 0-7.31622-1.153099-9.76706-3.459334s-3.67625-5.431933-3.67625-9.377189zm9.52779-.47865c0 1.566499.54381 2.806625 1.63147 3.720416 1.08765.913791 2.60309 1.37068 4.54636 1.37068 3.62551 0 6.35185-1.450441 8.1791-4.351364 1.4212-2.030647 2.13179-4.409368 2.13179-7.136237v-1.610005l-10.78946 2.306224c-3.79952.783248-5.69926 2.683325-5.69926 5.700286zm34.70109 12.314359v-65.052889h9.44077v65.052889zm16.38514-11.835709c0-7.194291 4.39405-11.632638 13.18227-13.315173l12.83423-2.306223v-2.045141c0-5.395719-2.46531-8.093537-7.396-8.093537-2.34933 0-4.28532.652698-5.80803 1.958114-1.52271 1.305415-2.28406 3.03144-2.28406 5.178123h-9.17973c.17402-4.467423 1.82723-8.18055 4.95967-11.139492 3.16144-2.987951 7.26545-4.481905 12.31215-4.481905 5.33675 0 9.49152 1.41418 12.46443 4.242581 2.97292 2.8284 4.45935 6.88238 4.45935 12.162061v29.676301h-8.35312l-.47857-5.87434c-2.69737 4.583459-7.12042 6.875154-13.26928 6.875154-4.06057 0-7.31622-1.153099-9.76707-3.459334s-3.67624-5.431933-3.67624-9.377189zm9.52778-.47865c0 1.566499.54382 2.806625 1.63147 3.720416s2.60309 1.37068 4.54636 1.37068c3.6255 0 6.35184-1.450441 8.1791-4.351364 1.4212-2.030647 2.13179-4.409368 2.13179-7.136237v-1.610005l-10.78945 2.306224c-3.79954.783248-5.69927 2.683325-5.69927 5.700286zm34.52707 12.314359v-65.052889h9.44077v25.586019c1.33419-1.972628 3.24843-3.568111 5.74278-4.7865 2.49435-1.218387 5.3222-1.827573 8.48364-1.827573 6.17787 0 11.22449 2.262687 15.14004 6.788128 3.94455 4.467423 5.9168 10.051617 5.9168 16.752751 0 6.672124-1.97225 12.285328-5.9168 16.839778-3.94455 4.467423-8.96217 6.7011-15.05303 6.7011-6.64192 0-11.60154-2.436739-14.879-7.310291l-.69609 6.309477zm9.22324-22.191955c0 4.351385 1.26166 7.832442 3.78502 10.443273 2.55235 2.552813 5.56873 3.8292 9.04922 3.8292 3.79952 0 6.90291-1.356161 9.31025-4.068525 2.40733-2.712363 3.61099-6.22968 3.61099-10.552057 0-4.264358-1.21816-7.752666-3.6545-10.46503-2.43634-2.712363-5.55423-4.068525-9.35376-4.068525-3.33546 0-6.29383 1.334404-8.87519 4.003255-2.58137 2.581821-3.87203 6.062878-3.87203 10.443272zm41.66204 22.191955v-65.052889h9.44077v65.052889zm15.60202-22.453036c0-6.9042 2.01576-12.546411 6.04732-16.926806 4.03156-4.467422 9.33922-6.701101 15.92314-6.701101 6.32289 0 11.35502 2.023364 15.09653 6.070153 3.74153 4.046789 5.61227 9.75427 5.61227 17.122617v3.655145h-32.89044c.20304 3.597146 1.45019 6.469017 3.74151 8.615701 2.29131 2.146683 5.20618 3.220009 8.74467 3.220009 5.45277 0 9.03471-2.132147 10.74595-6.396504h9.26675c-1.4502 4.728505-3.90826 8.376361-7.37424 10.94368-3.46599 2.567317-7.78027 3.850956-12.943 3.850956-6.4969 0-11.80456-2.146651-15.92314-6.440018-4.03156-4.293367-6.04732-9.964588-6.04732-17.013832zm9.87583-4.17731h23.23213c-.029-3.394081-1.06588-6.099151-3.11066-8.115293-2.04479-2.016142-4.74938-3.024198-8.11385-3.024198s-6.12706 1.029812-8.28787 3.089468c-2.16079 2.059656-3.4007 4.74297-3.71975 8.050023zm64.12141 7.745428v-8.48516h58.38487v8.48516z" fill="#61fac8" fill-rule="nonzero"/><path d="m1440 10h-1440v204.40456c151.890485-72.971042 345.53638-146.5072878 489.040914-50.304821 273.280107 183.201323 362.393186 425.620482 670.328376 357.786479 109.38486-24.096021 199.61833-133.20772 280.63071-240.612559z" fill="#4813a1"/><path d="m822.074818 487.278539c0-6.904199 2.015752-12.54641 6.047315-16.926805 4.031562-4.467423 9.339224-6.701101 15.923144-6.701101 6.322883 0 11.35501 2.023364 15.096532 6.070153s5.612254 9.75427 5.612254 17.122616v3.655146h-32.890426c.203028 3.597146 1.450183 6.469017 3.741504 8.615701 2.29132 2.146683 5.206182 3.220009 8.744677 3.220009 5.452762 0 9.034708-2.132147 10.745947-6.396505h9.266746c-1.4502 4.728506-3.908254 8.376362-7.374241 10.94368-3.465984 2.567318-7.780272 3.850957-12.942993 3.850957-6.496907 0-11.804569-2.146651-15.923144-6.440018-4.031563-4.293368-6.047315-9.964588-6.047315-17.013833zm9.875831-4.17731h23.232127c-.029004-3.39408-1.065883-6.099151-3.110668-8.115293-2.044785-2.016141-4.749373-3.024197-8.113843-3.024197s-6.127064 1.029812-8.287866 3.089468c-2.160801 2.059655-3.400706 4.74297-3.71975 8.050022zm36.702368 4.090283c0-6.730143 1.95774-12.314338 5.873289-16.752751 4.002557-4.525441 9.049191-6.788128 15.14004-6.788128 6.409894 0 11.195494 2.204669 14.356928 6.614073v-25.586019h9.440777v65.052889h-8.309622l-.609078-6.309477c-3.364474 4.873552-8.353097 7.310291-14.966014 7.310291-6.090857 0-11.108477-2.233678-15.053031-6.7011-3.915549-4.525441-5.873289-10.138645-5.873289-16.839778zm9.78882 0c0 4.322376 1.189149 7.839694 3.56748 10.552057 2.378332 2.712364 5.467217 4.068525 9.266743 4.068525 3.5385 0 6.540369-1.276387 9.005717-3.8292 2.552357-2.552813 3.828514-6.03387 3.828514-10.443274v-.435136c0-4.409404-1.276157-7.89046-3.828514-10.443273-2.581363-2.66885-5.554234-4.003255-8.9187-4.003255-3.770528 0-6.866666 1.356162-9.288506 4.068526s-3.632734 6.200672-3.632734 10.46503zm68.95056 3.655145v-8.485159h58.384863v8.485159zm89.267793-12.401387c0-9.282956 3.00187-16.970288 9.00571-23.062228 6.03285-6.120949 13.74781-9.181378 23.14512-9.181378s17.06877 3.060429 23.01459 9.181378c5.97484 6.062931 8.96221 13.750263 8.96221 23.062228 0 10.356298-3.49493 18.580294-10.48491 24.672233l15.74912 15.882478h-13.87836l-10.52843-10.5303c-4.20558 1.624517-8.48361 2.436764-12.83422 2.436764-9.39731 0-17.11227-3.060429-23.14512-9.181378-6.00384-6.178968-9.00571-13.938822-9.00571-23.279797zm10.48491 0c0 6.701134 2.00125 12.227311 6.00381 16.578697 4.00256 4.351385 9.22321 6.527045 15.66211 6.527045 1.71123 0 3.43695-.188557 5.17719-.565677l-10.61543-10.399759h14.00889l5.78628 5.613259c4.81467-4.351386 7.22198-10.269182 7.22198-17.753565 0-6.701134-1.98675-12.169293-5.96031-16.404642-3.97355-4.322375-9.1797-6.483531-15.6186-6.483531-6.46791 0-11.68856 2.161156-15.66211 6.483531-4.00256 4.264359-6.00381 9.732517-6.00381 16.404642zm59.02087 15.403829v-29.197652h9.44077v27.326565c0 6.382032 2.52332 9.573 7.57002 9.573 2.72639 0 4.92341-1.08783 6.59114-3.263522 1.66773-2.175694 2.50159-5.1636 2.50159-8.96381v-24.672233h9.44077v45.080129h-8.26612l-.60907-6.048396c-2.29133 4.699497-6.36633 7.04921-12.22515 7.04921-4.66965 0-8.24435-1.493954-10.72419-4.481905-2.47986-2.987951-3.71976-7.121706-3.71976-12.401386zm42.31463 4.046768c0-7.194291 4.39405-11.632638 13.18227-13.315173l12.83423-2.306224v-2.045141c0-5.395718-2.46531-8.093536-7.396-8.093536-2.34933 0-4.28532.652698-5.80803 1.958114-1.52271 1.305415-2.28406 3.031439-2.28406 5.178123h-9.17973c.17402-4.467423 1.82723-8.18055 4.95967-11.139492 3.16144-2.987951 7.26545-4.481905 12.31215-4.481905 5.33675 0 9.49152 1.41418 12.46443 4.24258 2.97292 2.8284 4.45935 6.882381 4.45935 12.162062v29.676301h-8.35312l-.47856-5.87434c-2.69738 4.583459-7.12043 6.875154-13.26929 6.875154-4.06057 0-7.31622-1.1531-9.76707-3.459334-2.45084-2.306235-3.67624-5.431933-3.67624-9.377189zm9.52778-.47865c0 1.566498.54382 2.806624 1.63147 3.720416 1.08765.913791 2.60309 1.37068 4.54636 1.37068 3.6255 0 6.35184-1.450441 8.1791-4.351365 1.4212-2.030646 2.13179-4.409368 2.13179-7.136236v-1.610005l-10.78945 2.306223c-3.79954.783249-5.69927 2.683326-5.69927 5.700287zm34.52707 12.314359v-45.080129h8.17911l.69609 6.048395c1.13116-2.146683 2.77711-3.858202 4.93792-5.134609 2.16079-1.276406 4.64785-1.9146 7.46124-1.9146 4.61166 0 8.20085 1.508458 10.76771 4.525419 2.56686 3.01696 3.85027 7.121706 3.85027 12.314359v29.241165h-9.52779v-27.370078c0-3.04597-.65983-5.381179-1.97951-7.005696-1.31968-1.624518-3.21217-2.436764-5.67752-2.436764-2.78438 0-5.02491 1.138596-6.72165 3.415821s-2.54509 5.417428-2.54509 9.420702v23.976015zm39.1822-36.377402v-8.702727h7.91807l.08701-11.052464h9.52778l-.08701 11.052464h10.96348v8.702727h-11.05049l-.17402 21.408711c0 2.523803.44955 4.315097 1.34868 5.373934.89912 1.058837 2.49433 1.588248 4.78564 1.588248 1.76925 0 3.46596-.246575 5.09019-.739732v8.398133c-1.76925.638203-4.08953.957299-6.96094.957299-4.66965 0-8.12833-1.095082-10.37615-3.285279-2.24781-2.190198-3.3572-5.605984-3.32819-10.247462l.17402-23.453852zm33.56995 20.494925v-29.197652h9.44077v27.326565c0 6.382032 2.52332 9.573 7.57002 9.573 2.72638 0 4.9234-1.08783 6.59114-3.263522 1.66773-2.175694 2.50159-5.1636 2.50159-8.96381v-24.672233h9.44077v45.080129h-8.26612l-.60908-6.048396c-2.29132 4.699497-6.36633 7.04921-12.22514 7.04921-4.66966 0-8.24435-1.493954-10.7242-4.481905s-3.71975-7.121706-3.71975-12.401386z" fill="#fff" fill-rule="nonzero" mask="url(#a)"/></g></svg>