<svg height="584" viewBox="0 0 777 584" width="777" xmlns="http://www.w3.org/2000/svg"><g fill="none" fill-rule="evenodd" transform="translate(-.571429)"><g transform=""><path d="m.61830357 155.428571v-86.4241067h17.05580353v70.6339287h35.9196429v15.790178zm57.51000003-16.633928c0-2.973229.4720935-5.574766 1.4162946-7.804688.9442012-2.229922 2.3203035-4.068073 4.1283483-5.514509 1.8080447-1.446435 3.8269977-2.601558 6.0569196-3.465401 2.2299219-.863844 4.8113693-1.536828 7.7444196-2.018974l16.2120536-2.953125v-2.350446c0-3.053587-.7533407-5.40401-2.2600446-7.051339-1.506704-1.64733-3.6863697-2.470982-6.5390625-2.470982-2.6919778 0-4.9218662.763385-6.6897322 2.290178s-2.6517857 3.535702-2.6517857 6.026786h-15.5491071c.3616089-6.508961 2.7823436-11.802435 7.2622768-15.8805805 4.4799331-4.0781454 10.3559904-6.1171875 17.6283482-6.1171875 7.6339667 0 13.6807812 1.9385967 18.1406248 5.8158482 4.459844 3.8772518 6.689732 9.5524178 6.689732 17.0256698v41.102678h-13.6808033l-1.0245535-7.654017c-3.9375197 6.026815-9.9039779 9.040178-17.8995536 9.040178-5.6250281 0-10.1952949-1.627216-13.7109375-4.881696-3.5156426-3.254481-5.2734375-7.633901-5.2734375-13.138393zm16.03125-1.386161c0 1.888402.6428507 3.385039 1.9285714 4.489956 1.2857207 1.104916 3.0736493 1.657366 5.3638393 1.657366 2.0089386 0 3.9073571-.492183 5.6953125-1.476563s3.2243249-2.380571 4.3091518-4.188616c1.4866146-2.250011 2.2299107-5.002216 2.2299107-8.256696v-1.868304l-12.4754464 2.591518c-2.29019.522324-4.0379404 1.325887-5.2433036 2.410714s-1.8080357 2.631687-1.8080357 4.640625zm48.1684824 18.020089v-62.5580353h13.861607l1.446428 10.0044643c1.165185-3.0937655 3.264494-5.6450792 6.297992-7.6540179 3.033497-2.0089386 7.02118-3.0133928 11.963169-3.0133928v16.0915177c-5.102704 0-9.241055 1.225434-12.415178 3.676339-3.133945 2.491084-4.821428 6.368278-5.0625 11.631697v31.821428zm37.621607-18.984375h15.790179c.040178 2.491084.853786 4.389503 2.440848 5.695313 1.587061 1.30581 3.766727 1.958705 6.539062 1.958705 2.450905 0 4.359368-.53236 5.725447-1.597098 1.366078-1.064737 2.049107-2.521196 2.049107-4.36942 0-2.008938-.77343-3.595976-2.320313-4.76116-1.546882-1.165185-4.550201-2.169639-9.010044-3.013393-6.830392-1.165185-11.872752-3.254449-15.127232-6.267857-3.254481-3.013408-4.881697-7.091492-4.881697-12.234375 0-5.785743 2.008909-10.627213 6.026786-14.5245539s9.703088-5.8459821 17.055803-5.8459821c6.629498 0 12.053551 1.8180622 16.272322 5.4542411s6.448659 8.4073369 6.689732 14.3136159h-15.910714c-.120537-4.781274-2.511138-7.171875-7.171875-7.171875-2.209833 0-3.917405.562495-5.122768 1.6875-1.205363 1.125006-1.808036 2.611598-1.808036 4.459822 0 1.968759.77343 3.475441 2.320313 4.520089 1.546882 1.044648 4.449755 1.928568 8.708705 2.651786 7.352715 1.245542 12.575877 3.405118 15.669643 6.478794 3.093765 3.073676 4.640625 7.26225 4.640625 12.565848 0 3.455375-.642851 6.508916-1.928572 9.160715-1.28572 2.651799-3.05356 4.781242-5.303571 6.388393-2.250011 1.60715-4.801325 2.812496-7.654018 3.616071s-5.946412 1.205357-9.28125 1.205357c-7.593788 0-13.510023-1.828107-17.748884-5.484375-4.23886-3.656268-6.458704-8.618272-6.659598-14.886161zm53.532321 0h15.790179c.040179 2.491084.853787 4.389503 2.440848 5.695313 1.587062 1.30581 3.766727 1.958705 6.539063 1.958705 2.450905 0 4.359368-.53236 5.725446-1.597098 1.366078-1.064737 2.049107-2.521196 2.049107-4.36942 0-2.008938-.77343-3.595976-2.320312-4.76116-1.546883-1.165185-4.550201-2.169639-9.010045-3.013393-6.830391-1.165185-11.872751-3.254449-15.127232-6.267857s-4.881696-7.091492-4.881696-12.234375c0-5.785743 2.008908-10.627213 6.026785-14.5245539s9.703088-5.8459821 17.055804-5.8459821c6.629497 0 12.05355 1.8180622 16.272321 5.4542411s6.44866 8.4073369 6.689732 14.3136159h-15.910714c-.120536-4.781274-2.511137-7.171875-7.171875-7.171875-2.209832 0-3.917405.562495-5.122768 1.6875-1.205363 1.125006-1.808035 2.611598-1.808035 4.459822 0 1.968759.773429 3.475441 2.320312 4.520089s4.449756 1.928568 8.708705 2.651786c7.352716 1.245542 12.575878 3.405118 15.669643 6.478794 3.093766 3.073676 4.640625 7.26225 4.640625 12.565848 0 3.455375-.64285 6.508916-1.928571 9.160715s-3.05356 4.781242-5.303572 6.388393c-2.250011 1.60715-4.801325 2.812496-7.654017 3.616071-2.852693.803575-5.946412 1.205357-9.28125 1.205357-7.593788 0-13.510024-1.828107-17.748884-5.484375-4.238861-3.656268-6.458705-8.618272-6.659599-14.886161zm53.532322-12.234375c0-9.522369 2.872739-17.357112 8.618303-23.504464 5.745565-6.147352 13.238793-9.220982 22.479911-9.220982 4.178592 0 8.015608.6629398 11.511161 1.9888393s6.549094 3.3046743 9.160714 5.9363839c2.61162 2.6317098 4.650662 6.0468538 6.117188 10.2455358 1.466525 4.198682 2.199776 9.010017 2.199776 14.434152v4.941964h-43.57366c.241072 4.178592 1.727665 7.563603 4.459821 10.155134 2.732157 2.591531 6.267836 3.887277 10.607143 3.887277 3.093765 0 5.745525-.632806 7.955357-1.898438 2.209833-1.265631 3.756692-3.063604 4.640625-5.393973h15.549107c-1.928581 6.709855-5.313592 11.892839-10.155134 15.549107s-10.998846 5.484375-18.472098 5.484375c-9.281296 0-16.784569-2.973184-22.510045-8.919643-5.725475-5.946458-8.588169-13.841468-8.588169-23.685268zm16.633928-6.328125h27.30134c-.080358-3.937519-1.315837-7.10155-3.706474-9.492187-2.390636-2.390637-5.554667-3.585938-9.492187-3.585938s-7.181907 1.205346-9.733259 3.616072-4.007811 5.564713-4.36942 9.462053zm51.90509-43.3928567c0-2.651799.944187-4.9017765 2.832589-6.75s4.178558-2.7723214 6.870536-2.7723214c2.651799 0 4.941954.9240979 6.870535 2.7723214 1.928582 1.8482235 2.892858 4.098201 2.892858 6.75 0 2.6919777-.954232 4.9419552-2.862724 6.75-1.908491 1.8080447-4.208692 2.7120536-6.900669 2.7120536-2.732157 0-5.032357-.9040089-6.90067-2.7120536-1.868313-1.8080448-2.802455-4.0580223-2.802455-6.75zm1.6875 80.9397317v-62.5580353h16.091518v62.5580353zm23.277857-48.033482v-14.5245533h10.245536l.120535-15.1875h16.151786l-.120536 15.1875h14.34375v14.5245533h-14.464285l-.241072 25.3125c0 3.254481.602673 5.57477 1.808036 6.960938 1.205363 1.386167 3.314717 2.079241 6.328125 2.079241 2.209832 0 4.399543-.301336 6.569196-.904018v14.102679c-2.410726.883933-5.785692 1.325892-10.125 1.325892-7.031285 0-12.234358-1.546859-15.609375-4.640625-3.375017-3.093765-5.042411-8.116036-5.002232-15.066964l.241072-29.169643z" fill="#6423d2"/><path d="m549.218192 76.4285714v-8.4023437h2.484375c.839848 0 1.50781.240232 2.003906.7207031.496096.4726586.744141 1.0937462.744141 1.8632813 0 .7617225-.248045 1.3769507-.744141 1.8457031-.488283.4648461-1.156246.6972656-2.003906.6972656h-1.394531v3.2753906zm1.089844-4.2949218h1.394531c.503909 0 .903319-.1357409 1.198242-.4072266.294924-.2714857.442383-.6435523.442383-1.1162109 0-.4804712-.149413-.8613268-.448242-1.1425782-.29883-.2812514-.696287-.421875-1.192383-.421875h-1.394531zm5.408203 4.2949218v-6.046875h.925781l.070313 1.0546875c.121094-.3281266.338865-.5957021.65332-.8027343.314455-.2070323.700193-.3105469 1.157226-.3105469v1.03125c-.496096 0-.904295.1464829-1.224609.4394531-.351564.3203141-.535156.7968718-.550781 1.4296875v3.2050781zm3.849609-7.9101562c0-.1992198.068359-.3662103.205078-.5009766.13672-.1347663.304687-.2021484.503907-.2021484.199219 0 .36914.0673821.509765.2021484.140626.1347663.210938.3017568.210938.5009766 0 .1914072-.070312.355468-.210938.4921875-.140625.1367194-.310546.2050781-.509765.2050781-.19922 0-.367187-.0673821-.503907-.2021484-.136719-.1347663-.205078-.2998037-.205078-.4951172zm.19336 7.9101562v-6.046875h1.03125v6.046875zm2.888671 0v-6.046875h.919922l.064453.8261719c.152345-.2890639.374022-.5214835.66504-.6972656.291017-.1757822.627927-.2636719 1.010742-.2636719.863285 0 1.45117.3847618 1.763672 1.1542969.394533-.7695351 1.003902-1.1542969 1.828125-1.1542969.625003 0 1.106443.2040995 1.444336.6123047.337892.4082052.506835.9599575.506835 1.6552734v3.9140625h-1.03125v-3.7441406c0-.4570335-.101561-.8095691-.304687-1.0576172s-.488279-.3720703-.855469-.3720703c-.406252 0-.73828.166014-.996094.4980469-.257813.3320329-.390624.7832003-.398437 1.3535156v3.3222656h-1.03125v-3.7441406c0-.4570335-.101562-.8095691-.304688-1.0576172s-.490232-.3720703-.861328-.3720703c-.414064 0-.749022.1738264-1.004882.5214844-.255861.347658-.38379.8183564-.38379 1.4121094v3.2402343zm9.56836-1.5703125c0-.9531297.564447-1.5371083 1.693359-1.7519531l1.845703-.3515625v-.2988281c0-.8320354-.37109-1.2480469-1.113281-1.2480469-.367189 0-.665038.0976553-.893555.2929688-.228516.1953134-.342773.4667951-.342773.8144531h-1.019531c.015625-.5859405.230466-1.078123.644531-1.4765625.417971-.3945332.955075-.5917969 1.611328-.5917969.679691 0 1.209959.1884747 1.59082.5654297.380862.376955.571289.9130825.571289 1.6083984v4.0078125h-.9375l-.046875-.8261718c-.167969.2968764-.412107.5312491-.732421.703125-.320315.1718758-.689451.2578125-1.107422.2578125-.535159 0-.962889-.1542954-1.283203-.4628907-.320315-.3085953-.480469-.7226536-.480469-1.2421875zm1.042969-.0117187c0 .2382824.080077.4238274.240234.5566406s.38867.1992188.685547.1992188c.527346 0 .935545-.2011699 1.224609-.6035157.23047-.3164078.345703-.6874978.345703-1.1132812v-.2285156l-1.652343.3574218c-.281252.0703129-.492187.1679682-.632813.2929688s-.210937.3046863-.210937.5390625zm5.314453 1.5820312v-6.046875h.925781l.070312 1.0546875c.121095-.3281266.338866-.5957021.653321-.8027343.314454-.2070323.700193-.3105469 1.157226-.3105469v1.03125c-.496096 0-.904295.1464829-1.224609.4394531-.351564.3203141-.535156.7968718-.550781 1.4296875v3.2050781zm3.287109-6.046875h1.101563l1.599609 4.3417969.117187.4570313.123047-.4570313 1.59375-4.3417969h1.113282l-3.298829 8.625h-1.089843l1.007812-2.6601562z" fill="#a4a0ab"/><path d="m532.097098 177.670201h1.101563c.007812.527346.160154.935545.457031 1.224609.296876.289064.708982.433594 1.236328.433594.472659 0 .838866-.125975 1.098633-.37793.259767-.251954.389648-.590818.389648-1.016601 0-.351564-.131834-.641601-.395507-.870117-.263674-.228517-.719724-.454101-1.368165-.676758-.777347-.289064-1.353513-.609373-1.728515-.960938-.367189-.359377-.550781-.859372-.550781-1.5 0-.671878.210935-1.232419.632812-1.68164.433596-.437503 1.031246-.65625 1.792969-.65625.75391 0 1.347654.206052 1.78125.618164.433596.412111.658203.997066.673828 1.754883h-1.101563c-.007812-.433596-.13574-.773437-.383789-1.019532-.248048-.246095-.579099-.36914-.993164-.36914-.398439 0-.714842.111327-.949218.333984-.234377.222657-.351563.535154-.351563.9375 0 .375002.117186.666015.351563.873047.246095.19922.685543.423827 1.318359.673828.871098.328127 1.48242.667967 1.833984 1.019531.359377.359377.541016.843747.544922 1.453125 0 .742191-.238279 1.333982-.714844 1.775391-.476564.441408-1.107417.662109-1.892578.662109-.855473 0-1.529294-.236325-2.021484-.708984s-.746094-1.113277-.761719-1.921875zm6.263672-.539063c0-.929692.267576-1.685544.802734-2.267578.542972-.601565 1.24609-.902343 2.109375-.902343.839848 0 1.50781.268552 2.003907.805664.496096.537112.74414 1.29394.74414 2.270507v.492188h-4.59375c.039063.550784.228514.986326.56836 1.306641.339845.320314.773435.480468 1.300781.480468.839848 0 1.384764-.328121 1.634766-.984375h1.03125c-.191408.617191-.517576 1.095702-.978516 1.435547-.46094.339846-1.031247.509766-1.710938.509766-.863285 0-1.562497-.28906-2.097656-.867188-.542971-.58594-.814453-1.345698-.814453-2.279297zm1.078125-.527343h3.539063c-.007813-.511722-.167968-.919921-.480469-1.22461-.312502-.304689-.720701-.457031-1.22461-.457031-.503908 0-.91992.154295-1.248046.462891-.328127.308595-.523438.714841-.585938 1.21875zm5.554688.527343c0-.91016.275387-1.666012.826171-2.267578.56641-.601565 1.269528-.902343 2.109375-.902343.687504 0 1.271482.176756 1.751954.530273.480471.353517.792968.84863.9375 1.485352h-1.03125c-.121095-.33594-.327147-.595703-.618164-.779297-.291018-.183595-.633788-.275391-1.028321-.275391-.542971 0-.994139.208982-1.353515.626953-.351565.425784-.527344.953122-.527344 1.582031 0 .617191.179686 1.136717.539062 1.558594.359377.414065.816404.623047 1.371094.626953.382815 0 .721678-.096678 1.016602-.290039.294923-.19336.495116-.450194.600586-.770508h1.042968c-.160157.640629-.479489 1.137694-.958007 1.491211-.478518.353518-1.059567.530274-1.743165.530274-.855473 0-1.558591-.296872-2.109375-.890625-.550784-.585941-.826171-1.337886-.826171-2.25586zm7.376953 2.25586c-.566409-.593753-.84961-1.350582-.84961-2.270508 0-.919927.283201-1.674802.84961-2.264648.578128-.593753 1.318355-.890625 2.220703-.890625.894536 0 1.62695.296872 2.197265.890625.574222.58594.861329 1.341792.861329 2.267578s-.287107 1.681637-.861329 2.267578c-.566409.593753-1.298823.890625-2.197265.890625-.902348 0-1.642575-.296872-2.220703-.890625zm.216797-2.267578c0 .632815.183592 1.157224.550781 1.573242s.855466.624023 1.464844.624023c.593753 0 1.07031-.208982 1.429687-.626953.367189-.414064.550781-.937497.550781-1.570312 0-.648441-.183592-1.171873-.550781-1.570313-.359377-.417971-.835934-.626953-1.429687-.626953-.609378 0-1.097655.208982-1.464844.626953-.367189.39844-.550781.921872-.550781 1.570313zm6.404296 3.023437v-6.046875h.919922l.064453.826172c.332033-.640628.898434-.960937 1.699219-.960937.625003 0 1.109373.204099 1.453125.612304s.515625.959958.515625 1.655274v3.914062h-1.042969v-3.74414c0-.457034-.103514-.80957-.310546-1.057618-.207033-.248048-.496092-.37207-.867188-.37207-.414064 0-.750975.173826-1.010742.521484s-.389649.818357-.389649 1.41211v3.240234zm5.888672-3.023437c0-.894536.259763-1.646482.779297-2.25586.527347-.601565 1.210934-.902343 2.050781-.902343.92188 0 1.593748.320309 2.015625.960937v-3.539062h1.03125v8.759765h-.919921l-.064454-.890625c-.464846.679691-1.156245 1.021484-2.074218 1.025391-.839848 0-1.519529-.296872-2.039063-.890625-.519534-.609378-.779297-1.36523-.779297-2.267578zm1.066407 0c0 .64844.173826 1.174802.521484 1.579101s.810544.606446 1.388672.606446c.511721 0 .95117-.197264 1.318359-.591797.375002-.39844.5625-.910153.5625-1.535157v-.058593c0-.648441-.187498-1.17285-.5625-1.573243-.375002-.400392-.810544-.600585-1.30664-.600585-.558597 0-1.01953.205076-1.382813.615234-.359377.398439-.539062.917965-.539062 1.558594zm6.269531 1.453125c0-.95313.564447-1.537109 1.693359-1.751953l1.845703-.351563v-.298828c0-.832036-.37109-1.248047-1.113281-1.248047-.367189 0-.665038.097655-.893555.292969-.228516.195313-.342773.466795-.342773.814453h-1.019531c.015625-.585941.230466-1.078123.644531-1.476563.417971-.394533.955075-.591796 1.611328-.591796.679691 0 1.209959.188474 1.59082.565429.380862.376955.571289.913083.571289 1.608399v4.007812h-.9375l-.046875-.826172c-.167969.296877-.412107.531249-.732421.703125-.320315.171876-.689451.257813-1.107422.257813-.535159 0-.962889-.154296-1.283203-.462891-.320315-.308595-.480469-.722654-.480469-1.242187zm1.042969-.011719c0 .238282.080077.423827.240234.556641.160157.132813.38867.199218.685547.199218.527346 0 .935545-.20117 1.224609-.603515.23047-.316408.345703-.687498.345703-1.113282v-.228515l-1.652343.357422c-.281252.070312-.492187.167968-.632813.292968-.140626.125001-.210937.304687-.210937.539063zm5.314453 1.582031v-6.046875h.925781l.070312 1.054688c.121095-.328127.338866-.595702.653321-.802735.314454-.207032.700193-.310547 1.157226-.310547v1.03125c-.496096 0-.904295.146483-1.224609.439454-.351564.320314-.535156.796871-.550781 1.429687v3.205078zm3.287109-6.046875h1.101563l1.599609 4.341797.117187.457031.123047-.457031 1.59375-4.341797h1.113282l-3.298829 8.625h-1.089843l1.007812-2.660156z" fill="#a4a0ab"/></g><circle cx="706.428571" cy="70.714286" fill="#6423d2" r="70.714286"/><circle cx="706.428571" cy="166.714286" fill="#61fac8" r="70.714286"/><ellipse cx="706.428571" cy="384.514286" fill="#6423d2" rx="6.428571" ry="6.514286"/><ellipse cx="706.428571" cy="559.371429" fill="#61fac8" rx="6.428571" ry="6.514286"/><ellipse cx="706.428571" cy="367.371429" fill="#8b4ef1" rx="6.428571" ry="6.514286"/><ellipse cx="706.428571" cy="542.228571" fill="#bbffe9" rx="6.428571" ry="6.514286"/><ellipse cx="706.428571" cy="326.228571" fill="#ba91ff" rx="6.428571" ry="6.514286"/><ellipse cx="706.428571" cy="489.942857" fill="#d2fff0" rx="6.428571" ry="6.514286"/><ellipse cx="706.428571" cy="401.657143" fill="#451794" rx="6.428571" ry="6.514286"/><ellipse cx="706.428571" cy="576.514286" fill="#3bd5a2" rx="6.428571" ry="6.514286"/></g></svg>