<svg height="449" viewBox="0 0 360 449" width="360" xmlns="http://www.w3.org/2000/svg"><g fill="none" fill-rule="evenodd"><path d="m0 0h360v449h-360z" fill="#ffd753"/><ellipse cx="122.735974" cy="231.047451" fill="#f2093d" rx="71.047451" ry="71.735974" transform="matrix(0 1 -1 0 353.783425 108.311477)"/><ellipse cx="258.721122" cy="268.162631" fill="#4a40fd" rx="38.162631" ry="38.721122" transform="matrix(0 1 -1 0 526.883753 9.441509)"/><ellipse cx="191.047855" cy="338.953141" fill="#44c2ff" rx="23.953141" ry="24.047855" transform="matrix(0 1 -1 0 530.000996 147.905286)"/><path d="m197.325083 251.346723 17.526402 4.871825z" stroke="#d1a822" stroke-linecap="square" stroke-width="1.104"/><path d="m166.348185 296.005121 10.59736 17.863359z" stroke="#d1a822" stroke-linecap="square" stroke-width="1.104"/><path d="m212.324219 44.8828125c.656253 0 1.275387.1269519 1.857422.3808594.582034.2539075 1.089841.5976541 1.523437 1.03125s.777343.9414033 1.03125 1.5234375c.253908.5820341.38086 1.2011686.38086 1.8574218 0 .6562533-.126952 1.2773409-.38086 1.8632813-.253907.5859404-.597654 1.0937479-1.03125 1.5234375s-.941403.7734362-1.523437 1.03125c-.582035.2578138-1.201169.3867188-1.857422.3867188h-3.246094v5.5195312h-2.273437v-15.1171875zm0 7.4414063c.335939 0 .654295-.0683587.955078-.2050782.300783-.1367194.568358-.3261706.802734-.5683594.234376-.2421887.419921-.5234358.556641-.84375.136719-.3203141.205078-.6640606.205078-1.03125 0-.3515642-.068359-.6874983-.205078-1.0078124-.13672-.3203142-.322265-.5996082-.556641-.8378907-.234376-.2382824-.501951-.4296868-.802734-.5742187-.300783-.144532-.619139-.2167969-.955078-.2167969h-3.246094v5.2851563zm11.591946-3.2460938c.125001 0 .228515.0078124.310547.0234375s.158203.0312499.228516.046875l.1875.046875v2.1679687c-.062501-.015625-.136719-.0312499-.222656-.046875-.078126-.015625-.160156-.033203-.246094-.0527343-.085938-.0195314-.171875-.0292969-.257813-.0292969-.367189 0-.710936.0722649-1.03125.2167969-.320314.1445319-.599608.3378894-.83789.5800781-.238283.2421887-.425781.5234359-.5625.84375-.13672.3203141-.205078.6562482-.205078 1.0078125v6.1171875h-2.15625v-10.8046875h1.558593l.480469 1.0898437c.195313-.2265636.42578-.4296866.691406-.609375.226564-.1406257.511717-.2753899.855469-.4042968s.746091-.1933594 1.207031-.1933594zm9.810697 5.5195312c0-.5156275-.083984-.9843728-.251953-1.40625-.16797-.4218771-.388671-.7890609-.66211-1.1015624-.273439-.3125016-.593748-.5527336-.960937-.7207032-.36719-.1679696-.742186-.2519531-1.125-.2519531-.382815 0-.757811.0839835-1.125.2519531-.36719.1679696-.687499.4082016-.960938.7207032-.273439.3125015-.49414.6816384-.662109 1.1074218-.16797.4257834-.251953.8925756-.251953 1.4003906 0 .5156276.083983.9843729.251953 1.40625.167969.4218772.38867.789061.662109 1.1015626.273439.3125015.593748.5527335.960938.7207031.367189.1679696.742185.2519531 1.125.2519531.382814 0 .75781-.0839835 1.125-.2519531.367189-.1679696.687498-.4082016.960937-.7207031.273439-.3125016.49414-.6796854.66211-1.1015626.167969-.4218771.251953-.8906224.251953-1.40625zm2.15625 0c0 .8125041-.130858 1.5566373-.392578 2.2324219-.26172.6757847-.628904 1.2578101-1.101563 1.7460938-.472658.4882837-1.021481.8671861-1.646484 1.1367187s-1.296872.4042969-2.015625.4042969c-.718754 0-1.390622-.1347643-2.015625-.4042969s-1.173826-.648435-1.646485-1.1367187c-.472658-.4882837-.839842-1.068356-1.101562-1.7402344s-.392578-1.4179646-.392578-2.2382813c0-.812504.130858-1.5546841.392578-2.2265624.26172-.6718784.628904-1.2519507 1.101562-1.7402344.472659-.4882837 1.021482-.8691393 1.646485-1.1425782.625003-.2734388 1.296871-.4101562 2.015625-.4101562.718753 0 1.390622.1367174 2.015625.4101562.625003.2734389 1.173826.6542945 1.646484 1.1425782.472659.4882837.839843 1.068356 1.101563 1.7402344.26172.6718783.392578 1.4140584.392578 2.2265624zm2.017728-5.4023437h2.15625v11.0390625c0 .5781279-.083984 1.0957008-.251954 1.5527344-.167969.4570335-.404295.8457015-.708984 1.1660156s-.660154.5683585-1.066406.7441406c-.406252.1757822-.85156.2636719-1.335938.2636719-.335939 0-.621092-.0390621-.855468-.1171875-.125001-.0312502-.238281-.0742185-.339844-.1289062v-1.9101563c.0625.0312502.136718.0546874.222656.0703125.078125.0156251.15625.0273437.234375.0351562.078125.0078126.167968.0117188.269531.0117188.476565 0 .874999-.1601546 1.195313-.4804688.320314-.3203141.480469-.7226538.480469-1.2070312zm1.078125-1.6757813c-.36719 0-.679687-.1269518-.9375-.3808593-.257814-.2539075-.386719-.5683575-.386719-.9433594 0-.3671893.128905-.6777331.386719-.9316406.257813-.2539075.57031-.3808594.9375-.3808594.367189 0 .679686.1269519.9375.3808594.257813.2539075.386718.5644513.386718.9316406s-.128905.6796862-.386718.9375c-.257814.2578138-.570311.3867187-.9375.3867187zm13.05679 9.3632813c-.179689.4453147-.406249.8632793-.679688 1.2539063-.273439.3906269-.60156.7343735-.984375 1.03125-.382814.2968764-.826169.529296-1.330078.6972656s-1.068356.2519531-1.693359.2519531c-.718754 0-1.390622-.1347643-2.015625-.4042969s-1.171873-.648435-1.640625-1.1367187c-.468753-.4882837-.835936-1.068356-1.101563-1.7402344-.265626-.6718784-.398437-1.4179646-.398437-2.2382813 0-.812504.132811-1.5546841.398437-2.2265624.265627-.6718784.624998-1.2519507 1.078125-1.7402344.453128-.4882837.988278-.8691393 1.605469-1.1425782.617191-.2734388 1.269528-.4101562 1.957031-.4101562.687504 0 1.339841.1367174 1.957031.4101562.617191.2734389 1.152342.6542945 1.605469 1.1425782.453128.4882837.812499 1.068356 1.078125 1.7402344.265627.6718783.398438 1.4140584.398438 2.2265624 0 .1250007-.007813.2480463-.023438.3691407-.015625.1210943-.03125.2246089-.046875.3105469-.015625.1093755-.03125.2031246-.046875.28125h-7.6875c.03125.3359391.128906.6562484.292969.9609374.164063.3046891.369139.5722645.615234.8027344s.541014.4140618.884766.5507813c.343752.1367194.707029.2050781 1.089844.2050781.656253 0 1.177732-.1406236 1.564453-.421875s.666015-.5390613.83789-.7734375zm-4.804688-5.765625c-.718753 0-1.326169.2441382-1.822265.7324219-.496097.4882837-.810547 1.1269492-.94336 1.9160156h5.765625c-.125-.7812539-.443357-1.4179663-.955078-1.9101562-.511721-.49219-1.193355-.7382813-2.044922-.7382813zm16.408353 4.921875c-.125001.5781279-.324217 1.1152319-.597656 1.6113281-.273439.4960963-.619139.9277326-1.03711 1.2949219-.41797.3671893-.894528.6542958-1.429687.8613281s-1.115231.3105469-1.740235.3105469c-.718753 0-1.390621-.1347643-2.015625-.4042969-.625003-.2695326-1.173825-.648435-1.646484-1.1367187-.472658-.4882837-.839842-1.068356-1.101562-1.7402344s-.392578-1.4179646-.392578-2.2382813c0-.812504.130858-1.5546841.392578-2.2265624.26172-.6718784.628904-1.2519507 1.101562-1.7402344.472659-.4882837 1.021481-.8691393 1.646484-1.1425782.625004-.2734388 1.296872-.4101562 2.015625-.4101562.625004 0 1.205076.1035146 1.740235.3105469s1.011717.4960919 1.429687.8671875c.417971.3710956.761718.804685 1.03125 1.3007812.269533.4960963.470703 1.029294.603516 1.5996094h-2.285156c-.179689-.609378-.476561-1.1015606-.890625-1.4765625-.414065-.3750019-.957028-.5625-1.628907-.5625-.382814 0-.75781.0839835-1.125.2519531-.367189.1679696-.687498.4082016-.960937.7207032-.273439.3125015-.49414.6816384-.662109 1.1074218-.16797.4257834-.251953.8925756-.251953 1.4003906 0 .5156276.083983.9843729.251953 1.40625.167969.4218772.38867.789061.662109 1.1015626.273439.3125015.593748.5527335.960937.7207031.36719.1679696.742186.2519531 1.125.2519531.671879 0 1.216795-.1874981 1.634766-.5625s.71289-.8671845.884766-1.4765625zm5.006009.3632813c0 .4765648.160155.8749983.480469 1.1953124.320314.3203142.718747.4804688 1.195312.4804688.078126 0 .162109-.0039062.251953-.0117188.089845-.0078125.173828-.0195311.251954-.0351562.078125-.0156251.152343-.0390623.222656-.0703125v1.921875c-.093751.0468752-.207031.0859373-.339844.1171875-.242189.0781254-.527342.1171875-.855469.1171875-.476565 0-.91992-.0878897-1.330078-.2636719-.410158-.1757821-.767576-.4238265-1.072266-.7441406-.304689-.3203141-.541014-.707029-.708984-1.1601562-.167969-.4531273-.251953-.9687472-.251953-1.546875v-5.1679688h-1.921875v-2.0390625h.84375c.414065 0 .757811-.1347643 1.03125-.4042969s.410156-.611326.410156-1.0253906v-1.4414062h1.792969v2.8710937h2.402344v2.0390625h-2.402344zm-60.645429 27.1171874c.0625.4765649.246092.8554674.550781 1.1367188s.761716.421875 1.371094.421875c.671878 0 1.160155-.1269519 1.464844-.3808594s.457031-.5644513.457031-.9316406c0-.3203141-.14453-.5644523-.433594-.7324219s-.646482-.3085932-1.072265-.421875c-.425784-.1132818-.886717-.2304681-1.382813-.3515625-.496096-.1210943-.955076-.2929676-1.376953-.515625-.421877-.2226573-.777342-.5214825-1.066406-.8964844-.289064-.3750018-.433594-.8828092-.433594-1.5234374 0-.4453148.08789-.8652325.263672-1.2597657s.423826-.7402329.744141-1.0371093c.320314-.2968765.708982-.5292961 1.166015-.6972657.457034-.1679696.974607-.2519531 1.552735-.2519531 1.265631 0 2.224606.3046845 2.876953.9140625s1.013671 1.4257761 1.083984 2.4492187h-2.167969c-.0625-.3671893-.242186-.6796862-.539062-.9375-.296877-.2578137-.714841-.3867187-1.253906-.3867187-.546878 0-.964843.1249988-1.253907.375s-.433593.5273422-.433593.8320313c0 .3203141.144529.5644522.433593.7324218s.646482.3066401 1.072266.4160156c.425783.1093756.884763.2246088 1.376953.3457032.49219.1210943.95117.2929676 1.376953.515625.425784.2226573.783202.5234356 1.072266.9023437.289064.3789082.433593.8886687.433593 1.5292969 0 .9609423-.343746 1.7597624-1.03125 2.3964844-.687503.6367219-1.664056.9550781-2.929687.9550781-1.328132 0-2.324215-.3124969-2.988281-.9375s-1.027344-1.511713-1.089844-2.6601563zm11.006009-.1171874c0 .4765648.160155.8749983.480469 1.1953124.320314.3203142.718747.4804688 1.195312.4804688.078126 0 .162109-.0039062.251953-.0117188.089845-.0078125.173828-.0195311.251954-.0351562.078125-.0156251.152343-.0390623.222656-.0703125v1.921875c-.093751.0468752-.207031.0859373-.339844.1171875-.242189.0781254-.527342.1171875-.855469.1171875-.476565 0-.91992-.0878897-1.330078-.2636719-.410158-.1757821-.767576-.4238265-1.072265-.7441406-.30469-.3203141-.541015-.707029-.708985-1.1601562-.167969-.4531273-.251953-.9687472-.251953-1.546875v-5.1679688h-1.921875v-2.0390625h.84375c.414065 0 .757811-.1347643 1.03125-.4042969s.410156-.611326.410156-1.0253906v-1.4414062h1.792969v2.8710937h2.402344v2.0390625h-2.402344zm9.447415-7.3242188c.125001 0 .228515.0078124.310547.0234375s.158203.0312499.228516.046875l.1875.046875v2.1679687c-.062501-.015625-.136719-.0312499-.222656-.046875-.078126-.015625-.160156-.033203-.246094-.0527343-.085938-.0195314-.171875-.0292969-.257813-.0292969-.367189 0-.710936.0722649-1.03125.2167969-.320314.1445319-.599608.3378894-.83789.5800781-.238283.2421887-.425781.5234359-.5625.84375-.13672.3203141-.205078.6562482-.205078 1.0078125v6.1171875h-2.15625v-10.8046875h1.558593l.480469 1.0898437c.195313-.2265636.42578-.4296866.691406-.609375.226564-.1406257.511717-.2753899.855469-.4042968s.746091-.1933594 1.207031-.1933594zm6.447415 0c.625004 0 1.197264.0996084 1.716797.2988281.519534.1992198.962889.4707014 1.330079.8144531.367189.3437518.652342.7480446.855468 1.2128907.203126.464846.304688.9707004.304688 1.5175781v7.078125h-1.558594l-.480469-1.078125c-.210938.2265636-.460936.4257804-.75.5976562-.257814.1562508-.582029.2949213-.972656.4160157-.390627.1210943-.859372.1816406-1.40625.1816406-1.203131 0-2.123044-.2988251-2.759766-.8964844-.636722-.5976592-.955078-1.3769483-.955078-2.3378906 0-.5468777.103515-1.0410134.310547-1.4824219.207032-.4414084.562498-.8164047 1.066406-1.125.503909-.3085953 1.187496-.5507803 2.050782-.7265625.863285-.1757821 1.958977-.2636719 3.287109-.2636719v-.3632812c0-.5468777-.171873-.9843734-.515625-1.3125s-.851559-.4921875-1.523438-.4921875c-.718753 0-1.242185.128905-1.570312.3867187-.328127.2578138-.523437.5703107-.585938.9375h-2.15625c.062501-.9609423.464841-1.7617155 1.207032-2.4023437s1.777337-.9609375 3.105468-.9609375zm-.832031 9.1171875c.914067 0 1.621091-.2343727 2.121094-.703125s.75-1.0390591.75-1.7109375v-.5859375c-.960942 0-1.736325.0449214-2.326172.1347656s-1.052733.2109368-1.388672.3632813-.560546.3398426-.673828.5625c-.113282.2226573-.169922.4707017-.169922.7441406 0 .304689.14453.5800769.433594.8261719s.707029.3691406 1.253906.3691406zm10.408353-1.7929687c0 .4765648.160155.8749983.480469 1.1953124.320314.3203142.718747.4804688 1.195312.4804688.078126 0 .162109-.0039062.251953-.0117188.089845-.0078125.173828-.0195311.251953-.0351562.078126-.0156251.152344-.0390623.222657-.0703125v1.921875c-.093751.0468752-.207031.0859373-.339844.1171875-.242189.0781254-.527342.1171875-.855469.1171875-.476565 0-.91992-.0878897-1.330078-.2636719-.410158-.1757821-.767576-.4238265-1.072266-.7441406-.304689-.3203141-.541014-.707029-.708984-1.1601562-.167969-.4531273-.251953-.9687472-.251953-1.546875v-5.1679688h-1.921875v-2.0390625h.84375c.414065 0 .757811-.1347643 1.03125-.4042969s.410156-.611326.410156-1.0253906v-1.4414062h1.792969v2.8710937h2.402344v2.0390625h-2.402344zm13.783353.4804687c-.179689.4453147-.406249.8632793-.679688 1.2539063-.273439.3906269-.60156.7343735-.984375 1.03125-.382814.2968764-.826169.529296-1.330078.6972656s-1.068356.2519531-1.693359.2519531c-.718754 0-1.390622-.1347643-2.015625-.4042969s-1.171873-.648435-1.640625-1.1367187c-.468753-.4882837-.835936-1.068356-1.101563-1.7402344-.265626-.6718784-.398437-1.4179646-.398437-2.2382813 0-.812504.132811-1.5546841.398437-2.2265624.265627-.6718784.624998-1.2519507 1.078125-1.7402344.453128-.4882837.988278-.8691393 1.605469-1.1425782.617191-.2734388 1.269528-.4101562 1.957031-.4101562.687504 0 1.339841.1367174 1.957032.4101562.61719.2734389 1.152341.6542945 1.605468 1.1425782.453128.4882837.812499 1.068356 1.078125 1.7402344.265627.6718783.398438 1.4140584.398438 2.2265624 0 .1250007-.007813.2480463-.023438.3691407-.015625.1210943-.03125.2246089-.046875.3105469-.015625.1093755-.03125.2031246-.046875.28125h-7.6875c.03125.3359391.128906.6562484.292969.9609374.164063.3046891.369139.5722645.615234.8027344s.541014.4140618.884766.5507813c.343752.1367194.707029.2050781 1.089844.2050781.656253 0 1.177732-.1406236 1.564453-.421875s.666015-.5390613.837891-.7734375zm-4.804688-5.765625c-.718753 0-1.326169.2441382-1.822265.7324219-.496097.4882837-.810547 1.1269492-.94336 1.9160156h5.765625c-.125-.7812539-.443357-1.4179663-.955078-1.9101562-.511721-.49219-1.193355-.7382813-2.044922-.7382813zm16.525541-1.921875v10.3242187c0 .6562533-.117187 1.2636691-.351563 1.8222657-.234376.5585965-.562498 1.0429667-.984375 1.453125s-.937497.7265614-1.546875.9492187c-.609378.2226574-1.289059.3339844-2.039063.3339844-.656253 0-1.248044-.091796-1.77539-.2753906-.527347-.1835947-.986326-.4277329-1.376953-.7324219s-.714843-.6601542-.972657-1.0664063c-.257813-.406252-.441405-.8359352-.550781-1.2890624h2.15625c.179689.3671893.464842.6992172.855469.9960937s.945309.4453125 1.664062.4453125c.851567 0 1.525389-.2441382 2.021485-.7324219s.74414-1.1230429.74414-1.9042969v-1.078125c-.210938.2265637-.460936.4257804-.75.5976563-.257813.1562508-.57031.2949213-.9375.4160156-.367189.1210944-.804684.1816407-1.3125.1816407-.656253 0-1.285153-.1347643-1.886718-.4042969-.601566-.2695326-1.126951-.6406227-1.576172-1.1132813s-.804686-1.0292936-1.066406-1.6699218c-.26172-.6406283-.392579-1.3359338-.392579-2.0859376 0-.7500037.130859-1.4453092.392579-2.0859374.26172-.6406283.617185-1.1972633 1.066406-1.6699219s.974606-.8457018 1.576172-1.1191407c.601565-.2734388 1.230465-.4101562 1.886718-.4101562.546878 0 1.015624.0644525 1.40625.1933594.390627.1289069.710937.2636711.960938.4042968.289064.1796884.539061.3828114.75.609375l.480469-1.0898437zm-4.898438 8.4023437c.382814 0 .753904-.0839835 1.113281-.2519531s.67578-.4003891.949219-.6972656.49414-.640623.662109-1.03125c.16797-.390627.251953-.8085915.251953-1.2539063 0-.4453147-.083983-.8652324-.251953-1.2597656-.167969-.3945332-.38867-.7402329-.662109-1.0371094-.273439-.2968764-.593748-.529296-.960938-.6972656-.367189-.1679696-.742185-.2519531-1.125-.2519531-.382814 0-.75781.0839835-1.125.2519531-.367189.1679696-.687498.4003892-.960937.6972656-.273439.2968765-.49414.6406231-.662109 1.03125-.16797.390627-.251953.8124978-.251954 1.265625.000001.4453148.083984.8632793.251954 1.2539063.167969.390627.392576.7343735.673828 1.03125.281251.2968765.60156.529296.960937.6972656s.73828.2519531 1.136719.2519531zm6.295071-8.4023437h2.285157l3 7.8046875 3-7.8046875h2.285156l-4.570313 11.5195313c-.242188.609378-.478514 1.1191385-.708984 1.5292968s-.480467.7421863-.75.9960938c-.269532.2539075-.568358.4374994-.896484.5507812-.328127.1132818-.699217.1699219-1.113282.1699219-.09375 0-.18164-.0039062-.263671-.0117187-.082032-.0078126-.162109-.0195312-.240235-.0351563-.078125-.0156251-.152343-.0390623-.222656-.0703125v-1.8046875c.609378 0 1.070311-.1269519 1.382812-.3808594.312502-.2539075.53125-.5683575.65625-.9433593l.363282-1.078125z" fill="#fff" fill-rule="nonzero"/></g></svg>