<svg height="449" viewBox="0 0 512 449" width="512" xmlns="http://www.w3.org/2000/svg"><g fill="none" fill-rule="evenodd"><path d="m0 0h512v449h-512z" fill="#f22f2d"/><path d="m153 232.5c19.723424-37.172632 58.896081-62.5 104-62.5s84.276576 25.327368 104 62.5c-19.723424 37.172632-58.896081 62.5-104 62.5s-84.276576-25.327368-104-62.5z" fill="#ffd1db"/><ellipse cx="258.106383" cy="233.053097" fill="#4a40fd" rx="52" ry="51.99115"/><path d="m68.1953125 65.078125c.4765649 0 .9199198-.0878897 1.3300781-.2636719.4101583-.1757821.7675766-.4199203 1.0722656-.7324219.3046891-.3125015.5410148-.6874978.7089844-1.125.1679696-.4375021.2519532-.9296847.2519532-1.4765624v-9.5976563h2.2851562v9.5976563c0 .812504-.1406236 1.5644496-.421875 2.2558593s-.6738256 1.28906-1.1777344 1.7929688c-.5039087.5039087-1.0996059.8945298-1.7871094 1.171875-.6875034.2773451-1.4414021.4160156-2.2617187.4160156-.8125041 0-1.5624966-.1386705-2.25-.4160156-.6875034-.2773452-1.2832006-.6679663-1.7871094-1.171875-.5039087-.5039088-.8964829-1.1015591-1.1777343-1.7929688-.2812515-.6914097-.421875-1.4433553-.421875-2.2558593v-9.5976563h2.2851562v9.5976563c0 .5468777.0839835 1.0390603.2519531 1.4765624.1679696.4375022.4042954.8124985.7089844 1.125.304689.3125016.6601542.5566398 1.0664063.7324219.406252.1757822.8476538.2636719 1.3242187.2636719zm16.6427278-13.1953125h2.5195312l-4.5585937 7.4414063 4.8046875 7.6757812h-2.5195313l-3.5976562-5.765625-3.5976563 5.765625h-2.53125l4.8046875-7.6757812-4.5585937-7.4414063h2.5195312l3.3632813 5.5195313zm13.9729555 4.1953125c.1250006 0 .2285152.0078124.3105468.0234375.0820317.0156251.1582028.0312499.2285157.046875l.1875.046875v2.1679687c-.0625004-.015625-.1367184-.0312499-.2226563-.046875-.0781254-.015625-.1601558-.033203-.2460937-.0527343-.085938-.0195314-.1718746-.0292969-.2578125-.0292969-.3671894 0-.7109359.0722649-1.03125.2167969-.3203142.1445319-.5996082.3378894-.8378907.5800781-.2382824.2421887-.4257805.5234359-.5625.84375-.1367194.3203141-.2050781.6562482-.2050781 1.0078125v6.1171875h-2.15625v-10.8046875h1.5585938l.4804687 1.0898437c.1953135-.2265636.4257799-.4296866.6914063-.609375.2265636-.1406257.511717-.2753899.8554687-.4042968s.7460914-.1933594 1.2070313-.1933594zm11.6153842 7.8046875c-.179689.4453147-.406249.8632793-.679688 1.2539063-.273439.3906269-.60156.7343735-.984375 1.03125-.382814.2968764-.826169.529296-1.330078.6972656s-1.068356.2519531-1.693359.2519531c-.718754 0-1.390622-.1347643-2.015625-.4042969s-1.171873-.648435-1.640625-1.1367187c-.468753-.4882837-.835936-1.068356-1.101563-1.7402344-.265626-.6718784-.398437-1.4179646-.398437-2.2382813 0-.812504.132811-1.5546841.398437-2.2265624.265627-.6718784.624998-1.2519507 1.078125-1.7402344.453128-.4882837.988278-.8691393 1.605469-1.1425782.617191-.2734388 1.269528-.4101562 1.957031-.4101562.687504 0 1.339841.1367174 1.957031.4101562.617191.2734389 1.152342.6542945 1.605469 1.1425782.453128.4882837.812499 1.068356 1.078125 1.7402344.265627.6718783.398438 1.4140584.398438 2.2265624 0 .1250007-.007813.2480463-.023438.3691407-.015625.1210943-.03125.2246089-.046875.3105469-.015625.1093755-.03125.2031246-.046875.28125h-7.6875c.03125.3359391.128906.6562484.292969.9609374.164063.3046891.369139.5722645.615234.8027344s.541014.4140618.884766.5507813c.343752.1367194.707029.2050781 1.089844.2050781.656253 0 1.177732-.1406236 1.564453-.421875s.666015-.5390613.83789-.7734375zm-4.804688-5.765625c-.718753 0-1.326169.2441382-1.822265.7324219-.496097.4882837-.810547 1.1269492-.94336 1.9160156h5.765625c-.125-.7812539-.443357-1.4179663-.955078-1.9101562-.511721-.49219-1.193355-.7382813-2.044922-.7382813zm8.603666 5.4023437c.0625.4765649.246092.8554674.550781 1.1367188s.761715.421875 1.371094.421875c.671878 0 1.160154-.1269519 1.464843-.3808594s.457032-.5644513.457032-.9316406c0-.3203141-.14453-.5644523-.433594-.7324219s-.646482-.3085932-1.072266-.421875c-.425783-.1132818-.886716-.2304681-1.382812-.3515625-.496097-.1210943-.955076-.2929676-1.376953-.515625-.421878-.2226573-.777343-.5214825-1.066407-.8964844-.289064-.3750018-.433593-.8828092-.433593-1.5234374 0-.4453148.087889-.8652325.263671-1.2597657.175783-.3945332.423827-.7402329.744141-1.0371093.320314-.2968765.708982-.5292961 1.166016-.6972657.457033-.1679696.974606-.2519531 1.552734-.2519531 1.265631 0 2.224606.3046845 2.876953.9140625s1.013672 1.4257761 1.083985 2.4492187h-2.167969c-.062501-.3671893-.242186-.6796862-.539063-.9375-.296876-.2578137-.714841-.3867187-1.253906-.3867187-.546878 0-.964842.1249988-1.253906.375s-.433594.5273422-.433594.8320313c0 .3203141.14453.5644522.433594.7324218s.646482.3066401 1.072265.4160156c.425784.1093756.884764.2246088 1.376954.3457032.492189.1210943.951169.2929676 1.376953.515625.425783.2226573.783201.5234356 1.072265.9023437.289064.3789082.433594.8886687.433594 1.5292969 0 .9609423-.343747 1.7597624-1.03125 2.3964844-.687503.6367219-1.664056.9550781-2.929687.9550781-1.328132 0-2.324216-.3124969-2.988282-.9375s-1.027343-1.511713-1.089843-2.6601563zm17.252102.3632813c-.179688.4453147-.406248.8632793-.679687 1.2539063-.273439.3906269-.601561.7343735-.984375 1.03125-.382815.2968764-.82617.529296-1.330078.6972656-.503909.1679696-1.068357.2519531-1.69336.2519531-.718753 0-1.390622-.1347643-2.015625-.4042969s-1.171872-.648435-1.640625-1.1367187c-.468752-.4882837-.835936-1.068356-1.101562-1.7402344-.265627-.6718784-.398438-1.4179646-.398438-2.2382813 0-.812504.132811-1.5546841.398438-2.2265624.265626-.6718784.624997-1.2519507 1.078125-1.7402344.453127-.4882837.988278-.8691393 1.605469-1.1425782.61719-.2734388 1.269527-.4101562 1.957031-.4101562.687503 0 1.33984.1367174 1.957031.4101562.617191.2734389 1.152341.6542945 1.605469 1.1425782.453127.4882837.812498 1.068356 1.078125 1.7402344.265626.6718783.398437 1.4140584.398437 2.2265624 0 .1250007-.007812.2480463-.023437.3691407-.015625.1210943-.03125.2246089-.046875.3105469-.015625.1093755-.03125.2031246-.046875.28125h-7.6875c.03125.3359391.128905.6562484.292969.9609374.164063.3046891.369139.5722645.615234.8027344s.541014.4140618.884766.5507813c.343751.1367194.707029.2050781 1.089843.2050781.656254 0 1.177733-.1406236 1.564453-.421875.386721-.2812514.666015-.5390613.837891-.7734375zm-4.804687-5.765625c-.718754 0-1.32617.2441382-1.822266.7324219s-.810546 1.1269492-.943359 1.9160156h5.765625c-.125001-.7812539-.443357-1.4179663-.955078-1.9101562-.511722-.49219-1.193355-.7382813-2.044922-.7382813zm11.240384-2.0390625c.625003 0 1.197263.0996084 1.716797.2988281.519533.1992198.962888.4707014 1.330078.8144531.367189.3437518.652342.7480446.855468 1.2128907.203127.464846.304688.9707004.304688 1.5175781v7.078125h-1.558594l-.480469-1.078125c-.210938.2265636-.460936.4257804-.75.5976562-.257813.1562508-.582029.2949213-.972656.4160157-.390627.1210943-.859372.1816406-1.40625.1816406-1.203131 0-2.123043-.2988251-2.759765-.8964844-.636722-.5976592-.955079-1.3769483-.955079-2.3378906 0-.5468777.103515-1.0410134.310547-1.4824219.207033-.4414084.562498-.8164047 1.066407-1.125.503908-.3085953 1.187495-.5507803 2.050781-.7265625.863285-.1757821 1.958978-.2636719 3.287109-.2636719v-.3632812c0-.5468777-.171873-.9843734-.515625-1.3125-.343751-.3281266-.851559-.4921875-1.523437-.4921875-.718754 0-1.242186.128905-1.570313.3867187-.328126.2578138-.523437.5703107-.585937.9375h-2.15625c.0625-.9609423.46484-1.7617155 1.207031-2.4023437s1.777337-.9609375 3.105469-.9609375zm-.832032 9.1171875c.914068 0 1.621092-.2343727 2.121094-.703125.500003-.4687523.75-1.0390591.75-1.7109375v-.5859375c-.960942 0-1.736325.0449214-2.326172.1347656-.589846.0898442-1.052732.2109368-1.388672.3632813-.335939.1523445-.560546.3398426-.673828.5625-.113281.2226573-.169922.4707017-.169922.7441406 0 .304689.14453.5800769.433594.8261719s.707029.3691406 1.253906.3691406zm12.318509-9.1171875c.125001 0 .228516.0078124.310547.0234375.082032.0156251.158203.0312499.228516.046875l.1875.046875v2.1679687c-.0625-.015625-.136718-.0312499-.222656-.046875-.078126-.015625-.160156-.033203-.246094-.0527343-.085938-.0195314-.171875-.0292969-.257813-.0292969-.367189 0-.710935.0722649-1.03125.2167969-.320314.1445319-.599608.3378894-.83789.5800781-.238283.2421887-.425781.5234359-.5625.84375-.13672.3203141-.205078.6562482-.205078 1.0078125v6.1171875h-2.15625v-10.8046875h1.558593l.480469 1.0898437c.195314-.2265636.42578-.4296866.691406-.609375.226564-.1406257.511718-.2753899.855469-.4042968.343752-.1289069.746092-.1933594 1.207031-.1933594zm11.615384 6.9609375c-.125.5781279-.324217 1.1152319-.597656 1.6113281-.273439.4960963-.619138.9277326-1.037109 1.2949219s-.894529.6542958-1.429688.8613281-1.115231.3105469-1.740234.3105469c-.718754 0-1.390622-.1347643-2.015625-.4042969s-1.173826-.648435-1.646484-1.1367187c-.472659-.4882837-.839843-1.068356-1.101563-1.7402344s-.392578-1.4179646-.392578-2.2382813c0-.812504.130858-1.5546841.392578-2.2265624.26172-.6718784.628904-1.2519507 1.101563-1.7402344.472658-.4882837 1.021481-.8691393 1.646484-1.1425782.625003-.2734388 1.296871-.4101562 2.015625-.4101562.625003 0 1.205075.1035146 1.740234.3105469s1.011717.4960919 1.429688.8671875.761717.804685 1.03125 1.3007812c.269532.4960963.470702 1.029294.603515 1.5996094h-2.285156c-.179688-.609378-.47656-1.1015606-.890625-1.4765625-.414064-.3750019-.957028-.5625-1.628906-.5625-.382814 0-.757811.0839835-1.125.2519531s-.687499.4082016-.960938.7207032c-.273438.3125015-.494139.6816384-.662109 1.1074218-.167969.4257834-.251953.8925756-.251953 1.4003906 0 .5156276.083984.9843729.251953 1.40625.16797.4218772.388671.789061.662109 1.1015626.273439.3125015.593749.5527335.960938.7207031s.742186.2519531 1.125.2519531c.671878 0 1.216795-.1874981 1.634766-.5625.41797-.3750019.712889-.8671845.884765-1.4765625zm7.16226-6.9609375c.593752 0 1.154294.1171863 1.68164.3515625.527347.2343762.988279.5546855 1.382813.9609375.394533.406252.703124.8964815.925781 1.4707031s.333984 1.2089809.333984 1.9042969v6.234375h-2.15625v-6.234375c0-.3515643-.068358-.6874984-.205078-1.0078125-.136719-.3203141-.320311-.6015613-.550781-.84375s-.498045-.4355462-.802734-.5800781c-.30469-.144532-.624999-.2167969-.960938-.2167969-.367189 0-.710936.0722649-1.03125.2167969-.320314.1445319-.601561.3378894-.84375.5800781s-.43164.5214828-.568359.8378906c-.13672.3164079-.205078.6542951-.205078 1.0136719v6.234375h-2.15625v-15.1171875h2.15625v5.4023437c.226563-.2265636.484373-.4296866.773437-.609375.257814-.1406257.574217-.2753899.949219-.4042968s.800779-.1933594 1.277344-.1933594zm16.012018 0c.625003 0 1.197263.0996084 1.716796.2988281.519534.1992198.962889.4707014 1.330079.8144531.367189.3437518.652342.7480446.855468 1.2128907.203126.464846.304688.9707004.304688 1.5175781v7.078125h-1.558594l-.480469-1.078125c-.210938.2265636-.460936.4257804-.75.5976562-.257814.1562508-.582029.2949213-.972656.4160157-.390627.1210943-.859372.1816406-1.40625.1816406-1.203131 0-2.123044-.2988251-2.759766-.8964844-.636722-.5976592-.955078-1.3769483-.955078-2.3378906 0-.5468777.103515-1.0410134.310547-1.4824219.207032-.4414084.562498-.8164047 1.066406-1.125.503909-.3085953 1.187496-.5507803 2.050782-.7265625.863285-.1757821 1.958977-.2636719 3.287109-.2636719v-.3632812c0-.5468777-.171873-.9843734-.515625-1.3125s-.851559-.4921875-1.523437-.4921875c-.718754 0-1.242186.128905-1.570313.3867187-.328127.2578138-.523437.5703107-.585937.9375h-2.15625c.0625-.9609423.46484-1.7617155 1.207031-2.4023437s1.777337-.9609375 3.105469-.9609375zm-.832032 9.1171875c.914067 0 1.621092-.2343727 2.121094-.703125.500003-.4687523.75-1.0390591.75-1.7109375v-.5859375c-.960942 0-1.736325.0449214-2.326172.1347656s-1.052733.2109368-1.388672.3632813-.560546.3398426-.673828.5625c-.113282.2226573-.169922.4707017-.169922.7441406 0 .304689.14453.5800769.433594.8261719s.707029.3691406 1.253906.3691406zm12.681791-9.1171875c.593752 0 1.154294.1171863 1.68164.3515625.527347.2343762.986326.5546855 1.376953.9609375s.699218.8964815.925782 1.4707031c.226563.5742216.339843 1.2089809.339843 1.9042969v6.234375h-2.15625v-6.234375c0-.3515643-.068358-.6874984-.205078-1.0078125-.136719-.3203141-.322264-.6015613-.55664-.84375-.234377-.2421887-.503905-.4355462-.808594-.5800781-.304689-.144532-.624999-.2167969-.960938-.2167969-.367189 0-.710936.0722649-1.03125.2167969-.320314.1445319-.599608.3378894-.83789.5800781-.238283.2421887-.425781.5214828-.5625.8378906-.13672.3164079-.205078.6542951-.205078 1.0136719v6.234375h-2.15625v-10.8046875h1.558593l.480469 1.0898437c.210939-.2265636.45703-.4296866.738281-.609375.257814-.1406257.58203-.2753899.972657-.4042968.390626-.1289069.859372-.1933594 1.40625-.1933594zm11.36929 11.0390625c-.718754 0-1.390622-.1347643-2.015625-.4042969s-1.173826-.648435-1.646485-1.1367187c-.472658-.4882837-.839842-1.068356-1.101562-1.7402344s-.392578-1.4179646-.392578-2.2382813c0-.812504.130858-1.5546841.392578-2.2265624.26172-.6718784.628904-1.2519507 1.101562-1.7402344.472659-.4882837 1.021482-.8691393 1.646485-1.1425782.625003-.2734388 1.296871-.4101562 2.015625-.4101562.515627 0 .957029.0644525 1.324219.1933594.367189.1289069.679686.2636711.9375.4042968.289063.1796884.535155.3828114.738281.609375v-5.4023437h2.15625v15.1171875h-1.558594l-.480469-1.078125c-.210938.2265636-.45703.4257804-.738281.5976562-.257814.1562508-.582029.2949213-.972656.4160157-.390627.1210943-.859373.1816406-1.40625.1816406zm.117187-9c-.414064 0-.808592.0839835-1.183593.2519531-.375002.1679696-.70703.4082016-.996094.7207032-.289064.3125015-.517578.6816384-.685547 1.1074218-.16797.4257834-.251953.8925756-.251953 1.4003906 0 .5156276.083983.9843729.251953 1.40625.167969.4218772.396483.789061.685547 1.1015626.289064.3125015.621092.5527335.996094.7207031.375001.1679696.769529.2519531 1.183593.2519531.414065 0 .810545-.0839835 1.189453-.2519531.378909-.1679696.710936-.4082016.996094-.7207031.285158-.3125016.511718-.6796854.679688-1.1015626.167969-.4218771.251953-.8906224.251953-1.40625 0-.5156275-.083984-.9843728-.251953-1.40625-.16797-.4218771-.39453-.7890609-.679688-1.1015624-.285158-.3125016-.617185-.5527336-.996094-.7207032-.378908-.1679696-.775388-.2519531-1.189453-.2519531zm-135.7208445 31.921875c-.1250006.5781279-.3242174 1.1152319-.5976563 1.6113281-.2734388.4960963-.6191385.9277326-1.0371093 1.2949219-.4179709.3671893-.8945286.6542958-1.4296875.8613281-.535159.2070323-1.1152313.3105469-1.7402344.3105469-.7187536 0-1.3906219-.1347643-2.015625-.4042969s-1.1738258-.648435-1.6464844-1.1367187-.8398424-1.068356-1.1015625-1.7402344c-.26172-.6718784-.3925781-1.4179646-.3925781-2.2382813 0-.812504.1308581-1.5546841.3925781-2.2265624.2617201-.6718784.6289039-1.2519507 1.1015625-1.7402344s1.0214813-.8691393 1.6464844-1.1425782c.6250031-.2734388 1.2968714-.4101562 2.015625-.4101562.6250031 0 1.2050754.1035146 1.7402344.3105469.5351589.2070323 1.0117166.4960919 1.4296875.8671875.4179708.3710956.7617174.804685 1.03125 1.3007812.2695326.4960963.4707024 1.029294.6035156 1.5996094h-2.2851563c-.1796883-.609378-.4765604-1.1015606-.890625-1.4765625-.4140645-.3750019-.9570278-.5625-1.6289062-.5625-.3828144 0-.7578107.0839835-1.125.2519531s-.6874986.4082016-.9609375.7207032c-.2734389.3125015-.4941398.6816384-.6621094 1.1074218s-.2519531.8925756-.2519531 1.4003906c0 .5156276.0839835.9843729.2519531 1.40625.1679696.4218772.3886705.789061.6621094 1.1015626.2734389.3125015.5937482.5527335.9609375.7207031s.7421856.2519531 1.125.2519531c.6718784 0 1.2167948-.1874981 1.6347656-.5625.4179709-.3750019.7128898-.8671845.8847656-1.4765625zm9.4474153-1.4414063c0-.5156275-.0839836-.9843728-.2519532-1.40625-.1679696-.4218771-.3886705-.7890609-.6621093-1.1015624-.2734389-.3125016-.5937482-.5527336-.9609375-.7207032-.3671894-.1679696-.7421856-.2519531-1.125-.2519531-.3828145 0-.7578107.0839835-1.125.2519531-.3671894.1679696-.6874987.4082016-.9609375.7207032-.2734389.3125015-.4941398.6816384-.6621094 1.1074218s-.2519531.8925756-.2519531 1.4003906c0 .5156276.0839835.9843729.2519531 1.40625.1679696.4218772.3886705.789061.6621094 1.1015626.2734388.3125015.5937481.5527335.9609375.7207031.3671893.1679696.7421855.2519531 1.125.2519531.3828144 0 .7578106-.0839835 1.125-.2519531.3671893-.1679696.6874986-.4082016.9609375-.7207031.2734388-.3125016.4941397-.6796854.6621093-1.1015626.1679696-.4218771.2519532-.8906224.2519532-1.40625zm2.15625 0c0 .8125041-.1308581 1.5566373-.3925782 2.2324219-.26172.6757847-.6289039 1.2578101-1.1015625 1.7460938s-1.0214812.8671861-1.6464843 1.1367187c-.6250032.2695326-1.2968715.4042969-2.015625.4042969-.7187536 0-1.3906219-.1347643-2.015625-.4042969-.6250032-.2695326-1.1738258-.648435-1.6464844-1.1367187s-.8398425-1.068356-1.1015625-1.7402344c-.2617201-.6718784-.3925781-1.4179646-.3925781-2.2382813 0-.812504.130858-1.5546841.3925781-2.2265624.26172-.6718784.6289039-1.2519507 1.1015625-1.7402344s1.0214812-.8691393 1.6464844-1.1425782c.6250031-.2734388 1.2968714-.4101562 2.015625-.4101562.7187535 0 1.3906218.1367174 2.015625.4101562.6250031.2734389 1.1738257.6542945 1.6464843 1.1425782s.8398425 1.068356 1.1015625 1.7402344c.2617201.6718783.3925782 1.4140584.3925782 2.2265624zm7.1739777-5.5195312c.593753 0 1.1542942.1171863 1.6816406.3515625s.9863262.5546855 1.3769531.9609375c.390627.406252.6992177.8964815.9257813 1.4707031s.3398437 1.2089809.3398437 1.9042969v6.234375h-2.15625v-6.234375c0-.3515643-.0683586-.6874984-.2050781-1.0078125-.1367194-.3203141-.3222644-.6015613-.5566406-.84375s-.5039047-.4355462-.8085938-.5800781c-.304689-.144532-.6249983-.2167969-.9609375-.2167969-.3671893 0-.7109358.0722649-1.03125.2167969-.3203141.1445319-.5996081.3378894-.8378906.5800781-.2382824.2421887-.4257805.5214828-.5625.8378906-.1367194.3164079-.2050781.6542951-.2050781 1.0136719v6.234375h-2.15625v-10.8046875h1.5585937l.4804688 1.0898437c.2109386-.2265636.4570298-.4296866.7382812-.609375.2578138-.1406257.5820293-.2753899.9726563-.4042968s.8593723-.1933594 1.40625-.1933594zm16.1739775 6.9609375c-.125.5781279-.324217 1.1152319-.597656 1.6113281-.273439.4960963-.619139.9277326-1.037109 1.2949219-.417971.3671893-.894529.6542958-1.429688.8613281s-1.115231.3105469-1.740234.3105469c-.718754 0-1.390622-.1347643-2.0156252-.4042969s-1.1738258-.648435-1.6464844-1.1367187-.8398425-1.068356-1.1015625-1.7402344c-.2617201-.6718784-.3925781-1.4179646-.3925781-2.2382813 0-.812504.130858-1.5546841.3925781-2.2265624.26172-.6718784.6289039-1.2519507 1.1015625-1.7402344s1.0214812-.8691393 1.6464844-1.1425782c.6250032-.2734388 1.2968712-.4101562 2.0156252-.4101562.625003 0 1.205075.1035146 1.740234.3105469s1.011717.4960919 1.429688.8671875c.41797.3710956.761717.804685 1.03125 1.3007812.269532.4960963.470702 1.029294.603515 1.5996094h-2.285156c-.179688-.609378-.47656-1.1015606-.890625-1.4765625s-.957028-.5625-1.628906-.5625c-.382815 0-.757811.0839835-1.125.2519531-.36719.1679696-.687499.4082016-.9609377.7207032-.2734389.3125015-.4941398.6816384-.6621094 1.1074218s-.2519531.8925756-.2519531 1.4003906c0 .5156276.0839835.9843729.2519531 1.40625.1679696.4218772.3886705.789061.6621094 1.1015626.2734387.3125015.5937477.5527335.9609377.7207031.367189.1679696.742185.2519531 1.125.2519531.671878 0 1.216795-.1874981 1.634765-.5625.417971-.3750019.71289-.8671845.884766-1.4765625zm11.252103.84375c-.179688.4453147-.406249.8632793-.679688 1.2539063-.273438.3906269-.60156.7343735-.984375 1.03125-.382814.2968764-.826169.529296-1.330078.6972656-.503908.1679696-1.068356.2519531-1.693359.2519531-.718754 0-1.390622-.1347643-2.015625-.4042969s-1.171873-.648435-1.640625-1.1367187-.835936-1.068356-1.101563-1.7402344c-.265626-.6718784-.398437-1.4179646-.398437-2.2382813 0-.812504.132811-1.5546841.398437-2.2265624.265627-.6718784.624998-1.2519507 1.078125-1.7402344.453128-.4882837.988279-.8691393 1.605469-1.1425782.617191-.2734388 1.269528-.4101562 1.957031-.4101562.687504 0 1.339841.1367174 1.957032.4101562.61719.2734389 1.152341.6542945 1.605468 1.1425782.453128.4882837.812499 1.068356 1.078125 1.7402344.265627.6718783.398438 1.4140584.398438 2.2265624 0 .1250007-.007812.2480463-.023438.3691407-.015625.1210943-.031249.2246089-.046875.3105469-.015625.1093755-.031249.2031246-.046875.28125h-7.6875c.031251.3359391.128906.6562484.292969.9609374.164064.3046891.36914.5722645.615235.8027344s.541014.4140618.884765.5507813c.343752.1367194.70703.2050781 1.089844.2050781.656253 0 1.177732-.1406236 1.564453-.421875s.666015-.5390613.837891-.7734375zm-4.804688-5.765625c-.718753 0-1.326169.2441382-1.822265.7324219s-.810546 1.1269492-.94336 1.9160156h5.765625c-.125-.7812539-.443356-1.4179663-.955078-1.9101562-.511721-.49219-1.193355-.7382813-2.044922-.7382813zm12.201322-2.0390625c.718754 0 1.390622.1367174 2.015625.4101562.625003.2734389 1.173826.6542945 1.646484 1.1425782.472659.4882837.841796 1.068356 1.107422 1.7402344.265627.6718783.398438 1.4140584.398438 2.2265624 0 .8125041-.132811 1.5566373-.398438 2.2324219-.265626.6757847-.634763 1.2578101-1.107422 1.7460938-.472658.4882837-1.021481.8671861-1.646484 1.1367187s-1.296871.4042969-2.015625.4042969c-.515628 0-.957029-.0585932-1.324219-.1757813-.367189-.117188-.67578-.2578116-.925781-.421875-.289064-.1796883-.539061-.3789051-.75-.5976562v4.921875h-2.15625v-14.6484375h1.558594l.480469 1.0898437c.210938-.2265636.457029-.4296866.738281-.609375.257814-.1406257.582029-.2753899.972656-.4042968s.859372-.1933594 1.40625-.1933594zm-.117187 9c.414064 0 .808591-.0839835 1.183593-.2519531s.70703-.4082016.996094-.7207031c.289064-.3125016.517577-.6796854.685547-1.1015626.167969-.4218771.251953-.8906224.251953-1.40625 0-.5156275-.083984-.9843728-.251953-1.40625-.16797-.4218771-.396483-.7890609-.685547-1.1015624-.289064-.3125016-.621092-.5527336-.996094-.7207032s-.769529-.2519531-1.183593-.2519531c-.414065 0-.810545.0839835-1.189454.2519531-.378908.1679696-.710936.4082016-.996093.7207032-.285158.3125015-.511718.6816384-.679688 1.1074218-.167969.4257834-.251953.8925756-.251953 1.4003906 0 .5156276.083984.9843729.251953 1.40625.16797.4218772.39453.789061.679688 1.1015626.285157.3125015.617185.5527335.996093.7207031.378909.1679696.775389.2519531 1.189454.2519531zm10.408352-1.6757812c0 .4765648.160155.8749983.480469 1.1953124.320314.3203142.718748.4804688 1.195313.4804688.078125 0 .162108-.0039062.251953-.0117188.089844-.0078125.173827-.0195311.251953-.0351562.078125-.0156251.152343-.0390623.222656-.0703125v1.921875c-.09375.0468752-.207031.0859373-.339844.1171875-.242188.0781254-.527342.1171875-.855468.1171875-.476565 0-.91992-.0878897-1.330079-.2636719-.410158-.1757821-.767576-.4238265-1.072265-.7441406s-.541015-.707029-.708985-1.1601562c-.167969-.4531273-.251953-.9687472-.251953-1.546875v-5.1679688h-1.921875v-2.0390625h.84375c.414065 0 .757811-.1347643 1.03125-.4042969s.410157-.611326.410157-1.0253906v-1.4414062h1.792968v2.8710937h2.402344v2.0390625h-2.402344zm8.861478 3.7148437c-.609378 0-1.173826-.1152332-1.693359-.3457031-.519534-.2304699-.976561-.5507792-1.371094-.9609375s-.703124-.9023409-.925781-1.4765625c-.222658-.5742216-.333985-1.2050747-.333985-1.8925782v-6.2460937h2.15625v6.2460937c0 .3671894.068359.7109359.205078 1.03125.13672.3203142.320312.5996082.550782.8378907.23047.2382824.498045.4257805.802734.5625.304689.1367194.624998.2050781.960938.2050781.351564 0 .687498-.0683587 1.007812-.2050781.320314-.1367195.601561-.3242176.84375-.5625.242189-.2382825.435546-.5175765.580078-.8378907.144532-.3203141.216797-.6640606.216797-1.03125v-6.2460937h2.15625v10.8046875h-1.558594l-.480468-1.078125c-.210939.2265636-.460937.4257804-.75.5976562-.257814.1562508-.580077.2949213-.966797.4160157-.386721.1210943-.853513.1816406-1.400391.1816406zm11.955228-11.0390625c.625003 0 1.197263.0996084 1.716797.2988281.519533.1992198.962888.4707014 1.330078.8144531.367189.3437518.652342.7480446.855469 1.2128907.203126.464846.304687.9707004.304687 1.5175781v7.078125h-1.558594l-.480468-1.078125c-.210939.2265636-.460937.4257804-.75.5976562-.257814.1562508-.58203.2949213-.972657.4160157-.390627.1210943-.859372.1816406-1.40625.1816406-1.203131 0-2.123043-.2988251-2.759765-.8964844-.636722-.5976592-.955078-1.3769483-.955078-2.3378906 0-.5468777.103514-1.0410134.310546-1.4824219.207033-.4414084.562498-.8164047 1.066407-1.125.503908-.3085953 1.187495-.5507803 2.050781-.7265625.863285-.1757821 1.958978-.2636719 3.287109-.2636719v-.3632812c0-.5468777-.171873-.9843734-.515625-1.3125-.343751-.3281266-.851559-.4921875-1.523437-.4921875-.718754 0-1.242186.128905-1.570313.3867187-.328126.2578138-.523437.5703107-.585937.9375h-2.15625c.0625-.9609423.46484-1.7617155 1.207031-2.4023437s1.777337-.9609375 3.105469-.9609375zm-.832031 9.1171875c.914067 0 1.621091-.2343727 2.121093-.703125.500003-.4687523.75-1.0390591.75-1.7109375v-.5859375c-.960942 0-1.736325.0449214-2.326172.1347656-.589846.0898442-1.052732.2109368-1.388671.3632813-.33594.1523445-.560547.3398426-.673829.5625-.113281.2226573-.169921.4707017-.169921.7441406 0 .304689.144529.5800769.433593.8261719s.707029.3691406 1.253907.3691406zm9.798977 1.8046875h-2.15625v-15.1171875h2.15625zm4.888822 0h-2.15625v-10.8046875h2.15625zm-1.078125-12.4804688c-.36719 0-.679686-.1269518-.9375-.3808593s-.386719-.5683575-.386719-.9433594c0-.3671893.128905-.6777331.386719-.9316406s.57031-.3808594.9375-.3808594c.367189 0 .679686.1269519.9375.3808594s.386719.5644513.386719.9316406-.128905.6796862-.386719.9375-.570311.3867187-.9375.3867187zm8.134915 3.7148438h-5.167969v-2.0390625h7.804688v1.921875l-5.15625 6.84375h5.402344v2.0390625h-8.050782v-1.921875zm8.955228-2.15625c.625003 0 1.197263.0996084 1.716797.2988281.519533.1992198.962888.4707014 1.330078.8144531.367189.3437518.652342.7480446.855469 1.2128907.203126.464846.304687.9707004.304687 1.5175781v7.078125h-1.558594l-.480468-1.078125c-.210939.2265636-.460937.4257804-.75.5976562-.257814.1562508-.58203.2949213-.972657.4160157-.390627.1210943-.859372.1816406-1.40625.1816406-1.203131 0-2.123043-.2988251-2.759765-.8964844-.636722-.5976592-.955078-1.3769483-.955078-2.3378906 0-.5468777.103514-1.0410134.310546-1.4824219.207033-.4414084.562498-.8164047 1.066407-1.125.503908-.3085953 1.187495-.5507803 2.050781-.7265625.863285-.1757821 1.958978-.2636719 3.287109-.2636719v-.3632812c0-.5468777-.171873-.9843734-.515625-1.3125-.343751-.3281266-.851559-.4921875-1.523437-.4921875-.718754 0-1.242186.128905-1.570313.3867187-.328126.2578138-.523437.5703107-.585937.9375h-2.15625c.0625-.9609423.46484-1.7617155 1.207031-2.4023437s1.777337-.9609375 3.105469-.9609375zm-.832031 9.1171875c.914067 0 1.621091-.2343727 2.121093-.703125.500003-.4687523.75-1.0390591.75-1.7109375v-.5859375c-.960942 0-1.736325.0449214-2.326172.1347656-.589846.0898442-1.052732.2109368-1.388671.3632813-.33594.1523445-.560547.3398426-.673829.5625-.113281.2226573-.169921.4707017-.169921.7441406 0 .304689.144529.5800769.433593.8261719s.707029.3691406 1.253907.3691406zm10.408352-1.7929687c0 .4765648.160155.8749983.480469 1.1953124.320314.3203142.718748.4804688 1.195313.4804688.078125 0 .162108-.0039062.251953-.0117188.089844-.0078125.173827-.0195311.251953-.0351562.078125-.0156251.152343-.0390623.222656-.0703125v1.921875c-.09375.0468752-.207031.0859373-.339844.1171875-.242188.0781254-.527342.1171875-.855468.1171875-.476565 0-.91992-.0878897-1.330079-.2636719-.410158-.1757821-.767576-.4238265-1.072265-.7441406s-.541015-.707029-.708985-1.1601562c-.167969-.4531273-.251953-.9687472-.251953-1.546875v-5.1679688h-1.921875v-2.0390625h.84375c.414065 0 .757811-.1347643 1.03125-.4042969s.410157-.611326.410157-1.0253906v-1.4414062h1.792968v2.8710937h2.402344v2.0390625h-2.402344zm6.810697 3.5976562h-2.15625v-10.8046875h2.15625zm-1.078125-12.4804688c-.36719 0-.679686-.1269518-.9375-.3808593s-.386719-.5683575-.386719-.9433594c0-.3671893.128905-.6777331.386719-.9316406s.57031-.3808594.9375-.3808594c.367189 0 .679686.1269519.9375.3808594s.386719.5644513.386719.9316406-.128905.6796862-.386719.9375-.570311.3867187-.9375.3867187zm11.252103 7.078125c0-.5156275-.083984-.9843728-.251954-1.40625-.167969-.4218771-.38867-.7890609-.662109-1.1015624-.273439-.3125016-.593748-.5527336-.960937-.7207032-.36719-.1679696-.742186-.2519531-1.125-.2519531-.382815 0-.757811.0839835-1.125.2519531-.36719.1679696-.687499.4082016-.960938.7207032-.273439.3125015-.49414.6816384-.662109 1.1074218-.16797.4257834-.251953.8925756-.251953 1.4003906 0 .5156276.083983.9843729.251953 1.40625.167969.4218772.38867.789061.662109 1.1015626.273439.3125015.593748.5527335.960938.7207031.367189.1679696.742185.2519531 1.125.2519531.382814 0 .75781-.0839835 1.125-.2519531.367189-.1679696.687498-.4082016.960937-.7207031.273439-.3125016.49414-.6796854.662109-1.1015626.16797-.4218771.251954-.8906224.251954-1.40625zm2.15625 0c0 .8125041-.130859 1.5566373-.392579 2.2324219-.26172.6757847-.628904 1.2578101-1.101562 1.7460938-.472659.4882837-1.021481.8671861-1.646484 1.1367187-.625004.2695326-1.296872.4042969-2.015625.4042969-.718754 0-1.390622-.1347643-2.015625-.4042969-.625004-.2695326-1.173826-.648435-1.646485-1.1367187-.472658-.4882837-.839842-1.068356-1.101562-1.7402344s-.392578-1.4179646-.392578-2.2382813c0-.812504.130858-1.5546841.392578-2.2265624.26172-.6718784.628904-1.2519507 1.101562-1.7402344.472659-.4882837 1.021481-.8691393 1.646485-1.1425782.625003-.2734388 1.296871-.4101562 2.015625-.4101562.718753 0 1.390621.1367174 2.015625.4101562.625003.2734389 1.173825.6542945 1.646484 1.1425782.472658.4882837.839842 1.068356 1.101562 1.7402344.26172.6718783.392579 1.4140584.392579 2.2265624zm7.173977-5.5195312c.593753 0 1.154294.1171863 1.681641.3515625.527346.2343762.986326.5546855 1.376953.9609375s.699218.8964815.925781 1.4707031c.226564.5742216.339844 1.2089809.339844 1.9042969v6.234375h-2.15625v-6.234375c0-.3515643-.068359-.6874984-.205078-1.0078125-.13672-.3203141-.322265-.6015613-.556641-.84375s-.503904-.4355462-.808593-.5800781c-.30469-.144532-.624999-.2167969-.960938-.2167969-.367189 0-.710936.0722649-1.03125.2167969-.320314.1445319-.599608.3378894-.837891.5800781-.238282.2421887-.42578.5214828-.5625.8378906-.136719.3164079-.205078.6542951-.205078 1.0136719v6.234375h-2.15625v-10.8046875h1.558594l.480469 1.0898437c.210938-.2265636.45703-.4296866.738281-.609375.257814-.1406257.582029-.2753899.972656-.4042968s.859373-.1933594 1.40625-.1933594z" fill="#fff" fill-rule="nonzero"/></g></svg>