<svg height="449" viewBox="0 0 352 449" width="352" xmlns="http://www.w3.org/2000/svg"><g fill="none" fill-rule="evenodd"><path d="m0 0h352v449h-352z" fill="#44c2ff"/><g fill="#fff"><path d="m223 200h65v6h-65z"/><path d="m223 218h65v6h-65z"/><path d="m223 237h65v6h-65z"/><path d="m223 256h42v6h-42z"/></g><ellipse cx="139.28317" cy="169.485207" fill="#f22f2d" rx="39.485207" ry="39.28317" transform="matrix(0 1 -1 0 308.768377 30.202037)"/><path d="m138 265h-70c0-19.329966 15.6700338-35 35-35 19.329966 0 35 15.670034 35 35z" fill="#fff"/><path d="m176 265h-36c0-9.941125 8.058875-18 18-18s18 8.058875 18 18z" fill="#fff"/><path d="m106.885523 130.28519 40.170712 79.771045h-80.3414246z" fill="#4a40fd" transform="matrix(0 1 -1 0 277.056235 63.285189)"/><path d="m204.505155 128.656011c5.587425-2.356097 11.711028-3.656011 18.132049-3.656011 6.417981 0 12.538827 1.298684 18.124115 3.652667l-.000001.244442h-.003419l-18.126364 48.324154-18.126364-48.324154z" fill="#f22f2d"/><path d="m204.505155 128.897109h36.259566v49.103576h-36.259566z" fill="#f22f2d" transform="matrix(-1 0 0 -1 445.269876 306.897794)"/><path d="m204.505155 177.759587c5.587425-2.356097 11.711028-3.656011 18.132049-3.656011 6.417981 0 12.538827 1.298684 18.124115 3.652667l-.000001.244442h-.003419l-18.126364 48.324154-18.126364-48.324154z" fill="#ffc1c1"/><path d="m214.047146 202.820885c2.697236-1.176551 5.66333-1.827256 8.77702-1.827256 2.968114 0 5.802109.591282 8.396952 1.665693v.273509h-.00162l-8.586172 23.002297-8.586172-23.002297-.000008-.111949z" fill="#4a40fd"/><path d="m105.137429 149.310345 41.633616 20.965652-40.987443 20.640256c-3.93436-6.150572-6.2165917-13.470274-6.2165917-21.325761 0-7.414984 2.0334517-14.352587 5.5704187-20.280147z" fill="#1e179f"/><path d="m67.1171875 374.441406c0 .812504.1406236 1.562497.421875 2.25.2812514.687504.6503883 1.283201 1.1074219 1.78711.4570335.503908.9804658.896483 1.5703125 1.177734s1.1972625.421875 1.8222656.421875c.5781279 0 1.0996071-.083984 1.5644531-.251953.4648461-.16797.8730451-.400389 1.2246094-.697266.3515643-.296876.642577-.640623.8730469-1.03125s.4082025-.808591.5332031-1.253906h2.4023438c-.1796884.718754-.4609356 1.398434-.84375 2.039062-.3828145.640629-.8574191 1.20117-1.4238282 1.681641s-1.212887.859374-1.9394531 1.136719-1.5234332.416016-2.390625.416016c-.9609423 0-1.8769488-.195311-2.7480469-.585938s-1.6347623-.93359-2.2910156-1.628906-1.1796855-1.507808-1.5703125-2.4375-.5859375-1.937495-.5859375-3.023438c0-1.070318.1953105-2.074214.5859375-3.011718.390627-.937505.9140592-1.753903 1.5703125-2.449219s1.4199175-1.23828 2.2910156-1.628907c.8710981-.390626 1.7871046-.585937 2.7480469-.585937.8281291 0 1.603512.13867 2.3261719.416016.7226598.277345 1.3593722.656247 1.9101562 1.136718.550784.480472 1.0195293 1.041013 1.40625 1.681641s.6660148 1.320309.8378907 2.039062h-2.4023438c-.1250006-.445314-.3046863-.865232-.5390625-1.259765s-.5234358-.73828-.8671875-1.03125-.738279-.523437-1.1835937-.691406c-.4453148-.16797-.9414036-.251953-1.4882813-.251953-.6250031 0-1.2324189.13867-1.8222656.416015s-1.113279.667966-1.5703125 1.171875c-.4570336.503909-.8261705 1.101559-1.1074219 1.792969s-.421875 1.443355-.421875 2.255859zm20.7325715 2.15625c0-.515627-.0839835-.984373-.2519531-1.40625s-.3886705-.789061-.6621094-1.101562c-.2734389-.312502-.5937482-.552734-.9609375-.720703-.3671893-.16797-.7421856-.251953-1.125-.251953s-.7578107.083983-1.125.251953c-.3671893.167969-.6874986.408201-.9609375.720703-.2734389.312501-.4941398.681638-.6621094 1.107422-.1679696.425783-.2519531.892575-.2519531 1.40039 0 .515628.0839835.984373.2519531 1.40625s.3886705.789061.6621094 1.101563c.2734389.312501.5937482.552733.9609375.720703.3671893.167969.7421856.251953 1.125.251953s.7578107-.083984 1.125-.251953c.3671893-.16797.6874986-.408202.9609375-.720703.2734389-.312502.4941398-.679686.6621094-1.101563s.2519531-.890622.2519531-1.40625zm2.15625 0c0 .812504-.1308581 1.556637-.3925781 2.232422-.2617201.675785-.6289039 1.25781-1.1015625 1.746094s-1.0214813.867186-1.6464844 1.136719c-.6250031.269532-1.2968714.404297-2.015625.404297s-1.3906219-.134765-2.015625-.404297c-.6250031-.269533-1.1738258-.648435-1.6464844-1.136719s-.8398424-1.068356-1.1015625-1.740234c-.26172-.671879-.3925781-1.417965-.3925781-2.238282 0-.812504.1308581-1.554684.3925781-2.226562.2617201-.671879.6289039-1.251951 1.1015625-1.740235.4726586-.488283 1.0214813-.869139 1.6464844-1.142578s1.2968714-.410156 2.015625-.410156 1.3906219.136717 2.015625.410156 1.1738258.654295 1.6464844 1.142578c.4726586.488284.8398424 1.068356 1.1015625 1.740235.26172.671878.3925781 1.414058.3925781 2.226562zm7.1739778-5.519531c.5937529 0 1.1542942.117186 1.6816406.351563.5273464.234376.9863261.554685 1.3769536.960937.390626.406252.699217.896482.925781 1.470703.226563.574222.339844 1.208981.339844 1.904297v6.234375h-2.1562505v-6.234375c0-.351564-.0683587-.687498-.2050781-1.007813-.1367195-.320314-.3222645-.601561-.5566406-.84375-.2343762-.242188-.5039048-.435546-.8085938-.580078s-.6249983-.216796-.9609375-.216796c-.3671893 0-.7109359.072264-1.03125.216796s-.5996082.33789-.8378906.580078c-.2382825.242189-.4257806.521483-.5625.837891-.1367195.316408-.2050781.654295-.2050781 1.013672v6.234375h-2.15625v-10.804688h1.5585937l.4804688 1.089844c.2109385-.226563.4570298-.429686.7382812-.609375.2578138-.140625.5820293-.27539.9726563-.404297.3906269-.128907.8593722-.193359 1.40625-.193359zm9.9278842 7.324219c0 .476565.160154.874998.480469 1.195312.320314.320314.718747.480469 1.195312.480469.078125 0 .162109-.003906.251953-.011719.089844-.007812.173828-.019531.251953-.035156.078126-.015625.152344-.039062.222657-.070312v1.921874c-.093751.046876-.207031.085938-.339844.117188-.242189.078125-.527342.117188-.855469.117188-.476565 0-.91992-.08789-1.330078-.263672-.410158-.175783-.767577-.423827-1.072266-.744141s-.541015-.707029-.708984-1.160156c-.16797-.453128-.251953-.968747-.251953-1.546875v-5.167969h-1.921875v-2.039063h.84375c.414064 0 .757811-.134764 1.03125-.404296.273439-.269533.410156-.611326.410156-1.025391v-1.441406h1.792969v2.871093h2.402344v2.039063h-2.402344zm13.783353.480468c-.179689.445315-.406249.86328-.679688 1.253907s-.601561.734373-.984375 1.03125c-.382814.296876-.826169.529296-1.330078.697265-.503909.16797-1.068356.251954-1.693359.251954-.718754 0-1.390622-.134765-2.015625-.404297-.625004-.269533-1.171873-.648435-1.640625-1.136719-.468753-.488284-.835937-1.068356-1.101563-1.740234-.265626-.671879-.398437-1.417965-.398437-2.238282 0-.812504.132811-1.554684.398437-2.226562.265626-.671879.624998-1.251951 1.078125-1.740235.453127-.488283.988278-.869139 1.605469-1.142578.61719-.273439 1.269528-.410156 1.957031-.410156s1.339841.136717 1.957031.410156c.617191.273439 1.152342.654295 1.605469 1.142578.453127.488284.812499 1.068356 1.078125 1.740235.265626.671878.398438 1.414058.398438 2.226562 0 .125001-.007813.248047-.023438.369141s-.03125.224609-.046875.310547c-.015625.109375-.03125.203124-.046875.28125h-7.6875c.03125.335939.128905.656248.292969.960937.164063.304689.369139.572265.615234.802735s.541014.414061.884766.550781c.343751.136719.707029.205078 1.089844.205078.656253 0 1.177732-.140624 1.564453-.421875.38672-.281251.666014-.539061.83789-.773438zm-4.804688-5.765624c-.718754 0-1.326169.244138-1.822266.732421-.496096.488284-.810546 1.12695-.943359 1.916016h5.765625c-.125001-.781254-.443357-1.417966-.955078-1.910156s-1.193355-.738281-2.044922-.738281zm12.201322-2.039063c.593752 0 1.154294.117186 1.68164.351563.527347.234376.986326.554685 1.376953.960937s.699218.896482.925782 1.470703c.226563.574222.339843 1.208981.339843 1.904297v6.234375h-2.15625v-6.234375c0-.351564-.068358-.687498-.205078-1.007813-.136719-.320314-.322264-.601561-.55664-.84375-.234377-.242188-.503905-.435546-.808594-.580078s-.624999-.216796-.960938-.216796c-.367189 0-.710936.072264-1.03125.216796s-.599608.33789-.83789.580078c-.238283.242189-.425781.521483-.5625.837891-.13672.316408-.205078.654295-.205078 1.013672v6.234375h-2.15625v-10.804688h1.558593l.480469 1.089844c.210939-.226563.45703-.429686.738281-.609375.257814-.140625.58203-.27539.972657-.404297.390626-.128907.859372-.193359 1.40625-.193359zm9.927884 7.324219c0 .476565.160154.874998.480468 1.195312s.718748.480469 1.195313.480469c.078125 0 .162109-.003906.251953-.011719.089844-.007812.173828-.019531.251953-.035156s.152343-.039062.222656-.070312v1.921874c-.09375.046876-.20703.085938-.339843.117188-.242189.078125-.527343.117188-.855469.117188-.476565 0-.91992-.08789-1.330078-.263672-.410159-.175783-.767577-.423827-1.072266-.744141s-.541015-.707029-.708984-1.160156c-.16797-.453128-.251953-.968747-.251953-1.546875v-5.167969h-1.921875v-2.039063h.84375c.414064 0 .757811-.134764 1.03125-.404296.273438-.269533.410156-.611326.410156-1.025391v-1.441406h1.792969v2.871093h2.402343v2.039063h-2.402343zm11.219049.117187c.0625.476565.246092.855468.550781 1.136719s.761716.421875 1.371094.421875c.671878 0 1.160154-.126952 1.464844-.380859.304689-.253908.457031-.564452.457031-.931641 0-.320314-.14453-.564452-.433594-.732422-.289064-.167969-.646482-.308593-1.072266-.421875-.425783-.113282-.886716-.230468-1.382812-.351562-.496096-.121095-.955076-.292968-1.376953-.515625-.421877-.222658-.777343-.521483-1.066406-.896485-.289064-.375002-.433594-.882809-.433594-1.523437 0-.445315.087889-.865233.263672-1.259766.175782-.394533.423826-.740233.74414-1.037109.320314-.296877.708982-.529296 1.166016-.697266.457033-.167969.974606-.251953 1.552734-.251953 1.265632 0 2.224606.304684 2.876953.914063.652347.609378 1.013672 1.425776 1.083985 2.449218h-2.167969c-.0625-.367189-.242186-.679686-.539062-.9375-.296877-.257814-.714842-.386718-1.253907-.386718-.546877 0-.964842.124998-1.253906.375-.289064.250001-.433594.527342-.433594.832031 0 .320314.14453.564452.433594.732422.289064.167969.646482.30664 1.072266.416015.425783.109376.884763.224609 1.376953.345703.49219.121095.951169.292968 1.376953.515625.425783.222658.783202.523436 1.072266.902344.289063.378908.433593.888669.433593 1.529297 0 .960942-.343746 1.759762-1.03125 2.396484-.687503.636722-1.664056.955079-2.929687.955079-1.328132 0-2.324216-.312497-2.988281-.9375-.664066-.625004-1.027344-1.511714-1.089844-2.660157zm11.006009-.117187c0 .476565.160154.874998.480469 1.195312.320314.320314.718747.480469 1.195312.480469.078125 0 .162109-.003906.251953-.011719.089844-.007812.173828-.019531.251953-.035156.078126-.015625.152344-.039062.222657-.070312v1.921874c-.093751.046876-.207031.085938-.339844.117188-.242189.078125-.527342.117188-.855469.117188-.476565 0-.91992-.08789-1.330078-.263672-.410158-.175783-.767577-.423827-1.072266-.744141s-.541015-.707029-.708984-1.160156c-.16797-.453128-.251953-.968747-.251953-1.546875v-5.167969h-1.921875v-2.039063h.84375c.414064 0 .757811-.134764 1.03125-.404296.273439-.269533.410156-.611326.410156-1.025391v-1.441406h1.792969v2.871093h2.402344v2.039063h-2.402344zm9.447415-7.324219c.125001 0 .228515.007812.310547.023437.082032.015626.158203.03125.228516.046876l.1875.046874v2.167969c-.062501-.015625-.136719-.03125-.222657-.046875-.078125-.015625-.160156-.033203-.246093-.052734-.085938-.019531-.171875-.029297-.257813-.029297-.367189 0-.710936.072265-1.03125.216797s-.599608.337889-.837891.580078c-.238282.242189-.42578.523436-.5625.84375-.136719.320314-.205078.656248-.205078 1.007812v6.117188h-2.15625v-10.804688h1.558594l.480469 1.089844c.195313-.226563.42578-.429686.691406-.609375.226564-.140625.511717-.27539.855469-.404297.343751-.128907.746091-.193359 1.207031-.193359zm6.447415 0c.625003 0 1.197263.099608 1.716797.298828s.962889.470702 1.330078.814453c.36719.343752.652343.748045.855469 1.212891s.304688.9707.304688 1.517578v7.078125h-1.558594l-.480469-1.078125c-.210939.226564-.460936.42578-.75.597656-.257814.156251-.582029.294922-.972656.416016s-.859373.181641-1.40625.181641c-1.203131 0-2.123044-.298826-2.759766-.896485s-.955078-1.376948-.955078-2.337891c0-.546877.103515-1.041013.310547-1.482421.207032-.441409.562497-.816405 1.066406-1.125.503909-.308596 1.187496-.550781 2.050781-.726563.863286-.175782 1.958978-.263672 3.28711-.263672v-.363281c0-.546878-.171874-.984373-.515625-1.3125-.343752-.328127-.851559-.492187-1.523438-.492187-.718753 0-1.242186.128904-1.570312.386718-.328127.257814-.523437.570311-.585938.9375h-2.15625c.062501-.960942.46484-1.761715 1.207032-2.402344.742191-.640628 1.777337-.960937 3.105468-.960937zm-.832031 9.117187c.914067 0 1.621091-.234372 2.121094-.703124.500002-.468753.75-1.03906.75-1.710938v-.585938c-.960943 0-1.736325.044922-2.326172.134766s-1.052733.210937-1.388672.363281c-.335939.152345-.560546.339843-.673828.5625-.113282.222658-.169922.470702-.169922.744141 0 .304689.14453.580077.433594.826172s.707028.36914 1.253906.36914zm10.408353-1.792968c0 .476565.160154.874998.480469 1.195312.320314.320314.718747.480469 1.195312.480469.078125 0 .162109-.003906.251953-.011719.089844-.007812.173828-.019531.251953-.035156.078126-.015625.152344-.039062.222657-.070312v1.921874c-.093751.046876-.207031.085938-.339844.117188-.242189.078125-.527342.117188-.855469.117188-.476565 0-.91992-.08789-1.330078-.263672-.410158-.175783-.767577-.423827-1.072266-.744141s-.541015-.707029-.708984-1.160156c-.16797-.453128-.251953-.968747-.251953-1.546875v-5.167969h-1.921875v-2.039063h.84375c.414064 0 .757811-.134764 1.03125-.404296.273439-.269533.410156-.611326.410156-1.025391v-1.441406h1.792969v2.871093h2.402344v2.039063h-2.402344zm13.783353.480468c-.179689.445315-.406249.86328-.679688 1.253907s-.601561.734373-.984375 1.03125c-.382814.296876-.826169.529296-1.330078.697265-.503909.16797-1.068356.251954-1.693359.251954-.718754 0-1.390622-.134765-2.015625-.404297-.625004-.269533-1.171873-.648435-1.640625-1.136719-.468753-.488284-.835937-1.068356-1.101563-1.740234-.265626-.671879-.398437-1.417965-.398437-2.238282 0-.812504.132811-1.554684.398437-2.226562.265626-.671879.624998-1.251951 1.078125-1.740235.453127-.488283.988278-.869139 1.605469-1.142578.61719-.273439 1.269528-.410156 1.957031-.410156s1.339841.136717 1.957031.410156c.617191.273439 1.152342.654295 1.605469 1.142578.453127.488284.812499 1.068356 1.078125 1.740235.265626.671878.398438 1.414058.398438 2.226562 0 .125001-.007813.248047-.023438.369141s-.03125.224609-.046875.310547c-.015625.109375-.03125.203124-.046875.28125h-7.6875c.03125.335939.128905.656248.292969.960937.164063.304689.369139.572265.615234.802735s.541014.414061.884766.550781c.343751.136719.707029.205078 1.089844.205078.656253 0 1.177732-.140624 1.564453-.421875.38672-.281251.666014-.539061.83789-.773438zm-4.804688-5.765624c-.718754 0-1.326169.244138-1.822266.732421-.496096.488284-.810546 1.12695-.943359 1.916016h5.765625c-.125001-.781254-.443357-1.417966-.955078-1.910156s-1.193355-.738281-2.044922-.738281zm16.52554-1.921876v10.324219c0 .656254-.117186 1.263669-.351562 1.822266-.234376.558596-.562498 1.042967-.984375 1.453125s-.937497.726561-1.546875.949219c-.609378.222657-1.289059.333984-2.039063.333984-.656253 0-1.248044-.091796-1.77539-.275391-.527347-.183594-.986327-.427732-1.376953-.732422-.390627-.304689-.714843-.660154-.972657-1.066406s-.441405-.835935-.550781-1.289062h2.15625c.179688.367189.464842.699217.855469.996094.390627.296876.945309.445312 1.664062.445312.851567 0 1.525388-.244138 2.021485-.732422.496096-.488284.74414-1.123043.74414-1.904297v-1.078125c-.210938.226564-.460936.425781-.75.597656-.257814.156251-.57031.294922-.9375.416016-.367189.121094-.804685.181641-1.3125.181641-.656253 0-1.285153-.134765-1.886718-.404297-.601566-.269533-1.126951-.640623-1.576172-1.113281-.449221-.472659-.804687-1.029294-1.066407-1.669922s-.392578-1.335934-.392578-2.085938.130858-1.445309.392578-2.085937.617186-1.197264 1.066407-1.669922c.449221-.472659.974606-.845702 1.576172-1.119141.601565-.273439 1.230465-.410156 1.886718-.410156.546878 0 1.015623.064452 1.40625.193359s.710937.263672.960938.404297c.289064.179689.539061.382812.75.609375l.480469-1.089844zm-4.898437 8.402344c.382814 0 .753904-.083983 1.113281-.251953.359377-.167969.67578-.400389.949219-.697265.273439-.296877.49414-.640624.662109-1.03125.16797-.390627.251953-.808592.251953-1.253907 0-.445314-.083983-.865232-.251953-1.259765-.167969-.394534-.38867-.740233-.662109-1.03711-.273439-.296876-.593748-.529296-.960938-.697265-.367189-.16797-.742185-.251953-1.125-.251953-.382814 0-.75781.083983-1.125.251953-.367189.167969-.687498.400389-.960937.697265-.273439.296877-.49414.640623-.66211 1.03125-.167969.390627-.251953.812498-.251953 1.265625 0 .445315.083984.86328.251953 1.253907.16797.390626.392577.734373.673829 1.03125.281251.296876.60156.529296.960937.697265.359377.16797.738279.251953 1.136719.251953zm6.295071-8.402344h2.285157l3 7.804688 3-7.804688h2.285156l-4.570313 11.519532c-.242188.609378-.478514 1.119138-.708984 1.529297-.23047.410158-.480468.742186-.75.996093-.269533.253908-.568358.4375-.896484.550782-.328127.113281-.699217.169922-1.113282.169922-.09375 0-.18164-.003907-.263672-.011719-.082031-.007813-.162109-.019531-.240234-.035157-.078125-.015625-.152343-.039062-.222656-.070312v-1.804688c.609378 0 1.070311-.126951 1.382812-.380859.312502-.253907.53125-.568357.65625-.943359l.363282-1.078125z" fill="#fff" fill-rule="nonzero"/></g></svg>