<svg height="543" viewBox="0 0 394 543" width="394" xmlns="http://www.w3.org/2000/svg"><g fill="none" fill-rule="evenodd"><path d="m0 0h394v543h-394z" fill="#4a40fd"/><path d="m254 56h45v45h-45z" fill="#251db3"/><path d="m247 197 29-29 29 29-29 29z" fill="#ffd753"/><circle cx="177" cy="193" fill="#f2093d" r="27"/><circle cx="319" cy="274" fill="#44c2ff" r="27"/><g stroke="#fff" stroke-width="3"><path d="m177.5 142.5h-.5.5v-.5zm0 0v17-17h99z"/><path d="m261 182.5h117" transform="matrix(0 1 -1 0 502 -137)"/><path d="m276.5 108v17.5z"/><path d="m225.5 125.5v-.5.5h-1zm0 0h94-94v17z"/><path d="m267.5 151h19" transform="matrix(0 1 -1 0 427.5 -126.5)"/></g><path d="m65.078125 470h-2.2734375v-15.117188h2.2734375zm8.1231965-10.921875c.593753 0 1.1542942.117186 1.6816406.351563.5273464.234376.9863262.554685 1.3769532.960937.3906269.406252.6992176.896482.9257812 1.470703.2265636.574222.3398438 1.208981.3398438 1.904297v6.234375h-2.15625v-6.234375c0-.351564-.0683587-.687498-.2050782-1.007813-.1367194-.320314-.3222644-.601561-.5566406-.84375-.2343762-.242188-.5039047-.435546-.8085937-.580078-.3046891-.144532-.6249984-.216796-.9609375-.216796-.3671894 0-.7109359.072264-1.03125.216796-.3203142.144532-.5996082.33789-.8378907.580078-.2382824.242189-.4257805.521483-.5625.837891-.1367194.316408-.2050781.654295-.2050781 1.013672v6.234375h-2.15625v-10.804688h1.5585938l.4804687 1.089844c.2109386-.226563.4570298-.429686.7382813-.609375.2578137-.140625.5820292-.27539.9726562-.404297s.8593723-.193359 1.40625-.193359zm11.7325715 2.15625h-2.4023438v8.765625h-2.15625v-8.765625h-1.3242187v-2.039063h1.3242187v-.714843c0-.578128.0839836-1.095701.2519532-1.552735.1679696-.457033.4023422-.843748.703125-1.160156.3007827-.316408.6562479-.562499 1.0664062-.738281s.8535133-.263672 1.3300781-.263672c.1796884 0 .3417962.011719.4863282.035156.1445319.023438.2714838.050781.3808593.082031.1250007.046876.2382808.085938.3398438.117188v1.921875c-.0625003-.015625-.1367183-.03125-.2226563-.046875-.0781253-.015625-.1601558-.03125-.2460937-.046875s-.1718746-.023437-.2578125-.023437c-.4765649 0-.8749984.160154-1.1953125.480468s-.4804688.718748-.4804688 1.195313v.714843h2.4023438zm9.2013215 3.363281c0-.515627-.0839835-.984373-.2519531-1.40625s-.3886705-.789061-.6621094-1.101562c-.2734389-.312502-.5937482-.552734-.9609375-.720703-.3671893-.16797-.7421856-.251953-1.125-.251953s-.7578107.083983-1.125.251953c-.3671893.167969-.6874986.408201-.9609375.720703-.2734389.312501-.4941398.681638-.6621094 1.107422-.1679696.425783-.2519531.892575-.2519531 1.40039 0 .515628.0839835.984373.2519531 1.40625s.3886705.789061.6621094 1.101563c.2734389.312501.5937482.552733.9609375.720703.3671893.167969.7421856.251953 1.125.251953s.7578107-.083984 1.125-.251953c.3671893-.16797.6874986-.408202.9609375-.720703.2734389-.312502.4941398-.679686.6621094-1.101563s.2519531-.890622.2519531-1.40625zm2.15625 0c0 .812504-.1308581 1.556637-.3925781 2.232422-.2617201.675785-.6289039 1.25781-1.1015625 1.746094s-1.0214813.867186-1.6464844 1.136719c-.6250031.269532-1.2968714.404297-2.015625.404297s-1.3906219-.134765-2.015625-.404297c-.6250031-.269533-1.1738258-.648435-1.6464844-1.136719s-.8398424-1.068356-1.1015625-1.740234c-.26172-.671879-.3925781-1.417965-.3925781-2.238282 0-.812504.1308581-1.554684.3925781-2.226562.2617201-.671879.6289039-1.251951 1.1015625-1.740235.4726586-.488283 1.0214813-.869139 1.6464844-1.142578s1.2968714-.410156 2.015625-.410156 1.3906219.136717 2.015625.410156 1.1738258.654295 1.6464844 1.142578c.4726586.488284.8398424 1.068356 1.1015625 1.740235.26172.671878.3925781 1.414058.3925781 2.226562zm6.8106965-5.519531c.125001 0 .228515.007812.310547.023437.082032.015626.158203.03125.228515.046876l.1875.046874v2.167969c-.0625-.015625-.136718-.03125-.222656-.046875-.078125-.015625-.160156-.033203-.246094-.052734-.085937-.019531-.171874-.029297-.257812-.029297-.367189 0-.710936.072265-1.03125.216797s-.599608.337889-.837891.580078c-.238282.242189-.42578.523436-.5625.84375-.136719.320314-.205078.656248-.205078 1.007812v6.117188h-2.1562498v-10.804688h1.5585938l.480469 1.089844c.195313-.226563.42578-.429686.691406-.609375.226564-.140625.511717-.27539.855469-.404297.343751-.128907.746091-.193359 1.207031-.193359zm13.291165 0c.515628 0 .996092.099608 1.441407.298828.445314.19922.835935.492186 1.171875.878906.335939.386721.603514.855466.802734 1.40625s.298828 1.169919.298828 1.857422v6.480469h-2.15625v-6.480469c0-.718753-.205076-1.298826-.615234-1.740234-.410159-.441409-.884763-.662109-1.423828-.662109-.546878 0-1.023436.2207-1.429688.662109-.406252.441408-.609375 1.021481-.609375 1.740234v6.480469h-2.167969v-6.480469c0-.718753-.203123-1.298826-.609375-1.740234-.406252-.441409-.88281-.662109-1.429687-.662109-.546878 0-1.023436.2207-1.429688.662109-.406252.441408-.609375 1.021481-.609375 1.740234v6.480469h-2.15625v-10.804688h1.558594l.480469 1.089844c.195313-.226563.42578-.429686.691406-.609375.226564-.140625.503905-.27539.832031-.404297.328127-.128907.699217-.193359 1.113282-.193359.515627 0 .957029.08789 1.324218.263672.36719.175782.679686.369139.9375.580078.289064.257814.535155.539061.738282.84375l.210937-.257813c.132813-.164063.335936-.355467.609375-.574218s.609373-.416015 1.007813-.591797c.398439-.175782.871091-.263672 1.417968-.263672zm10.525541 0c.625003 0 1.197263.099608 1.716796.298828.519534.19922.962889.470702 1.330079.814453.367189.343752.652342.748045.855468 1.212891s.304688.9707.304688 1.517578v7.078125h-1.558594l-.480469-1.078125c-.210938.226564-.460936.42578-.75.597656-.257814.156251-.582029.294922-.972656.416016s-.859372.181641-1.40625.181641c-1.203131 0-2.123044-.298826-2.759766-.896485s-.955078-1.376948-.955078-2.337891c0-.546877.103515-1.041013.310547-1.482421.207032-.441409.562498-.816405 1.066406-1.125.503909-.308596 1.187496-.550781 2.050782-.726563.863285-.175782 1.958977-.263672 3.287109-.263672v-.363281c0-.546878-.171873-.984373-.515625-1.3125s-.851559-.492187-1.523437-.492187c-.718754 0-1.242186.128904-1.570313.386718s-.523437.570311-.585937.9375h-2.15625c.0625-.960942.46484-1.761715 1.207031-2.402344.742191-.640628 1.777337-.960937 3.105469-.960937zm-.832032 9.117187c.914067 0 1.621092-.234372 2.121094-.703124.500003-.468753.75-1.03906.75-1.710938v-.585938c-.960942 0-1.736325.044922-2.326172.134766s-1.052733.210937-1.388672.363281c-.335939.152345-.560546.339843-.673828.5625-.113282.222658-.169922.470702-.169922.744141 0 .304689.14453.580077.433594.826172s.707029.36914 1.253906.36914zm10.408353-1.792968c0 .476565.160155.874998.480469 1.195312s.718747.480469 1.195312.480469c.078126 0 .162109-.003906.251953-.011719.089845-.007812.173828-.019531.251953-.035156.078126-.015625.152344-.039062.222657-.070312v1.921874c-.093751.046876-.207031.085938-.339844.117188-.242189.078125-.527342.117188-.855469.117188-.476565 0-.91992-.08789-1.330078-.263672-.410158-.175783-.767576-.423827-1.072266-.744141-.304689-.320314-.541014-.707029-.708984-1.160156-.167969-.453128-.251953-.968747-.251953-1.546875v-5.167969h-1.921875v-2.039063h.84375c.414065 0 .757811-.134764 1.03125-.404296.273439-.269533.410156-.611326.410156-1.025391v-1.441406h1.792969v2.871093h2.402344v2.039063h-2.402344zm6.810696 3.597656h-2.15625v-10.804688h2.15625zm-1.078125-12.480469c-.367189 0-.679686-.126952-.9375-.380859-.257813-.253908-.386718-.568358-.386718-.94336 0-.367189.128905-.677733.386718-.93164.257814-.253908.570311-.38086.9375-.38086.36719 0 .679687.126952.9375.38086.257814.253907.386719.564451.386719.93164 0 .36719-.128905.679687-.386719.9375-.257813.257814-.57031.386719-.9375.386719zm11.252103 7.078125c0-.515627-.083983-.984373-.251953-1.40625-.167969-.421877-.38867-.789061-.662109-1.101562-.273439-.312502-.593748-.552734-.960938-.720703-.367189-.16797-.742185-.251953-1.125-.251953-.382814 0-.75781.083983-1.125.251953-.367189.167969-.687498.408201-.960937.720703-.273439.312501-.49414.681638-.66211 1.107422-.167969.425783-.251953.892575-.251953 1.40039 0 .515628.083984.984373.251953 1.40625.16797.421877.388671.789061.66211 1.101563.273439.312501.593748.552733.960937.720703.36719.167969.742186.251953 1.125.251953.382815 0 .757811-.083984 1.125-.251953.36719-.16797.687499-.408202.960938-.720703.273439-.312502.49414-.679686.662109-1.101563.16797-.421877.251953-.890622.251953-1.40625zm2.15625 0c0 .812504-.130858 1.556637-.392578 2.232422s-.628904 1.25781-1.101562 1.746094c-.472659.488284-1.021482.867186-1.646485 1.136719-.625003.269532-1.296871.404297-2.015625.404297-.718753 0-1.390622-.134765-2.015625-.404297-.625003-.269533-1.173826-.648435-1.646484-1.136719-.472659-.488284-.839843-1.068356-1.101563-1.740234-.26172-.671879-.392578-1.417965-.392578-2.238282 0-.812504.130858-1.554684.392578-2.226562.26172-.671879.628904-1.251951 1.101563-1.740235.472658-.488283 1.021481-.869139 1.646484-1.142578s1.296872-.410156 2.015625-.410156c.718754 0 1.390622.136717 2.015625.410156s1.173826.654295 1.646485 1.142578c.472658.488284.839842 1.068356 1.101562 1.740235.26172.671878.392578 1.414058.392578 2.226562zm7.173978-5.519531c.593753 0 1.154294.117186 1.681641.351563.527346.234376.986326.554685 1.376953.960937s.699217.896482.925781 1.470703c.226564.574222.339844 1.208981.339844 1.904297v6.234375h-2.15625v-6.234375c0-.351564-.068359-.687498-.205078-1.007813-.13672-.320314-.322265-.601561-.556641-.84375-.234376-.242188-.503905-.435546-.808594-.580078s-.624998-.216796-.960937-.216796c-.36719 0-.710936.072264-1.03125.216796s-.599608.33789-.837891.580078c-.238282.242189-.42578.521483-.5625.837891-.136719.316408-.205078.654295-.205078 1.013672v6.234375h-2.15625v-10.804688h1.558594l.480469 1.089844c.210938-.226563.457029-.429686.738281-.609375.257814-.140625.582029-.27539.972656-.404297s.859372-.193359 1.40625-.193359zm-96.1733712 27c.6250031 0 1.197263.099608 1.7167968.298828.5195339.19922.9628888.470702 1.3300782.814453.3671893.343752.6523427.748045.8554687 1.212891s.3046875.9707.3046875 1.517578v7.078125h-1.5585938l-.4804687-1.078125c-.2109386.226564-.4609361.42578-.75.597656-.2578138.156251-.5820293.294922-.9726563.416016-.3906269.121094-.8593722.181641-1.40625.181641-1.203131 0-2.1230436-.298826-2.7597656-.896485-.6367219-.597659-.9550781-1.376948-.9550781-2.337891 0-.546877.1035146-1.041013.3105469-1.482421.2070323-.441409.5624975-.816405 1.0664062-1.125.5039088-.308596 1.1874957-.550781 2.0507813-.726563.8632855-.175782 1.9589777-.263672 3.2871093-.263672v-.363281c0-.546878-.1718732-.984373-.515625-1.3125-.3437517-.328127-.8515591-.492187-1.5234374-.492187-.7187536 0-1.2421859.128904-1.5703126.386718-.3281266.257814-.5234371.570311-.5859374.9375h-2.15625c.0625003-.960942.46484-1.761715 1.2070312-2.402344.7421912-.640628 1.7773371-.960937 3.1054688-.960937zm-.8320313 9.117187c.9140671 0 1.6210913-.234372 2.1210937-.703124.5000025-.468753.75-1.03906.75-1.710938v-.585938c-.9609423 0-1.7363251.044922-2.3261718.134766s-1.0527327.210937-1.3886719.363281c-.3359392.152345-.5605463.339843-.6738281.5625-.1132818.222658-.1699219.470702-.1699219.744141 0 .304689.1445298.580077.4335937.826172.289064.246095.7070286.36914 1.2539063.36914zm12.318509-9.117187c.1250006 0 .2285152.007812.3105469.023437.0820316.015626.1582027.03125.2285156.046876l.1875.046874v2.167969c-.0625003-.015625-.1367183-.03125-.2226562-.046875-.0781254-.015625-.1601559-.033203-.2460938-.052734s-.1718746-.029297-.2578125-.029297c-.3671893 0-.7109359.072265-1.03125.216797s-.5996082.337889-.8378906.580078c-.2382825.242189-.4257806.523436-.5625.84375-.1367195.320314-.2050781.656248-.2050781 1.007812v6.117188h-2.15625v-10.804688h1.5585937l.4804688 1.089844c.1953134-.226563.4257799-.429686.6914062-.609375.2265636-.140625.511717-.27539.8554688-.404297.3437517-.128907.7460914-.193359 1.2070312-.193359zm11.615384 6.960937c-.1250006.578128-.3242174 1.115232-.5976563 1.611329-.2734388.496096-.6191385.927732-1.0371093 1.294921-.4179709.36719-.8945286.654296-1.4296875.861329-.535159.207032-1.1152313.310547-1.7402344.310547-.7187536 0-1.3906219-.134765-2.015625-.404297-.6250031-.269533-1.1738258-.648435-1.6464844-1.136719s-.8398424-1.068356-1.1015625-1.740234c-.26172-.671879-.3925781-1.417965-.3925781-2.238282 0-.812504.1308581-1.554684.3925781-2.226562.2617201-.671879.6289039-1.251951 1.1015625-1.740235.4726586-.488283 1.0214813-.869139 1.6464844-1.142578s1.2968714-.410156 2.015625-.410156c.6250031 0 1.2050754.103515 1.7402344.310547.5351589.207032 1.0117166.496092 1.4296875.867187.4179708.371096.7617174.804685 1.03125 1.300782.2695326.496096.4707024 1.029294.6035156 1.599609h-2.2851563c-.1796883-.609378-.4765604-1.101561-.890625-1.476562-.4140645-.375002-.9570278-.5625-1.6289062-.5625-.3828144 0-.7578107.083983-1.125.251953-.3671893.167969-.6874986.408201-.9609375.720703-.2734389.312501-.4941398.681638-.6621094 1.107422-.1679696.425783-.2519531.892575-.2519531 1.40039 0 .515628.0839835.984373.2519531 1.40625s.3886705.789061.6621094 1.101563c.2734389.312501.5937482.552733.9609375.720703.3671893.167969.7421856.251953 1.125.251953.6718784 0 1.2167948-.187498 1.6347656-.5625.4179709-.375002.7128898-.867184.8847656-1.476563zm7.162259-6.960937c.593753 0 1.1542942.117186 1.6816406.351563.5273464.234376.9882793.554685 1.3828125.960937.3945334.406252.7031244.896482.9257814 1.470703.222657.574222.333984 1.208981.333984 1.904297v6.234375h-2.1562497v-6.234375c0-.351564-.0683587-.687498-.2050782-1.007813-.1367194-.320314-.3203113-.601561-.5507812-.84375-.2304699-.242188-.4980454-.435546-.8027344-.580078s-.6249983-.216796-.9609375-.216796c-.3671893 0-.7109359.072264-1.03125.216796s-.6015613.33789-.84375.580078c-.2421887.242189-.4316399.521483-.5683594.837891-.1367194.316408-.2050781.654295-.2050781 1.013672v6.234375h-2.15625v-15.117188h2.15625v5.402344c.2265636-.226563.4843736-.429686.7734375-.609375.2578138-.140625.5742169-.27539.9492188-.404297.3750018-.128907.8007788-.193359 1.2773437-.193359zm8.9669465 10.921875h-2.15625v-10.804688h2.15625zm-1.078125-12.480469c-.367189 0-.679686-.126952-.9375-.380859-.257814-.253908-.386719-.568358-.386719-.94336 0-.367189.128905-.677733.386719-.93164.257814-.253908.570311-.38086.9375-.38086s.679686.126952.9375.38086c.257814.253907.386719.564451.386719.93164 0 .36719-.128905.679687-.386719.9375-.257814.257814-.570311.386719-.9375.386719zm6.810697 8.882813c0 .476565.160154.874998.480468 1.195312s.718748.480469 1.195313.480469c.078125 0 .162109-.003906.251953-.011719.089844-.007812.173828-.019531.251953-.035156s.152343-.039062.222656-.070312v1.921874c-.09375.046876-.20703.085938-.339843.117188-.242189.078125-.527343.117188-.855469.117188-.476565 0-.91992-.08789-1.330078-.263672-.410159-.175783-.767577-.423827-1.072266-.744141s-.541015-.707029-.708984-1.160156c-.16797-.453128-.251953-.968747-.251953-1.546875v-5.167969h-1.921875v-2.039063h.84375c.414064 0 .757811-.134764 1.03125-.404296.273438-.269533.410156-.611326.410156-1.025391v-1.441406h1.792969v2.871093h2.402343v2.039063h-2.402343zm13.783352.480468c-.179688.445315-.406248.86328-.679687 1.253907s-.601561.734373-.984375 1.03125c-.382815.296876-.82617.529296-1.330078.697265-.503909.16797-1.068357.251954-1.69336.251954-.718753 0-1.390622-.134765-2.015625-.404297-.625003-.269533-1.171872-.648435-1.640625-1.136719-.468752-.488284-.835936-1.068356-1.101562-1.740234-.265627-.671879-.398438-1.417965-.398438-2.238282 0-.812504.132811-1.554684.398438-2.226562.265626-.671879.624997-1.251951 1.078125-1.740235.453127-.488283.988278-.869139 1.605469-1.142578.61719-.273439 1.269527-.410156 1.957031-.410156.687503 0 1.33984.136717 1.957031.410156s1.152341.654295 1.605469 1.142578c.453127.488284.812498 1.068356 1.078125 1.740235.265626.671878.398437 1.414058.398437 2.226562 0 .125001-.007812.248047-.023437.369141s-.03125.224609-.046875.310547c-.015625.109375-.03125.203124-.046875.28125h-7.6875c.03125.335939.128905.656248.292969.960937.164063.304689.369139.572265.615234.802735s.541014.414061.884766.550781c.343751.136719.707029.205078 1.089843.205078.656254 0 1.177733-.140624 1.564453-.421875.386721-.281251.666015-.539061.837891-.773438zm-4.804687-5.765624c-.718754 0-1.32617.244138-1.822266.732421-.496096.488284-.810546 1.12695-.943359 1.916016h5.765625c-.125001-.781254-.443357-1.417966-.955078-1.910156-.511722-.49219-1.193355-.738281-2.044922-.738281zm16.408352 4.921874c-.125.578128-.324217 1.115232-.597656 1.611329-.273439.496096-.619138.927732-1.037109 1.294921-.417971.36719-.894529.654296-1.429688.861329-.535159.207032-1.115231.310547-1.740234.310547-.718754 0-1.390622-.134765-2.015625-.404297-.625003-.269533-1.173826-.648435-1.646484-1.136719-.472659-.488284-.839843-1.068356-1.101563-1.740234-.26172-.671879-.392578-1.417965-.392578-2.238282 0-.812504.130858-1.554684.392578-2.226562.26172-.671879.628904-1.251951 1.101563-1.740235.472658-.488283 1.021481-.869139 1.646484-1.142578s1.296871-.410156 2.015625-.410156c.625003 0 1.205075.103515 1.740234.310547s1.011717.496092 1.429688.867187c.417971.371096.761717.804685 1.03125 1.300782.269532.496096.470702 1.029294.603515 1.599609h-2.285156c-.179688-.609378-.47656-1.101561-.890625-1.476562-.414064-.375002-.957028-.5625-1.628906-.5625-.382814 0-.757811.083983-1.125.251953-.367189.167969-.687499.408201-.960938.720703-.273438.312501-.494139.681638-.662109 1.107422-.167969.425783-.251953.892575-.251953 1.40039 0 .515628.083984.984373.251953 1.40625.16797.421877.388671.789061.662109 1.101563.273439.312501.593749.552733.960938.720703.367189.167969.742186.251953 1.125.251953.671878 0 1.216795-.187498 1.634766-.5625.41797-.375002.712889-.867184.884765-1.476563zm5.006009.363282c0 .476565.160155.874998.480469 1.195312s.718748.480469 1.195313.480469c.078125 0 .162109-.003906.251953-.011719.089844-.007812.173828-.019531.251953-.035156s.152343-.039062.222656-.070312v1.921874c-.09375.046876-.20703.085938-.339844.117188-.242188.078125-.527342.117188-.855468.117188-.476565 0-.91992-.08789-1.330078-.263672-.410159-.175783-.767577-.423827-1.072266-.744141s-.541015-.707029-.708984-1.160156c-.16797-.453128-.251954-.968747-.251954-1.546875v-5.167969h-1.921875v-2.039063h.84375c.414065 0 .757812-.134764 1.03125-.404296.273439-.269533.410157-.611326.410157-1.025391v-1.441406h1.792968v2.871093h2.402344v2.039063h-2.402344zm8.861478 3.714844c-.609378 0-1.173825-.115234-1.693359-.345704s-.976561-.550779-1.371094-.960937-.703124-.902341-.925781-1.476563c-.222657-.574221-.333985-1.205074-.333985-1.892578v-6.246094h2.15625v6.246094c0 .36719.068359.710936.205079 1.03125.136719.320314.320311.599608.550781.837891.23047.238282.498045.42578.802734.5625.304689.136719.624999.205078.960938.205078.351564 0 .687498-.068359 1.007812-.205078.320314-.13672.601562-.324218.84375-.5625.242189-.238283.435546-.517577.580078-.837891s.216797-.66406.216797-1.03125v-6.246094h2.15625v10.804688h-1.558594l-.480468-1.078125c-.210939.226564-.460936.42578-.75.597656-.257814.156251-.580076.294922-.966797.416016s-.853513.181641-1.400391.181641zm12.552884-11.039063c.125001 0 .228515.007812.310547.023437.082032.015626.158203.03125.228516.046876l.1875.046874v2.167969c-.062501-.015625-.136719-.03125-.222656-.046875-.078126-.015625-.160156-.033203-.246094-.052734s-.171875-.029297-.257813-.029297c-.367189 0-.710936.072265-1.03125.216797s-.599608.337889-.83789.580078c-.238283.242189-.425781.523436-.5625.84375-.13672.320314-.205078.656248-.205078 1.007812v6.117188h-2.15625v-10.804688h1.558593l.480469 1.089844c.195313-.226563.42578-.429686.691406-.609375.226564-.140625.511717-.27539.855469-.404297s.746091-.193359 1.207031-.193359zm11.615384 7.804687c-.179688.445315-.406248.86328-.679687 1.253907s-.601561.734373-.984375 1.03125c-.382815.296876-.82617.529296-1.330078.697265-.503909.16797-1.068357.251954-1.69336.251954-.718753 0-1.390622-.134765-2.015625-.404297-.625003-.269533-1.171872-.648435-1.640625-1.136719-.468752-.488284-.835936-1.068356-1.101562-1.740234-.265627-.671879-.398438-1.417965-.398438-2.238282 0-.812504.132811-1.554684.398438-2.226562.265626-.671879.624997-1.251951 1.078125-1.740235.453127-.488283.988278-.869139 1.605469-1.142578.61719-.273439 1.269527-.410156 1.957031-.410156.687503 0 1.33984.136717 1.957031.410156s1.152341.654295 1.605469 1.142578c.453127.488284.812498 1.068356 1.078125 1.740235.265626.671878.398437 1.414058.398437 2.226562 0 .125001-.007812.248047-.023437.369141s-.03125.224609-.046875.310547c-.015625.109375-.03125.203124-.046875.28125h-7.6875c.03125.335939.128905.656248.292969.960937.164063.304689.369139.572265.615234.802735s.541014.414061.884766.550781c.343751.136719.707029.205078 1.089843.205078.656254 0 1.177733-.140624 1.564453-.421875.386721-.281251.666015-.539061.837891-.773438zm-4.804687-5.765624c-.718754 0-1.32617.244138-1.822266.732421-.496096.488284-.810546 1.12695-.943359 1.916016h5.765625c-.125001-.781254-.443357-1.417966-.955078-1.910156-.511722-.49219-1.193355-.738281-2.044922-.738281zm13.844049 3.480468c0 1.296882.148436 2.490229.445313 3.580078.296876 1.08985.628904 2.041012.996093 2.853516.414065.945317.894529 1.800777 1.441407 2.566406l-1.558594 1.078125c-.625003-.812504-1.183592-1.738276-1.675781-2.777343-.414065-.898442-.798827-1.962885-1.154297-3.19336-.355471-1.230475-.533203-2.599602-.533203-4.107422s.177732-2.876947.533203-4.107422c.35547-1.230475.740232-2.291011 1.154297-3.18164.492189-1.039068 1.050778-1.968746 1.675781-2.789063l1.558594 1.078125c-.546878.765629-1.027342 1.621089-1.441407 2.566406-.367189.812505-.699217 1.763667-.996093 2.853516-.296877 1.089849-.445313 2.283197-.445313 3.580078zm7.173978 5.402344h-2.273438v-15.117188h2.273438zm3.927884 0h-2.402344l5.765625-15.117188h1.910156l5.765625 15.117188h-2.402343l-1.324219-3.480469h-6zm6.480469-5.636719-2.167969-6-2.15625 6zm7.642727.234375c0-1.296881-.148436-2.488276-.445312-3.574218-.296877-1.085943-.628905-2.039059-.996094-2.859376-.414065-.945317-.894529-1.800777-1.441406-2.566406l1.558594-1.078125c.625003.812504 1.183591 1.742183 1.675781 2.789063.414064.898442.798826 1.962884 1.154297 3.193359.35547 1.230475.533203 2.595696.533203 4.095703 0 1.50782-.17578 2.876947-.527344 4.107422s-.738279 2.294918-1.160156 3.19336c-.49219 1.039067-1.050778 1.964839-1.675781 2.777343l-1.558594-1.078125c.546877-.765629 1.027341-1.621089 1.441406-2.566406.367189-.812504.699217-1.763666.996094-2.853516.296876-1.089849.445312-2.283196.445312-3.580078z" fill="#fff" fill-rule="nonzero"/></g></svg>