<svg height="543" viewBox="0 0 394 543" width="394" xmlns="http://www.w3.org/2000/svg"><g fill="none" fill-rule="evenodd"><path d="m0 0h394v543h-394z" fill="#4a40fd"/><path d="m65.4023438 454h-2.4023438l5.765625-15.117188h1.9101562l5.765625 15.117188h-2.4023437l-1.3242187-3.480469h-6zm6.4804687-5.636719-2.1679687-6-2.15625 6zm15.084134 1.675781c-.1250006.578128-.3242174 1.115232-.5976562 1.611329-.2734389.496096-.6191386.927732-1.0371094 1.294921-.4179709.36719-.8945286.654296-1.4296875.861329-.535159.207032-1.1152313.310547-1.7402344.310547-.7187536 0-1.3906219-.134765-2.015625-.404297-.6250031-.269533-1.1738258-.648435-1.6464844-1.136719s-.8398424-1.068356-1.1015625-1.740234c-.26172-.671879-.3925781-1.417965-.3925781-2.238282 0-.812504.1308581-1.554684.3925781-2.226562.2617201-.671879.6289039-1.251951 1.1015625-1.740235.4726586-.488283 1.0214813-.869139 1.6464844-1.142578s1.2968714-.410156 2.015625-.410156c.6250031 0 1.2050754.103515 1.7402344.310547.5351589.207032 1.0117166.496092 1.4296875.867187.4179708.371096.7617174.804685 1.03125 1.300782.2695326.496096.4707024 1.029294.6035156 1.599609h-2.2851562c-.1796884-.609378-.4765605-1.101561-.890625-1.476562-.4140646-.375002-.9570279-.5625-1.6289063-.5625-.3828144 0-.7578107.083983-1.125.251953-.3671893.167969-.6874986.408201-.9609375.720703-.2734389.312501-.4941398.681638-.6621094 1.107422-.1679696.425783-.2519531.892575-.2519531 1.40039 0 .515628.0839835.984373.2519531 1.40625s.3886705.789061.6621094 1.101563c.2734389.312501.5937482.552733.9609375.720703.3671893.167969.7421856.251953 1.125.251953.6718784 0 1.2167948-.187498 1.6347656-.5625.4179709-.375002.7128898-.867184.8847657-1.476563zm11.2521027 0c-.1250006.578128-.3242173 1.115232-.5976562 1.611329-.2734389.496096-.6191385.927732-1.0371094 1.294921-.4179708.36719-.8945285.654296-1.4296875.861329-.5351589.207032-1.1152312.310547-1.7402344.310547-.7187535 0-1.3906218-.134765-2.015625-.404297-.6250031-.269533-1.1738257-.648435-1.6464843-1.136719s-.8398425-1.068356-1.1015625-1.740234c-.2617201-.671879-.3925782-1.417965-.3925782-2.238282 0-.812504.1308581-1.554684.3925782-2.226562.26172-.671879.6289039-1.251951 1.1015625-1.740235.4726586-.488283 1.0214812-.869139 1.6464843-1.142578.6250032-.273439 1.2968715-.410156 2.015625-.410156.6250032 0 1.2050755.103515 1.7402344.310547.535159.207032 1.0117167.496092 1.4296875.867187.4179709.371096.7617174.804685 1.03125 1.300782.2695326.496096.4707025 1.029294.6035156 1.599609h-2.2851562c-.1796884-.609378-.4765604-1.101561-.890625-1.476562-.4140646-.375002-.9570279-.5625-1.6289063-.5625-.3828144 0-.7578106.083983-1.125.251953-.3671893.167969-.6874986.408201-.9609375.720703-.2734388.312501-.4941397.681638-.6621093 1.107422-.1679696.425783-.2519532.892575-.2519532 1.40039 0 .515628.0839836.984373.2519532 1.40625s.3886705.789061.6621093 1.101563c.2734389.312501.5937482.552733.9609375.720703.3671894.167969.7421856.251953 1.125.251953.6718784 0 1.2167948-.187498 1.6347657-.5625.4179708-.375002.7128897-.867184.8847656-1.476563zm6.2130408 4.078126c-.609379 0-1.173826-.115234-1.69336-.345704s-.97656-.550779-1.371094-.960937c-.394533-.410158-.703124-.902341-.925781-1.476563-.222657-.574221-.333984-1.205074-.333984-1.892578v-6.246094h2.15625v6.246094c0 .36719.068358.710936.205078 1.03125.136719.320314.320311.599608.550781.837891.23047.238282.498045.42578.802735.5625.304689.136719.624998.205078.960937.205078.351564 0 .687498-.068359 1.007813-.205078.320314-.13672.601561-.324218.84375-.5625.242188-.238283.435546-.517577.580078-.837891s.216797-.66406.216797-1.03125v-6.246094h2.15625v10.804688h-1.558594l-.480469-1.078125c-.210939.226564-.460936.42578-.75.597656-.257814.156251-.580076.294922-.966797.416016s-.853513.181641-1.40039.181641zm12.552883-11.039063c.125001 0 .228516.007812.310547.023437.082032.015626.158203.03125.228516.046876l.1875.046874v2.167969c-.0625-.015625-.136718-.03125-.222656-.046875-.078126-.015625-.160156-.033203-.246094-.052734s-.171875-.029297-.257813-.029297c-.367189 0-.710935.072265-1.03125.216797-.320314.144532-.599608.337889-.83789.580078-.238283.242189-.425781.523436-.5625.84375-.13672.320314-.205078.656248-.205078 1.007812v6.117188h-2.15625v-10.804688h1.558593l.480469 1.089844c.195314-.226563.42578-.429686.691406-.609375.226564-.140625.511718-.27539.855469-.404297.343752-.128907.746092-.193359 1.207031-.193359zm6.447416 0c.625003 0 1.197263.099608 1.716797.298828.519533.19922.962888.470702 1.330078.814453.367189.343752.652342.748045.855469 1.212891.203126.464846.304687.9707.304687 1.517578v7.078125h-1.558594l-.480468-1.078125c-.210939.226564-.460937.42578-.75.597656-.257814.156251-.58203.294922-.972657.416016s-.859372.181641-1.40625.181641c-1.203131 0-2.123043-.298826-2.759765-.896485s-.955078-1.376948-.955078-2.337891c0-.546877.103514-1.041013.310546-1.482421.207033-.441409.562498-.816405 1.066407-1.125.503908-.308596 1.187495-.550781 2.050781-.726563.863285-.175782 1.958978-.263672 3.287109-.263672v-.363281c0-.546878-.171873-.984373-.515625-1.3125-.343751-.328127-.851559-.492187-1.523437-.492187-.718754 0-1.242186.128904-1.570313.386718-.328126.257814-.523437.570311-.585937.9375h-2.15625c.0625-.960942.46484-1.761715 1.207031-2.402344.742191-.640628 1.777337-.960937 3.105469-.960937zm-.832031 9.117187c.914067 0 1.621091-.234372 2.121093-.703124.500003-.468753.75-1.03906.75-1.710938v-.585938c-.960942 0-1.736325.044922-2.326172.134766-.589846.089844-1.052732.210937-1.388671.363281-.33594.152345-.560547.339843-.673829.5625-.113281.222658-.169921.470702-.169921.744141 0 .304689.144529.580077.433593.826172s.707029.36914 1.253907.36914zm10.408352-1.792968c0 .476565.160155.874998.480469 1.195312s.718748.480469 1.195313.480469c.078125 0 .162108-.003906.251953-.011719.089844-.007812.173827-.019531.251953-.035156.078125-.015625.152343-.039062.222656-.070312v1.921874c-.09375.046876-.207031.085938-.339844.117188-.242188.078125-.527342.117188-.855468.117188-.476565 0-.91992-.08789-1.330079-.263672-.410158-.175783-.767576-.423827-1.072265-.744141s-.541015-.707029-.708985-1.160156c-.167969-.453128-.251953-.968747-.251953-1.546875v-5.167969h-1.921875v-2.039063h.84375c.414065 0 .757811-.134764 1.03125-.404296.273439-.269533.410157-.611326.410157-1.025391v-1.441406h1.792968v2.871093h2.402344v2.039063h-2.402344zm13.783353.480468c-.179688.445315-.406249.86328-.679687 1.253907-.273439.390627-.601561.734373-.984375 1.03125-.382815.296876-.82617.529296-1.330079.697265-.503908.16797-1.068356.251954-1.693359.251954-.718754 0-1.390622-.134765-2.015625-.404297-.625003-.269533-1.171873-.648435-1.640625-1.136719s-.835936-1.068356-1.101562-1.740234c-.265627-.671879-.398438-1.417965-.398438-2.238282 0-.812504.132811-1.554684.398438-2.226562.265626-.671879.624997-1.251951 1.078125-1.740235.453127-.488283.988278-.869139 1.605468-1.142578.617191-.273439 1.269528-.410156 1.957032-.410156.687503 0 1.33984.136717 1.957031.410156.61719.273439 1.152341.654295 1.605469 1.142578.453127.488284.812498 1.068356 1.078125 1.740235.265626.671878.398437 1.414058.398437 2.226562 0 .125001-.007812.248047-.023437.369141-.015626.121094-.03125.224609-.046875.310547-.015626.109375-.03125.203124-.046875.28125h-7.6875c.03125.335939.128905.656248.292968.960937.164064.304689.36914.572265.615235.802735s.541014.414061.884765.550781c.343752.136719.70703.205078 1.089844.205078.656253 0 1.177732-.140624 1.564453-.421875s.666015-.539061.837891-.773438zm-4.804687-5.765624c-.718754 0-1.32617.244138-1.822266.732421-.496096.488284-.810546 1.12695-.943359 1.916016h5.765625c-.125001-.781254-.443357-1.417966-.955079-1.910156-.511721-.49219-1.193355-.738281-2.044921-.738281zm21.414361 4.921874c-.125.578128-.324217 1.115232-.597656 1.611329-.273439.496096-.619139.927732-1.037109 1.294921-.417971.36719-.894529.654296-1.429688.861329-.535159.207032-1.115231.310547-1.740234.310547-.718754 0-1.390622-.134765-2.015625-.404297-.625003-.269533-1.173826-.648435-1.646485-1.136719-.472658-.488284-.839842-1.068356-1.101562-1.740234-.26172-.671879-.392578-1.417965-.392578-2.238282 0-.812504.130858-1.554684.392578-2.226562.26172-.671879.628904-1.251951 1.101562-1.740235.472659-.488283 1.021482-.869139 1.646485-1.142578s1.296871-.410156 2.015625-.410156c.625003 0 1.205075.103515 1.740234.310547s1.011717.496092 1.429688.867187c.41797.371096.761717.804685 1.03125 1.300782.269532.496096.470702 1.029294.603515 1.599609h-2.285156c-.179688-.609378-.47656-1.101561-.890625-1.476562-.414065-.375002-.957028-.5625-1.628906-.5625-.382815 0-.757811.083983-1.125.251953-.36719.167969-.687499.408201-.960938.720703-.273439.312501-.49414.681638-.662109 1.107422-.16797.425783-.251953.892575-.251953 1.40039 0 .515628.083983.984373.251953 1.40625.167969.421877.38867.789061.662109 1.101563.273439.312501.593748.552733.960938.720703.367189.167969.742185.251953 1.125.251953.671878 0 1.216795-.187498 1.634765-.5625.417971-.375002.71289-.867184.884766-1.476563zm9.447416-1.441406c0-.515627-.083984-.984373-.251954-1.40625-.167969-.421877-.38867-.789061-.662109-1.101562-.273439-.312502-.593748-.552734-.960937-.720703-.36719-.16797-.742186-.251953-1.125-.251953-.382815 0-.757811.083983-1.125.251953-.36719.167969-.687499.408201-.960938.720703-.273439.312501-.49414.681638-.662109 1.107422-.16797.425783-.251953.892575-.251953 1.40039 0 .515628.083983.984373.251953 1.40625.167969.421877.38867.789061.662109 1.101563.273439.312501.593748.552733.960938.720703.367189.167969.742185.251953 1.125.251953.382814 0 .75781-.083984 1.125-.251953.367189-.16797.687498-.408202.960937-.720703.273439-.312502.49414-.679686.662109-1.101563.16797-.421877.251954-.890622.251954-1.40625zm2.15625 0c0 .812504-.130859 1.556637-.392579 2.232422s-.628904 1.25781-1.101562 1.746094c-.472659.488284-1.021481.867186-1.646484 1.136719-.625004.269532-1.296872.404297-2.015625.404297-.718754 0-1.390622-.134765-2.015625-.404297-.625004-.269533-1.173826-.648435-1.646485-1.136719-.472658-.488284-.839842-1.068356-1.101562-1.740234-.26172-.671879-.392578-1.417965-.392578-2.238282 0-.812504.130858-1.554684.392578-2.226562.26172-.671879.628904-1.251951 1.101562-1.740235.472659-.488283 1.021481-.869139 1.646485-1.142578.625003-.273439 1.296871-.410156 2.015625-.410156.718753 0 1.390621.136717 2.015625.410156.625003.273439 1.173825.654295 1.646484 1.142578.472658.488284.839842 1.068356 1.101562 1.740235.26172.671878.392579 1.414058.392579 2.226562zm6.576321 5.519532c-.718754 0-1.390622-.134765-2.015625-.404297-.625003-.269533-1.173826-.648435-1.646484-1.136719-.472659-.488284-.839843-1.068356-1.101563-1.740234-.26172-.671879-.392578-1.417965-.392578-2.238282 0-.812504.130858-1.554684.392578-2.226562.26172-.671879.628904-1.251951 1.101563-1.740235.472658-.488283 1.021481-.869139 1.646484-1.142578s1.296871-.410156 2.015625-.410156c.515628 0 .957029.064452 1.324219.193359.367189.128907.679686.263672.9375.404297.289064.179689.535155.382812.738281.609375v-5.402344h2.15625v15.117188h-1.558594l-.480468-1.078125c-.210939.226564-.45703.42578-.738282.597656-.257814.156251-.582029.294922-.972656.416016s-.859372.181641-1.40625.181641zm.117188-9c-.414065 0-.808592.083983-1.183594.251953-.375002.167969-.70703.408201-.996094.720703-.289064.312501-.517577.681638-.685547 1.107422-.167969.425783-.251953.892575-.251953 1.40039 0 .515628.083984.984373.251953 1.40625.16797.421877.396483.789061.685547 1.101563.289064.312501.621092.552733.996094.720703.375002.167969.769529.251953 1.183594.251953.414064 0 .810544-.083984 1.189453-.251953.378908-.16797.710936-.408202.996093-.720703.285158-.312502.511718-.679686.679688-1.101563.167969-.421877.251953-.890622.251953-1.40625 0-.515627-.083984-.984373-.251953-1.40625-.16797-.421877-.39453-.789061-.679688-1.101562-.285157-.312502-.617185-.552734-.996093-.720703-.378909-.16797-.775389-.251953-1.189453-.251953zm9.927884 8.882812h-2.15625v-10.804688h2.15625zm-1.078125-12.480469c-.36719 0-.679687-.126952-.9375-.380859-.257814-.253908-.386719-.568358-.386719-.94336 0-.367189.128905-.677733.386719-.93164.257813-.253908.57031-.38086.9375-.38086.367189 0 .679686.126952.9375.38086.257813.253907.386718.564451.386718.93164 0 .36719-.128905.679687-.386718.9375-.257814.257814-.570311.386719-.9375.386719zm8.849759 1.558594c.593752 0 1.154294.117186 1.68164.351563.527347.234376.986326.554685 1.376953.960937s.699218.896482.925782 1.470703c.226563.574222.339843 1.208981.339843 1.904297v6.234375h-2.15625v-6.234375c0-.351564-.068358-.687498-.205078-1.007813-.136719-.320314-.322264-.601561-.55664-.84375-.234377-.242188-.503905-.435546-.808594-.580078s-.624999-.216796-.960938-.216796c-.367189 0-.710936.072264-1.03125.216796s-.599608.33789-.83789.580078c-.238283.242189-.425781.521483-.5625.837891-.13672.316408-.205078.654295-.205078 1.013672v6.234375h-2.15625v-10.804688h1.558593l.480469 1.089844c.210939-.226563.45703-.429686.738281-.609375.257814-.140625.58203-.27539.972657-.404297.390626-.128907.859372-.193359 1.40625-.193359zm16.291165.117187v10.324219c0 .656254-.117187 1.263669-.351563 1.822266-.234376.558596-.562498 1.042967-.984375 1.453125s-.937497.726561-1.546875.949219c-.609378.222657-1.289058.333984-2.039062.333984-.656254 0-1.248044-.091796-1.775391-.275391-.527346-.183594-.986326-.427732-1.376953-.732422-.390627-.304689-.714842-.660154-.972656-1.066406s-.441406-.835935-.550781-1.289062h2.15625c.179688.367189.464841.699217.855468.996094.390627.296876.945309.445312 1.664063.445312.851567 0 1.525388-.244138 2.021484-.732422s.744141-1.123043.744141-1.904297v-1.078125c-.210939.226564-.460936.425781-.75.597656-.257814.156251-.570311.294922-.9375.416016-.36719.121094-.804685.181641-1.3125.181641-.656254 0-1.285153-.134765-1.886719-.404297-.601566-.269533-1.126951-.640623-1.576172-1.113281-.449221-.472659-.804686-1.029294-1.066406-1.669922s-.392578-1.335934-.392578-2.085938.130858-1.445309.392578-2.085937.617185-1.197264 1.066406-1.669922c.449221-.472659.974606-.845702 1.576172-1.119141s1.230465-.410156 1.886719-.410156c.546877 0 1.015623.064452 1.40625.193359s.710936.263672.960937.404297c.289064.179689.539062.382812.75.609375l.480469-1.089844zm-4.898438 8.402344c.382815 0 .753905-.083983 1.113282-.251953.359376-.167969.675779-.400389.949218-.697265.273439-.296877.49414-.640624.66211-1.03125.167969-.390627.251953-.808592.251953-1.253907 0-.445314-.083984-.865232-.251953-1.259765-.16797-.394534-.388671-.740233-.66211-1.03711-.273439-.296876-.593748-.529296-.960937-.697265-.36719-.16797-.742186-.251953-1.125-.251953-.382815 0-.757811.083983-1.125.251953-.36719.167969-.687499.400389-.960938.697265-.273439.296877-.49414.640623-.662109 1.03125-.16797.390627-.251953.812498-.251953 1.265625 0 .445315.083983.86328.251953 1.253907.167969.390626.392577.734373.673828 1.03125.281251.296876.601561.529296.960938.697265.359376.16797.738279.251953 1.136718.251953zm-144.556782 24c0 1.296882.148436 2.490229.4453125 3.580078.2968765 1.08985.6289044 2.041012.9960937 2.853516.4140646.945317.8945286 1.800777 1.4414063 2.566406l-1.5585937 1.078125c-.6250032-.812504-1.1835913-1.738276-1.6757813-2.777343-.4140646-.898442-.7988263-1.962885-1.1542969-3.19336-.3554705-1.230475-.5332031-2.599602-.5332031-4.107422s.1777326-2.876947.5332031-4.107422c.3554706-1.230475.7402323-2.291011 1.1542969-3.18164.49219-1.039068 1.0507781-1.968746 1.6757813-2.789063l1.5585937 1.078125c-.5468777.765629-1.0273417 1.621089-1.4414063 2.566406-.3671893.812505-.6992172 1.763667-.9960937 2.853516s-.4453125 2.283197-.4453125 3.580078zm9.0958528 5.519532c-.7187536 0-1.3906219-.134765-2.015625-.404297-.6250032-.269533-1.1738258-.648435-1.6464844-1.136719s-.8398425-1.068356-1.1015625-1.740234c-.2617201-.671879-.3925781-1.417965-.3925781-2.238282 0-.812504.130858-1.554684.3925781-2.226562.26172-.671879.6289039-1.251951 1.1015625-1.740235.4726586-.488283 1.0214812-.869139 1.6464844-1.142578.6250031-.273439 1.2968714-.410156 2.015625-.410156.5156275 0 .9570294.064452 1.3242187.193359s.6796862.263672.9375.404297c.2890639.179689.5351552.382812.7382813.609375v-5.402344h2.15625v15.117188h-1.5585938l-.4804687-1.078125c-.2109386.226564-.4570299.42578-.7382813.597656-.2578138.156251-.5820293.294922-.9726562.416016-.390627.121094-.8593723.181641-1.40625.181641zm.1171875-9c-.4140646 0-.8085919.083983-1.1835938.251953-.3750019.167969-.7070298.408201-.9960937.720703-.289064.312501-.5175773.681638-.6855469 1.107422-.1679696.425783-.2519531.892575-.2519531 1.40039 0 .515628.0839835.984373.2519531 1.40625s.3964829.789061.6855469 1.101563c.2890639.312501.6210918.552733.9960937.720703.3750019.167969.7695292.251953 1.1835938.251953.4140645 0 .8105449-.083984 1.1894531-.251953.3789081-.16797.710936-.408202.9960937-.720703.2851577-.312502.5117179-.679686.6796875-1.101563s.2519532-.890622.2519532-1.40625c0-.515627-.0839836-.984373-.2519532-1.40625s-.3945298-.789061-.6796875-1.101562c-.2851577-.312502-.6171856-.552734-.9960937-.720703-.3789082-.16797-.7753886-.251953-1.1894531-.251953zm17.1349152 5.765624c-.1796884.445315-.4062486.86328-.6796875 1.253907s-.6015606.734373-.984375 1.03125c-.3828144.296876-.8261694.529296-1.3300781.697265-.5039088.16797-1.0683563.251954-1.6933594.251954-.7187536 0-1.3906219-.134765-2.015625-.404297-.6250031-.269533-1.1718727-.648435-1.640625-1.136719s-.8359362-1.068356-1.1015625-1.740234c-.2656263-.671879-.3984375-1.417965-.3984375-2.238282 0-.812504.1328112-1.554684.3984375-2.226562.2656263-.671879.6249977-1.251951 1.078125-1.740235.4531273-.488283.9882782-.869139 1.6054687-1.142578.6171906-.273439 1.2695279-.410156 1.9570313-.410156s1.3398407.136717 1.9570312.410156c.6171906.273439 1.1523415.654295 1.6054688 1.142578.4531273.488284.8124987 1.068356 1.078125 1.740235.2656263.671878.3984375 1.414058.3984375 2.226562 0 .125001-.0078124.248047-.0234375.369141s-.0312499.224609-.046875.310547c-.0156251.109375-.0312499.203124-.046875.28125h-7.6875c.0312502.335939.1289054.656248.2929687.960937.1640634.304689.3691394.572265.6152344.802735s.5410139.414061.8847656.550781c.3437518.136719.7070294.205078 1.0898438.205078.6562533 0 1.1777324-.140624 1.5644531-.421875s.6660148-.539061.8378906-.773438zm-4.8046875-5.765624c-.7187536 0-1.3261694.244138-1.8222656.732421-.4960963.488284-.8105462 1.12695-.9433594 1.916016h5.765625c-.1250006-.781254-.4433568-1.417966-.9550781-1.910156s-1.1933551-.738281-2.0449219-.738281zm16.291165-1.921876-4.3242185 10.804688h-1.921875l-4.3242187-10.804688h2.2851562l3 7.804688 3-7.804688zm10.771634 7.6875c-.179688.445315-.406248.86328-.679687 1.253907s-.601561.734373-.984375 1.03125c-.382815.296876-.82617.529296-1.330078.697265-.503909.16797-1.068357.251954-1.69336.251954-.718753 0-1.390622-.134765-2.015625-.404297-.625003-.269533-1.171872-.648435-1.640625-1.136719-.468752-.488284-.835936-1.068356-1.101562-1.740234-.265627-.671879-.398438-1.417965-.398438-2.238282 0-.812504.132811-1.554684.398438-2.226562.265626-.671879.624997-1.251951 1.078125-1.740235.453127-.488283.988278-.869139 1.605468-1.142578.617191-.273439 1.269528-.410156 1.957032-.410156.687503 0 1.33984.136717 1.957031.410156s1.152341.654295 1.605469 1.142578c.453127.488284.812498 1.068356 1.078125 1.740235.265626.671878.398437 1.414058.398437 2.226562 0 .125001-.007812.248047-.023437.369141s-.03125.224609-.046875.310547c-.015625.109375-.03125.203124-.046875.28125h-7.6875c.03125.335939.128905.656248.292968.960937.164064.304689.36914.572265.615235.802735s.541014.414061.884765.550781c.343752.136719.70703.205078 1.089844.205078.656254 0 1.177733-.140624 1.564453-.421875.386721-.281251.666015-.539061.837891-.773438zm-4.804687-5.765624c-.718754 0-1.32617.244138-1.822266.732421-.496096.488284-.810546 1.12695-.943359 1.916016h5.765625c-.125001-.781254-.443357-1.417966-.955078-1.910156-.511722-.49219-1.193355-.738281-2.044922-.738281zm9.318509 8.882812h-2.15625v-15.117188h2.15625zm10.291165-5.402344c0-.515627-.083984-.984373-.251953-1.40625-.16797-.421877-.388671-.789061-.662109-1.101562-.273439-.312502-.593749-.552734-.960938-.720703-.367189-.16797-.742186-.251953-1.125-.251953s-.757811.083983-1.125.251953c-.367189.167969-.687499.408201-.960937.720703-.273439.312501-.49414.681638-.66211 1.107422-.167969.425783-.251953.892575-.251953 1.40039 0 .515628.083984.984373.251953 1.40625.16797.421877.388671.789061.66211 1.101563.273438.312501.593748.552733.960937.720703.367189.167969.742186.251953 1.125.251953s.757811-.083984 1.125-.251953c.367189-.16797.687499-.408202.960938-.720703.273438-.312502.494139-.679686.662109-1.101563.167969-.421877.251953-.890622.251953-1.40625zm2.15625 0c0 .812504-.130858 1.556637-.392578 2.232422s-.628904 1.25781-1.101563 1.746094c-.472658.488284-1.021481.867186-1.646484 1.136719-.625003.269532-1.296871.404297-2.015625.404297s-1.390622-.134765-2.015625-.404297c-.625003-.269533-1.173826-.648435-1.646484-1.136719-.472659-.488284-.839843-1.068356-1.101563-1.740234-.26172-.671879-.392578-1.417965-.392578-2.238282 0-.812504.130858-1.554684.392578-2.226562.26172-.671879.628904-1.251951 1.101563-1.740235.472658-.488283 1.021481-.869139 1.646484-1.142578s1.296871-.410156 2.015625-.410156 1.390622.136717 2.015625.410156 1.173826.654295 1.646484 1.142578c.472659.488284.839843 1.068356 1.101563 1.740235.26172.671878.392578 1.414058.392578 2.226562zm7.173978-5.519531c.718753 0 1.390622.136717 2.015625.410156s1.173826.654295 1.646484 1.142578c.472659.488284.841796 1.068356 1.107422 1.740235.265626.671878.398437 1.414058.398437 2.226562s-.132811 1.556637-.398437 2.232422-.634763 1.25781-1.107422 1.746094c-.472658.488284-1.021481.867186-1.646484 1.136719-.625003.269532-1.296872.404297-2.015625.404297-.515628 0-.95703-.058594-1.324219-.175782s-.67578-.257811-.925781-.421875c-.289064-.179688-.539062-.378905-.75-.597656v4.921875h-2.15625v-14.648438h1.558593l.480469 1.089844c.210939-.226563.45703-.429686.738281-.609375.257814-.140625.58203-.27539.972657-.404297s.859372-.193359 1.40625-.193359zm-.117188 9c.414065 0 .808592-.083984 1.183594-.251953.375002-.16797.70703-.408202.996094-.720703.289064-.312502.517577-.679686.685547-1.101563.167969-.421877.251953-.890622.251953-1.40625 0-.515627-.083984-.984373-.251953-1.40625-.16797-.421877-.396483-.789061-.685547-1.101562-.289064-.312502-.621092-.552734-.996094-.720703-.375002-.16797-.769529-.251953-1.183594-.251953-.414064 0-.810545.083983-1.189453.251953-.378908.167969-.710936.408201-.996094.720703-.285157.312501-.511718.681638-.679687 1.107422-.16797.425783-.251953.892575-.251953 1.40039 0 .515628.083983.984373.251953 1.40625.167969.421877.39453.789061.679687 1.101563.285158.312501.617186.552733.996094.720703.378908.167969.775389.251953 1.189453.251953zm18.21304-9c.515628 0 .996092.099608 1.441407.298828.445314.19922.835936.492186 1.171875.878906.335939.386721.603514.855466.802734 1.40625s.298828 1.169919.298828 1.857422v6.480469h-2.15625v-6.480469c0-.718753-.205076-1.298826-.615234-1.740234-.410158-.441409-.884763-.662109-1.423828-.662109-.546878 0-1.023436.2207-1.429688.662109-.406252.441408-.609375 1.021481-.609375 1.740234v6.480469h-2.167969v-6.480469c0-.718753-.203122-1.298826-.609375-1.740234-.406252-.441409-.882809-.662109-1.429687-.662109s-1.023435.2207-1.429688.662109c-.406252.441408-.609375 1.021481-.609375 1.740234v6.480469h-2.15625v-10.804688h1.558594l.480469 1.089844c.195313-.226563.42578-.429686.691406-.609375.226564-.140625.503905-.27539.832031-.404297.328127-.128907.699217-.193359 1.113282-.193359.515627 0 .957029.08789 1.324218.263672.36719.175782.679687.369139.9375.580078.289064.257814.535156.539061.738282.84375l.210937-.257813c.132813-.164063.335936-.355467.609375-.574218s.609373-.416015 1.007813-.591797c.398439-.175782.871091-.263672 1.417968-.263672zm15.693509 7.804687c-.179688.445315-.406248.86328-.679687 1.253907s-.601561.734373-.984375 1.03125c-.382814.296876-.826169.529296-1.330078.697265-.503909.16797-1.068356.251954-1.69336.251954-.718753 0-1.390621-.134765-2.015625-.404297-.625003-.269533-1.171872-.648435-1.640625-1.136719-.468752-.488284-.835936-1.068356-1.101562-1.740234-.265626-.671879-.398438-1.417965-.398438-2.238282 0-.812504.132812-1.554684.398438-2.226562.265626-.671879.624998-1.251951 1.078125-1.740235.453127-.488283.988278-.869139 1.605469-1.142578.61719-.273439 1.269528-.410156 1.957031-.410156s1.339841.136717 1.957031.410156c.617191.273439 1.152342.654295 1.605469 1.142578.453127.488284.812499 1.068356 1.078125 1.740235.265626.671878.398437 1.414058.398437 2.226562 0 .125001-.007812.248047-.023437.369141s-.03125.224609-.046875.310547c-.015625.109375-.03125.203124-.046875.28125h-7.6875c.03125.335939.128905.656248.292969.960937.164063.304689.369139.572265.615234.802735s.541014.414061.884766.550781c.343751.136719.707029.205078 1.089843.205078.656254 0 1.177733-.140624 1.564454-.421875.38672-.281251.666014-.539061.83789-.773438zm-4.804687-5.765624c-.718754 0-1.326169.244138-1.822266.732421-.496096.488284-.810546 1.12695-.943359 1.916016h5.765625c-.125001-.781254-.443357-1.417966-.955078-1.910156s-1.193355-.738281-2.044922-.738281zm12.201322-2.039063c.593752 0 1.154294.117186 1.68164.351563.527347.234376.986326.554685 1.376953.960937s.699218.896482.925782 1.470703c.226563.574222.339843 1.208981.339843 1.904297v6.234375h-2.15625v-6.234375c0-.351564-.068358-.687498-.205078-1.007813-.136719-.320314-.322264-.601561-.55664-.84375-.234377-.242188-.503905-.435546-.808594-.580078s-.624999-.216796-.960938-.216796c-.367189 0-.710936.072264-1.03125.216796s-.599608.33789-.83789.580078c-.238283.242189-.425781.521483-.5625.837891-.13672.316408-.205078.654295-.205078 1.013672v6.234375h-2.15625v-10.804688h1.558593l.480469 1.089844c.210939-.226563.45703-.429686.738281-.609375.257814-.140625.58203-.27539.972657-.404297.390626-.128907.859372-.193359 1.40625-.193359zm9.927884 7.324219c0 .476565.160154.874998.480468 1.195312s.718748.480469 1.195313.480469c.078125 0 .162109-.003906.251953-.011719.089844-.007812.173828-.019531.251953-.035156s.152343-.039062.222656-.070312v1.921874c-.09375.046876-.20703.085938-.339843.117188-.242189.078125-.527343.117188-.855469.117188-.476565 0-.91992-.08789-1.330078-.263672-.410159-.175783-.767577-.423827-1.072266-.744141s-.541015-.707029-.708984-1.160156c-.16797-.453128-.251953-.968747-.251953-1.546875v-5.167969h-1.921875v-2.039063h.84375c.414064 0 .757811-.134764 1.03125-.404296.273438-.269533.410156-.611326.410156-1.025391v-1.441406h1.792969v2.871093h2.402343v2.039063h-2.402343zm6.576321-1.804688c0-1.296881-.148436-2.488276-.445312-3.574218-.296877-1.085943-.628905-2.039059-.996094-2.859376-.414065-.945317-.894529-1.800777-1.441406-2.566406l1.558593-1.078125c.625003.812504 1.183592 1.742183 1.675782 2.789063.414064.898442.798826 1.962884 1.154296 3.193359.355471 1.230475.533204 2.595696.533204 4.095703 0 1.50782-.17578 2.876947-.527344 4.107422-.351565 1.230475-.738279 2.294918-1.160156 3.19336-.49219 1.039067-1.050779 1.964839-1.675782 2.777343l-1.558593-1.078125c.546877-.765629 1.027341-1.621089 1.441406-2.566406.367189-.812504.699217-1.763666.996094-2.853516.296876-1.089849.445312-2.283196.445312-3.580078z" fill="#fff" fill-rule="nonzero"/><path d="m119 63h63v26h-63z" fill="#44c2ff"/><path d="m182 89h63v26h-63z" fill="#ffd753"/><path d="m119 115h63v26h-63z" fill="#ffc1c1"/><path d="m245 115h63v26h-63z" fill="#f22f2d"/><path d="m245 63h63v26h-63z" fill="#4a40fd"/><path d="m182 141h63v26h-63z" fill="#1e179f"/><path d="m49 169h63v26h-63z" fill="#f22f2d"/><path d="m182 201h63v26h-63z" fill="#fff"/></g></svg>