<svg height="449" viewBox="0 0 352 449" width="352" xmlns="http://www.w3.org/2000/svg"><g fill="none" fill-rule="evenodd"><path d="m0 0h352v449h-352z" fill="#ffd753"/><path d="m274 388h-52c.00001-13.807115 11.640607-25 26.000012-25 14.359404 0 26.000001 11.192885 25.999988 25z" fill="#fff"/><rect fill="#f22f2d" height="51" rx="25.5" width="51" x="56" y="187"/><rect fill="#4a40fd" height="51" rx="25.5" width="51" x="116" y="187"/><rect fill="#4a40fd" height="51" rx="25.5" width="51" x="56" y="246"/><g fill="#fff"><path d="m141.5 245c14.083261 0 25.5 11.416739 25.5 25.5v118.5h-51v-118.5c0-14.083261 11.416739-25.5 25.5-25.5z"/><path d="m194.5 344c14.083261 0 25.5 11.416739 25.5 25.5v18.5h-51v-18.5c0-14.083261 11.416739-25.5 25.5-25.5z"/><path d="m60.078125 69h-2.2734375v-15.1171875h2.2734375zm8.1231965-10.921875c.593753 0 1.1542942.1171863 1.6816406.3515625s.9863262.5546855 1.3769532.9609375c.3906269.406252.6992176.8964815.9257812 1.4707031s.3398438 1.2089809.3398438 1.9042969v6.234375h-2.15625v-6.234375c0-.3515643-.0683587-.6874984-.2050782-1.0078125-.1367194-.3203141-.3222644-.6015613-.5566406-.84375s-.5039047-.4355462-.8085937-.5800781c-.3046891-.144532-.6249984-.2167969-.9609375-.2167969-.3671894 0-.7109359.0722649-1.03125.2167969-.3203142.1445319-.5996082.3378894-.8378907.5800781-.2382824.2421887-.4257805.5214828-.5625.8378906-.1367194.3164079-.2050781.6542951-.2050781 1.0136719v6.234375h-2.15625v-10.8046875h1.5585938l.4804687 1.0898437c.2109386-.2265636.4570298-.4296866.7382813-.609375.2578137-.1406257.5820292-.2753899.9726562-.4042968s.8593723-.1933594 1.40625-.1933594zm9.927884 7.3242188c0 .4765648.1601546.8749983.4804687 1.1953124.3203142.3203142.7187477.4804688 1.1953125.4804688.0781254 0 .162109-.0039062.2519532-.0117188.0898442-.0078125.1738277-.0195311.2519531-.0351562s.1523434-.0390623.2226562-.0703125v1.921875c-.0937504.0468752-.2070305.0859373-.3398437.1171875-.2421887.0781254-.5273421.1171875-.8554688.1171875-.4765648 0-.9199198-.0878897-1.3300781-.2636719-.4101583-.1757821-.7675766-.4238265-1.0722656-.7441406s-.5410148-.707029-.7089844-1.1601562c-.1679696-.4531273-.2519531-.9687472-.2519531-1.546875v-5.1679688h-1.921875v-2.0390625h.84375c.4140646 0 .7578111-.1347643 1.03125-.4042969s.4101562-.611326.4101562-1.0253906v-1.4414062h1.7929688v2.8710937h2.4023437v2.0390625h-2.4023437zm13.7833528.4804687c-.1796884.4453147-.4062487.8632793-.6796875 1.2539063-.2734389.3906269-.6015606.7343735-.984375 1.03125-.3828145.2968764-.8261694.529296-1.3300782.6972656-.5039087.1679696-1.0683562.2519531-1.6933593.2519531-.7187536 0-1.3906219-.1347643-2.015625-.4042969-.6250032-.2695326-1.1718727-.648435-1.640625-1.1367187-.4687524-.4882837-.8359362-1.068356-1.1015625-1.7402344-.2656264-.6718784-.3984376-1.4179646-.3984375-2.2382813-.0000001-.812504.1328111-1.5546841.3984375-2.2265624.2656263-.6718784.6249977-1.2519507 1.078125-1.7402344.4531272-.4882837.9882781-.8691393 1.6054687-1.1425782.6171906-.2734388 1.2695278-.4101562 1.9570313-.4101562.6875034 0 1.3398406.1367174 1.9570312.4101562.6171906.2734389 1.1523415.6542945 1.6054688 1.1425782.4531272.4882837.8124986 1.068356 1.078125 1.7402344.2656263.6718783.3984375 1.4140584.3984375 2.2265624 0 .1250007-.0078125.2480463-.0234375.3691407-.0156251.1210943-.03125.2246089-.046875.3105469-.0156251.1093755-.03125.2031246-.046875.28125h-7.6875c.0312501.3359391.1289054.6562484.2929687.9609374.1640633.3046891.3691394.5722645.6152344.8027344s.5410139.4140618.8847656.5507813c.3437517.1367194.7070293.2050781 1.0898438.2050781.6562532 0 1.1777324-.1406236 1.5644531-.421875s.6660147-.5390613.8378906-.7734375zm-4.8046875-5.765625c-.7187536 0-1.3261694.2441382-1.8222657.7324219-.4960962.4882837-.8105462 1.1269492-.9433593 1.9160156h5.765625c-.1250007-.7812539-.4433569-1.4179663-.9550782-1.9101562-.5117213-.49219-1.1933551-.7382813-2.0449218-.7382813zm11.8380402-2.0390625c.1250006 0 .2285152.0078124.3105469.0234375.0820316.0156251.1582027.0312499.2285156.046875l.1875.046875v2.1679687c-.0625003-.015625-.1367183-.0312499-.2226563-.046875-.0781253-.015625-.1601558-.033203-.2460937-.0527343-.0859379-.0195314-.1718746-.0292969-.2578125-.0292969-.3671893 0-.7109359.0722649-1.03125.2167969-.3203141.1445319-.5996082.3378894-.8378906.5800781-.2382825.2421887-.4257806.5234359-.5625.84375-.1367195.3203141-.2050782.6562482-.2050782 1.0078125v6.1171875h-2.15625v-10.8046875h1.5585938l.4804687 1.0898437c.1953135-.2265636.42578-.4296866.6914063-.609375.2265636-.1406257.511717-.2753899.8554687-.4042968.3437518-.1289069.7460915-.1933594 1.2070313-.1933594zm6.447415 0c.625003 0 1.197263.0996084 1.716797.2988281.519534.1992198.962889.4707014 1.330078.8144531.36719.3437518.652343.7480446.855469 1.2128907.203126.464846.304688.9707004.304688 1.5175781v7.078125h-1.558594l-.480469-1.078125c-.210939.2265636-.460936.4257804-.75.5976562-.257814.1562508-.582029.2949213-.972656.4160157-.390627.1210943-.859373.1816406-1.40625.1816406-1.203131 0-2.123044-.2988251-2.759766-.8964844-.636722-.5976592-.955078-1.3769483-.955078-2.3378906 0-.5468777.103515-1.0410134.310547-1.4824219.207032-.4414084.562497-.8164047 1.066406-1.125s1.187496-.5507803 2.050781-.7265625c.863286-.1757821 1.958978-.2636719 3.28711-.2636719v-.3632812c0-.5468777-.171874-.9843734-.515625-1.3125-.343752-.3281266-.851559-.4921875-1.523438-.4921875-.718753 0-1.242186.128905-1.570312.3867187-.328127.2578138-.523437.5703107-.585938.9375h-2.15625c.062501-.9609423.46484-1.7617155 1.207032-2.4023437.742191-.6406282 1.777337-.9609375 3.105468-.9609375zm-.832031 9.1171875c.914067 0 1.621091-.2343727 2.121094-.703125.500002-.4687523.75-1.0390591.75-1.7109375v-.5859375c-.960943 0-1.736325.0449214-2.326172.1347656s-1.052733.2109368-1.388672.3632813-.560546.3398426-.673828.5625c-.113282.2226573-.169922.4707017-.169922.7441406 0 .304689.14453.5800769.433594.8261719s.707028.3691406 1.253906.3691406zm16.888822-2.15625c-.125001.5781279-.324218 1.1152319-.597657 1.6113281-.273439.4960963-.619138.9277326-1.037109 1.2949219s-.894529.6542958-1.429688.8613281-1.115231.3105469-1.740234.3105469c-.718754 0-1.390622-.1347643-2.015625-.4042969s-1.173826-.648435-1.646484-1.1367187c-.472659-.4882837-.839843-1.068356-1.101563-1.7402344s-.392578-1.4179646-.392578-2.2382813c0-.812504.130858-1.5546841.392578-2.2265624.26172-.6718784.628904-1.2519507 1.101563-1.7402344.472658-.4882837 1.021481-.8691393 1.646484-1.1425782.625003-.2734388 1.296871-.4101562 2.015625-.4101562.625003 0 1.205075.1035146 1.740234.3105469s1.011717.4960919 1.429688.8671875.761717.804685 1.03125 1.3007812c.269532.4960963.470702 1.029294.603516 1.5996094h-2.285157c-.179688-.609378-.47656-1.1015606-.890625-1.4765625-.414064-.3750019-.957028-.5625-1.628906-.5625-.382814 0-.757811.0839835-1.125.2519531s-.687499.4082016-.960937.7207032c-.273439.3125015-.49414.6816384-.66211 1.1074218-.167969.4257834-.251953.8925756-.251953 1.4003906 0 .5156276.083984.9843729.251953 1.40625.16797.4218772.388671.789061.66211 1.1015626.273438.3125015.593748.5527335.960937.7207031s.742186.2519531 1.125.2519531c.671878 0 1.216795-.1874981 1.634766-.5625.41797-.3750019.712889-.8671845.884765-1.4765625zm5.006008.3632813c0 .4765648.160155.8749983.480469 1.1953124.320314.3203142.718748.4804688 1.195313.4804688.078125 0 .162109-.0039062.251953-.0117188.089844-.0078125.173828-.0195311.251953-.0351562s.152343-.0390623.222656-.0703125v1.921875c-.09375.0468752-.20703.0859373-.339844.1171875-.242188.0781254-.527342.1171875-.855468.1171875-.476565 0-.91992-.0878897-1.330078-.2636719-.410159-.1757821-.767577-.4238265-1.072266-.7441406s-.541015-.707029-.708984-1.1601562c-.16797-.4531273-.251954-.9687472-.251954-1.546875v-5.1679688h-1.921875v-2.0390625h.84375c.414065 0 .757812-.1347643 1.03125-.4042969.273439-.2695326.410157-.611326.410157-1.0253906v-1.4414062h1.792968v2.8710937h2.402344v2.0390625h-2.402344zm6.810697 3.5976562h-2.15625v-10.8046875h2.15625zm-1.078125-12.4804688c-.367189 0-.679686-.1269518-.9375-.3808593s-.386719-.5683575-.386719-.9433594c0-.3671893.128905-.6777331.386719-.9316406s.570311-.3808594.9375-.3808594.679686.1269519.9375.3808594.386719.5644513.386719.9316406-.128905.6796862-.386719.9375-.570311.3867187-.9375.3867187zm11.252103 7.078125c0-.5156275-.083984-.9843728-.251953-1.40625-.16797-.4218771-.388671-.7890609-.66211-1.1015624-.273439-.3125016-.593748-.5527336-.960937-.7207032-.36719-.1679696-.742186-.2519531-1.125-.2519531-.382815 0-.757811.0839835-1.125.2519531-.36719.1679696-.687499.4082016-.960938.7207032-.273439.3125015-.49414.6816384-.662109 1.1074218-.16797.4257834-.251953.8925756-.251953 1.4003906 0 .5156276.083983.9843729.251953 1.40625.167969.4218772.38867.789061.662109 1.1015626.273439.3125015.593748.5527335.960938.7207031.367189.1679696.742185.2519531 1.125.2519531.382814 0 .75781-.0839835 1.125-.2519531.367189-.1679696.687498-.4082016.960937-.7207031.273439-.3125016.49414-.6796854.66211-1.1015626.167969-.4218771.251953-.8906224.251953-1.40625zm2.15625 0c0 .8125041-.130858 1.5566373-.392578 2.2324219-.26172.6757847-.628904 1.2578101-1.101563 1.7460938-.472658.4882837-1.021481.8671861-1.646484 1.1367187s-1.296872.4042969-2.015625.4042969c-.718754 0-1.390622-.1347643-2.015625-.4042969s-1.173826-.648435-1.646485-1.1367187c-.472658-.4882837-.839842-1.068356-1.101562-1.7402344s-.392578-1.4179646-.392578-2.2382813c0-.812504.130858-1.5546841.392578-2.2265624.26172-.6718784.628904-1.2519507 1.101562-1.7402344.472659-.4882837 1.021482-.8691393 1.646485-1.1425782.625003-.2734388 1.296871-.4101562 2.015625-.4101562.718753 0 1.390622.1367174 2.015625.4101562.625003.2734389 1.173826.6542945 1.646484 1.1425782.472659.4882837.839843 1.068356 1.101563 1.7402344.26172.6718783.392578 1.4140584.392578 2.2265624zm7.173978-5.5195312c.593752 0 1.154294.1171863 1.68164.3515625.527347.2343762.986326.5546855 1.376953.9609375s.699218.8964815.925782 1.4707031c.226563.5742216.339843 1.2089809.339843 1.9042969v6.234375h-2.15625v-6.234375c0-.3515643-.068358-.6874984-.205078-1.0078125-.136719-.3203141-.322264-.6015613-.55664-.84375-.234377-.2421887-.503905-.4355462-.808594-.5800781-.304689-.144532-.624999-.2167969-.960938-.2167969-.367189 0-.710936.0722649-1.03125.2167969-.320314.1445319-.599608.3378894-.83789.5800781-.238283.2421887-.425781.5214828-.5625.8378906-.13672.3164079-.205078.6542951-.205078 1.0136719v6.234375h-2.15625v-10.8046875h1.558593l.480469 1.0898437c.210939-.2265636.45703-.4296866.738281-.609375.257814-.1406257.58203-.2753899.972657-.4042968.390626-.1289069.859372-.1933594 1.40625-.1933594zm16.375299 11.0390625c-.718754 0-1.390622-.1347643-2.015625-.4042969s-1.173826-.648435-1.646485-1.1367187c-.472658-.4882837-.839842-1.068356-1.101562-1.7402344s-.392578-1.4179646-.392578-2.2382813c0-.812504.130858-1.5546841.392578-2.2265624.26172-.6718784.628904-1.2519507 1.101562-1.7402344.472659-.4882837 1.021482-.8691393 1.646485-1.1425782.625003-.2734388 1.296871-.4101562 2.015625-.4101562.515627 0 .957029.0644525 1.324219.1933594.367189.1289069.679686.2636711.9375.4042968.289063.1796884.535155.3828114.738281.609375v-5.4023437h2.15625v15.1171875h-1.558594l-.480469-1.078125c-.210938.2265636-.45703.4257804-.738281.5976562-.257814.1562508-.582029.2949213-.972656.4160157-.390627.1210943-.859373.1816406-1.40625.1816406zm.117187-9c-.414064 0-.808592.0839835-1.183593.2519531-.375002.1679696-.70703.4082016-.996094.7207032-.289064.3125015-.517578.6816384-.685547 1.1074218-.16797.4257834-.251953.8925756-.251953 1.4003906 0 .5156276.083983.9843729.251953 1.40625.167969.4218772.396483.789061.685547 1.1015626.289064.3125015.621092.5527335.996094.7207031.375001.1679696.769529.2519531 1.183593.2519531.414065 0 .810545-.0839835 1.189453-.2519531.378909-.1679696.710936-.4082016.996094-.7207031.285158-.3125016.511718-.6796854.679688-1.1015626.167969-.4218771.251953-.8906224.251953-1.40625 0-.5156275-.083984-.9843728-.251953-1.40625-.16797-.4218771-.39453-.7890609-.679688-1.1015624-.285158-.3125016-.617185-.5527336-.996094-.7207032-.378908-.1679696-.775388-.2519531-1.189453-.2519531zm17.134916 5.765625c-.179689.4453147-.406249.8632793-.679688 1.2539063-.273439.3906269-.601561.7343735-.984375 1.03125-.382814.2968764-.826169.529296-1.330078.6972656s-1.068356.2519531-1.693359.2519531c-.718754 0-1.390622-.1347643-2.015625-.4042969-.625004-.2695326-1.171873-.648435-1.640625-1.1367187-.468753-.4882837-.835937-1.068356-1.101563-1.7402344s-.398437-1.4179646-.398437-2.2382813c0-.812504.132811-1.5546841.398437-2.2265624.265626-.6718784.624998-1.2519507 1.078125-1.7402344s.988278-.8691393 1.605469-1.1425782c.61719-.2734388 1.269528-.4101562 1.957031-.4101562s1.339841.1367174 1.957031.4101562c.617191.2734389 1.152342.6542945 1.605469 1.1425782s.812499 1.068356 1.078125 1.7402344c.265626.6718783.398438 1.4140584.398438 2.2265624 0 .1250007-.007813.2480463-.023438.3691407-.015625.1210943-.03125.2246089-.046875.3105469-.015625.1093755-.03125.2031246-.046875.28125h-7.6875c.03125.3359391.128905.6562484.292969.9609374.164063.3046891.369139.5722645.615234.8027344s.541014.4140618.884766.5507813c.343751.1367194.707029.2050781 1.089844.2050781.656253 0 1.177732-.1406236 1.564453-.421875.38672-.2812514.666014-.5390613.83789-.7734375zm-4.804688-5.765625c-.718754 0-1.326169.2441382-1.822266.7324219-.496096.4882837-.810546 1.1269492-.943359 1.9160156h5.765625c-.125001-.7812539-.443357-1.4179663-.955078-1.9101562-.511721-.49219-1.193355-.7382813-2.044922-.7382813zm8.603665 5.4023437c.062501.4765649.246092.8554674.550782 1.1367188.304689.2812514.761715.421875 1.371093.421875.671879 0 1.160155-.1269519 1.464844-.3808594s.457031-.5644513.457031-.9316406c0-.3203141-.14453-.5644523-.433593-.7324219-.289064-.1679696-.646483-.3085932-1.072266-.421875-.425784-.1132818-.886716-.2304681-1.382813-.3515625-.496096-.1210943-.955076-.2929676-1.376953-.515625-.421877-.2226573-.777342-.5214825-1.066406-.8964844-.289064-.3750018-.433594-.8828092-.433594-1.5234374 0-.4453148.08789-.8652325.263672-1.2597657s.423827-.7402329.744141-1.0371093c.320314-.2968765.708982-.5292961 1.166015-.6972657.457034-.1679696.974607-.2519531 1.552735-.2519531 1.265631 0 2.224606.3046845 2.876953.9140625s1.013671 1.4257761 1.083984 2.4492187h-2.167968c-.062501-.3671893-.242187-.6796862-.539063-.9375-.296876-.2578137-.714841-.3867187-1.253906-.3867187-.546878 0-.964843.1249988-1.253906.375-.289064.2500012-.433594.5273422-.433594.8320313 0 .3203141.14453.5644522.433594.7324218.289063.1679696.646482.3066401 1.072265.4160156.425784.1093756.884763.2246088 1.376953.3457032.49219.1210943.95117.2929676 1.376953.515625.425784.2226573.783202.5234356 1.072266.9023437.289064.3789082.433594.8886687.433594 1.5292969 0 .9609423-.343747 1.7597624-1.03125 2.3964844-.687504.6367219-1.664056.9550781-2.929688.9550781-1.328131 0-2.324215-.3124969-2.988281-.9375s-1.027343-1.511713-1.089844-2.6601563zm10.045072 3.4804688h-2.15625v-10.8046875h2.15625zm-1.078125-12.4804688c-.36719 0-.679686-.1269518-.9375-.3808593s-.386719-.5683575-.386719-.9433594c0-.3671893.128905-.6777331.386719-.9316406s.57031-.3808594.9375-.3808594c.367189 0 .679686.1269519.9375.3808594s.386719.5644513.386719.9316406-.128905.6796862-.386719.9375-.570311.3867187-.9375.3867187zm13.173978 1.6757813v10.3242187c0 .6562533-.117187 1.2636691-.351563 1.8222657-.234376.5585965-.562498 1.0429667-.984375 1.453125s-.937497.7265614-1.546875.9492187c-.609378.2226574-1.289059.3339844-2.039062.3339844-.656254 0-1.248045-.091796-1.775391-.2753906-.527347-.1835947-.986326-.4277329-1.376953-.7324219s-.714843-.6601542-.972656-1.0664063c-.257814-.406252-.441406-.8359352-.550782-1.2890624h2.15625c.179689.3671893.464842.6992172.855469.9960937s.945309.4453125 1.664063.4453125c.851566 0 1.525388-.2441382 2.021484-.7324219s.744141-1.1230429.744141-1.9042969v-1.078125c-.210939.2265637-.460937.4257804-.75.5976563-.257814.1562508-.570311.2949213-.9375.4160156-.36719.1210944-.804685.1816407-1.3125.1816407-.656254 0-1.285154-.1347643-1.886719-.4042969-.601566-.2695326-1.126951-.6406227-1.576172-1.1132813s-.804686-1.0292936-1.066406-1.6699218c-.26172-.6406283-.392578-1.3359338-.392578-2.0859376 0-.7500037.130858-1.4453092.392578-2.0859374.26172-.6406283.617185-1.1972633 1.066406-1.6699219s.974606-.8457018 1.576172-1.1191407c.601565-.2734388 1.230465-.4101562 1.886719-.4101562.546877 0 1.015623.0644525 1.40625.1933594.390626.1289069.710936.2636711.960937.4042968.289064.1796884.539061.3828114.75.609375l.480469-1.0898437zm-4.898438 8.4023437c.382814 0 .753904-.0839835 1.113281-.2519531s.67578-.4003891.949219-.6972656.49414-.640623.662109-1.03125c.16797-.390627.251954-.8085915.251954-1.2539063 0-.4453147-.083984-.8652324-.251954-1.2597656-.167969-.3945332-.38867-.7402329-.662109-1.0371094-.273439-.2968764-.593748-.529296-.960937-.6972656-.36719-.1679696-.742186-.2519531-1.125-.2519531-.382815 0-.757811.0839835-1.125.2519531-.36719.1679696-.687499.4003892-.960938.6972656-.273439.2968765-.49414.6406231-.662109 1.03125-.16797.390627-.251953.8124978-.251953 1.265625 0 .4453148.083983.8632793.251953 1.2539063.167969.390627.392576.7343735.673828 1.03125.281251.2968765.60156.529296.960937.6972656s.73828.2519531 1.136719.2519531zm12.658353-8.5195312c.593753 0 1.154294.1171863 1.68164.3515625.527347.2343762.986327.5546855 1.376954.9609375.390626.406252.699217.8964815.925781 1.4707031.226563.5742216.339844 1.2089809.339844 1.9042969v6.234375h-2.15625v-6.234375c0-.3515643-.068359-.6874984-.205079-1.0078125-.136719-.3203141-.322264-.6015613-.55664-.84375s-.503905-.4355462-.808594-.5800781c-.304689-.144532-.624998-.2167969-.960937-.2167969-.36719 0-.710936.0722649-1.03125.2167969-.320315.1445319-.599609.3378894-.837891.5800781-.238283.2421887-.425781.5214828-.5625.8378906-.13672.3164079-.205078.6542951-.205078 1.0136719v6.234375h-2.15625v-10.8046875h1.558594l.480468 1.0898437c.210939-.2265636.45703-.4296866.738282-.609375.257813-.1406257.582029-.2753899.972656-.4042968s.859372-.1933594 1.40625-.1933594zm-160.863872 32.5195312c0 1.2968815.148436 2.490229.4453125 3.5800782s.6289044 2.0410115.9960937 2.8535156c.4140646.9453172.8945286 1.8007774 1.4414063 2.5664062l-1.5585937 1.0781248c-.6250032-.8125038-1.1835913-1.7382758-1.6757813-2.7773435-.4140646-.898442-.7988263-1.9628845-1.1542969-3.1933594-.3554705-1.2304749-.5332031-2.5996018-.5332031-4.1074219 0-1.50782.1777326-2.8769469.5332031-4.1074218.3554706-1.2304749.7402323-2.2910112 1.1542969-3.1816406.49219-1.0390677 1.0507781-1.9687459 1.6757813-2.7890626l1.5585937 1.078125c-.5468777.7656289-1.0273417 1.6210891-1.4414063 2.5664063-.3671893.8125041-.6992172 1.7636664-.9960937 2.8535156s-.4453125 2.2831967-.4453125 3.5800781zm7.1739778 5.4023438h-2.2734375v-15.1171875h2.2734375zm3.9278839 0h-2.4023437l3.7148437-5.5195312-3.4804687-5.2851563h2.4023437l2.4023438 3.609375 2.4023437-3.609375h2.4023438l-3.4804688 5.2851563 3.7148438 5.5195312h-2.4023438l-2.6367187-3.9609375zm13.7716341-2.15625c.6250031 0 1.2324189-.1367174 1.8222656-.4101562.5898467-.2734389 1.1132789-.6503883 1.5703125-1.1308594.4570335-.4804712.8261704-1.0488249 1.1074219-1.7050782.2812514-.6562532.421875-1.374996.421875-2.15625 0-.7812539-.1406236-1.4999967-.421875-2.15625-.2812515-.6562532-.6503884-1.2246069-1.1074219-1.7050781-.4570336-.4804711-.9804658-.8574205-1.5703125-1.1308593-.5898467-.2734389-1.1972625-.4101563-1.8222656-.4101563h-2.2851563v10.8046875zm-4.5585938 2.15625v-15.1171875h4.5585938c.9609423 0 1.8769487.1953105 2.7480468.5859375s1.6347624.9296841 2.2910157 1.6171875c.6562532.6875034 1.1796855 1.4882767 1.5703125 2.4023437.3906269.9140671.5859375 1.8984323.5859375 2.953125 0 1.0546928-.1953106 2.039058-.5859375 2.953125-.390627.9140671-.9140593 1.7148404-1.5703125 2.4023438-.6562533.6875034-1.4199176 1.2265605-2.2910157 1.6171875s-1.7871045.5859375-2.7480468.5859375zm15.6817902-5.4023438c0-1.2968814-.148436-2.4882758-.4453125-3.5742187-.2968764-1.0859429-.6289044-2.0390584-.9960937-2.859375-.4140646-.9453172-.8945285-1.8007774-1.4414063-2.5664063l1.5585938-1.078125c.6250031.8125041 1.1835913 1.7421823 1.6757812 2.7890626.4140646.8984419.7988264 1.9628844 1.1542969 3.1933593.3554706 1.2304749.5332031 2.5956956.5332031 4.0957031 0 1.5078201-.1757794 2.876947-.5273437 4.1074219s-.7382791 2.2949174-1.1601563 3.1933594c-.4921899 1.0390677-1.0507781 1.9648397-1.6757812 2.7773435l-1.5585938-1.0781248c.5468778-.7656288 1.0273417-1.621089 1.4414063-2.5664062.3671893-.8125041.6992173-1.7636664.9960937-2.8535156.2968765-1.0898492.4453125-2.2831967.4453125-3.5800782z" fill-rule="nonzero"/></g></g></svg>