<svg height="449" viewBox="0 0 478 449" width="478" xmlns="http://www.w3.org/2000/svg"><g fill="none" fill-rule="evenodd"><path d="m0 0h478v449h-478z" fill="#f22f2d"/><path d="m112.117188 68.4414062c0 .8125041.140623 1.5624966.421874 2.25.281252.6875035.650389 1.2832007 1.107422 1.7871094.457034.5039088.980466.896483 1.570313 1.1777344s1.197262.421875 1.822265.421875c.578128 0 1.099608-.0839835 1.564454-.2519531s.873045-.4003892 1.224609-.6972657c.351564-.2968764.642577-.640623.873047-1.03125.23047-.3906269.408202-.8085915.533203-1.2539062h2.402344c-.179689.7187536-.460936 1.3984343-.84375 2.0390625-.382815.6406282-.857419 1.2011695-1.423828 1.6816406-.566409.4804712-1.212887.8593736-1.939453 1.1367188-.726567.2773451-1.523434.4160156-2.390626.4160156-.960942 0-1.876948-.1953105-2.748046-.5859375s-1.634763-.9335903-2.291016-1.6289062c-.656253-.695316-1.179686-1.5078079-1.570312-2.4375-.390627-.9296922-.585938-1.9374946-.585938-3.0234376 0-1.0703178.195311-2.074214.585938-3.0117187.390626-.9375047.914059-1.7539028 1.570312-2.4492187.656253-.695316 1.419918-1.2382793 2.291016-1.6289063s1.787104-.5859375 2.748046-.5859375c.82813 0 1.603513.1386705 2.326172.4160156.72266.2773452 1.359373.6562476 1.910157 1.1367188.550784.4804711 1.019529 1.0410124 1.40625 1.6816406.38672.6406282.666014 1.3203089.83789 2.0390625h-2.402343c-.125001-.4453147-.304687-.8652324-.539063-1.2597656s-.523436-.7382798-.867187-1.03125c-.343752-.2929702-.73828-.5234367-1.183594-.6914063-.445315-.1679696-.941404-.2519531-1.488282-.2519531-.625003 0-1.232418.1386705-1.822265.4160156-.589847.2773452-1.113279.6679663-1.570313 1.171875-.457033.5039088-.82617 1.1015591-1.107422 1.7929688-.281251.6914097-.421874 1.4433553-.421874 2.2558593zm18.201321-3.3632812c.125001 0 .228515.0078124.310547.0234375s.158203.0312499.228516.046875l.1875.046875v2.1679687c-.062501-.015625-.136719-.0312499-.222657-.046875-.078125-.015625-.160156-.033203-.246093-.0527343-.085938-.0195314-.171875-.0292969-.257813-.0292969-.367189 0-.710936.0722649-1.03125.2167969-.320314.1445319-.599608.3378894-.837891.5800781-.238282.2421887-.42578.5234359-.5625.84375-.136719.3203141-.205078.6562482-.205078 1.0078125v6.1171875h-2.15625v-10.8046875h1.558594l.480469 1.0898437c.195313-.2265636.42578-.4296866.691406-.609375.226564-.1406257.511717-.2753899.855469-.4042968.343751-.1289069.746091-.1933594 1.207031-.1933594zm11.615384 7.8046875c-.179688.4453147-.406249.8632793-.679687 1.2539063-.273439.3906269-.601561.7343735-.984375 1.03125-.382815.2968764-.82617.529296-1.330079.6972656-.503908.1679696-1.068356.2519531-1.693359.2519531-.718754 0-1.390622-.1347643-2.015625-.4042969s-1.171873-.648435-1.640625-1.1367187-.835936-1.068356-1.101562-1.7402344c-.265627-.6718784-.398438-1.4179646-.398438-2.2382813 0-.812504.132811-1.5546841.398438-2.2265624.265626-.6718784.624997-1.2519507 1.078125-1.7402344.453127-.4882837.988278-.8691393 1.605468-1.1425782.617191-.2734388 1.269528-.4101562 1.957032-.4101562.687503 0 1.33984.1367174 1.957031.4101562.61719.2734389 1.152341.6542945 1.605469 1.1425782.453127.4882837.812498 1.068356 1.078125 1.7402344.265626.6718783.398437 1.4140584.398437 2.2265624 0 .1250007-.007812.2480463-.023437.3691407-.015626.1210943-.03125.2246089-.046875.3105469-.015626.1093755-.03125.2031246-.046875.28125h-7.6875c.03125.3359391.128905.6562484.292968.9609374.164064.3046891.36914.5722645.615235.8027344s.541014.4140618.884765.5507813c.343752.1367194.70703.2050781 1.089844.2050781.656253 0 1.177732-.1406236 1.564453-.421875s.666015-.5390613.837891-.7734375zm-4.804687-5.765625c-.718754 0-1.32617.2441382-1.822266.7324219s-.810546 1.1269492-.943359 1.9160156h5.765625c-.125001-.7812539-.443357-1.4179663-.955079-1.9101562-.511721-.49219-1.193355-.7382813-2.044921-.7382813zm11.240384-2.0390625c.625003 0 1.197263.0996084 1.716796.2988281.519534.1992198.962889.4707014 1.330079.8144531.367189.3437518.652342.7480446.855468 1.2128907.203126.464846.304688.9707004.304688 1.5175781v7.078125h-1.558594l-.480469-1.078125c-.210938.2265636-.460936.4257804-.75.5976562-.257814.1562508-.582029.2949213-.972656.4160157-.390627.1210943-.859372.1816406-1.40625.1816406-1.203131 0-2.123044-.2988251-2.759766-.8964844-.636722-.5976592-.955078-1.3769483-.955078-2.3378906 0-.5468777.103515-1.0410134.310547-1.4824219.207032-.4414084.562498-.8164047 1.066406-1.125.503909-.3085953 1.187496-.5507803 2.050782-.7265625.863285-.1757821 1.958977-.2636719 3.287109-.2636719v-.3632812c0-.5468777-.171873-.9843734-.515625-1.3125s-.851559-.4921875-1.523437-.4921875c-.718754 0-1.242186.128905-1.570313.3867187-.328127.2578138-.523437.5703107-.585937.9375h-2.15625c.0625-.9609423.46484-1.7617155 1.207031-2.4023437s1.777337-.9609375 3.105469-.9609375zm-.832032 9.1171875c.914067 0 1.621091-.2343727 2.121094-.703125s.75-1.0390591.75-1.7109375v-.5859375c-.960942 0-1.736325.0449214-2.326172.1347656s-1.052733.2109368-1.388672.3632813-.560546.3398426-.673828.5625c-.113282.2226573-.169922.4707017-.169922.7441406 0 .304689.14453.5800769.433594.8261719s.707029.3691406 1.253906.3691406zm10.408353-1.7929687c0 .4765648.160155.8749983.480469 1.1953124.320314.3203142.718747.4804688 1.195312.4804688.078126 0 .162109-.0039062.251953-.0117188.089845-.0078125.173828-.0195311.251953-.0351562.078126-.0156251.152344-.0390623.222657-.0703125v1.921875c-.093751.0468752-.207031.0859373-.339844.1171875-.242189.0781254-.527342.1171875-.855469.1171875-.476565 0-.91992-.0878897-1.330078-.2636719-.410158-.1757821-.767576-.4238265-1.072266-.7441406-.304689-.3203141-.541014-.707029-.708984-1.1601562-.167969-.4531273-.251953-.9687472-.251953-1.546875v-5.1679688h-1.921875v-2.0390625h.84375c.414065 0 .757811-.1347643 1.03125-.4042969s.410156-.611326.410156-1.0253906v-1.4414062h1.792969v2.8710937h2.402344v2.0390625h-2.402344zm6.810697 3.5976562h-2.15625v-10.8046875h2.15625zm-1.078125-12.4804688c-.36719 0-.679687-.1269518-.9375-.3808593-.257814-.2539075-.386719-.5683575-.386719-.9433594 0-.3671893.128905-.6777331.386719-.9316406.257813-.2539075.57031-.3808594.9375-.3808594.367189 0 .679686.1269519.9375.3808594.257813.2539075.386718.5644513.386718.9316406s-.128905.6796862-.386718.9375c-.257814.2578138-.570311.3867187-.9375.3867187zm13.05679 1.6757813-4.324219 10.8046875h-1.921875l-4.324219-10.8046875h2.285157l3 7.8046875 3-7.8046875zm10.771634 7.6875c-.179689.4453147-.406249.8632793-.679688 1.2539063-.273439.3906269-.60156.7343735-.984375 1.03125-.382814.2968764-.826169.529296-1.330078.6972656s-1.068356.2519531-1.693359.2519531c-.718754 0-1.390622-.1347643-2.015625-.4042969s-1.171873-.648435-1.640625-1.1367187c-.468753-.4882837-.835936-1.068356-1.101563-1.7402344-.265626-.6718784-.398437-1.4179646-.398437-2.2382813 0-.812504.132811-1.5546841.398437-2.2265624.265627-.6718784.624998-1.2519507 1.078125-1.7402344.453128-.4882837.988278-.8691393 1.605469-1.1425782.617191-.2734388 1.269528-.4101562 1.957031-.4101562.687504 0 1.339841.1367174 1.957031.4101562.617191.2734389 1.152342.6542945 1.605469 1.1425782.453128.4882837.812499 1.068356 1.078125 1.7402344.265627.6718783.398438 1.4140584.398438 2.2265624 0 .1250007-.007813.2480463-.023438.3691407-.015625.1210943-.03125.2246089-.046875.3105469-.015625.1093755-.03125.2031246-.046875.28125h-7.6875c.03125.3359391.128906.6562484.292969.9609374.164063.3046891.369139.5722645.615234.8027344s.541014.4140618.884766.5507813c.343752.1367194.707029.2050781 1.089844.2050781.656253 0 1.177732-.1406236 1.564453-.421875s.666015-.5390613.83789-.7734375zm-4.804688-5.765625c-.718753 0-1.326169.2441382-1.822265.7324219-.496097.4882837-.810547 1.1269492-.94336 1.9160156h5.765625c-.125-.7812539-.443357-1.4179663-.955078-1.9101562-.511721-.49219-1.193355-.7382813-2.044922-.7382813zm16.972956.1171875h-2.402344v8.765625h-2.15625v-8.765625h-1.324219v-2.0390625h1.324219v-.7148437c0-.5781279.083984-1.0957009.251953-1.5527344.16797-.4570336.402342-.8437484.703125-1.1601563.300783-.3164078.656248-.5624991 1.066406-.7382812.410159-.1757822.853514-.2636719 1.330078-.2636719.179689 0 .341797.0117186.486329.0351562.144532.0234377.271483.0507811.380859.0820313.125001.0468752.238281.0859373.339844.1171875v1.921875c-.062501-.0156251-.136719-.0312499-.222657-.046875-.078125-.0156251-.160155-.0312499-.246093-.046875s-.171875-.0234375-.257813-.0234375c-.476565 0-.874998.1601546-1.195312.4804687-.320314.3203142-.480469.7187477-.480469 1.1953126v.7148437h2.402344zm6.435696-2.15625c.125001 0 .228515.0078124.310547.0234375s.158203.0312499.228516.046875l.1875.046875v2.1679687c-.062501-.015625-.136719-.0312499-.222656-.046875-.078126-.015625-.160156-.033203-.246094-.0527343-.085938-.0195314-.171875-.0292969-.257813-.0292969-.367189 0-.710936.0722649-1.03125.2167969-.320314.1445319-.599608.3378894-.83789.5800781-.238283.2421887-.425781.5234359-.5625.84375-.13672.3203141-.205078.6562482-.205078 1.0078125v6.1171875h-2.15625v-10.8046875h1.558593l.480469 1.0898437c.195313-.2265636.42578-.4296866.691406-.609375.226564-.1406257.511717-.2753899.855469-.4042968s.746091-.1933594 1.207031-.1933594zm9.810697 5.5195312c0-.5156275-.083984-.9843728-.251953-1.40625-.16797-.4218771-.388671-.7890609-.66211-1.1015624-.273439-.3125016-.593748-.5527336-.960937-.7207032-.36719-.1679696-.742186-.2519531-1.125-.2519531-.382815 0-.757811.0839835-1.125.2519531-.36719.1679696-.687499.4082016-.960938.7207032-.273439.3125015-.49414.6816384-.662109 1.1074218-.16797.4257834-.251953.8925756-.251953 1.4003906 0 .5156276.083983.9843729.251953 1.40625.167969.4218772.38867.789061.662109 1.1015626.273439.3125015.593748.5527335.960938.7207031.367189.1679696.742185.2519531 1.125.2519531.382814 0 .75781-.0839835 1.125-.2519531.367189-.1679696.687498-.4082016.960937-.7207031.273439-.3125016.49414-.6796854.66211-1.1015626.167969-.4218771.251953-.8906224.251953-1.40625zm2.15625 0c0 .8125041-.130858 1.5566373-.392578 2.2324219-.26172.6757847-.628904 1.2578101-1.101563 1.7460938-.472658.4882837-1.021481.8671861-1.646484 1.1367187s-1.296872.4042969-2.015625.4042969c-.718754 0-1.390622-.1347643-2.015625-.4042969s-1.173826-.648435-1.646485-1.1367187c-.472658-.4882837-.839842-1.068356-1.101562-1.7402344s-.392578-1.4179646-.392578-2.2382813c0-.812504.130858-1.5546841.392578-2.2265624.26172-.6718784.628904-1.2519507 1.101562-1.7402344.472659-.4882837 1.021482-.8691393 1.646485-1.1425782.625003-.2734388 1.296871-.4101562 2.015625-.4101562.718753 0 1.390622.1367174 2.015625.4101562.625003.2734389 1.173826.6542945 1.646484 1.1425782.472659.4882837.839843 1.068356 1.101563 1.7402344.26172.6718783.392578 1.4140584.392578 2.2265624zm7.173978-5.5195312c.593752 0 1.154294.1171863 1.68164.3515625.527347.2343762.986326.5546855 1.376953.9609375s.699218.8964815.925782 1.4707031c.226563.5742216.339843 1.2089809.339843 1.9042969v6.234375h-2.15625v-6.234375c0-.3515643-.068358-.6874984-.205078-1.0078125-.136719-.3203141-.322264-.6015613-.55664-.84375-.234377-.2421887-.503905-.4355462-.808594-.5800781-.304689-.144532-.624999-.2167969-.960938-.2167969-.367189 0-.710936.0722649-1.03125.2167969-.320314.1445319-.599608.3378894-.83789.5800781-.238283.2421887-.425781.5214828-.5625.8378906-.13672.3164079-.205078.6542951-.205078 1.0136719v6.234375h-2.15625v-10.8046875h1.558593l.480469 1.0898437c.210939-.2265636.45703-.4296866.738281-.609375.257814-.1406257.58203-.2753899.972657-.4042968.390626-.1289069.859372-.1933594 1.40625-.1933594zm9.927884 7.3242188c0 .4765648.160154.8749983.480468 1.1953124.320314.3203142.718748.4804688 1.195313.4804688.078125 0 .162109-.0039062.251953-.0117188.089844-.0078125.173828-.0195311.251953-.0351562s.152343-.0390623.222656-.0703125v1.921875c-.09375.0468752-.20703.0859373-.339843.1171875-.242189.0781254-.527343.1171875-.855469.1171875-.476565 0-.91992-.0878897-1.330078-.2636719-.410159-.1757821-.767577-.4238265-1.072266-.7441406s-.541015-.707029-.708984-1.1601562c-.16797-.4531273-.251953-.9687472-.251953-1.546875v-5.1679688h-1.921875v-2.0390625h.84375c.414064 0 .757811-.1347643 1.03125-.4042969.273438-.2695326.410156-.611326.410156-1.0253906v-1.4414062h1.792969v2.8710937h2.402343v2.0390625h-2.402343zm19.023736.4804687c-.179688.4453147-.406248.8632793-.679687 1.2539063-.273439.3906269-.601561.7343735-.984375 1.03125-.382815.2968764-.82617.529296-1.330078.6972656-.503909.1679696-1.068357.2519531-1.69336.2519531-.718753 0-1.390622-.1347643-2.015625-.4042969s-1.171872-.648435-1.640625-1.1367187c-.468752-.4882837-.835936-1.068356-1.101562-1.7402344-.265627-.6718784-.398438-1.4179646-.398438-2.2382813 0-.812504.132811-1.5546841.398438-2.2265624.265626-.6718784.624997-1.2519507 1.078125-1.7402344.453127-.4882837.988278-.8691393 1.605469-1.1425782.61719-.2734388 1.269527-.4101562 1.957031-.4101562.687503 0 1.33984.1367174 1.957031.4101562.617191.2734389 1.152341.6542945 1.605469 1.1425782.453127.4882837.812498 1.068356 1.078125 1.7402344.265626.6718783.398437 1.4140584.398437 2.2265624 0 .1250007-.007812.2480463-.023437.3691407-.015625.1210943-.03125.2246089-.046875.3105469-.015625.1093755-.03125.2031246-.046875.28125h-7.6875c.03125.3359391.128905.6562484.292969.9609374.164063.3046891.369139.5722645.615234.8027344s.541014.4140618.884766.5507813c.343751.1367194.707029.2050781 1.089843.2050781.656254 0 1.177733-.1406236 1.564453-.421875.386721-.2812514.666015-.5390613.837891-.7734375zm-4.804687-5.765625c-.718754 0-1.32617.2441382-1.822266.7324219s-.810546 1.1269492-.943359 1.9160156h5.765625c-.125001-.7812539-.443357-1.4179663-.955078-1.9101562-.511722-.49219-1.193355-.7382813-2.044922-.7382813zm12.201321-2.0390625c.593753 0 1.154294.1171863 1.681641.3515625.527346.2343762.986326.5546855 1.376953.9609375s.699218.8964815.925781 1.4707031c.226564.5742216.339844 1.2089809.339844 1.9042969v6.234375h-2.15625v-6.234375c0-.3515643-.068359-.6874984-.205078-1.0078125-.13672-.3203141-.322265-.6015613-.556641-.84375s-.503904-.4355462-.808593-.5800781c-.30469-.144532-.624999-.2167969-.960938-.2167969-.367189 0-.710936.0722649-1.03125.2167969-.320314.1445319-.599608.3378894-.837891.5800781-.238282.2421887-.42578.5214828-.5625.8378906-.136719.3164079-.205078.6542951-.205078 1.0136719v6.234375h-2.15625v-10.8046875h1.558594l.480469 1.0898437c.210938-.2265636.45703-.4296866.738281-.609375.257814-.1406257.582029-.2753899.972656-.4042968s.859373-.1933594 1.40625-.1933594zm11.369291 11.0390625c-.718754 0-1.390622-.1347643-2.015625-.4042969-.625004-.2695326-1.173826-.648435-1.646485-1.1367187-.472658-.4882837-.839842-1.068356-1.101562-1.7402344s-.392578-1.4179646-.392578-2.2382813c0-.812504.130858-1.5546841.392578-2.2265624.26172-.6718784.628904-1.2519507 1.101562-1.7402344.472659-.4882837 1.021481-.8691393 1.646485-1.1425782.625003-.2734388 1.296871-.4101562 2.015625-.4101562.515627 0 .957029.0644525 1.324218.1933594.36719.1289069.679686.2636711.9375.4042968.289064.1796884.535155.3828114.738282.609375v-5.4023437h2.15625v15.1171875h-1.558594l-.480469-1.078125c-.210939.2265636-.45703.4257804-.738281.5976562-.257814.1562508-.58203.2949213-.972656.4160157-.390627.1210943-.859373.1816406-1.40625.1816406zm.117187-9c-.414065 0-.808592.0839835-1.183594.2519531s-.70703.4082016-.996093.7207032c-.289064.3125015-.517578.6816384-.685547 1.1074218-.16797.4257834-.251953.8925756-.251953 1.4003906 0 .5156276.083983.9843729.251953 1.40625.167969.4218772.396483.789061.685547 1.1015626.289063.3125015.621091.5527335.996093.7207031s.769529.2519531 1.183594.2519531.810545-.0839835 1.189453-.2519531.710936-.4082016.996094-.7207031c.285158-.3125016.511718-.6796854.679687-1.1015626.16797-.4218771.251954-.8906224.251954-1.40625 0-.5156275-.083984-.9843728-.251954-1.40625-.167969-.4218771-.394529-.7890609-.679687-1.1015624-.285158-.3125016-.617186-.5527336-.996094-.7207032s-.775388-.2519531-1.189453-.2519531z" fill="#fff" fill-rule="nonzero"/><path d="m263 182.368455-63.914418 158.631545c-44.107336-17.86984-65.555667-67.867088-47.906188-111.67198 17.649479-43.804891 67.71327-64.829405 111.820606-46.959565z" fill="#ffc1c1"/><path d="m277.914424 146c44.10733 17.87034 65.555661 67.867418 47.906182 111.672161s-67.71327 64.829185-111.820606 46.959406z" fill="#4a40fd"/><g fill-rule="nonzero"><path d="m225.073439 252.03883-2.546878 2.544291-14.470854-14.48556 14.470854-14.48556 2.546878 2.544291-11.929146 11.941269z" fill="#4a40fd"/><path d="m272.273439 252.03883-2.546878 2.544291-14.470854-14.48556 14.470854-14.48556 2.546878 2.544291-11.929146 11.941269z" fill="#ffc1c1" transform="matrix(-1 0 0 -1 527.529146 480.195122)"/></g></g></svg>