<svg height="338" viewBox="0 0 560 338" width="560" xmlns="http://www.w3.org/2000/svg" xmlns:xlink="http://www.w3.org/1999/xlink"><defs><path id="a" d="m5.99999964 0h179.53830836c3.313709 0 6 2.68629134 6 5.99999964v120.20528136h-191.538308v-120.20528136c0-3.3137083 2.68629134-5.99999964 5.99999964-5.99999964z"/><filter id="b" height="157%" width="137.6%" x="-12.5%" y="-14.3%"><feOffset dx="12" dy="18" in="SourceAlpha" result="shadowOffsetOuter1"/><feGaussianBlur in="shadowOffsetOuter1" result="shadowBlurOuter1" stdDeviation="9"/><feColorMatrix in="shadowBlurOuter1" type="matrix" values="0 0 0 0 0   0 0 0 0 0   0 0 0 0 0  0 0 0 0.173601676 0"/></filter><path id="c" d="m5.99999964 0h114.67843936c3.313708 0 6 2.68629134 6 5.99999964v74.39353726h-126.678439v-74.39353726c0-3.3137083 2.68629134-5.99999964 5.99999964-5.99999964z"/><filter id="d" height="189.6%" width="156.8%" x="-18.9%" y="-22.4%"><feOffset dx="12" dy="18" in="SourceAlpha" result="shadowOffsetOuter1"/><feGaussianBlur in="shadowOffsetOuter1" result="shadowBlurOuter1" stdDeviation="9"/><feColorMatrix in="shadowBlurOuter1" type="matrix" values="0 0 0 0 0   0 0 0 0 0   0 0 0 0 0  0 0 0 0.173601676 0"/></filter><mask id="e" fill="#fff"><use fill="#fff" fill-rule="evenodd" xlink:href="#c"/></mask></defs><g fill="none" fill-rule="evenodd"><path d="m337.398928 0v129.687742h-134.778269v-129.687742h-79.620659v338h79.620659v-138.27269h134.778269v138.27269h78.732759v-338zm143.4735 338h79.127572v-335.60283688h-79.127572z" fill="#f9f9f9"/><g transform="translate(107.037175 124)"><g transform="translate(30.414977)"><g transform="translate(21.532342)"><use fill="#000" filter="url(#b)" xlink:href="#a"/><use fill="#c3002f" fill-rule="evenodd" xlink:href="#a"/></g><g fill="#a6032a"><path d="m35.4851225 12.5100401h165.3128215v43.0901383h-165.3128215z"/><path d="m92.4416409 67.4152163h51.3997851v43.0901377h-51.3997851z"/><path d="m35.4851225 67.4152163h51.3997849v43.0901377h-51.3997849z"/><path d="m149.398159 67.4152163h51.399785v43.0901377h-51.399785z"/><path d="m6.95002229 119.540383h218.09357971c3.838391 0 6.950022 3.111631 6.950022 6.950023h-231.993624c0-3.838392 3.11163097-6.950023 6.95002229-6.950023z" transform="matrix(1 0 0 -1 0 246.03079)"/></g></g><path d="m2.53458145 181.263165v-47.560731h146.03367355v33.710075" stroke="#3d3d3d" stroke-dasharray="2.4 2.4" stroke-width=".6" transform="matrix(-1 0 0 -1 151.102836 314.9656)"/><g fill="#c3002f"><path d="m0 178.926855h5.0277256v5.030869h-5.0277256z"/><path d="m145.738433 178.926855h5.027726v5.030869h-5.027726z"/></g></g><g transform="translate(47 186.535948)"><use fill="#000" filter="url(#d)" xlink:href="#c"/><use fill="#c3002f" fill-rule="evenodd" xlink:href="#c"/><path d="m-10.6551958-7.13580783h160.7158698v24.08335143h-160.7158698z" fill="#a6032a" mask="url(#e)"/><g mask="url(#e)" stroke="#fff" stroke-linecap="square" stroke-width="1.8"><g transform="translate(45.027881 31.267974)"><path d="m35.2845931 20.7800013v-5.652631h-5.4774252c-.2816652-1.2023745-.7400466-2.3342943-1.3458198-3.3725326l4.1269752-4.13669465-3.9834417-3.99965646-4.0305145 4.04456162c-1.1652454-.76183932-2.4655358-1.33089614-3.8584286-1.65839414v-5.49623716h-5.6371641v5.49623716c-1.1961129.28336707-2.3250891.7409352-3.3576046 1.34792913l-3.72106847-3.73332238-3.98421334 3.99888223 3.62537948 3.63809245c-.75856705 1.16676-1.32498437 2.4721067-1.65372248 3.8711348h-5.4774252v5.652631h5.4774252c.32873811 1.3967054.89515543 2.7028263 1.65372248 3.8726832l-3.62537948 3.636544 3.98421334 3.9973338 3.72106847-3.7340966c1.0325155.6085424 2.1614917 1.067659 3.3576046 1.3502518v5.4939145h5.6371641v-5.4939145c1.3928928-.3298207 2.6931832-.8981033 3.8584286-1.6591684l4.0305145 4.0430132 3.9834417-3.9957853-4.1269752-4.14134c.6073166-1.0343672 1.0641546-2.1686097 1.3458198-3.3694357z"/><path d="m22.7785396 17.9103233c0 2.7300322-2.2029387 4.9393499-4.9240706 4.9393499-2.720308 0-4.9248944-2.2093177-4.9248944-4.9393499 0-2.7308588 2.2045864-4.9418296 4.9248944-4.9418296 2.7211319 0 4.9240706 2.2109708 4.9240706 4.9418296z"/></g></g><g fill="#fff"><path d="m13.6755133 8.2752643c0 1.38869685-1.1263243 2.5160522-2.5178922 2.5160522-1.39156782 0-2.52045483-1.12735535-2.52045483-2.5160522 0-1.39254011 1.12888701-2.51989549 2.52045483-2.51989549 1.3915679 0 2.5178922 1.12735538 2.5178922 2.51989549"/><path d="m22.3126795 8.2752643c0 1.38869685-1.1266108 2.5160522-2.5185326 2.5160522-1.3919219 0-2.5198144-1.12735535-2.5198144-2.5160522 0-1.39254011 1.1278925-2.51989549 2.5198144-2.51989549 1.3919218 0 2.5185326 1.12735538 2.5185326 2.51989549"/></g></g><path d="m0 0h1v1h-1z" fill="#fff" opacity=".01"/></g></svg>