<svg height="590" viewBox="0 0 1400 590" width="1400" xmlns="http://www.w3.org/2000/svg" xmlns:xlink="http://www.w3.org/1999/xlink"><linearGradient id="a"><stop offset="0" stop-color="#231f1f"/><stop offset="1"/></linearGradient><linearGradient id="b" x1="-.000459%" x2="100.000335%" xlink:href="#a" y1="50.000065%" y2="50.000065%"/><linearGradient id="c" x1="50%" x2="50%" y1="0%" y2="97.430455%"><stop offset="0" stop-color="#ffdc00"/><stop offset="1" stop-color="#ffa300"/></linearGradient><linearGradient id="d" x1=".000402%" x2="100.000197%" xlink:href="#a" y1="49.999929%" y2="49.999929%"/><linearGradient id="e" x1="-.000212%" x2="99.999671%" xlink:href="#a" y1="49.999909%" y2="49.999909%"/><linearGradient id="f"><stop offset="0" stop-color="#b6c3c6"/><stop offset="1" stop-color="#fff"/></linearGradient><linearGradient id="g" x1="67.341978%" x2="-1.182964%" xlink:href="#f" y1="118.76074%" y2=".675329%"/><linearGradient id="h" x1=".21402%" x2="65.955384%" xlink:href="#f" y1="21.114503%" y2="59.257921%"/><linearGradient id="i" x1="20.551804%" x2="120.804952%" xlink:href="#f" y1="-20.453165%" y2="79.298635%"/><linearGradient id="j" x1="100.959979%" x2="32.871393%" xlink:href="#f" y1=".556244%" y2="119.067233%"/><linearGradient id="k" x1=".000594%" x2="107.231186%" xlink:href="#a" y1="55.705732%" y2="55.705732%"/><linearGradient id="l" x1="1.860472%" x2="97.357734%" y1="49.99894%" y2="49.99894%"><stop offset="0" stop-color="#231f1f" stop-opacity=".577559"/><stop offset="1" stop-color="#231f1f" stop-opacity=".15758"/></linearGradient><linearGradient id="m"><stop offset="0" stop-color="#ffa300"/><stop offset="1" stop-color="#ffe200"/></linearGradient><linearGradient id="n" x1="12.38174%" x2="82.785268%" xlink:href="#m" y1="68.249681%" y2="34.093054%"/><linearGradient id="o" x1="-.000223%" x2="99.999883%" xlink:href="#a" y1="50.000154%" y2="50.000154%"/><linearGradient id="p" x1=".000325%" x2="100%" xlink:href="#a" y1="50.000386%" y2="50.000386%"/><linearGradient id="q" x1="-.000148%" x2="115.766569%" xlink:href="#a" y1="53.57312%" y2="53.57312%"/><linearGradient id="r" x1="12.38078%" x2="82.784814%" xlink:href="#m" y1="68.251907%" y2="34.092917%"/><linearGradient id="s" x1="-.000294%" x2="100.000494%" xlink:href="#a" y1="49.999718%" y2="49.999718%"/><linearGradient id="t" x1=".000278%" x2="100.000079%" xlink:href="#a" y1="49.999841%" y2="49.999841%"/><linearGradient id="u" x1="67.341124%" x2="-1.180869%" xlink:href="#f" y1="118.759451%" y2=".679099%"/><linearGradient id="v" x1=".215959%" x2="65.957363%" xlink:href="#f" y1="21.114484%" y2="59.257921%"/><linearGradient id="w" x1="20.555392%" x2="120.806264%" xlink:href="#f" y1="-20.455937%" y2="79.297709%"/><linearGradient id="x" x1="100.959301%" x2="32.87149%" xlink:href="#f" y1=".553396%" y2="119.072825%"/><linearGradient id="y" x1=".000426%" x2="99.999142%" xlink:href="#a" y1="50.000288%" y2="50.000288%"/><linearGradient id="z" x1=".002417%" x2="99.999946%" y1="49.999792%" y2="49.999792%"><stop offset="0" stop-color="#a31128"/><stop offset="1" stop-color="#ff1c10"/></linearGradient><linearGradient id="A" x1=".207803%" x2="65.953885%" y1="21.110362%" y2="59.254957%"><stop offset="0" stop-color="#ef902a"/><stop offset="1" stop-color="#efca2a"/></linearGradient><linearGradient id="B" x1="20.560068%" x2="120.804969%" y1="-20.454925%" y2="79.296868%"><stop offset="0" stop-color="#343338"/><stop offset="1" stop-color="#3f6072"/></linearGradient><linearGradient id="C" x1=".001959%" x2="99.999908%" y1="50.001236%" y2="50.001236%"><stop offset="0" stop-color="#4bb19c"/><stop offset="1" stop-color="#4b909c"/></linearGradient><linearGradient id="D" x1="50.003115%" x2="50.003115%" y1="100.0067%" y2="-.006708%"><stop offset="0" stop-color="#bfc1c3"/><stop offset="1" stop-color="#fff"/></linearGradient><linearGradient id="E" x1="-.000638%" x2="100.001099%" xlink:href="#a" y1="49.999766%" y2="49.999766%"/><linearGradient id="F" x1="-.000279%" x2="99.999998%" y1="49.999284%" y2="49.999284%"><stop offset="0" stop-color="#4bb19c"/><stop offset="1" stop-color="#008993"/></linearGradient><linearGradient id="G" x1="12.378247%" x2="82.785677%" xlink:href="#m" y1="68.254132%" y2="34.09461%"/><mask id="H" fill="#fff"><path d="m106.422034 54.6930119c-2.971558 34.8629574-32.147013 62.2317501-67.6963099 62.2317501-1.393739 0-2.7776764-.042069-4.1506175-.125008l-30.93525142-30.7823283-3.00244664-15.909932 12.12180636 12.0273393 39.8837881-81.71948392z" fill="#fff" fill-rule="evenodd"/></mask><mask id="I" fill="#fff"><path d="m.70051829 7.23696312 7.6725686 9.38148278 6.93418441-3.1851494-9.93663106-12.72478263z" fill="#fff" fill-rule="evenodd"/></mask><mask id="J" fill="#fff"><path d="m.26474085 5.70448557 34.23704265 40.36314963 5.7761205-2.7992624-36.07826985-42.65633068z" fill="#fff" fill-rule="evenodd"/></mask><mask id="K" fill="#fff"><path d="m34.8768571 97.6062707-34.40195618-34.7942558 5.26808688-49.2812517 54.0219512 5.5415907 29.3728583-18.50834343 23.5561427 23.99654233c.153322 1.8673177.231502 3.7559947.231502 5.662987 0 37.6097509-30.4189024 68.1074775-67.9455411 68.1074775-3.4330969 0-6.8067311-.2467717-10.1030438-.7247466z" fill="#fff" fill-rule="evenodd"/></mask><mask id="L" fill="#fff"><path d="m28.2212267 107.224931-27.63272822-27.7122319 30.96006862-21.4372892 13.380846-34.8848191 33.2872409-23.14847671 28.176222 28.38682141c.646699 3.7732893.983641 7.6527009.983641 11.6110008 0 37.6129138-30.4236359 68.1074777-67.9471191 68.1074777-3.8177946 0-7.5620374-.315703-11.2081712-.922483z" fill="#fff" fill-rule="evenodd"/></mask><mask id="M" fill="#fff"><path d="m.76836128 27.4201194c0 3.4413531 1.52094512 5.5384277 3.4284375 8.0213892 1.90433689 2.4845431 6.86003052 3.2499911 6.86003052 3.2499911h28.006532l-38.29500002-38.58237591z" fill="#fff" fill-rule="evenodd"/></mask><mask id="N" fill="#fff"><path d="m11.6910823.83028969c-3.43001523 0-5.52525913 1.52615154-8.0038948 3.43819009-2.47705793 1.90887554-3.23910823 6.87638012-3.23910823 6.87638012v28.0780252l38.49064023-38.39259541z" fill="#fff" fill-rule="evenodd"/></mask><mask id="O" fill="#fff"><path d="m.64056402.59880357 38.29815548 38.58237593v-27.3141587c0-3.43819005-1.5256783-5.5384276-3.4300152-8.01980765-1.9059147-2.48296156-6.8600305-3.24840958-6.8600305-3.24840958z" fill="#fff" fill-rule="evenodd"/></mask><mask id="P" fill="#fff"><path d="m.64056402 38.4600136h27.24605948c3.431593 0 5.5252591-1.5308961 8.0038948-3.4397716 2.4770579-1.9088755 3.2391082-6.8763802 3.2391082-6.8763802v-28.07644364z" fill="#fff" fill-rule="evenodd"/></mask><mask id="Q" fill="#fff"><path d="m.39759146 7.61910061c0 3.90789679 3.16022104 7.07723119 7.06040397 7.07723119 3.89860517 0 7.05882617-3.1693344 7.05882617-7.07723119 0-3.90789682-3.160221-7.07564969-7.05882617-7.07564969-3.90018293 0-7.06040397 3.16775287-7.06040397 7.07564969" fill="#fff" fill-rule="evenodd"/></mask><mask id="R" fill="#fff"><path d="m.58470732.50865783h135.88634868v136.21258217h-135.88634868z" fill="#fff" fill-rule="evenodd"/></mask><mask id="S" fill="#fff"><path d="m53.6859522 101.695187-30.3246184-30.2529038 6.2620656-16.4919255-29.18510672-27.3869079 32.78236282-27.51184668 30.0008003 32.27533728 28.1863948-31.12874675 24.1152744 24.85082885c.289066 2.5507049.437576 5.1441772.437576 7.7724393 0 35.6977137-27.4037142 64.9858455-62.2747488 67.8737252z" fill="#fff" fill-rule="evenodd"/></mask><mask id="T" fill="#fff"><path d="m9.48823171 25.4179352 16.01410059-24.48484773 17.6091997 17.49934373 49.033125 5.3391581 14.354314 15.4228288c.03471.8824793.050488 1.7665401.050488 2.656927 0 28.2440831-17.1548096 52.4743086-41.5877517 62.7920419l-64.38299541-65.3414267 3.50101372-11.7205274z" fill="#fff" fill-rule="evenodd"/></mask><mask id="U" fill="#fff"><path d="m.19564024.28783376 16.94339176 17.33803034.0031555 23.4442179s-2.8841159.012652-4.861029-.0253041c-1.9769131-.0332115-2.49441307.0585157-5.19551063-.583575-3.3132622-.7875891-7.05567074-5.9148256-7.05567074-5.9148256z" fill="#fff" fill-rule="evenodd"/></mask><mask id="V" fill="#fff"><path d="m.70367378 2.15974819c-.10728658-.73381794-.0646875-1.36009359-.16724085-2.02116234-.00473323.57883053.04417683 1.27152936.16724085 2.02116234m.06784299.37165348c-.02366616-.12493883-.04733232-.24987766-.06784299-.37165348.01893293.12019432.04102134.24513315.06784299.37165348m2.12364329 4.8077727c.30292683.37165349 2.17255335 2.39597883 2.17255335 2.39597883l34.57783539 34.4910246s3.36375 3.6627637 6.4229954 4.6448778c2.1015549.6737208 3.7992073.6407767 3.7992073.6407767s-10.023407.0329441-10.2111585-12.473591c-.1025534-6.7925604 0-28.20454548 0-28.20454548s-26.7538034-.10279777-27.7383156-.10279777c-4.70009905 0-8.69967984-1.04062975-10.57561734-4.65120379-.30292683-.58357504-.47174543-1.08807487-.57114329-1.54829259.3092378 1.58308568.9561128 3.36069638 2.12364329 4.8077727" fill="#fff" fill-rule="evenodd"/></mask><mask id="W" fill="#fff"><path d="m33.1001744 115.490455-29.28614264-29.4286697-2.51264364-15.2423308 12.06986088 11.7170873 39.8006547-81.67499126 56.9211033 57.04384036v4.1262481c0 29.5235191-23.9404812 53.458816-53.4723457 53.458816z" fill="#fff" fill-rule="evenodd"/></mask><mask id="X" fill="#fff"><path d="m1.28557538 7.48363351 7.68973318 9.37746389 6.94969714-3.1822041-9.95886067-12.72091233z" fill="#fff" fill-rule="evenodd"/></mask><mask id="Y" fill="#fff"><path d="m.20714683 5.95339328 34.31363567 40.34427772 5.7890423-2.799644-36.15740051-42.63647646z" fill="#fff" fill-rule="evenodd"/></mask><mask id="Z" fill="#fff"><path d="m55.4665831 104.424668-30.4255355-30.3076091 3.0281388-17.7969467-27.00024549-27.2566137 33.02331639-27.50164174 31.3139598 31.17864464 26.6080897-30.01357538 24.5635032 24.40753708v23.8313891c0 29.5235191-23.9389002 53.4588158-53.4707647 53.4588158z" fill="#fff" fill-rule="evenodd"/></mask><mask id="aa" fill="#fff"><path d="m8.74128008 22.3528893 16.47687022-20.88904379 15.7305091 15.72448299 51.1921492 6.94141 14.6283614 15.0526316v14.9451355c0 24.9233134-17.0587788 45.8629436-40.1406285 51.7831394l-66.39135047-66.2192487v-7.8187688z" fill="#fff" fill-rule="evenodd"/></mask><mask id="ab" fill="#fff"><path d="m.62618432.69398291 16.98129648 17.32744129.0031625 23.4389172s-2.890568.0110658-4.8719037-.0252933c-1.9813358-.036359-2.4999935.0584906-5.20713377-.583325-3.32067442-.7904133-7.07145523-5.9154534-7.07145523-5.9154534z" fill="#fff" fill-rule="evenodd"/></mask><mask id="ac" fill="#fff"><path d="m1.13219185 3.47149539c-.10278278-.71927614-.06166967-1.33579854-.16287118-1.98551831-.00474382.56909761.04111312 1.25043391.16287118 1.98551831m.08064495.44737395c-.0300442-.15175936-.05692585-.30035707-.08064495-.44737395.02055655.14385523.04585693.29245294.08064495.44737395m2.11890653 4.75986914c.30360452.37781758 2.17741365 2.39969492 2.17741365 2.39969492l34.65677202 34.4746682s3.3712751 3.6627755 6.4373645 4.6413072c2.1062563.6765938 3.8061254.6390398 3.8061254.6390398s-10.0442495.037554-10.2340023-12.4652042c-.1027828-6.7880698-.0015813-28.1908822-.0015813-28.1908822s-26.8136552-.1059154-27.7987886-.1059154c-4.7106139 0-8.7191423-1.04018397-10.59927652-4.64604963-.29411688-.56593595-.46331315-1.05915388-.56293338-1.50652783.31309216 1.5697609.95983303 3.32764017 2.11890653 4.75986914" fill="#fff" fill-rule="evenodd"/></mask><mask id="ad" fill="#fff"><path d="m36.9974191 99.682188-36.5072243-36.2799723 4.78177115-47.1054734 54.14280565 5.5392166 30.101123-20.48909457 24.0590764 24.05955527v20.8169526c0 29.5235191-23.9388996 53.4588158-53.4707641 53.4588158z" fill="#fff" fill-rule="evenodd"/></mask><mask id="ae" fill="#fff"><path d="m29.6899296 109.167148-28.94040595-28.4280061 31.95911935-22.6374381 13.4076183-34.8714557 32.3829006-22.14263934 28.9120051 28.99205334v25.6286701c0 29.5235191-23.9404811 53.4588158-53.4723456 53.4588158z" fill="#fff" fill-rule="evenodd"/></mask><mask id="af" fill="#fff"><path d="m1.11954166 27.5569707c0 3.4351364 1.52751023 5.536055 3.43768866 8.0179529 1.90859715 2.4787363 6.87379608 3.2454372 6.87379608 3.2454372h28.0707677l-38.38225244-38.56742853z" fill="#fff" fill-rule="evenodd"/></mask><mask id="ag" fill="#fff"><path d="m12.0682796.97537006c-3.43768867 0-5.53761992 1.5286594-8.02180063 3.43671721-2.48259945 1.91121945-3.24635456 6.87343443-3.24635456 6.87343443v28.0659969l38.57674909-38.37614854z" fill="#fff" fill-rule="evenodd"/></mask><mask id="ah" fill="#fff"><path d="m.9914585.10275373 38.385415 38.56584767v-27.2992959c0-3.43829804-1.5290915-5.54079753-3.4376887-8.01953376-1.9101784-2.48189789-6.8753773-3.24701801-6.8753773-3.24701801z" fill="#fff" fill-rule="evenodd"/></mask><mask id="ai" fill="#fff"><path d="m.99303978 39.5269903h27.31017512c3.4361074 0 5.5376199-1.5254977 8.0170568-3.4367172 2.4825995-1.9080578 3.2463546-6.8734344 3.2463546-6.8734344v-28.0612544z" fill="#fff" fill-rule="evenodd"/></mask><mask id="aj" fill="#fff"><path d="m.74952365 7.12004337c0 3.90938443 3.16570961 7.07419943 7.07461778 7.07419943s7.07778037-3.164815 7.07778037-7.07419943c0-3.90622273-3.1688722-7.0741994-7.07778037-7.0741994s-7.07461778 3.16797667-7.07461778 7.0741994" fill="#fff" fill-rule="evenodd"/></mask><mask id="ak" fill="#fff"><path d="m50.7013435 36.3694507c-1.5808477.7984947-43.74064778 22.0080959-43.74064778 22.0080959l-6.18268692-7.5213575 59.5441583-50.26391725 18.0233187 21.29703965" fill="#fff" fill-rule="evenodd"/></mask><mask id="al" fill="#fff"><path d="m.93029988 8.09713151 8.0482527 9.78980819 7.27686522-3.3226616-10.42531784-13.27909769z" fill="#fff" fill-rule="evenodd"/></mask><mask id="am" fill="#fff"><path d="m.45504198 5.49849247 35.92248702 42.10904333 6.0585366-2.9234142-37.85095564-44.49792813z" fill="#fff" fill-rule="evenodd"/></mask><mask id="an" fill="#fff"><path d="m.50818873 29.0955606c0 3.5882765 1.60236705 5.7775376 3.60035985 8.3693456 1.9979928 2.5901582 7.19575372 3.387003 7.19575372 3.387003h29.3888684l-40.18498197-40.2464391z" fill="#fff" fill-rule="evenodd"/></mask><mask id="ao" fill="#fff"><path d="m11.9697481 1.35777083c-3.59704918 0-5.7969932 1.5936897-8.39421831 3.58497693-2.60053579 1.99128723-3.3967533 7.17325344-3.3967533 7.17325344v29.2902349l40.38031191-40.04846527z" fill="#fff" fill-rule="evenodd"/></mask><mask id="ap" fill="#fff"><path d="m.3757617.447091 40.1833267 40.2464391v-28.4917402c0-3.58497696-1.6007118-5.77588785-3.5987046-8.36769584s-7.1957537-3.38700306-7.1957537-3.38700306z" fill="#fff" fill-rule="evenodd"/></mask><mask id="aq" fill="#fff"><path d="m.3757617 41.5893619h28.5893403c3.5987045 0 5.7969932-1.5920399 8.3958736-3.5866267 2.6005358-1.9912872 3.400064-7.1716036 3.400064-7.1716036v-29.28858515z" fill="#fff" fill-rule="evenodd"/></mask><mask id="ar" fill="#fff"><path d="m.12083966 7.76882484c0 4.07661206 3.31729709 7.38112596 7.40929229 7.38112596 4.09033985 0 7.40598165-3.3045139 7.40598165-7.38112596s-3.3156418-7.381126-7.40598165-7.381126c-4.0919952 0-7.40929229 3.30451394-7.40929229 7.381126" fill="#fff" fill-rule="evenodd"/></mask><mask id="as" fill="#fff"><path d="m.06389604.41667077h107.14495896v90.97113783h-107.14495896z" fill="#fff" fill-rule="evenodd"/></mask><mask id="at" fill="#fff"><path d="m.62885246 91.3878086-.10097561-69.9738663c4.79220312-.1550795 9.53640145.9634728 13.78730905 2.6610988-.4303878-2.0259326-.9882367-4.0023718-1.2547461-6.0151062-.9766493-7.3926745 3.2941224-14.22607277 10.3193763-16.62980558 3.302399-1.12845109 6.6743222-1.23073759 10.1141143-.6797103 10.2928909 1.65473164 19.3724191 10.51901188 21.1353539 20.70806738 1.3855178 8.0080433-2.7958657 15.2835832-10.2746821 17.815999-3.4679329 1.1762948-7.0103559 1.2637333-10.5842303.5378291-.7266934-.1484804-1.44511-.3217076-2.2992643-.508133.2284366.4437915.372451.727554.5181207 1.0113166 2.9961615 5.8220817 4.2906358 11.9939173 3.8321072 18.5270552-1.077625 15.3198784-12.037617 28.1469357-27.04656541 31.5982803-1.81259496.4190447-3.66822871.6351662-5.50565374.946975z" fill="#fff" fill-rule="evenodd"/></mask><mask id="au" fill="#fff"><path d="m71.9194642 1.92364616c.2863735 18.24824194-29.0313155 17.19403114-27.7881567-.57577402-3.7377529.3909984-7.1808557 1.43201103-10.7299001 2.10677199-3.6450539.66981161-7.9538984.66981161-11.0228948 2.10347243-1.8258377.85953658-3.7327869 3.53053411-5.5553139 5.24630774-5.7539544 5.3551933-11.40527787 10.6971884-16.7751939 15.3792705 5.18286285 6.1107937 11.1205598 11.4643372 16.7751939 17.0043062 3.6417433-2.4911713 7.4705398-6.2097806 11.0195842-7.8331664 0 2.0556288-.0744902 4.7431241.1870532 6.4918934.1903638 1.2835306.8227029 2.3129947.8227029 2.3129947l1.4881487 2.1282192 46.4934746 45.514194s3.2477729 1.2917796 5.0669892 1.3363237c3.7592723.0940376 4.4065094.0940376 7.3596322.0940376v-58.1597753c4.1217913 2.3822856 7.3778409 5.6257576 11.3109233 8.1185786 5.36164-5.8303306 11.397002-10.8951623 16.576554-17.0043061-5.748989-5.0615321-11.309269-10.1230642-16.864582-15.3825701-1.7281732-1.71577363-3.7344427-4.38677116-5.7473335-5.24630774-2.782623-1.23733672-7.1924431-1.62338578-11.0228949-2.39053455-3.6367773-.67146139-8.1426069-1.43036125-11.5939864-2.10347243z" fill="#fff" fill-rule="evenodd"/></mask><mask id="av" fill="#fff"><path d="m1.16866853 1.04431219 18.56461417 18.88505791.0033107 25.5402798s-3.16004.0115485-5.3268773-.0263965c-2.1635266-.0412446-2.7329628.0643415-5.69105157-.6384658-3.63015593-.856237-7.73042782-6.4440496-7.73042782-6.4440496z" fill="#fff" fill-rule="evenodd"/></mask><mask id="aw" fill="#fff"><path d="m1.54111955 3.61302323c-.1092523-.77704746-.06455817-1.44355951-.17381047-2.14801655-.00662136.61701858.04469412 1.35282148.17381047 2.14801655m.09104358.5031836c-.03310675-.16992758-.06455817-.33820537-.09104358-.5031836.02317473.16167867.05297081.32995646.09104358.5031836m2.31581768 5.19351467c.33272291.40584645 2.38203119 2.6083058 2.38203119 2.6083058l37.8857177 37.572142s3.6864374 3.9924732 7.0368413 5.0615321c2.3025749.7358029 4.1631747.696582 4.1631747.696582s-10.9815114.0392209-11.1867733-13.5879808c-.1142183-7.3976239-.0016553-30.7255455-.0016553-30.7255455s-29.3127229-.1105354-30.3920032-.1105354c-5.14975612 0-9.53143545-1.13505027-11.58570974-5.06648148-.32279089-.6153688-.50818873-1.15319783-.61744103-1.64153339.34265494 1.71247403 1.04782887 3.62952105 2.31581768 5.19351467" fill="#fff" fill-rule="evenodd"/></mask><g fill="none" fill-rule="evenodd"><g fill="#fff"><path d="m1266.588 62.256c2.952 0 5.526 2.448 5.526 6.444s-2.574 6.444-5.526 6.444-5.526-2.448-5.526-6.444 2.574-6.444 5.526-6.444zm0 1.116c-2.358 0-4.284 1.8-4.284 5.328s1.926 5.328 4.284 5.328 4.284-1.8 4.284-5.328-1.926-5.328-4.284-5.328zm8.85436 15.3h-1.116v-12.744h1.116v1.188c.468-.702 1.674-1.332 2.862-1.332 2.646 0 4.05 2.088 4.05 4.68s-1.404 4.68-4.05 4.68c-.972 0-2.196-.558-2.862-1.422zm5.742-8.208c0-2.052-1.008-3.636-2.934-3.636s-2.916 1.584-2.916 3.636c0 2.016.99 3.636 2.916 3.636s2.934-1.62 2.934-3.636zm2.39237-3.492v-1.044h1.602v-2.934l1.116-.738v3.672h2.448v1.044h-2.448v5.634c0 1.026.522 1.494 1.296 1.494.36 0 .792-.072 1.134-.288l.306 1.008c-.432.234-1.026.324-1.584.324-1.314 0-2.268-.81-2.268-2.718v-5.454zm6.92836-3.654c0-.522.396-.918.918-.918s.918.396.918.918-.396.918-.918.918-.918-.396-.918-.918zm.36 2.61h1.116v9.072h-1.116zm3.52636 4.536c0-2.376 1.602-4.68 4.248-4.68s4.248 2.304 4.248 4.68-1.602 4.68-4.248 4.68-4.248-2.304-4.248-4.68zm1.17 0c0 1.818 1.044 3.636 3.078 3.636s3.078-1.818 3.078-3.636-1.044-3.636-3.078-3.636-3.078 1.818-3.078 3.636zm16.18037-1.692v6.228h-1.116v-6.084c0-1.314-.594-2.088-1.854-2.088-1.656 0-2.934 1.62-2.934 4.194v3.978h-1.116v-9.072h1.116v1.89c.612-1.188 1.8-2.034 3.114-2.034 1.71 0 2.79 1.08 2.79 2.988zm10.02273-6.372h.288v12.6h-1.116v-10.692l-2.088 1.314v-1.368z"/><path d="m74.206 82.202 1.17.342c-.63 2.196-2.34 3.6-4.752 3.6-2.844 0-5.562-2.07-5.562-6.444s2.736-6.444 5.562-6.444c2.412 0 4.122 1.404 4.752 3.6l-1.17.342c-.468-1.746-1.656-2.826-3.582-2.826-2.52 0-4.32 1.89-4.32 5.328s1.8 5.328 4.32 5.328c1.926 0 3.114-1.08 3.582-2.826zm2.7523636-.738c0-2.376 1.602-4.68 4.248-4.68s4.248 2.304 4.248 4.68-1.602 4.68-4.248 4.68-4.248-2.304-4.248-4.68zm1.17 0c0 1.818 1.044 3.636 3.078 3.636s3.078-1.818 3.078-3.636-1.044-3.636-3.078-3.636-3.078 1.818-3.078 3.636zm9.4483636-8.208h1.116v12.744h-1.116zm3.2563636 8.208c0-2.376 1.602-4.68 4.248-4.68s4.248 2.304 4.248 4.68-1.602 4.68-4.248 4.68-4.248-2.304-4.248-4.68zm1.17 0c0 1.818 1.044 3.636 3.078 3.636s3.078-1.818 3.078-3.636-1.044-3.636-3.078-3.636-3.078 1.818-3.078 3.636zm14.7043632-4.374-.252 1.062c-.396-.216-.81-.324-1.278-.324-1.386 0-2.502 1.566-2.502 4.662v3.51h-1.116v-9.072h1.116v1.62c.54-1.116 1.44-1.764 2.664-1.764.522 0 .918.126 1.368.306zm11.390728 0-.252 1.062c-.396-.216-.81-.324-1.278-.324-1.386 0-2.502 1.566-2.502 4.662v3.51h-1.116v-9.072h1.116v1.62c.54-1.116 1.44-1.764 2.664-1.764.522 0 .918.126 1.368.306zm2.230363 6.3c0 1.116.684 1.71 1.764 1.71 1.17 0 2.754-.846 2.754-3.294v-.342h-1.476c-2.07 0-3.042.738-3.042 1.926zm5.634-3.402v6.012h-.846l-.27-1.404c-.504.882-1.422 1.548-2.862 1.548-1.512 0-2.826-.756-2.826-2.754 0-2.016 1.638-2.97 4.176-2.97h1.512v-.396c0-1.584-.882-2.196-2.088-2.196-1.242 0-1.89.774-2.16 1.692l-1.08-.252c.252-1.53 1.62-2.484 3.24-2.484 1.782 0 3.204 1.152 3.204 3.204zm8.890364-.216v6.228h-1.116v-6.084c0-1.314-.594-2.088-1.854-2.088-1.656 0-2.934 1.62-2.934 4.194v3.978h-1.116v-9.072h1.116v1.89c.612-1.188 1.8-2.034 3.114-2.034 1.71 0 2.79 1.08 2.79 2.988zm2.842363.054c0-1.836 1.35-3.042 3.078-3.042.576 0 1.116.162 1.566.414l1.62-.918.522.954-1.26.702c.396.504.63 1.134.63 1.89 0 1.854-1.35 3.042-3.078 3.042-.63 0-1.206-.144-1.692-.432-.54.234-.738.576-.738 1.008 0 .648.54.864 1.116.864h2.34c1.566 0 2.718.702 2.718 2.376 0 2.232-1.62 3.132-3.726 3.132-2.304 0-3.744-1.116-3.744-2.988 0-.882.432-1.53.936-1.908-.45-.27-.72-.738-.72-1.476 0-.756.486-1.332 1.116-1.62-.414-.504-.684-1.206-.684-1.998zm3.978 5.454h-1.854c-.324 0-.612-.018-.882-.054-.612.396-.81 1.026-.81 1.638 0 1.17.864 1.944 2.664 1.944 1.782 0 2.646-.864 2.646-1.98 0-1.134-.702-1.548-1.764-1.548zm-2.862-5.454c0 1.314.918 2.07 1.962 2.07s1.962-.756 1.962-2.07-.918-2.07-1.962-2.07-1.962.756-1.962 2.07zm14.884364 1.134v.504h-6.84c0 2.124 1.044 3.636 2.862 3.636 1.386 0 2.124-.594 2.79-1.944l.99.486c-.936 1.854-2.106 2.502-3.78 2.502-2.412 0-4.032-1.98-4.032-4.68s1.62-4.68 4.032-4.68c2.34 0 3.978 1.674 3.978 4.176zm-3.978-3.132c-1.512 0-2.484 1.116-2.79 2.592h5.616c-.216-1.566-1.188-2.592-2.826-2.592z"/><path d="m1266.588 302.256c2.952 0 5.526 2.448 5.526 6.444s-2.574 6.444-5.526 6.444-5.526-2.448-5.526-6.444 2.574-6.444 5.526-6.444zm0 1.116c-2.358 0-4.284 1.8-4.284 5.328s1.926 5.328 4.284 5.328 4.284-1.8 4.284-5.328-1.926-5.328-4.284-5.328zm8.85436 15.3h-1.116v-12.744h1.116v1.188c.468-.702 1.674-1.332 2.862-1.332 2.646 0 4.05 2.088 4.05 4.68s-1.404 4.68-4.05 4.68c-.972 0-2.196-.558-2.862-1.422zm5.742-8.208c0-2.052-1.008-3.636-2.934-3.636s-2.916 1.584-2.916 3.636c0 2.016.99 3.636 2.916 3.636s2.934-1.62 2.934-3.636zm2.39237-3.492v-1.044h1.602v-2.934l1.116-.738v3.672h2.448v1.044h-2.448v5.634c0 1.026.522 1.494 1.296 1.494.36 0 .792-.072 1.134-.288l.306 1.008c-.432.234-1.026.324-1.584.324-1.314 0-2.268-.81-2.268-2.718v-5.454zm6.92836-3.654c0-.522.396-.918.918-.918s.918.396.918.918-.396.918-.918.918-.918-.396-.918-.918zm.36 2.61h1.116v9.072h-1.116zm3.52636 4.536c0-2.376 1.602-4.68 4.248-4.68s4.248 2.304 4.248 4.68-1.602 4.68-4.248 4.68-4.248-2.304-4.248-4.68zm1.17 0c0 1.818 1.044 3.636 3.078 3.636s3.078-1.818 3.078-3.636-1.044-3.636-3.078-3.636-3.078 1.818-3.078 3.636zm16.18037-1.692v6.228h-1.116v-6.084c0-1.314-.594-2.088-1.854-2.088-1.656 0-2.934 1.62-2.934 4.194v3.978h-1.116v-9.072h1.116v1.89c.612-1.188 1.8-2.034 3.114-2.034 1.71 0 2.79 1.08 2.79 2.988zm7.17873 6.228v-.414l4.59-5.94c1.134-1.458 1.404-2.016 1.404-3.078 0-1.422-.846-2.304-2.232-2.304-1.314 0-2.232 1.08-2.448 2.538l-1.044-.198c.18-1.962 1.566-3.348 3.492-3.348 1.908 0 3.384 1.17 3.384 3.348 0 1.224-.648 2.268-1.53 3.402l-3.852 4.986h5.688v1.008z"/><path d="m1266.588 543.256c2.952 0 5.526 2.448 5.526 6.444s-2.574 6.444-5.526 6.444-5.526-2.448-5.526-6.444 2.574-6.444 5.526-6.444zm0 1.116c-2.358 0-4.284 1.8-4.284 5.328s1.926 5.328 4.284 5.328 4.284-1.8 4.284-5.328-1.926-5.328-4.284-5.328zm8.85436 15.3h-1.116v-12.744h1.116v1.188c.468-.702 1.674-1.332 2.862-1.332 2.646 0 4.05 2.088 4.05 4.68s-1.404 4.68-4.05 4.68c-.972 0-2.196-.558-2.862-1.422zm5.742-8.208c0-2.052-1.008-3.636-2.934-3.636s-2.916 1.584-2.916 3.636c0 2.016.99 3.636 2.916 3.636s2.934-1.62 2.934-3.636zm2.39237-3.492v-1.044h1.602v-2.934l1.116-.738v3.672h2.448v1.044h-2.448v5.634c0 1.026.522 1.494 1.296 1.494.36 0 .792-.072 1.134-.288l.306 1.008c-.432.234-1.026.324-1.584.324-1.314 0-2.268-.81-2.268-2.718v-5.454zm6.92836-3.654c0-.522.396-.918.918-.918s.918.396.918.918-.396.918-.918.918-.918-.396-.918-.918zm.36 2.61h1.116v9.072h-1.116zm3.52636 4.536c0-2.376 1.602-4.68 4.248-4.68s4.248 2.304 4.248 4.68-1.602 4.68-4.248 4.68-4.248-2.304-4.248-4.68zm1.17 0c0 1.818 1.044 3.636 3.078 3.636s3.078-1.818 3.078-3.636-1.044-3.636-3.078-3.636-3.078 1.818-3.078 3.636zm16.18037-1.692v6.228h-1.116v-6.084c0-1.314-.594-2.088-1.854-2.088-1.656 0-2.934 1.62-2.934 4.194v3.978h-1.116v-9.072h1.116v1.89c.612-1.188 1.8-2.034 3.114-2.034 1.71 0 2.79 1.08 2.79 2.988zm6.96273 2.772 1.116-.162c.18 1.602 1.098 2.754 2.754 2.754 1.854 0 2.826-1.17 2.826-2.988 0-1.944-1.044-3.006-2.826-3.006-.378 0-.774.108-1.116.324l-.54-.702 3.258-4.356h-4.842v-1.008h6.588v.306l-3.402 4.518c.108-.036.36-.054.468-.054 1.836 0 3.564 1.422 3.564 3.978 0 2.358-1.494 3.996-3.978 3.996-2.034 0-3.636-1.278-3.87-3.6z"/></g><g transform="translate(455.129573 .774351)"><path d="m136.648242 68.7367579c0 37.6129141-30.422058 68.1074771-67.9455415 68.1074771-37.5234833 0-67.94080797-30.494563-67.94080797-68.1074771 0-37.6129138 30.41732467-68.10431438 67.94080797-68.10431438 37.5234835 0 67.9455415 30.49140058 67.9455415 68.10431438" fill="#8225ea"/><path d="m52.643003.41534908 77.599756 78.31924992-63.2596416 45.71496-11.7825915 9.155327 3.376372 19.210532-66.27628814-20.093011 56.45325454-1.813985-45.11400912-44.8909963-3.00244664-15.909932 12.12180636 12.0273393z" fill="url(#b)" fill-opacity=".2" mask="url(#H)" transform="translate(29.977134 19.91805)"/><path d="m73.9051532 98.4424672c-4.3482622-.2372256-8.810122-2.3105776-12.2559146-7.0677421l3.6051448-2.622134c4.6070122 6.3608098 11.0789177 6.0144604 15.2220732 3.7813765 4.3214405-2.3263926 7.6315472-7.4915853 5.2822865-13.7796459l4.1715549-1.5641076c3.2722409 8.7646961-1.5130564 16.1376686-7.3459756 19.2785359-2.5654116 1.3838162-5.5946799 2.1397752-8.6791692 1.9737172" fill="#bfbfbf"/><path d="m84.4277584 81.7841674c7.7735442-3.9347824 26.3467456-13.8808622 26.3467456-13.8808622l-33.5349468-39.8554867-45.6031098 61.2453308 11.0994284 13.5882837s40.1851372-20.3318176 41.6918826-21.0972656" fill="#fff"/><path d="m84.4277584 81.7841674c7.7735442-3.9347824 26.3467456-13.8808622 26.3467456-13.8808622l-17.1768981-20.4140559-56.7530259 48.1821063 5.8912958 7.2100774s40.1851372-20.3318176 41.6918826-21.0972656" fill="#d5dfe2"/></g><path d="m.70051829 7.23696312 7.6725686 9.38148278 6.93418441-3.1851494-9.93663106-12.72478263z" fill="url(#c)" mask="url(#I)" transform="translate(480.373476 90.920089)"/><path d="m.26474085 5.70448557 34.23704265 40.36314963 5.7761205-2.7992624-36.07826985-42.65633068z" fill="url(#c)" mask="url(#J)" transform="translate(533.376524 21.333905)"/><g transform="translate(806.875 .94)"><path d="m136.68338 68.9541488c0 37.6097512-30.418903 68.1058962-67.9455416 68.1058962-37.5219055 0-67.94080791-30.496145-67.94080791-68.1058962 0-37.6160769 30.41890241-68.10747745 67.94080791-68.10747745 37.5266386 0 67.9455416 30.49140055 67.9455416 68.10747745" fill="#2ebb98"/><path d="m89.1377973.56401047 60.0126447 61.13462553-81.5267606 48.715073-11.7810137 9.158491 3.3763719 19.207368-66.27786582-20.09301 59.60716462-3.207291-52.07343748-52.6672521 5.26808688-49.2812517 54.0219512 5.5415907z" fill="url(#d)" fill-opacity=".2" mask="url(#K)" transform="translate(23.757622 38.730451)"/><path d="m24.6837576 102.418619h88.9737124v-62.2464229h-88.9737124z" fill="#b57237"/><path d="m23.9217073 101.27361h88.9737117v-62.2464229h-88.9737117z" fill="#f19a41"/><path d="m68.4629954 97.8591425h40.6616156v-55.0901165h-40.6616156z" fill="#dae5e5"/><path d="m104.948323 47.0231141 4.176288 5.3692066v45.3686104l-40.6616156.0996348z" fill="#a9c2c4"/><path d="m106.47053 93.6774873-36.8639858 4.1830786.7620503-53.9451076 36.1019355-1.2478068z" fill="#0c343d" fill-opacity=".2"/><path d="m104.948323 89.8565732-36.4853276 8.0024112v-55.0885351l36.4853276-8.0008296z" fill="#dae5e5"/><path d="m100.768091 49.8154178 4.181021 5.1209106v34.9196122l-36.4853277 8.0039927z" fill="#0c343d" fill-opacity=".2"/><path d="m102.293454 86.3970328-33.0695127 11.4627423 1.1454421-52.5359873 31.9240706-10.5549589z" fill="#0c343d" fill-opacity=".2"/><path d="m100.768091 82.5761187-32.3043067 15.2836564v-55.0901165l32.3043067-15.2804934z" fill="#d8e2e5"/><path d="m27.7998018 97.8591425h40.6616159v-55.0901165h-40.6616159z" fill="#b6c0c1"/><path d="m30.7310922 93.689823 36.4853278 4.1704266-.7620503-53.9451076-35.7232775-.4839402z" fill="#0c343d" fill-opacity=".2"/><path d="m31.9776677 89.8565732 36.4853277 8.0024112v-55.0885351l-36.4853277-8.0008296z" fill="#c0cece"/><path d="m35.1022317 86.9592576 32.5078354 10.8997268-1.1422866-52.5344058-31.3655488-9.8685861z" fill="#0c343d" fill-opacity=".2"/><path d="m36.1577424 82.5761187 32.3058841 15.2836564v-55.0901165l-32.3058841-15.2804934z" fill="#fff"/></g><g transform="translate(983.125 2.82)"><path d="m136.324056 68.9830243c0 37.6129137-30.422058 68.1058957-67.9455408 68.1058957-37.5234832 0-67.94080788-30.492982-67.94080788-68.1058957 0-37.6129138 30.41732468-68.10431439 67.94080788-68.10431439 37.5234828 0 67.9455408 30.49140059 67.9455408 68.10431439" fill="#ff523c"/><path d="m78.216654.04211409 66.167424 66.66198261-82.3093219 53.5291723-11.7825915 9.155327 3.3779497 19.207369-66.2778658-20.093011 58.0325762-4.024928-44.83632622-44.9653269 30.96006862-21.4372892 13.380846-34.8848191z" fill="url(#e)" fill-opacity=".2" mask="url(#L)" transform="translate(28.948171 28.94293)"/><path d="m104.505695 73.1253001-20.7394435-20.7888724-10.9590091-20.621233-24.2199467 24.2792521-15.5376219 10.3477819 27.2807698 27.3426257 4.5076143 11.3979006 23.5225839-24.7884965z" fill="#fff"/><path d="m.76836128 27.4201194c0 3.4413531 1.52094512 5.5384277 3.4284375 8.0213892 1.90433689 2.4845431 6.86003052 3.2499911 6.86003052 3.2499911h28.006532l-38.29500002-38.58237591z" fill="url(#g)" mask="url(#M)" transform="translate(27.370427 29.584434)"/><path d="m11.6910823.83028969c-3.43001523 0-5.52525913 1.52615154-8.0038948 3.43819009-2.47705793 1.90887554-3.23910823 6.87638012-3.23910823 6.87638012v28.0780252l38.49064023-38.39259541z" fill="url(#h)" mask="url(#N)" transform="translate(68.391768 28.00293)"/><path d="m68.8401631 67.2254987v-28.0780251s.7620503-4.9675047 3.2391082-6.8763802c2.4786357-1.9120386 4.5738796-3.4366086 8.0038949-3.4366086h27.2476368s-22.5333381.1439169-24.5070957.3479309c-4.8910061.5108259-6.7527439 2.8767561-8.8921646 6.3544838-3.3037957 5.3644622-5.0913796 31.6885992-5.0913796 31.6885992" fill="#0c313a" fill-opacity=".15"/><path d="m.64056402.59880357 38.29815548 38.58237593v-27.3141587c0-3.43819005-1.5256783-5.5384276-3.4300152-8.01980765-1.9059147-2.48296156-6.8600305-3.24840958-6.8600305-3.24840958z" fill="url(#i)" mask="url(#O)" transform="translate(68.391768 68.480534)"/><path d="m69.0312279 69.0788635h28.0096875s4.9541156.765448 6.8600306 3.2499911c1.904337 2.4797985 3.428437 4.5800361 3.428437 8.0182262v27.3157402s-.143574-22.5870427-.348681-24.567086c-.509611-4.9010814-2.868338-6.7672564-6.337797-8.9133575-5.3517076-3.3085068-31.6116771-5.103514-31.6116771-5.103514" fill="#0c313a" fill-opacity=".15"/><path d="m.64056402 38.4600136h27.24605948c3.431593 0 5.5252591-1.5308961 8.0038948-3.4397716 2.4770579-1.9088755 3.2391082-6.8763802 3.2391082-6.8763802v-28.07644364z" fill="url(#j)" mask="url(#P)" transform="translate(28.948171 70.062039)"/><g transform="translate(27.370427 29.584434)"><path d="m40.7070549 40.5445482v28.0780251s-.7620503 4.9675047-3.2391083 6.8763802c-2.4770579 1.9088756-4.5723018 3.4366086-8.0038948 3.4366086h-27.24605942s22.53176062-.1439169 24.50709602-.3510939c4.8894284-.5060814 6.7527439-2.8735931 8.8905869-6.3513208 3.3037957-5.3644622 5.0913796-31.6885992 5.0913796-31.6885992" fill="#0c313a" fill-opacity=".15"/><path d="m39.0646235 38.6913416h-28.0081098s-4.95569358-.7654481-6.86003047-3.2499911c-1.90749238-2.4829616-3.4284375-4.5800361-3.4284375-8.0213892v-27.31257717s.14199695 22.58704267.34552592 24.56708587c.50803353 4.9010815 2.86991615 6.7672564 6.339375 8.9133576 5.35328505 3.3085067 31.61167685 5.103514 31.61167685 5.103514" fill="#0c313a" fill-opacity=".15"/><path d="m49.175122 41.7153357c0 3.9110598-3.1617988 7.0788127-7.060404 7.0788127s-7.060404-3.1677529-7.060404-7.0788127c0-3.9078968 3.1617988-7.0772312 7.060404-7.0772312s7.060404 3.1693344 7.060404 7.0772312" fill="#000" fill-opacity=".2"/></g><path d="m.39759146 7.61910061c0 3.90789679 3.16022104 7.07723119 7.06040397 7.07723119 3.89860517 0 7.05882617-3.1693344 7.05882617-7.07723119 0-3.90789682-3.160221-7.07564969-7.05882617-7.07564969-3.90018293 0-7.06040397 3.16775287-7.06040397 7.07564969" fill="url(#c)" mask="url(#Q)" transform="translate(60.503049 62.154518)"/><path d="m71.2714665 69.7737764c0 1.8313819-1.4830793 3.3179958-3.3116845 3.3179958s-3.3101067-1.4866139-3.3101067-3.3179958c0-1.8313818 1.4815015-3.3179957 3.3101067-3.3179957s3.3116845 1.4866139 3.3116845 3.3179957" fill="#020202"/></g><g transform="translate(630.625)"><path d="m136.471056 68.6153445c0 37.6097505-30.418902 68.1058955-67.943963 68.1058955-37.5234832 0-67.94238568-30.496145-67.94238568-68.1058955 0-37.6160769 30.41890248-68.10747743 67.94238568-68.10747743 37.525061 0 67.943963 30.49140053 67.943963 68.10747743" fill="#f19a41" mask="url(#R)" transform="translate(.571646 .132846)"/><path d="m91.4078506 1.19819365 52.5325614 54.13488805-35.339886 51.3372073-20.3323858 9.16798-15.2788719 5.114584-49.6279345-49.5105698 6.2620656-16.4919255-29.18510672-27.3869079 32.78236282-27.51184668 30.0008003 32.27533728z" fill="#000" fill-opacity=".2" mask="url(#S)" transform="translate(21.082317 34.925938)"/><path d="m17.7057828 52.2659125v-2.4007234c.2824161-1.3838161.4685899-2.7913548.8614481-4.1387964 2.8194284-9.648757 12.3048247-17.1735539 22.3282318-17.6179566 5.2507317-.2324811 9.9397865 1.2572959 13.4076676 5.4419559 3.5720122 4.3095989 4.0737348 9.278685 2.7610519 14.554583-.1814406.7259104-.4165244 1.4360058-.653186 2.2488989 8.4204192-3.0048579 16.6578201-2.835637 24.7406021.4143541-.4086356-1.9468316-.9403353-3.8398921-1.1943521-5.7677457-.9308689-7.0851387 3.1397104-13.6404736 9.8340777-15.9447252 3.1475991-1.0801673 6.3614634-1.1798021 9.6400153-.6484167 9.8119898 1.5846672 18.4659148 10.0820892 20.1462118 19.852622 1.320572 7.6750398-2.664809 14.6478917-9.793056 17.0786636-3.305374 1.1244495-6.683324 1.2098507-10.0880948.5124074-.6942074-.1423354-1.3773705-.3052303-2.1914863-.4886848.2161509.4270061.3549924.6990248.4938338.9710435 2.8557163 5.5842913 4.0879343 11.4991169 3.6508993 17.763455-1.025533 14.6811033-11.4717758 26.9820429-25.7771798 30.2889679-1.7292073.398539-3.4962805.608879-5.2491539.906202h-4.7916083c-1.1170427-.173965-2.2340853-.333697-3.3479725-.521896-21.2679878-3.60583-33.6248781-26.6673239-24.8952211-46.4630117.3676144-.8350342.6058537-2.5209176.3707699-2.475054-2.2435519.4633807-4.4934147.5566895-6.7748324.3036488-6.197378-.6895358-11.2351143-4.8504733-12.8554573-10.7257613-.2824161-1.0248147-.4196799-2.0939116-.6232088-3.1440303" fill="#fff"/><path d="m68.0110427 48.216471c4.5691463-.1518244 9.0893826.9204355 13.1410289 2.5509663-.4102134-1.9452502-.9419131-3.8398922-1.1959298-5.7661643-.9308689-7.0867202 3.1412881-13.6404735 9.8356555-15.9447251 3.1460213-1.0817489 6.3598856-1.1798021 9.6400152-.6484167 9.8104115 1.5846672 18.4659145 10.0820891 20.1462115 19.8510404 1.320572 7.6766213-2.664809 14.6478917-9.793056 17.0786637-3.306951 1.1244494-6.683323 1.2114322-10.0880945.5124073-.6942073-.1423354-1.3789482-.3052303-2.1914863-.4871033.2161509.4254246.3534146.6974434.4922561.9694621 2.8572937 5.5842912 4.0895117 11.5006984 3.6524767 17.7634549-1.027111 14.6826848-11.4733532 26.9820427-25.7787572 30.2905497-1.7276296.398539-3.4947027.608879-5.2475762.90462h-2.5149238z" fill="#d5dfe2"/></g><g transform="translate(280 .94)"><path d="m135.88698 68.4537609c0 37.6129141-30.422058 68.1058961-67.945541 68.1058961-37.5234832 0-67.9408079-30.492982-67.9408079-68.1058961 0-37.6160769 30.4173247-68.10431446 67.9408079-68.10431446 37.523483 0 67.945541 30.48823756 67.945541 68.10431446" fill="#e12e61"/><path d="m9.48823171 25.4179352-5.4085061 2.1634977-3.50101372 11.7205274 64.38299541 65.3414267c24.4329421-10.3177333 41.5877517-34.5479588 41.5877517-62.7920419 0-.8903869-.015778-1.7744477-.050488-2.656927l-14.354314-15.4228288-49.033125-5.3391581-17.6091997-17.49934373z" fill="url(#k)" fill-opacity=".2" mask="url(#T)" transform="translate(29.33689 26.719922)"/><path d="m121.481705 50.45482c-4.726921 5.6064323-10.234825 10.2576361-15.128986 15.6047017-3.590945-2.2821105-6.5634149-5.2632459-10.3231786-7.4504662v53.3884185c-2.6947866 0-3.2864406 0-6.7180335-.08382-1.6597866-.042701-4.6243674-1.225666-4.6243674-1.225666l-42.435-41.7801773-1.3584375-1.9515761s-.5758765-.9489025-.7494284-2.1255417c-.239817-1.6099712-.1719741-4.0739547-.1719741-5.9622707-3.2375304 1.4897769-6.7338109 4.905826-10.0565396 7.1910995-5.162378-5.0876989-10.5819283-9.9982694-15.3120046-15.6078647 4.9020503-4.3001099 10.0612729-9.2043544 15.3120046-14.1165063 1.6613643-1.5751782 3.4031936-4.0280912 5.0677134-4.8156803 2.8020732-1.3158114 6.733811-1.3158114 10.0612729-1.9325981 3.240686-.6183681 6.3819741-1.5751781 9.7946341-1.9341796-1.1343978 16.3116341 25.6241388 17.2763517 25.3606555.5282224v-.7907521c3.1523323.6183682 7.2639329 1.3158115 10.5819284 1.9341796 3.4978582.7037694 7.5211052 1.0596078 10.0596948 2.1919648 1.83965.7907521 3.67141 3.2405021 5.247577 4.8156803 5.070868 4.8283322 10.144893 9.476373 15.392469 14.1228323" fill="#fff"/><path d="m121.481705 50.5289925c-4.726921 5.6095953-10.234825 10.2576361-15.128986 15.6078647-3.590945-2.2852735-6.5634149-5.2632459-10.3231786-7.4504661v53.3852549c-2.6947866 0-5.7855869.058516-8.5797713-.275182-1.6503202-.194525-3.8418064-1.530896-3.8418064-1.530896l-16.7682622-16.77027-.0662653-53.1227253s12.4767988 1.2699478 13.4266006-12.114322v-.7907521c3.1523323.6183681 7.2639329 1.3158115 10.5819284 1.9341796 3.4978582.7006063 7.5211052 1.0564448 10.0596948 2.1919648 1.83965.7907521 3.67141 3.240502 5.247577 4.8156802 5.070868 4.8283323 10.144893 9.47321 15.392469 14.1196693" fill="#d5dfe2"/><path d="m.19564024.28783376 16.94339176 17.33803034.0031555 23.4442179s-2.8841159.012652-4.861029-.0253041c-1.9769131-.0332115-2.49441307.0585157-5.19551063-.583575-3.3132622-.7875891-7.05567074-5.9148256-7.05567074-5.9148256z" fill="url(#l)" mask="url(#U)" transform="translate(78.887195 71.002039)"/><path d="m.70367378 2.15974819c-.10728658-.73381794-.0646875-1.36009359-.16724085-2.02116234-.00473323.57883053.04417683 1.27152936.16724085 2.02116234m.06784299.37165348c-.02366616-.12493883-.04733232-.24987766-.06784299-.37165348.01893293.12019432.04102134.24513315.06784299.37165348m2.12364329 4.8077727c.30292683.37165349 2.17255335 2.39597883 2.17255335 2.39597883l34.57783539 34.4910246s3.36375 3.6627637 6.4229954 4.6448778c2.1015549.6737208 3.7992073.6407767 3.7992073.6407767s-10.023407.0329441-10.2111585-12.473591c-.1025534-6.7925604 0-28.20454548 0-28.20454548s-26.7538034-.10279777-27.7383156-.10279777c-4.70009905 0-8.69967984-1.04062975-10.57561734-4.65120379-.30292683-.58357504-.47174543-1.08807487-.57114329-1.54829259.3092378 1.58308568.9561128 3.36069638 2.12364329 4.8077727" fill="url(#n)" mask="url(#V)" transform="translate(39.443598 62.453013)"/></g><g transform="translate(455.704698 241.939597)"><path d="m136.791321 83.6132125c0 29.5235195-23.940481 53.4572355-53.4707644 53.4572355h-29.4338255c-29.5318645 0-53.47234577-23.933716-53.47234577-53.4572355v-29.423927c0-29.5235191 23.94048127-53.45881585 53.47234577-53.45881585h29.4338255c29.5302834 0 53.4707644 23.93529675 53.4707644 53.45881585z" fill="#8225ea"/><path d="m53.1719037.86155054 81.6711963 81.84730146-67.1266423 42.124289-11.8089507 9.151405 3.3855066 19.200721-66.4261385-20.084403 56.9970044-.76512-46.04984774-46.2739587-2.51264364-15.2423308 12.06986088 11.7170873z" fill="url(#o)" fill-opacity=".2" mask="url(#W)" transform="translate(26.698314 21.581257)"/><g transform="translate(28.279587 27.904564)"><path d="m42.6317669 71.6095517c-4.3405958-.4347274-8.7159797-2.7079561-11.9496841-7.6132613l3.728643-2.4550239c4.3232018 6.5604308 10.8190735 6.5082635 15.0679555 4.4674162 4.4323097-2.1277927 7.9806875-7.1358516 5.913963-13.5208106l4.2473007-1.3737384c2.8794991 8.9016351-2.2469897 16.0469717-8.2289475 18.9177529-2.6312391 1.2662422-5.6989098 1.8827646-8.7792306 1.5776651" fill="#bfbfbf"/><path d="m53.5749704 55.1251653c7.7909347-3.9330968 26.4056867-13.8749158 26.4056867-13.8749158l-33.6099689-39.83999402-45.70513017 61.22067492 11.12425927 13.5824628s40.2750368-20.3231078 41.7851531-21.0882279" fill="#fff"/><path d="m53.5749704 55.1251653c7.7909347-3.9330968 26.4056867-13.8749158 26.4056867-13.8749158l-17.215325-20.4084725-56.87999015 48.1614657 5.90447535 7.2101505s40.2750368-20.3231078 41.7851531-21.0882279" fill="#d5dfe2"/></g><g fill="url(#c)"><path d="m1.28557538 7.48363351 7.68973318 9.37746389 6.94969714-3.1822041-9.95886067-12.72091233z" mask="url(#X)" transform="translate(21.954493 91.137631)"/><path d="m.20714683 5.95339328 34.31363567 40.34427772 5.7890423-2.799644-36.15740051-42.63647646z" mask="url(#Y)" transform="translate(75.717793 21.581257)"/></g></g><g transform="translate(631.409396 241.939597)"><path d="m136.768642 83.6132125c0 29.5235195-23.940481 53.4572355-53.4707641 53.4572355h-29.4354068c-29.5302832 0-53.47076444-23.933716-53.47076444-53.4572355v-29.423927c0-29.5235191 23.94048124-53.45881585 53.47076444-53.45881585h29.4354068c29.5302831 0 53.4707641 23.93529675 53.4707641 53.45881585z" fill="#f19a41"/><path d="m92.0143068 2.72692602 54.9792992 54.63020848-37.352843 50.2813545-20.3778722 9.16089-15.388954 5.961298-48.8328892-48.6436181 3.0281388-17.7969467-27.00024549-27.2566137 33.02331639-27.50164174 31.3139598 31.17864464z" fill="url(#p)" fill-opacity=".2" mask="url(#Z)" transform="translate(20.189884 32.647044)"/><path d="m17.602604 52.7501009v-2.4028565c.283048-1.3800617.4696383-2.7869975.8633754-4.1370235 2.8257358-9.6414619 12.3323522-17.1630352 22.378183-17.6072475 5.2624783-.2323816 9.9620232 1.2567572 13.4376624 5.4396246 3.578422 4.304591 4.0828483 9.2747101 2.7672287 14.5451863-.1818464.7255994-.4174562 1.4385522-.6546472 2.2510972 8.4392568-3.0035707 16.6950859-2.8344223 24.7959502.4110149-.4095498-1.942836-.942439-3.8350855-1.197024-5.7652749-.9329514-7.0789419 3.1467343-13.6314685 9.8576592-15.934733 3.1530594-1.0797046 6.3741136-1.1792967 9.66-.6513006 9.8339403 1.58715 18.5072253 10.0809318 20.1928633 19.8441174 1.323526 7.6717519-2.672353 14.6447784-9.814965 17.0713473-3.315931 1.1271294-6.699856 1.2093324-10.1138257.5153495-.6925978-.1422744-1.3804518-.3082612-2.1948076-.4884754.2166344.4236615.3542052.6987254.4933573.9706275 2.863686 5.5787374 4.100242 11.4910292 3.66223 17.7558453-1.030991 14.6748141-11.5006029 26.9673225-25.8364287 30.2728305-1.7330758.40153-3.5041022.608619-5.260897.908976h-4.8023278c-1.1195416-.173891-2.2390833-.333555-3.3554624-.523254-21.3155672-3.602704-33.7001015-26.6574801-24.950915-46.4415261.3684367-.8346764.607209-2.5229993.3715992-2.4739937-2.2485709.4600205-4.503467.5532893-6.7899885.3003571-6.2112424-.6892405-11.2602488-4.8483955-12.8842167-10.7180049-.283048-1.0275374-.4206188-2.0930146-.6246031-3.1426835" fill="#fff"/><path d="m68.0202455 48.6992325c4.5793682-.1485977 9.1097169.9232028 13.1704273 2.5498735-.4111311-1.9412552-.942439-3.8335047-1.1986054-5.7636941-.9313701-7.0805227 3.1483156-13.6314685 9.8592405-15.9347329 3.1530594-1.0812855 6.3741136-1.1792967 9.66-.6513006 9.8339401 1.58715 18.5072251 10.0809317 20.1928631 19.8425365 1.323526 7.6733327-2.672352 14.6447783-9.814965 17.0713473-3.315931 1.1271294-6.699856 1.2109132-10.1138254.5153495-.6925978-.1406936-1.3804518-.3082612-2.1963889-.4868946.2182157.4220807.3557865.6971445.4949386.9690467 2.8621047 5.5787374 4.1002427 11.49261 3.6606477 17.7558453-1.029409 14.6763949-11.4990206 26.9673219-25.8348465 30.2744119-1.7330757.40153-3.5041021.608618-5.260897.907394h-2.52055z" fill="#ddd"/></g><g transform="translate(280 242.389281)"><path d="m136.814158 83.1635287c0 29.5235193-23.942063 53.4572353-53.4723459 53.4572353h-29.4338255c-29.5302832 0-53.47076447-23.933716-53.47076447-53.4572353v-29.423927c0-29.5235191 23.94048127-53.45881592 53.47076447-53.45881592h29.4338255c29.5302829 0 53.4723459 23.93529682 53.4723459 53.45881592z" fill="#e12e61"/><path d="m8.74128008 22.3528893-8.50408905 9.5197382v7.8187688l66.39135047 66.2192487c23.0818497-5.9201958 40.1406285-26.859826 40.1406285-51.7831394v-14.9451355l-14.6283614-15.0526316-51.1921492-6.94141-15.7305091-15.72448299z" fill="url(#q)" fill-opacity=".2" mask="url(#aa)" transform="translate(30.044197 29.035707)"/><path d="m122.184215 53.1649712c-4.737495 5.6071922-10.257721 10.2564035-15.162832 15.6011785-3.598978-2.2842946-6.578098-5.2609912-10.3478538-7.4472745v53.3655468c-2.7008152 0-3.2922115 0-6.7314814-.086945-1.6634998-.039521-4.6347127-1.225141-4.6347127-1.225141l-42.5299329-41.7622791-1.3614765-1.9507402s-.5771649-.9453343-.7526862-2.124631c-.2387723-1.6061199-.1707776-4.0722095-.1707776-5.9565549-3.2447732 1.4891387-6.7488754 4.9005627-10.0806187 7.1880189-5.1723457-5.0855195-10.6040203-9.997148-15.3446784-15.6011785 4.9130169-4.2982678 10.0822001-9.2004113 15.3446784-14.110459 1.6666623-1.5745034 3.4123883-4.0263656 5.0806318-4.8167789 2.8083418-1.3152478 6.7488755-1.3152478 10.0837813-1.9317702 3.2479359-.6149416 6.3962515-1.5713417 9.8149648-1.933351-1.1353543 16.307808 25.6814635 17.2721123 25.4189721.5311577v-.7904133c3.1578032.6181032 7.2801833 1.3152478 10.6056015 1.933351 3.5056834.7003062 7.5395122 1.0559922 10.0837813 2.1910258 1.843765.7904133 3.678042 3.2391139 5.257735 4.8104556 5.082213 4.8294255 10.167588 9.4723135 15.426904 14.1167823" fill="#fff"/><path d="m122.184215 53.2421155c-4.737495 5.6071922-10.257721 10.2532418-15.162832 15.6011785-3.598978-2.2842945-6.578098-5.2609912-10.3478538-7.4504361v53.3655471c-2.7008152 0-5.7969487.058491-8.5989654-.275064-1.6524309-.197603-3.8488198-1.533402-3.8488198-1.533402l-16.8057751-16.7599242-.0664135-53.0999683s12.5031298 1.2662422 13.4566378-12.1091323v-.7904134c3.1578032.6181033 7.2801833 1.3152478 10.6056015 1.9333511 3.5056834.7003062 7.5395122 1.0559922 10.0837813 2.1878641 1.843765.7904133 3.678042 3.2422755 5.257735 4.8136172 5.082213 4.8262639 10.167588 9.4723135 15.426904 14.1167823" fill="#d5dfe2"/><path d="m.62618432.69398291 16.98129648 17.32744129.0031625 23.4389172s-2.890568.0110658-4.8719037-.0252933c-1.9813358-.036359-2.4999935.0584906-5.20713377-.583325-3.32067442-.7904133-7.07145523-5.9154534-7.07145523-5.9154534z" fill="url(#l)" mask="url(#ab)" transform="translate(79.063677 73.298854)"/></g><path d="m1.13219185 3.47149539c-.10278278-.71927614-.06166967-1.33579854-.16287118-1.98551831-.00474382.56909761.04111312 1.25043391.16287118 1.98551831m.08064495.44737395c-.0300442-.15175936-.05692585-.30035707-.08064495-.44737395.02055655.14385523.04585693.29245294.08064495.44737395m2.11890653 4.75986914c.30360452.37781758 2.17741365 2.39969492 2.17741365 2.39969492l34.65677202 34.4746682s3.3712751 3.6627755 6.4373645 4.6413072c2.1062563.6765938 3.8061254.6390398 3.8061254.6390398s-10.0442495.037554-10.2340023-12.4652042c-.1027828-6.7880698-.0015813-28.1908822-.0015813-28.1908822s-26.8136552-.1059154-27.7987886-.1059154c-4.7106139 0-8.7191423-1.04018397-10.59927652-4.64604963-.29411688-.56593595-.46331315-1.05915388-.56293338-1.50652783.31309216 1.5697609.95983303 3.32764017 2.11890653 4.75986914" fill="url(#r)" mask="url(#ac)" transform="translate(319.531838 306.203175)"/><g transform="translate(807.114094 241.939597)"><path d="m136.744382 83.6132125c0 29.5235195-23.940481 53.4572355-53.4707641 53.4572355h-29.4354067c-29.528702 0-53.46918321-23.933716-53.46918321-53.4572355v-29.423927c0-29.5235191 23.94048121-53.45881585 53.46918321-53.45881585h29.4354067c29.5302831 0 53.4707641 23.93529675 53.4707641 53.45881585z" fill="#2ebb98"/><path d="m89.5158946 1.34686433 62.7148894 62.71613697-84.9381076 49.0736027-11.8089507 9.154567 3.3839253 19.19914-66.4245572-20.084403 60.4552496-5.921776-52.4081486-52.0819163 4.78177115-47.1054734 54.14280565 5.5392166z" fill="url(#s)" fill-opacity=".2" mask="url(#ad)" transform="translate(23.169095 37.389524)"/><path d="m24.0229825 101.983683h89.1711765v-62.2197571h-89.1711765z" fill="#b57237"/><path d="m23.2576461 100.836003h89.1711769v-62.2197573h-89.1711769z" fill="#f19a41"/><path d="m67.8969979 97.4214174h40.7525811v-55.0633549h-40.7525811z" fill="#dae5e5"/><path d="m104.461102 46.6089054 4.187212 5.3669066v45.349175l-40.7525811.0964304z" fill="#a9c2c4"/><path d="m105.989877 93.2432925-36.9464558 4.1781249.7637551-53.9188364 36.1827007-1.2472723z" fill="#0c343d" fill-opacity=".2"/><path d="m104.461102 89.4240153-36.5653691 7.9974021v-55.0633549l36.5653691-7.9974022z" fill="#dae5e5"/><path d="m100.27468 49.4001711 4.185631 5.1218784v34.9014915l-36.5653688 7.9974022z" fill="#0c343d" fill-opacity=".2"/><path d="m101.803456 85.9659569-33.1434936 11.4546701 1.1480045-52.5103198 31.9954891-10.5504373z" fill="#0c343d" fill-opacity=".2"/><path d="m100.27468 82.1466796-32.3797378 15.2739474v-55.0633549l32.3797378-15.2739474z" fill="#d8e2e5"/><path d="m27.1444164 97.4214174h40.7525815v-55.0633549h-40.7525815z" fill="#b6c0c1"/><path d="m30.0809995 93.255781 36.5653691 4.1654784-.7637551-53.9188365-35.801614-.483733z" fill="#0c343d" fill-opacity=".2"/><path d="m31.3302056 89.4240153 36.5653691 7.9974021v-55.0633549l-36.5653691-7.9974022z" fill="#c0cece"/><path d="m34.4619178 86.5279408 32.5805599 10.8934766-1.1464234-52.5103198-31.4341365-9.8643585z" fill="#0c343d" fill-opacity=".2"/><path d="m35.5196317 82.1466796 32.3765755 15.2739474v-55.0633549l-32.3765755-15.2739474z" fill="#fff"/></g><g transform="translate(982.818792 241.939597)"><path d="m136.721704 83.6132125c0 29.5235195-23.940482 53.4572355-53.472346 53.4572355h-29.4338255c-29.5302832 0-53.46918318-23.933716-53.46918318-53.4572355v-29.423927c0-29.5235191 23.93889998-53.45881585 53.46918318-53.45881585h29.4338255c29.531864 0 53.472346 23.93529675 53.472346 53.45881585z" fill="#ff523c"/><path d="m78.4991619 1.08760876 70.4599671 70.65504854-85.6591683 48.4902777-11.810532 9.151406 3.3870879 19.197559-66.4277197-20.081242 57.6674644-3.198012-45.36673765-44.5635041 31.95911935-22.6374381 13.4076183-34.8714557z" fill="url(#t)" fill-opacity=".2" mask="url(#ae)" transform="translate(29.310853 27.904564)"/><path d="m105.387978 73.1527243-20.7858405-20.7799667-10.9819447-20.6123991-24.2741299 24.2688512-15.5723818 10.343349 27.3402194 27.3309125 4.5176985 11.3930178 23.575207-24.7778773z" fill="#fff"/><path d="m1.11954166 27.5569707c0 3.4351364 1.52751023 5.536055 3.43768866 8.0179529 1.90859715 2.4787363 6.87379608 3.2454372 6.87379608 3.2454372h28.0707677l-38.38225244-38.56742853z" fill="url(#u)" mask="url(#af)" transform="translate(27.729579 29.485391)"/><path d="m12.0682796.97537006c-3.43768867 0-5.53761992 1.5286594-8.02180063 3.43671721-2.48259945 1.91121945-3.24635456 6.87343443-3.24635456 6.87343443v28.0659969l38.57674909-38.37614854z" fill="url(#v)" mask="url(#ag)" transform="translate(68.842691 27.904564)"/><path d="m69.6426574 67.2554504v-28.0659969s.7637551-4.962215 3.2479358-6.8734344c2.4825995-1.9080578 4.5825307-3.4351364 8.0202194-3.4351364h27.3085934s-22.5821668.1438552-24.5619213.3477819c-4.901948.510607-6.7678507 2.8755237-8.9120576 6.3517616-3.3080243 5.3621641-5.1027697 31.6750242-5.1027697 31.6750242" fill="#0c313a" fill-opacity=".2"/><path d="m.9914585.10275373 38.385415 38.56584767v-27.2992959c0-3.43829804-1.5290915-5.54079753-3.4376887-8.01953376-1.9101784-2.48189789-6.8753773-3.24701801-6.8753773-3.24701801z" fill="url(#w)" mask="url(#ah)" transform="translate(68.842691 69.006058)"/><path d="m69.8339915 69.1080212h28.072349s4.9651985.7651201 6.8769585 3.2485988c1.908597 2.4787362 3.436107 4.5812357 3.436107 8.0179529v27.2992961s-.145477-22.575786-.349461-24.554981c-.50917-4.8989818-2.876337-6.7643573-6.353557-8.9095391-5.3636799-3.3070895-31.6823965-5.1013277-31.6823965-5.1013277" fill="#0c313a" fill-opacity=".2"/><path d="m.99303978 39.5269903h27.31017512c3.4361074 0 5.5376199-1.5254977 8.0170568-3.4367172 2.4825995-1.9080578 3.2463546-6.8734344 3.2463546-6.8734344v-28.0612544z" fill="url(#x)" mask="url(#ai)" transform="translate(29.310853 69.006058)"/><g transform="translate(27.729579 29.485391)"><path d="m41.1486905 40.6754609v28.0628353s-.7637552 4.9653766-3.2463546 6.8734344c-2.4810182 1.9112194-4.5809494 3.4351363-8.0186381 3.4351363h-27.31017513s22.58216733-.1438552 24.56350303-.3477818c4.8987854-.510607 6.7662694-2.8755238 8.9088951-6.3517616 3.3111867-5.3621641 5.1027697-31.6718626 5.1027697-31.6718626" fill="#0c313a" fill-opacity=".2"/><path d="m39.5024266 38.8198866h-28.0707677s-4.96519892-.7651202-6.87537735-3.2454372c-1.91017842-2.4818979-3.43610738-4.5812357-3.43610738-8.0179529v-27.30245765s.14231462 22.57578585.34946145 24.55498085c.51075135 4.9021435 2.87317401 6.767519 6.3503945 8.9095392 5.36684238 3.3070894 31.68239648 5.1013277 31.68239648 5.1013277" fill="#0c313a" fill-opacity=".2"/><path d="m49.6355436 41.8425853c0 3.9093843-3.1688721 7.077361-7.076199 7.077361s-7.0746178-3.1679767-7.0746178-7.077361c0-3.9062228 3.1672909-7.0741994 7.0746178-7.0741994s7.076199 3.1679766 7.076199 7.0741994" fill="#020202" opacity=".2"/></g><path d="m.74952365 7.12004337c0 3.90938443 3.16570961 7.07419943 7.07461778 7.07419943s7.07778037-3.164815 7.07778037-7.07419943c0-3.90622273-3.1688722-7.0741994-7.07778037-7.0741994s-7.07461778 3.16797667-7.07461778 7.0741994" fill="url(#c)" mask="url(#aj)" transform="translate(60.936323 62.682751)"/><path d="m72.0793999 69.8026364c0 1.8305973-1.4848158 3.3165744-3.3190931 3.3165744-1.8326961 0-3.3175119-1.4859771-3.3175119-3.3165744 0-1.8337589 1.4848158-3.3165744 3.3175119-3.3165744 1.8342773 0 3.3190931 1.4828155 3.3190931 3.3165744" fill="#020202"/></g><g transform="translate(473.770492 489)"><path d="m51.1936265 80.7632292c-4.5439024-.4536901-9.1242223-2.8227775-12.5093882-7.9453515l3.9032867-2.5621119c4.5256937 6.8465965 11.3258217 6.7921537 15.7737145 4.6622847 4.639912-2.2206069 8.3544902-7.4438177 6.1909636-14.1105879l4.4462375-1.4303613c3.0143703 9.2866246-2.3522351 16.7436405-8.6143782 19.7429448-2.7544822 1.318176-5.9658377 1.9648907-9.1904359 1.6431831" fill="#56385e"/><path d="m62.6492267 63.5596294c8.1558497-4.1046584 27.642487-14.4801392 27.642487-14.4801392l-35.1842063-41.57781349-47.84588565 63.89111899 11.64530185 14.1749295s42.1614554-21.2096012 43.7423031-22.0080958" fill="#ff523c"/><path d="m50.7013435 36.3694507c8.157505-4.1046583 27.6441423-14.4801392 27.6441423-14.4801392l-18.0233187-21.29703965-59.5441583 50.26391725 6.18268692 7.5213575s42.15980008-21.2096012 43.74064778-22.0080959" fill="url(#y)" fill-opacity=".12" mask="url(#ak)" transform="translate(11.947221 27.190344)"/><g fill="url(#c)"><path d="m.93029988 8.09713151 8.0482527 9.78980819 7.27686522-3.3226616-10.42531784-13.27909769z" mask="url(#al)" transform="translate(.359856 71.734466)"/><path d="m.45504198 5.49849247 35.92248702 42.10904333 6.0585366-2.9234142-37.85095564-44.49792813z" mask="url(#am)" transform="translate(55.986006 .144045)"/></g></g><g transform="translate(1034.42623 497.805825)"><g transform="translate(4.17433 5.18626)"><path d="m59.3739896 16.6750096-24.9144902 24.8308733-16.2901799-16.2338578 24.9144902-24.83087331z" fill="#efca2b"/><path d="m25.6027797 58.8766057-24.91449022-24.8308733 16.28686922-16.2338578 24.9144902 24.8308733z" fill="#ff3e34"/><path d="m59.706878 51.887633-24.9161455 24.8308733-16.2868692-16.2371573 24.9128348-24.8275738z" fill="#4cb19c"/><path d="m61.6209452 59.3212221-24.9144902-24.8308734 16.2868693-16.2305582 24.9144902 24.8275738z" fill="#3f6072"/></g><path d="m.50818873 29.0955606c0 3.5882765 1.60236705 5.7775376 3.60035985 8.3693456 1.9979928 2.5901582 7.19575372 3.387003 7.19575372 3.387003h29.3888684l-40.18498197-40.2464391z" fill="url(#z)" mask="url(#an)" transform="translate(.863655 1.886695)"/><path d="m11.9697481 1.35777083c-3.59704918 0-5.7969932 1.5936897-8.39421831 3.58497693-2.60053579 1.99128723-3.3967533 7.17325344-3.3967533 7.17325344v29.2902349l40.38031191-40.04846527z" fill="url(#A)" mask="url(#ao)" transform="translate(43.902439 .236913)"/><path d="m44.0802223 41.6426543v-29.2902349s.7978729-5.18196623 3.3984086-7.17325346c2.5972252-1.99128724 4.7955138-3.58497694 8.3942184-3.58497694h28.5893402s-23.6415354.15013019-25.7140184.36625167c-5.1315473.53287969-7.084846 2.99765444-9.3278288 6.62552571-3.4646222 5.59936112-5.34012 33.05668792-5.34012 33.05668792" fill="#020202" fill-opacity=".2"/><path d="m.3757617.447091 40.1833267 40.2464391v-28.4917402c0-3.58497696-1.6007118-5.77588785-3.5987046-8.36769584s-7.1957537-3.38700306-7.1957537-3.38700306z" fill="url(#B)" mask="url(#ap)" transform="translate(43.902439 43.131253)"/><path d="m44.2790284 43.5791687h29.3872131s5.1994162.7951951 7.197409 3.3870031c1.9979928 2.5901582 3.5970492 4.7810691 3.5970492 8.3676958v28.4917403s-.1489804-23.5588912-.3658296-25.6277182c-.5330188-5.1126754-3.0077489-7.0594185-6.6478369-9.2948735-5.6182167-3.4546441-33.1680048-5.3238475-33.1680048-5.3238475" fill="#020202" fill-opacity=".2"/><path d="m.3757617 41.5893619h28.5893403c3.5987045 0 5.7969932-1.5920399 8.3958736-3.5866267 2.6005358-1.9912872 3.400064-7.1716036 3.400064-7.1716036v-29.28858515z" fill="url(#C)" mask="url(#aq)" transform="translate(2.518992 43.131253)"/><g fill="#020202" transform="translate(.863655 1.886695)"><path d="m42.4163774 42.7880937v29.2869354s-.7995281 5.1819662-3.4017193 7.1732534c-2.5972251 1.9945868-4.7955138 3.5849769-8.3942183 3.5849769h-28.58934024s23.63988004-.1468306 25.71401844-.3629521c5.1315473-.5328796 7.084846-2.9976544 9.3294842-6.6255257 3.4629668-5.5993611 5.3417752-33.0566879 5.3417752-33.0566879" fill-opacity=".2"/><path d="m40.6931707 40.8514143h-29.3888684s-5.19941625-.7951951-7.19740906-3.387003c-1.9979928-2.5901583-3.59704918-4.7810691-3.59704918-8.3676959v-28.49174023s.15063575 23.55889123.36582967 25.62771823c.53467413 5.1093757 3.0077489 7.0594184 6.64783687 9.2948734 5.6182167 3.4546442 33.1696601 5.3238475 33.1696601 5.3238475" fill-opacity=".2"/><path d="m51.2992515 44.0092626c0 4.0766121-3.3172971 7.3827758-7.4092923 7.3827758-4.0903398 0-7.4059816-3.3061637-7.4059816-7.3827758 0-4.0799116 3.3156418-7.3827758 7.4059816-7.3827758 4.0919952 0 7.4092923 3.3028642 7.4092923 7.3827758" opacity=".2"/></g><path d="m.12083966 7.76882484c0 4.07661206 3.31729709 7.38112596 7.40929229 7.38112596 4.09033985 0 7.40598165-3.3045139 7.40598165-7.38112596s-3.3156418-7.381126-7.40598165-7.381126c-4.0919952 0-7.40929229 3.30451394-7.40929229 7.381126" fill="url(#D)" mask="url(#ar)" transform="translate(35.62575 36.532124)"/><path d="m46.6296082 44.3009485c0 1.9137474-1.5560176 3.4612432-3.4745542 3.4612432s-3.4712435-1.5474958-3.4712435-3.4612432c0-1.9104479 1.5527069-3.4612433 3.4712435-3.4612433s3.4745542 1.5507954 3.4745542 3.4612433" fill="#020202"/></g><path d="m.06389604 23.1336754c.29630548-1.4386102.49163535-2.9085662.90381448-4.3174803 2.95808876-10.06202225 12.90997998-17.91168642 23.42634148-18.37527524 5.5089644-.242518 10.4302839 1.31157692 14.0670612 5.67690088 3.7460295 4.49235716 4.2740823 9.67927276 2.8968412 15.17964696-.1903638.75725-.4370092 1.4980023-.6853099 2.3492899 8.8345382-3.1345863 17.4770572-2.9580596 25.9573531.4289434-.4287325-2.0275824-.9865814-4.0023718-1.2547461-6.016756-.974994-7.3910247 3.2957777-14.22607274 10.3210316-16.62980555 3.3007437-1.1268013 6.6726669-1.23073759 10.112459-.6797103 10.2928908 1.65638142 19.3724189 10.52066175 21.1370089 20.70971715 1.385518 8.0063935-2.797521 15.2835832-10.2746818 17.815999-3.4695882 1.1762948-7.0103559 1.2620835-10.5858857.5378291-.725038-.1484804-1.4451099-.3217076-2.2976089-.5097828.2267813.4454413.3707957.7292038.5164654 1.0129664 2.9978169 5.8220817 4.2922911 11.9922675 3.8321071 18.5270552-1.0776249 15.3182286-12.0376169 28.1469357-27.04491 31.5966305-1.8142503.4190447-3.6682287.6351662-5.5056537.9486249h-5.0289165c-1.1719792-.1814761-2.3439584-.3481041-3.5126269-.5477278-22.3139544-3.758204-35.2785606-27.8186291-26.1179208-48.4656545.3840383-.8710851.6339944-2.6330526.387349-2.5819093-2.3538904.4800866-4.7144022.5774238-7.1080208.3134586-6.50216711-.7193051-11.78766091-5.0598823-13.48603756-11.1855239-.29796082-1.0723585-.44197521-2.1843118-.6555138-3.2797673z" fill="#8225ea" mask="url(#as)" transform="translate(654.562175 497.392956)"/><path d="m.52787685 21.4139423c4.79220312-.1550795 9.53640145.9634728 13.78730905 2.6610988-.4303878-2.0259326-.9882367-4.0023718-1.2547461-6.0151062-.9766493-7.3926745 3.2941224-14.22607277 10.3193763-16.62980558 3.302399-1.12845109 6.6743222-1.23073759 10.1141143-.6797103 10.2928909 1.65473164 19.3724191 10.51901188 21.1353539 20.70806738 1.3855178 8.0080433-2.7958657 15.2835832-10.2746821 17.815999-3.4679329 1.1762948-7.0103559 1.2637333-10.5842303.5378291-.7266934-.1484804-1.44511-.3217076-2.2992643-.508133.2284366.4437915.372451.727554.5181207 1.0113166 2.9961615 5.8220817 4.2906358 11.9939173 3.8321072 18.5270552-1.077625 15.3198784-12.037617 28.1469357-27.04656541 31.5982803-1.81259496.4190447-3.66822871.6351662-5.50565374.946975h-2.64026389z" fill="url(#E)" fill-opacity=".2" mask="url(#at)" transform="translate(706.877649 497.392956)"/><path d="m71.9194642 1.92364616c.2863735 18.24824194-29.0313155 17.19403114-27.7881567-.57577402-3.7377529.3909984-7.1808557 1.43201103-10.7299001 2.10677199-3.6450539.66981161-7.9538984.66981161-11.0228948 2.10347243-1.8258377.85953658-3.7327869 3.53053411-5.5553139 5.24630774-5.7539544 5.3551933-11.40527787 10.6971884-16.7751939 15.3792705 5.18286285 6.1107937 11.1205598 11.4643372 16.7751939 17.0043062 3.6417433-2.4911713 7.4705398-6.2097806 11.0195842-7.8331664 0 2.0556288-.0744902 4.7431241.1870532 6.4918934.1903638 1.2835306.8227029 2.3129947.8227029 2.3129947l1.4881487 2.1282192 46.4934746 45.514194s3.2477729 1.2917796 5.0669892 1.3363237c3.7592723.0940376 4.4065094.0940376 7.3596322.0940376v-58.1597753c4.1217913 2.3822856 7.3778409 5.6257576 11.3109233 8.1185786 5.36164-5.8303306 11.397002-10.8951623 16.576554-17.0043061-5.748989-5.0615321-11.309269-10.1230642-16.864582-15.3825701-1.7281732-1.71577363-3.7344427-4.38677116-5.7473335-5.24630774-2.782623-1.23733672-7.1924431-1.62338578-11.0228949-2.39053455-3.6367773-.67146139-8.1426069-1.43036125-11.5939864-2.10347243z" fill="url(#F)" mask="url(#au)" transform="translate(280.455818 491.44361)"/><g transform="translate(336.737305 491.44361)"><path d="m60.8667733 26.2708033c-5.1778969 6.1091439-11.2132587 11.170676-16.5765534 17.0043062-3.9330828-2.4944709-7.1891323-5.7362931-11.3109236-8.1202285v58.1581256c-2.9531228 0-6.3382887.067641-9.4006638-.2969609-1.8076289-.2128219-4.2078688-1.6761788-4.2078688-1.6761788l-18.37259497-18.26309-.07117953-57.8710634s13.6681248 1.3825175 14.7093323-13.1982584v-.86118636c3.4530348.67476096 7.9572091 1.4353106 11.5939864 2.10512221 3.8337625.76714877 8.2419272 1.15319783 11.0228948 2.38723499 2.0162015.86448592 4.0208157 3.53218389 5.7489884 5.24630766 5.5553139 5.2611558 11.1155938 10.3243377 16.8645822 15.3858697" fill="#000" fill-opacity=".12"/><path d="m1.16866853 1.04431219 18.56461417 18.88505791.0033107 25.5402798s-3.16004.0115485-5.3268773-.0263965c-2.1635266-.0412446-2.7329628.0643415-5.69105157-.6384658-3.63015593-.856237-7.73042782-6.4440496-7.73042782-6.4440496z" fill="url(#l)" mask="url(#av)" transform="translate(13.242703 47.843687)"/></g><path d="m1.54111955 3.61302323c-.1092523-.77704746-.06455817-1.44355951-.17381047-2.14801655-.00662136.61701858.04469412 1.35282148.17381047 2.14801655m.09104358.5031836c-.03310675-.16992758-.06455817-.33820537-.09104358-.5031836.02317473.16167867.05297081.32995646.09104358.5031836m2.31581768 5.19351467c.33272291.40584645 2.38203119 2.6083058 2.38203119 2.6083058l37.8857177 37.572142s3.6864374 3.9924732 7.0368413 5.0615321c2.3025749.7358029 4.1631747.696582 4.1631747.696582s-10.9815114.0392209-11.1867733-13.5879808c-.1142183-7.3976239-.0016553-30.7255455-.0016553-30.7255455s-29.3127229-.1105354-30.3920032-.1105354c-5.14975612 0-9.53143545-1.13505027-11.58570974-5.06648148-.32279089-.6153688-.50818873-1.15319783-.61744103-1.64153339.34265494 1.71247403 1.04782887 3.62952105 2.31581768 5.19351467" fill="url(#G)" mask="url(#aw)" transform="translate(306.941224 529.388602)"/><g transform="translate(844.92603 496.392956)"><path d="m1.5692603 78.9965257h93.3494682v-64.9337814h-93.3494682z" fill="#b57237"/><path d="m.76973211 77.797134h93.34946819v-64.9337814h-93.34946819z" fill="#f19a41"/><path d="m47.5015754 74.2369038h42.6613674v-57.4685165h-42.6613674z" fill="#dae5e5"/><path d="m85.7784494 21.2054768 4.38499 5.6010109v47.3273047l-42.6613674.1039363z" fill="#a9c2c4"/><path d="m87.3788301 69.8740545-38.6769692 4.3636742.8011835-56.2740742 37.8757857-1.3016782z" fill="#0c343d" fill-opacity=".2"/><path d="m85.7784494 65.8881805-38.2763774 8.3495482v-57.4685165l38.2763774-8.34624868z" fill="#dae5e5"/><path d="m81.3975978 24.1151978 4.380024 5.3485942v36.4238936l-38.2763775 8.3495482z" fill="#0c343d" fill-opacity=".2"/><path d="m82.9948333 62.2792817-34.6942263 11.9576221 1.2034306-54.8041181 33.4907957-11.01064707z" fill="#0c343d" fill-opacity=".2"/><path d="m81.3975978 58.2965423-33.8963535 15.9401965v-57.4685165l33.8963535-15.94019656z" fill="#d8e2e5"/><path d="m4.84186325 74.2369038h42.65971215v-57.4685165h-42.65971215z" fill="#b6c0c1"/><path d="m7.91615674 69.8869228 38.27637746 4.3504759-.7978729-56.2740741-37.47850456-.5015338z" fill="#0c343d" fill-opacity=".2"/><path d="m9.22238385 65.8881805 38.27968815 8.3495482v-57.4685165l-38.27968815-8.34624868z" fill="#c0cece"/><path d="m12.5007805 62.8657793 34.1082367 11.3719494-1.1984646-54.8041181-32.9097721-10.29464157z" fill="#0c343d" fill-opacity=".2"/><path d="m13.6063806 58.2965423 33.8963535 15.9401965v-57.4685165l-33.8963535-15.94019656z" fill="#fff"/></g><path d="m74 177h66v65.6h-66z" fill="#f09a41"/><path d="m74 242.6h66v65.6h-66z" fill="#ff523c"/><path d="m74 308.2h66v65.6h-66z" fill="#e12e61"/><path d="m74 373.8h66v65.6h-66z" fill="#8225ea"/><path d="m74 439.4h66v65.6h-66z" fill="#2dba97"/><path d="m1161.08877 69.8643505h67.09482" stroke="#7c33ce" stroke-linecap="square"/><path d="m110.135649 110.088774v37.723726z" stroke="#7c33ce" stroke-linecap="square"/><path d="m1161.08877 310.864351h67.09482" stroke="#7c33ce" stroke-linecap="square"/><path d="m1161.08877 551.864351h67.09482" stroke="#7c33ce" stroke-linecap="square"/><path d="m0 0h1v1h-1z" fill="#35026e" fill-opacity=".01"/><path d="m1399 589h1v1h-1z" fill="#35026e" fill-opacity=".01"/></g></svg>