<svg height="347" viewBox="0 0 960 347" width="960" xmlns="http://www.w3.org/2000/svg"><g fill="none" fill-rule="evenodd"><path d="m480 .142857h1v1h-1z" fill="#c57a7a"/><path d="m719 271h1v1h-1z" fill="#c57a7a"/><g transform="translate(18)"><path d="m555.637671 226 20.362329 20.362329 20.362329-20.362329-20.362329-20.362329z" stroke="#ffd753" stroke-width="36.257142"/><g fill-rule="nonzero"><path d="m634 55h-37c.164812-9.9927353-8.876627-18.4938808-20-18-12.123373-.4938808-21.164812 8.0072647-21 18h-37c0-30.5968142 25.954139-55 58-55 31.045861 0 57 24.4031858 57 55z" fill="#05c9ef"/><path d="m329 263v37h-74v-74h37v37z" fill="#ff4b64"/><path d="m16 338.358562v7.641438h-16.15092314v-16.150923h7.64143804v8.509485z" fill="#ff4b64" transform="matrix(-1 0 0 -1 16 676)"/></g><g fill="#9110ff" transform="translate(853 69)"><path d="m7 0h7v21h-7z"/><path d="m7 0h7v21h-7z" transform="matrix(0 1 -1 0 21 0)"/></g><g fill="#9110ff" transform="translate(371 98)"><path d="m28 0h35v89h-35z"/><path d="m27.8534483-.85344828h35.2931034v90.99999998h-35.2931034z" transform="matrix(0 1 -1 0 90.146552 -.853448)"/></g></g><g fill="#fff"><path d="m240 226h1v1h-1z" fill-opacity=".01"/><path d="m359 299h1v1h-1z" fill-opacity=".01"/><path d="m0 345h1v1h-1z" fill-opacity=".01"/><path d="m947 0h1v1h-1z" opacity=".01"/><path d="m0 330h1v1h-1z" fill-opacity=".01"/><path d="m119 345h1v1h-1z" fill-opacity=".01"/><path d="m840 69h1v1h-1z" fill-opacity=".01"/><path d="m959 89h1v1h-1z" fill-opacity=".01"/><path d="m360 98h1v1h-1z" fill-opacity=".01"/></g></g></svg>